M48
;DRILL file {KiCad 4.0.2-stable} date Sat Jun 11 16:58:18 2016
;FORMAT={-:-/ absolute / inch / decimal}
FMAT,2
INCH,TZ
T1C0.016
T2C0.030
T3C0.032
T4C0.032
T5C0.040
T6C0.045
T7C0.120
%
G90
G05
M72
T1
X3.9709Y-4.7201
X4.1673Y-2.8811
X4.1681Y-2.8399
X4.2949Y-4.8154
X4.3118Y-2.9311
X4.3335Y-3.8
X4.3668Y-5.0218
X4.3932Y-5.1135
X4.4762Y-4.7808
X4.5213Y-2.9126
X4.6271Y-3.3327
X4.6511Y-3.3114
X4.6751Y-3.3671
X4.6751Y-3.3986
X4.7654Y-3.6811
X4.9205Y-4.0747
X4.9217Y-3.6996
X5.1102Y-2.9181
X5.1319Y-3.6571
X5.1984Y-3.4154
X5.2539Y-3.7969
X5.2591Y-3.4075
X5.3705Y-4.6724
X5.4965Y-4.4323
X5.528Y-4.6402
X5.5685Y-2.9681
X5.9287Y-4.6551
X5.9528Y-3.6089
X6.0035Y-3.3646
X6.0539Y-3.2386
X6.0679Y-4.663
X6.1413Y-4.7106
X6.1894Y-3.3205
X6.2484Y-3.2315
X6.2831Y-3.4071
X6.3327Y-3.3039
X6.4433Y-3.7193
X6.4563Y-3.6878
X6.7069Y-4.2587
X6.7394Y-4.7008
X6.7406Y-3.9134
X6.7524Y-3.6654
X6.8138Y-4.3008
X6.8249Y-4.163
X6.902Y-4.9524
X6.9094Y-5.054
X7.035Y-3.9894
X7.0972Y-4.7232
X7.1232Y-4.5744
X7.1425Y-4.2516
X7.4331Y-3.9953
X7.4902Y-4.3984
X7.5752Y-1.8654
T2
X4.8425Y-3.4276
X4.8425Y-3.5063
X4.8425Y-3.585
X4.8425Y-3.6638
X4.8425Y-3.7425
X4.8425Y-3.8213
X4.8425Y-3.9
X4.8425Y-3.9787
X4.8425Y-4.0575
X4.8425Y-4.1362
X4.8425Y-4.215
X4.8425Y-4.2937
X4.8425Y-4.3724
X5.Y-3.4669
X5.Y-3.5457
X5.Y-3.6244
X5.Y-3.7031
X5.Y-3.7819
X5.Y-3.8606
X5.Y-3.9394
X5.Y-4.0181
X5.Y-4.0969
X5.Y-4.1756
X5.Y-4.2543
X5.Y-4.3331
X5.4425Y-3.4276
X5.4425Y-3.5063
X5.4425Y-3.585
X5.4425Y-3.6638
X5.4425Y-3.7425
X5.4425Y-3.8213
X5.4425Y-3.9
X5.4425Y-3.9787
X5.4425Y-4.0575
X5.4425Y-4.1362
X5.4425Y-4.215
X5.4425Y-4.2937
X5.4425Y-4.3724
X5.6Y-3.4669
X5.6Y-3.5457
X5.6Y-3.6244
X5.6Y-3.7031
X5.6Y-3.7819
X5.6Y-3.8606
X5.6Y-3.9394
X5.6Y-4.0181
X5.6Y-4.0969
X5.6Y-4.1756
X5.6Y-4.2543
X5.6Y-4.3331
X6.0425Y-3.4276
X6.0425Y-3.5063
X6.0425Y-3.585
X6.0425Y-3.6638
X6.0425Y-3.7425
X6.0425Y-3.8213
X6.0425Y-3.9
X6.0425Y-3.9787
X6.0425Y-4.0575
X6.0425Y-4.1362
X6.0425Y-4.215
X6.0425Y-4.2937
X6.0425Y-4.3724
X6.2Y-3.4669
X6.2Y-3.5457
X6.2Y-3.6244
X6.2Y-3.7031
X6.2Y-3.7819
X6.2Y-3.8606
X6.2Y-3.9394
X6.2Y-4.0181
X6.2Y-4.0969
X6.2Y-4.1756
X6.2Y-4.2543
X6.2Y-4.3331
T3
X4.7059Y-3.0118
X4.7059Y-3.1118
X4.9559Y-3.0118
X4.9559Y-3.1118
X5.2059Y-3.0118
X5.2059Y-3.1118
X5.4559Y-3.0118
X5.4559Y-3.1118
X5.7059Y-3.0118
X5.7059Y-3.1118
X5.9559Y-3.0118
X5.9559Y-3.1118
X6.2059Y-3.0118
X6.2059Y-3.1118
X6.4559Y-3.0118
X6.4559Y-3.1118
X6.7059Y-3.0118
X6.7059Y-3.1118
T4
X5.025Y-5.025
X5.125Y-5.025
X5.1606Y-4.565
X5.225Y-5.025
X5.325Y-5.025
X5.425Y-5.025
X5.4606Y-4.565
X5.575Y-5.025
X5.675Y-5.025
X5.6756Y-4.563
X5.775Y-5.025
X5.875Y-5.025
X5.975Y-5.025
X5.9756Y-4.563
X6.125Y-5.025
X6.225Y-5.025
X6.2256Y-4.565
X6.325Y-5.025
X6.425Y-5.025
X6.525Y-5.025
X6.5256Y-4.565
X6.65Y-3.365
X6.65Y-3.465
X6.65Y-3.565
X6.65Y-3.665
X6.65Y-3.765
X6.65Y-3.865
X6.65Y-3.965
X6.65Y-4.065
X6.65Y-4.165
X6.65Y-4.265
X6.65Y-4.365
X6.65Y-4.465
X6.65Y-4.565
X6.65Y-4.665
X6.65Y-4.765
X6.95Y-3.365
X6.95Y-3.465
X6.95Y-3.565
X6.95Y-3.665
X6.95Y-3.765
X6.95Y-3.865
X6.95Y-3.965
X6.95Y-4.065
X6.95Y-4.165
X6.95Y-4.265
X6.95Y-4.365
X6.95Y-4.465
X6.95Y-4.565
X6.95Y-4.665
X6.95Y-4.765
X7.525Y-3.05
X7.525Y-3.15
X7.525Y-3.25
X7.525Y-3.35
X7.525Y-3.45
X7.525Y-3.6
X7.525Y-3.7
X7.525Y-3.8
X7.525Y-3.9
X7.525Y-4.
X7.525Y-4.15
X7.525Y-4.25
X7.525Y-4.35
X7.525Y-4.45
X7.525Y-4.55
T5
X3.961Y-2.6421
X3.961Y-2.7421
X3.961Y-2.8421
X3.961Y-2.9421
X3.961Y-3.0421
X3.961Y-3.1421
X3.961Y-3.2421
X3.961Y-3.3421
X3.961Y-3.4421
X3.961Y-3.5421
X3.961Y-3.6421
X3.961Y-3.7421
X3.961Y-3.8421
X3.961Y-3.9421
X3.961Y-4.0421
X3.961Y-4.1421
X3.961Y-4.2421
X3.961Y-4.3421
X3.961Y-4.4421
X3.961Y-4.5421
X4.061Y-2.6421
X4.061Y-2.7421
X4.061Y-2.8421
X4.061Y-2.9421
X4.061Y-3.0421
X4.061Y-3.1421
X4.061Y-3.2421
X4.061Y-3.3421
X4.061Y-3.4421
X4.061Y-3.5421
X4.061Y-3.6421
X4.061Y-3.7421
X4.061Y-3.8421
X4.061Y-3.9421
X4.061Y-4.0421
X4.061Y-4.1421
X4.061Y-4.2421
X4.061Y-4.3421
X4.061Y-4.4421
X4.061Y-4.5421
T6
X4.3039Y-2.6799
X4.4039Y-2.6799
X4.5039Y-2.6799
X4.7539Y-2.6799
X4.8539Y-2.6799
X4.9539Y-2.6799
X5.2039Y-2.6799
X5.3039Y-2.6799
X5.4039Y-2.6799
X5.6539Y-2.6799
X5.7539Y-2.6799
X5.8539Y-2.6799
X6.1039Y-2.6799
X6.2039Y-2.6799
X6.3039Y-2.6799
X6.5539Y-2.6799
X6.6539Y-2.6799
X6.7539Y-2.6799
X7.0039Y-2.6799
X7.1039Y-2.6799
X7.2039Y-2.6799
T7
X4.Y-2.
X4.Y-5.
X4.4039Y-2.0299
X4.8539Y-2.0299
X5.3039Y-2.0299
X5.7539Y-2.0299
X6.2039Y-2.0299
X6.6539Y-2.0299
X7.1039Y-2.0299
X7.5Y-2.
X7.5Y-5.
T0
M30
