0
SECTION
2
HEADER
0
ENDSEC
0
SECTION
2
TABLES
0
TABLE
2
LAYER
0
ENDTAB
0
ENDSEC
0
SECTION
2
ENTITIES
0
CIRCLE
8
0
10
0.875
20
-1.50441
40
0.2125
0
LINE
8
0
10
6.375
20
-1.71691
11
5.875
21
-1.71691
0
LINE
8
0
10
6.375
20
-1.29191
11
5.875
21
-1.29191
0
LINE
8
0
10
6.375
20
-1.29191
11
6.875
21
-1.29191
0
LINE
8
0
10
6.375
20
-1.71691
11
6.875
21
-1.71691
0
ARC
8
0
10
5.875
20
-1.50441
40
0.2125
50
-270
51
-90
0
ARC
8
0
10
6.875
20
-1.50441
40
0.2125
50
-90
51
-270
0
LINE
8
0
10
0.875
20
-3.78309
11
0.375
21
-3.78309
0
LINE
8
0
10
0.875
20
-4.20809
11
0.375
21
-4.20809
0
LINE
8
0
10
0.875
20
-4.20809
11
1.375
21
-4.20809
0
LINE
8
0
10
0.875
20
-3.78309
11
1.375
21
-3.78309
0
ARC
8
0
10
0.375
20
-3.99559
40
0.2125
50
-270
51
-90
0
ARC
8
0
10
1.375
20
-3.99559
40
0.2125
50
-90
51
-270
0
LINE
8
0
10
-1.75
20
0.5
11
9
21
0.5
0
LINE
8
0
10
9
20
-6.56047
11
-1.75
21
-6.56047
0
LINE
8
0
10
-2.25
20
0
11
-2.25
21
-6.06047
0
LINE
8
0
10
9.5
20
0
11
9.5
21
-6.06047
0
CIRCLE
8
0
10
7.25
20
0
40
0.2125
0
CIRCLE
8
0
10
0
20
0
40
0.2125
0
LINE
8
0
10
7.0375
20
-5.5
11
7.0375
21
-5
0
LINE
8
0
10
7.4625
20
-5.5
11
7.4625
21
-5
0
LINE
8
0
10
7.4625
20
-5.5
11
7.4625
21
-6
0
LINE
8
0
10
7.0375
20
-5.5
11
7.0375
21
-6
0
ARC
8
0
10
7.25
20
-5
40
0.2125
50
0
51
180
0
ARC
8
0
10
7.25
20
-6
40
0.2125
50
180
51
0
0
LINE
8
0
10
0.2125
20
-5.5
11
0.2125
21
-5
0
LINE
8
0
10
-0.2125
20
-5.5
11
-0.2125
21
-5
0
LINE
8
0
10
-0.2125
20
-5.5
11
-0.2125
21
-6
0
LINE
8
0
10
0.2125
20
-5.5
11
0.2125
21
-6
0
ARC
8
0
10
0
20
-5
40
0.2125
50
0
51
180
0
ARC
8
0
10
0
20
-6
40
0.2125
50
180
51
0
0
ARC
8
0
10
9
20
0
40
0.5
50
360
51
90
0
ARC
8
0
10
9
20
-6.06047
40
0.5
50
270
51
0
0
ARC
8
0
10
-1.75
20
-6.06047
40
0.5
50
180
51
270
0
ARC
8
0
10
-1.75
20
0
40
0.5
50
90
51
180
0
LINE
8
0
10
6.375
20
-3.78309
11
5.875
21
-3.78309
0
LINE
8
0
10
6.375
20
-4.20809
11
5.875
21
-4.20809
0
LINE
8
0
10
6.375
20
-4.20809
11
6.875
21
-4.20809
0
LINE
8
0
10
6.375
20
-3.78309
11
6.875
21
-3.78309
0
ARC
8
0
10
5.875
20
-3.99559
40
0.2125
50
90
51
270
0
ARC
8
0
10
6.875
20
-3.99559
40
0.2125
50
270
51
90
0
ENDSEC
0
EOF