G04 #@! TF.FileFunction,Soldermask,Top*
%FSLAX46Y46*%
G04 Gerber Fmt 4.6, Leading zero omitted, Abs format (unit mm)*
G04 Created by KiCad (PCBNEW 4.0.4-stable) date Fri Sep  1 12:38:30 2017*
%MOMM*%
%LPD*%
G01*
G04 APERTURE LIST*
%ADD10C,0.100000*%
%ADD11C,0.254000*%
%ADD12C,1.190625*%
%ADD13R,2.178000X2.178000*%
%ADD14C,2.178000*%
%ADD15R,9.290000X9.290000*%
%ADD16C,4.210000*%
%ADD17C,1.924000*%
%ADD18R,1.924000X1.924000*%
%ADD19R,1.797000X1.797000*%
%ADD20C,1.797000*%
%ADD21C,2.432000*%
%ADD22C,5.480000*%
G04 APERTURE END LIST*
D10*
D11*
X275291049Y-158459619D02*
X275291049Y-157443619D01*
X275774859Y-157782286D02*
X275774859Y-158459619D01*
X275774859Y-157879048D02*
X275823240Y-157830667D01*
X275920002Y-157782286D01*
X276065144Y-157782286D01*
X276161906Y-157830667D01*
X276210287Y-157927429D01*
X276210287Y-158459619D01*
X276548954Y-157782286D02*
X276936002Y-157782286D01*
X276694097Y-157443619D02*
X276694097Y-158314476D01*
X276742478Y-158411238D01*
X276839240Y-158459619D01*
X276936002Y-158459619D01*
X277661715Y-158411238D02*
X277564953Y-158459619D01*
X277371430Y-158459619D01*
X277274668Y-158411238D01*
X277226287Y-158314476D01*
X277226287Y-157927429D01*
X277274668Y-157830667D01*
X277371430Y-157782286D01*
X277564953Y-157782286D01*
X277661715Y-157830667D01*
X277710096Y-157927429D01*
X277710096Y-158024190D01*
X277226287Y-158120952D01*
X278145525Y-158459619D02*
X278145525Y-157782286D01*
X278145525Y-157975810D02*
X278193906Y-157879048D01*
X278242287Y-157830667D01*
X278339049Y-157782286D01*
X278435810Y-157782286D01*
X278629334Y-157782286D02*
X279016382Y-157782286D01*
X278774477Y-158459619D02*
X278774477Y-157588762D01*
X278822858Y-157492000D01*
X278919620Y-157443619D01*
X279016382Y-157443619D01*
X279790476Y-158459619D02*
X279790476Y-157927429D01*
X279742095Y-157830667D01*
X279645333Y-157782286D01*
X279451810Y-157782286D01*
X279355048Y-157830667D01*
X279790476Y-158411238D02*
X279693714Y-158459619D01*
X279451810Y-158459619D01*
X279355048Y-158411238D01*
X279306667Y-158314476D01*
X279306667Y-158217714D01*
X279355048Y-158120952D01*
X279451810Y-158072571D01*
X279693714Y-158072571D01*
X279790476Y-158024190D01*
X280709714Y-158411238D02*
X280612952Y-158459619D01*
X280419429Y-158459619D01*
X280322667Y-158411238D01*
X280274286Y-158362857D01*
X280225905Y-158266095D01*
X280225905Y-157975810D01*
X280274286Y-157879048D01*
X280322667Y-157830667D01*
X280419429Y-157782286D01*
X280612952Y-157782286D01*
X280709714Y-157830667D01*
X281532190Y-158411238D02*
X281435428Y-158459619D01*
X281241905Y-158459619D01*
X281145143Y-158411238D01*
X281096762Y-158314476D01*
X281096762Y-157927429D01*
X281145143Y-157830667D01*
X281241905Y-157782286D01*
X281435428Y-157782286D01*
X281532190Y-157830667D01*
X281580571Y-157927429D01*
X281580571Y-158024190D01*
X281096762Y-158120952D01*
X283128761Y-157927429D02*
X283273904Y-157975810D01*
X283322285Y-158024190D01*
X283370666Y-158120952D01*
X283370666Y-158266095D01*
X283322285Y-158362857D01*
X283273904Y-158411238D01*
X283177142Y-158459619D01*
X282790095Y-158459619D01*
X282790095Y-157443619D01*
X283128761Y-157443619D01*
X283225523Y-157492000D01*
X283273904Y-157540381D01*
X283322285Y-157637143D01*
X283322285Y-157733905D01*
X283273904Y-157830667D01*
X283225523Y-157879048D01*
X283128761Y-157927429D01*
X282790095Y-157927429D01*
X283951238Y-158459619D02*
X283854476Y-158411238D01*
X283806095Y-158362857D01*
X283757714Y-158266095D01*
X283757714Y-157975810D01*
X283806095Y-157879048D01*
X283854476Y-157830667D01*
X283951238Y-157782286D01*
X284096380Y-157782286D01*
X284193142Y-157830667D01*
X284241523Y-157879048D01*
X284289904Y-157975810D01*
X284289904Y-158266095D01*
X284241523Y-158362857D01*
X284193142Y-158411238D01*
X284096380Y-158459619D01*
X283951238Y-158459619D01*
X285160761Y-158459619D02*
X285160761Y-157927429D01*
X285112380Y-157830667D01*
X285015618Y-157782286D01*
X284822095Y-157782286D01*
X284725333Y-157830667D01*
X285160761Y-158411238D02*
X285063999Y-158459619D01*
X284822095Y-158459619D01*
X284725333Y-158411238D01*
X284676952Y-158314476D01*
X284676952Y-158217714D01*
X284725333Y-158120952D01*
X284822095Y-158072571D01*
X285063999Y-158072571D01*
X285160761Y-158024190D01*
X285644571Y-158459619D02*
X285644571Y-157782286D01*
X285644571Y-157975810D02*
X285692952Y-157879048D01*
X285741333Y-157830667D01*
X285838095Y-157782286D01*
X285934856Y-157782286D01*
X286708951Y-158459619D02*
X286708951Y-157443619D01*
X286708951Y-158411238D02*
X286612189Y-158459619D01*
X286418666Y-158459619D01*
X286321904Y-158411238D01*
X286273523Y-158362857D01*
X286225142Y-158266095D01*
X286225142Y-157975810D01*
X286273523Y-157879048D01*
X286321904Y-157830667D01*
X286418666Y-157782286D01*
X286612189Y-157782286D01*
X286708951Y-157830667D01*
D12*
X267918750Y-151391964D02*
X271093750Y-156154464D01*
X271093750Y-151391964D02*
X267918750Y-156154464D01*
X272908036Y-156154464D02*
X272908036Y-151391964D01*
X274495536Y-154793750D01*
X276083036Y-151391964D01*
X276083036Y-156154464D01*
X279031250Y-156154464D02*
X278577678Y-155927679D01*
X278350893Y-155700893D01*
X278124107Y-155247321D01*
X278124107Y-153886607D01*
X278350893Y-153433036D01*
X278577678Y-153206250D01*
X279031250Y-152979464D01*
X279711607Y-152979464D01*
X280165178Y-153206250D01*
X280391964Y-153433036D01*
X280618750Y-153886607D01*
X280618750Y-155247321D01*
X280391964Y-155700893D01*
X280165178Y-155927679D01*
X279711607Y-156154464D01*
X279031250Y-156154464D01*
X281979464Y-152979464D02*
X283793750Y-152979464D01*
X282659822Y-151391964D02*
X282659822Y-155474107D01*
X282886607Y-155927679D01*
X283340179Y-156154464D01*
X283793750Y-156154464D01*
X285381251Y-156154464D02*
X285381251Y-152979464D01*
X285381251Y-151391964D02*
X285154465Y-151618750D01*
X285381251Y-151845536D01*
X285608036Y-151618750D01*
X285381251Y-151391964D01*
X285381251Y-151845536D01*
X288329465Y-156154464D02*
X287875893Y-155927679D01*
X287649108Y-155700893D01*
X287422322Y-155247321D01*
X287422322Y-153886607D01*
X287649108Y-153433036D01*
X287875893Y-153206250D01*
X288329465Y-152979464D01*
X289009822Y-152979464D01*
X289463393Y-153206250D01*
X289690179Y-153433036D01*
X289916965Y-153886607D01*
X289916965Y-155247321D01*
X289690179Y-155700893D01*
X289463393Y-155927679D01*
X289009822Y-156154464D01*
X288329465Y-156154464D01*
X291958037Y-152979464D02*
X291958037Y-156154464D01*
X291958037Y-153433036D02*
X292184822Y-153206250D01*
X292638394Y-152979464D01*
X293318751Y-152979464D01*
X293772322Y-153206250D01*
X293999108Y-153659821D01*
X293999108Y-156154464D01*
D13*
X250322080Y-89471500D03*
D14*
X245242080Y-89471500D03*
X247782080Y-89471500D03*
D15*
X247782080Y-72961500D03*
D16*
X208805780Y-57919620D03*
X161815780Y-57919620D03*
D17*
X168800780Y-60459620D03*
X171594780Y-60459620D03*
X174261780Y-60459620D03*
X177055780Y-60459620D03*
X179849780Y-60459620D03*
X182643780Y-60459620D03*
X185310780Y-60459620D03*
X188104780Y-60459620D03*
X190898780Y-60459620D03*
X193692780Y-60459620D03*
X196359780Y-60459620D03*
X199153780Y-60459620D03*
D18*
X201947780Y-60459620D03*
D17*
X170375580Y-57919620D03*
X172915580Y-57919620D03*
X175709580Y-57919620D03*
X178452780Y-57919620D03*
X181195980Y-57919620D03*
X183989980Y-57919620D03*
X186733180Y-57919620D03*
X189476380Y-57919620D03*
X192321180Y-57919620D03*
X195013580Y-57919620D03*
X197756780Y-57919620D03*
X200550780Y-57919620D03*
D16*
X272381980Y-57945020D03*
X225391980Y-57945020D03*
D17*
X232376980Y-60485020D03*
X235170980Y-60485020D03*
X237837980Y-60485020D03*
X240631980Y-60485020D03*
X243425980Y-60485020D03*
X246219980Y-60485020D03*
X248886980Y-60485020D03*
X251680980Y-60485020D03*
X254474980Y-60485020D03*
X257268980Y-60485020D03*
X259935980Y-60485020D03*
X262729980Y-60485020D03*
D18*
X265523980Y-60485020D03*
D17*
X233951780Y-57945020D03*
X236491780Y-57945020D03*
X239285780Y-57945020D03*
X242028980Y-57945020D03*
X244772180Y-57945020D03*
X247566180Y-57945020D03*
X250309380Y-57945020D03*
X253052580Y-57945020D03*
X255897380Y-57945020D03*
X258589780Y-57945020D03*
X261332980Y-57945020D03*
X264126980Y-57945020D03*
D19*
X137750000Y-57060000D03*
D20*
X140290000Y-57060000D03*
X142830000Y-57060000D03*
D19*
X296951400Y-58059320D03*
D20*
X294411400Y-58059320D03*
X291871400Y-58059320D03*
D19*
X140640000Y-147920000D03*
D20*
X140640000Y-145380000D03*
X140640000Y-142840000D03*
D19*
X299150000Y-170640000D03*
D20*
X301690000Y-170640000D03*
X304230000Y-170640000D03*
D21*
X264949580Y-93441760D03*
X270029580Y-93441760D03*
X275109580Y-93441760D03*
X280189580Y-93441760D03*
X285269580Y-93441760D03*
X264640320Y-118163780D03*
X269720320Y-118163780D03*
X274800320Y-118163780D03*
X279880320Y-118163780D03*
X284960320Y-118163780D03*
X264104800Y-143671720D03*
X269184800Y-143671720D03*
X274264800Y-143671720D03*
X279344800Y-143671720D03*
X284424800Y-143671720D03*
X263728900Y-168838660D03*
X268808900Y-168838660D03*
X273888900Y-168838660D03*
X278968900Y-168838660D03*
X284048900Y-168838660D03*
X160489000Y-169102540D03*
X155409000Y-169102540D03*
X150329000Y-169102540D03*
X145249000Y-169102540D03*
X140169000Y-169102540D03*
X142187880Y-99792860D03*
X142187880Y-104872860D03*
X142187880Y-109952860D03*
X142187880Y-115032860D03*
X142187880Y-120112860D03*
X188848100Y-169089840D03*
X183768100Y-169089840D03*
X178688100Y-169089840D03*
X173608100Y-169089840D03*
X168528100Y-169089840D03*
X142297100Y-72327840D03*
X142297100Y-77407840D03*
X142297100Y-82487840D03*
X142297100Y-87567840D03*
X142297100Y-92647840D03*
X218171440Y-169033640D03*
X213091440Y-169033640D03*
X208011440Y-169033640D03*
X202931440Y-169033640D03*
X197851440Y-169033640D03*
X165228220Y-100183680D03*
X165228220Y-105263680D03*
X165228220Y-110343680D03*
X165228220Y-115423680D03*
X165228220Y-120503680D03*
X246672780Y-169018400D03*
X241592780Y-169018400D03*
X236512780Y-169018400D03*
X231432780Y-169018400D03*
X226352780Y-169018400D03*
X165228220Y-72617060D03*
X165228220Y-77697060D03*
X165228220Y-82777060D03*
X165228220Y-87857060D03*
X165228220Y-92937060D03*
X209053280Y-131058280D03*
X203973280Y-131058280D03*
X198893280Y-131058280D03*
X193813280Y-131058280D03*
X188733280Y-131058280D03*
X188825000Y-99925600D03*
X188825000Y-105005600D03*
X188825000Y-110085600D03*
X188825000Y-115165600D03*
X188825000Y-120245600D03*
X172351520Y-131101640D03*
X167271520Y-131101640D03*
X162191520Y-131101640D03*
X157111520Y-131101640D03*
X152031520Y-131101640D03*
X188825000Y-72437720D03*
X188825000Y-77517720D03*
X188825000Y-82597720D03*
X188825000Y-87677720D03*
X188825000Y-92757720D03*
X208098480Y-148898600D03*
X203018480Y-148898600D03*
X197938480Y-148898600D03*
X192858480Y-148898600D03*
X187778480Y-148898600D03*
X172573240Y-149052720D03*
X167493240Y-149052720D03*
X162413240Y-149052720D03*
X157333240Y-149052720D03*
X152253240Y-149052720D03*
X210690320Y-99948640D03*
X210690320Y-105028640D03*
X210690320Y-110108640D03*
X210690320Y-115188640D03*
X210690320Y-120268640D03*
X210647140Y-72282960D03*
X210647140Y-77362960D03*
X210647140Y-82442960D03*
X210647140Y-87522960D03*
X210647140Y-92602960D03*
X227744420Y-146258920D03*
X232824420Y-146258920D03*
X237904420Y-146258920D03*
X242984420Y-146258920D03*
X248064420Y-146258920D03*
X265199220Y-72088400D03*
X270279220Y-72088400D03*
X275359220Y-72088400D03*
X280439220Y-72088400D03*
X285519220Y-72088400D03*
X304370740Y-116718080D03*
X304370740Y-111638080D03*
X304370740Y-106558080D03*
X304370740Y-101478080D03*
X304370740Y-96398080D03*
X304114200Y-87457280D03*
X304114200Y-82377280D03*
X304114200Y-77297280D03*
X304114200Y-72217280D03*
X304114200Y-67137280D03*
X304555740Y-150495800D03*
X304555740Y-145415800D03*
X304555740Y-140335800D03*
X304555740Y-135255800D03*
X304555740Y-130175800D03*
D20*
X224426780Y-89578180D03*
X224426780Y-81958180D03*
X240197640Y-89385140D03*
X240197640Y-81765140D03*
X224439480Y-114180620D03*
X224439480Y-106560620D03*
X239963960Y-113903760D03*
X239963960Y-106283760D03*
X224170240Y-137962640D03*
X224170240Y-130342640D03*
X239793780Y-137662920D03*
X239793780Y-130042920D03*
D13*
X235033820Y-89618820D03*
D14*
X229953820Y-89618820D03*
X232493820Y-89618820D03*
D15*
X232493820Y-73108820D03*
D13*
X234833160Y-114259360D03*
D14*
X229753160Y-114259360D03*
X232293160Y-114259360D03*
D15*
X232293160Y-97749360D03*
D13*
X250022360Y-113919000D03*
D14*
X244942360Y-113919000D03*
X247482360Y-113919000D03*
D15*
X247482360Y-97409000D03*
D13*
X234665520Y-137985500D03*
D14*
X229585520Y-137985500D03*
X232125520Y-137985500D03*
D15*
X232125520Y-121475500D03*
D13*
X249887740Y-137744200D03*
D14*
X244807740Y-137744200D03*
X247347740Y-137744200D03*
D15*
X247347740Y-121234200D03*
D22*
X150779480Y-58028840D03*
X283916120Y-58595260D03*
X142380000Y-159870000D03*
X298640500Y-161216340D03*
M02*
