M48
;DRILL file {KiCad 4.0.2-stable} date Mon Sep  5 15:29:00 2016
;FORMAT={-:-/ absolute / inch / decimal}
FMAT,2
INCH,TZ
T1C0.016
T2C0.030
T3C0.032
T4C0.039
T5C0.050
T6C0.052
T7C0.091
T8C0.156
%
G90
G05
M72
T1
X3.525Y-4.935
X3.98Y-4.99
X4.315Y-2.715
X4.315Y-3.415
X4.37Y-3.005
X4.4Y-5.0207
X4.455Y-2.15
X4.465Y-3.75
X4.485Y-5.0207
X4.58Y-5.0207
X4.67Y-5.02
X4.785Y-2.97
X4.795Y-5.01
X4.82Y-2.725
X4.83Y-2.045
X4.845Y-3.98
X4.8548Y-3.9348
X4.8703Y-4.01
X4.895Y-4.03
X4.93Y-2.495
X4.93Y-3.8
X4.955Y-2.435
X5.01Y-4.02
X5.03Y-3.89
X5.105Y-2.42
X5.19Y-2.075
X5.225Y-3.135
X5.275Y-3.9
X5.39Y-5.
X5.445Y-3.41
X5.4477Y-5.
X5.47Y-3.13
X5.505Y-5.
X5.52Y-2.42
X5.55Y-5.005
X5.57Y-2.745
X5.575Y-3.725
X5.6Y-2.065
X5.61Y-2.615
X6.Y-2.055
X6.0253Y-3.885
X6.0436Y-3.9678
X6.05Y-3.935
X6.0687Y-3.9868
X6.095Y-4.01
X6.275Y-3.145
X6.575Y-2.4197
X6.585Y-2.555
X6.6348Y-2.8052
X6.635Y-3.42
X6.65Y-2.395
X6.665Y-2.545
X6.69Y-2.4
X6.69Y-3.71
X6.705Y-2.59
X6.725Y-2.265
X6.725Y-2.39
X6.735Y-3.2
X6.74Y-2.145
X6.755Y-2.3653
X6.785Y-2.34
X6.785Y-3.62
X6.815Y-4.885
X6.845Y-5.
X6.895Y-5.015
X6.93Y-5.02
X6.945Y-4.05
X6.9789Y-5.0141
X7.175Y-3.86
X7.2Y-3.805
X7.2024Y-3.89
X7.215Y-3.925
X7.23Y-3.535
X7.23Y-3.655
X7.2403Y-3.9521
X7.26Y-4.835
X7.2696Y-3.9754
X7.29Y-4.805
X7.31Y-4.78
X7.34Y-4.75
X7.375Y-4.035
X7.4Y-3.185
X7.495Y-4.035
X7.625Y-2.32
X7.695Y-4.095
X7.7048Y-3.9702
X7.73Y-4.085
X7.735Y-2.975
X7.7468Y-3.9897
X7.755Y-2.04
X7.77Y-4.07
X7.7781Y-3.9931
X7.78Y-3.2
X7.815Y-4.065
X7.825Y-4.005
X7.93Y-5.01
X7.98Y-5.02
X8.045Y-5.01
X8.125Y-5.01
X8.37Y-2.915
X8.3954Y-3.6208
X8.4026Y-3.7014
X8.405Y-3.59
X8.4204Y-3.7662
X8.4382Y-3.8244
T2
X4.2663Y-4.2963
X4.3057Y-4.1388
X4.3451Y-4.2963
X4.3844Y-4.1388
X4.4238Y-4.2963
X4.4632Y-4.1388
X4.5026Y-4.2963
X4.5419Y-4.1388
X4.5813Y-4.2963
X4.6207Y-4.1388
X4.66Y-4.2963
X4.6994Y-4.1388
X4.7388Y-4.2963
X4.7781Y-4.1388
X4.8175Y-4.2963
X4.8569Y-4.1388
X4.8963Y-4.2963
X4.9356Y-4.1388
X4.975Y-4.2963
X5.0144Y-4.1388
X5.0537Y-4.2963
X5.0931Y-4.1388
X5.1325Y-4.2963
X5.1719Y-4.1388
X5.2112Y-4.2963
X5.4474Y-4.2963
X5.4868Y-4.1388
X5.5262Y-4.2963
X5.5656Y-4.1388
X5.6049Y-4.2963
X5.6443Y-4.1388
X5.6837Y-4.2963
X5.723Y-4.1388
X5.7624Y-4.2963
X5.8018Y-4.1388
X5.8411Y-4.2963
X5.8805Y-4.1388
X5.9199Y-4.2963
X5.9593Y-4.1388
X5.9986Y-4.2963
X6.038Y-4.1388
X6.0774Y-4.2963
X6.1167Y-4.1388
X6.1561Y-4.2963
X6.1955Y-4.1388
X6.2348Y-4.2963
X6.2742Y-4.1388
X6.3136Y-4.2963
X6.353Y-4.1388
X6.3923Y-4.2963
X6.6285Y-4.2963
X6.6679Y-4.1388
X6.7073Y-4.2963
X6.7467Y-4.1388
X6.786Y-4.2963
X6.8254Y-4.1388
X6.8648Y-4.2963
X6.9041Y-4.1388
X6.9435Y-4.2963
X6.9829Y-4.1388
X7.0222Y-4.2963
X7.0616Y-4.1388
X7.101Y-4.2963
X7.1404Y-4.1388
X7.1797Y-4.2963
X7.2191Y-4.1388
X7.2585Y-4.2963
X7.2978Y-4.1388
X7.3372Y-4.2963
X7.3766Y-4.1388
X7.4159Y-4.2963
X7.4553Y-4.1388
X7.4947Y-4.2963
X7.5341Y-4.1388
X7.5734Y-4.2963
T3
X3.5746Y-1.9577
X3.5746Y-2.0364
X3.6746Y-1.9577
X3.6746Y-2.0364
T5
X3.905Y-4.6
X3.914Y-4.754
X3.915Y-4.47
X4.255Y-4.22
X4.765Y-1.97
X4.845Y-4.51
X4.9191Y-4.3791
X5.045Y-4.86
X5.05Y-4.73
X5.055Y-4.585
X5.065Y-4.46
X5.19Y-4.215
X5.445Y-4.215
X5.485Y-4.395
X6.205Y-4.585
X6.21Y-4.725
X6.215Y-4.4566
X6.3523Y-4.3527
X6.3798Y-4.215
X6.5Y-4.955
X6.61Y-4.035
X6.6391Y-4.21
X6.64Y-4.435
X6.74Y-4.7
X7.165Y-4.815
X7.655Y-4.215
X7.96Y-1.66
X8.005Y-2.3151
X8.085Y-2.3151
X8.415Y-5.07
T6
X2.95Y-3.15
X2.95Y-3.35
X2.95Y-3.55
X2.95Y-3.75
X2.95Y-3.95
X2.95Y-4.2
X2.95Y-4.4
X2.95Y-4.6
X2.95Y-4.8
X2.95Y-5.
X3.2Y-5.45
X3.4Y-5.45
X3.6Y-5.45
X3.8Y-5.45
X4.Y-5.45
X4.25Y-5.45
X4.45Y-5.45
X4.65Y-5.45
X4.85Y-5.45
X5.05Y-5.45
X5.3Y-5.45
X5.5Y-5.45
X5.7Y-5.45
X5.9Y-5.45
X6.1Y-5.45
X6.35Y-5.45
X6.55Y-5.45
X6.75Y-5.45
X6.95Y-5.45
X7.15Y-5.45
X7.4Y-5.45
X7.6Y-5.45
X7.8Y-5.45
X8.Y-5.45
X8.2Y-5.45
T7
X3.8608Y-1.8514
T8
X2.975Y-1.875
X2.975Y-5.375
X8.475Y-1.8514
X8.475Y-5.375
T4
X4.0302Y-1.8396G85X4.0302Y-1.9183
G05
X4.2545Y-1.7609G85X4.1758Y-1.7609
G05
X4.2545Y-1.9971G85X4.1758Y-1.9971
G05
T0
M30
