G04 #@! TF.FileFunction,Copper,L2,Bot,Signal*
%FSLAX46Y46*%
G04 Gerber Fmt 4.6, Leading zero omitted, Abs format (unit mm)*
G04 Created by KiCad (PCBNEW 4.0.2-stable) date Mon Sep  5 15:28:57 2016*
%MOMM*%
G01*
G04 APERTURE LIST*
%ADD10C,0.100000*%
%ADD11O,1.060000X1.600000*%
%ADD12R,1.524000X1.778000*%
%ADD13R,3.500120X3.500120*%
%ADD14C,1.524000*%
%ADD15C,2.700020*%
%ADD16C,5.080000*%
%ADD17C,2.032000*%
%ADD18C,0.600000*%
%ADD19C,1.587500*%
%ADD20C,0.254000*%
%ADD21C,0.635000*%
G04 APERTURE END LIST*
D10*
D11*
X152365000Y-109125000D03*
X138365000Y-109125000D03*
X139365000Y-105125000D03*
X140365000Y-109125000D03*
X141365000Y-105125000D03*
X142365000Y-109125000D03*
X143365000Y-105125000D03*
X144365000Y-109125000D03*
X145365000Y-105125000D03*
X146365000Y-109125000D03*
X147365000Y-105125000D03*
X148365000Y-109125000D03*
X149365000Y-105125000D03*
X150365000Y-109125000D03*
X151365000Y-105125000D03*
X153365000Y-105125000D03*
X154365000Y-109125000D03*
X155365000Y-105125000D03*
X156365000Y-109125000D03*
X157365000Y-105125000D03*
X158365000Y-109125000D03*
X159365000Y-105125000D03*
X160365000Y-109125000D03*
X161365000Y-105125000D03*
X162365000Y-109125000D03*
D12*
X205359000Y-58803540D03*
X203327000Y-58803540D03*
D13*
X107065000Y-50725140D03*
X107065000Y-44725660D03*
X102366000Y-47725400D03*
D11*
X122365000Y-109125000D03*
X108365000Y-109125000D03*
X109365000Y-105125000D03*
X110365000Y-109125000D03*
X111365000Y-105125000D03*
X112365000Y-109125000D03*
X113365000Y-105125000D03*
X114365000Y-109125000D03*
X115365000Y-105125000D03*
X116365000Y-109125000D03*
X117365000Y-105125000D03*
X118365000Y-109125000D03*
X119365000Y-105125000D03*
X120365000Y-109125000D03*
X121365000Y-105125000D03*
X123365000Y-105125000D03*
X124365000Y-109125000D03*
X125365000Y-105125000D03*
X126365000Y-109125000D03*
X127365000Y-105125000D03*
X128365000Y-109125000D03*
X129365000Y-105125000D03*
X130365000Y-109125000D03*
X131365000Y-105125000D03*
X132365000Y-109125000D03*
X182365000Y-109125000D03*
X168365000Y-109125000D03*
X169365000Y-105125000D03*
X170365000Y-109125000D03*
X171365000Y-105125000D03*
X172365000Y-109125000D03*
X173365000Y-105125000D03*
X174365000Y-109125000D03*
X175365000Y-105125000D03*
X176365000Y-109125000D03*
X177365000Y-105125000D03*
X178365000Y-109125000D03*
X179365000Y-105125000D03*
X180365000Y-109125000D03*
X181365000Y-105125000D03*
X183365000Y-105125000D03*
X184365000Y-109125000D03*
X185365000Y-105125000D03*
X186365000Y-109125000D03*
X187365000Y-105125000D03*
X188365000Y-109125000D03*
X189365000Y-105125000D03*
X190365000Y-109125000D03*
X191365000Y-105125000D03*
X192365000Y-109125000D03*
D14*
X90795000Y-51724000D03*
X93335000Y-51724000D03*
X93335000Y-49725020D03*
X90795000Y-49725020D03*
D15*
X86065520Y-47025000D03*
X98064480Y-47025000D03*
D16*
X215265000Y-47025000D03*
X75565000Y-136525000D03*
X75565000Y-47625000D03*
X215265000Y-136525000D03*
D17*
X107950000Y-138430000D03*
X113030000Y-138430000D03*
X118110000Y-138430000D03*
X123190000Y-138430000D03*
X128270000Y-138430000D03*
X74930000Y-80010000D03*
X74930000Y-85090000D03*
X74930000Y-90170000D03*
X74930000Y-95250000D03*
X74930000Y-100330000D03*
X81280000Y-138430000D03*
X86360000Y-138430000D03*
X91440000Y-138430000D03*
X96520000Y-138430000D03*
X101600000Y-138430000D03*
X74930000Y-106680000D03*
X74930000Y-111760000D03*
X74930000Y-116840000D03*
X74930000Y-121920000D03*
X74930000Y-127000000D03*
X187960000Y-138430000D03*
X193040000Y-138430000D03*
X198120000Y-138430000D03*
X203200000Y-138430000D03*
X208280000Y-138430000D03*
X161290000Y-138430000D03*
X166370000Y-138430000D03*
X171450000Y-138430000D03*
X176530000Y-138430000D03*
X181610000Y-138430000D03*
X134620000Y-138430000D03*
X139700000Y-138430000D03*
X144780000Y-138430000D03*
X149860000Y-138430000D03*
X154940000Y-138430000D03*
D18*
X171196000Y-54483000D03*
X170815000Y-57531000D03*
D19*
X121031000Y-50038000D03*
D18*
X172339000Y-91948000D03*
D19*
X181991002Y-122301000D03*
X213741000Y-128778000D03*
X165100000Y-125857000D03*
X171196000Y-119380000D03*
X167894000Y-102489000D03*
X168656000Y-112649000D03*
X161348307Y-110559023D03*
X139319000Y-111633000D03*
X123063000Y-114554000D03*
X124945503Y-111229503D03*
D18*
X133985000Y-99060000D03*
D19*
X157861000Y-113198270D03*
D18*
X169926000Y-94234000D03*
X89535000Y-125349000D03*
X173101000Y-124079000D03*
D19*
X99415700Y-120751700D03*
X99187000Y-116840000D03*
X99441000Y-113538000D03*
X157734000Y-120015000D03*
X157607000Y-116459000D03*
X128143000Y-123444000D03*
X128270000Y-120142000D03*
X128397000Y-116459000D03*
X128651000Y-113284000D03*
D18*
X167005000Y-61460010D03*
X168523071Y-71252929D03*
X140208000Y-61468000D03*
X141478000Y-69723000D03*
X129667000Y-61468000D03*
X125222000Y-63373000D03*
X125857000Y-61849000D03*
X193675000Y-58928000D03*
X196977000Y-51816000D03*
X124333000Y-102362000D03*
X123705990Y-101854000D03*
X140970000Y-127127000D03*
X123063000Y-101092000D03*
X139827000Y-127000000D03*
X138371580Y-127000000D03*
X136906000Y-127000000D03*
X213487000Y-91186000D03*
X110998000Y-76327000D03*
X213879042Y-95662079D03*
X132715000Y-79629000D03*
X123311071Y-99943071D03*
X154812996Y-101854000D03*
X154145772Y-101263938D03*
X177265056Y-127357615D03*
X153506690Y-100782697D03*
X176022000Y-127508000D03*
X175133000Y-127381000D03*
X173863000Y-127000000D03*
X213244042Y-91968714D03*
X138938000Y-79502000D03*
X214330485Y-97140863D03*
X159385000Y-79883000D03*
X153670000Y-99949000D03*
X184647569Y-100974050D03*
X183903990Y-100383990D03*
X206375000Y-127254000D03*
X183261000Y-99695000D03*
X204343000Y-127254000D03*
X202692000Y-127508000D03*
X201422000Y-127254000D03*
X213425031Y-94014906D03*
X171069000Y-81280000D03*
X187960000Y-80899000D03*
X197612000Y-81280000D03*
X182941980Y-98806000D03*
X109601000Y-68961000D03*
X122428000Y-69215000D03*
X170307000Y-65786000D03*
X212598000Y-74041000D03*
X195701062Y-100843938D03*
X195453000Y-104013000D03*
X186436000Y-120650000D03*
X196769342Y-101339383D03*
X196342000Y-103759000D03*
X185674000Y-121412000D03*
X111760000Y-127525501D03*
X113919000Y-127525501D03*
X116332000Y-127525501D03*
X121793000Y-127254000D03*
X118618000Y-127508000D03*
X184404000Y-122809000D03*
X198501000Y-103251000D03*
X198755000Y-101727000D03*
X101092000Y-126746000D03*
X197564904Y-101423644D03*
X185166000Y-122047000D03*
X197358000Y-103378000D03*
D19*
X168633770Y-106934000D03*
X162045697Y-107061000D03*
D18*
X182880000Y-96647000D03*
X183642000Y-92837000D03*
X183642000Y-89789000D03*
X153042990Y-98679000D03*
X127254000Y-102108000D03*
X127762000Y-98806000D03*
X125222000Y-96520000D03*
D19*
X108077000Y-107188000D03*
X202184000Y-42164000D03*
X194437000Y-107061000D03*
X138303000Y-107061000D03*
X131826000Y-107061000D03*
D18*
X109601000Y-86741000D03*
X138303000Y-86614000D03*
X113411000Y-95250000D03*
X187325000Y-102489000D03*
X190373000Y-102489000D03*
X141605000Y-94615000D03*
X176403000Y-102870000D03*
X182245000Y-98044000D03*
X168529000Y-86868000D03*
X121539000Y-75438000D03*
X142494000Y-66421000D03*
X167259000Y-64897000D03*
X169291000Y-64643000D03*
X196469000Y-75565000D03*
X152400000Y-52197000D03*
X172339000Y-59436000D03*
X142240000Y-52451000D03*
X171577000Y-60078990D03*
X131826000Y-52705000D03*
X170815000Y-60706000D03*
X122682000Y-51943000D03*
X169926000Y-60960000D03*
X113157000Y-54610000D03*
X168910000Y-60833000D03*
D20*
X170815000Y-57531000D02*
X171196000Y-57150000D01*
X171196000Y-57150000D02*
X171196000Y-54483000D01*
D21*
X107065000Y-44725660D02*
X115718660Y-44725660D01*
X115718660Y-44725660D02*
X121031000Y-50038000D01*
D20*
X75565000Y-136525000D02*
X79375000Y-132715000D01*
X79375000Y-132715000D02*
X79375000Y-131699000D01*
X79375000Y-131699000D02*
X79882999Y-131191001D01*
X83692999Y-131191001D02*
X89535000Y-125349000D01*
X79882999Y-131191001D02*
X83692999Y-131191001D01*
X169926000Y-94234000D02*
X172212000Y-91948000D01*
X172212000Y-91948000D02*
X172339000Y-91948000D01*
D21*
X181610000Y-122682002D02*
X181991002Y-122301000D01*
X181610000Y-138430000D02*
X181610000Y-122682002D01*
X213741000Y-129900532D02*
X213741000Y-128778000D01*
X208280000Y-138430000D02*
X213741000Y-132969000D01*
X213741000Y-132969000D02*
X213741000Y-129900532D01*
X165100000Y-125857000D02*
X163977468Y-125857000D01*
X163977468Y-125857000D02*
X154940000Y-134894468D01*
X154940000Y-134894468D02*
X154940000Y-136993160D01*
X154940000Y-136993160D02*
X154940000Y-138430000D01*
X168656000Y-112649000D02*
X168656000Y-116840000D01*
X168656000Y-116840000D02*
X171196000Y-119380000D01*
X167894000Y-102489000D02*
X167894000Y-103654000D01*
X167894000Y-103654000D02*
X169365000Y-105125000D01*
X161348307Y-110559023D02*
X166566023Y-110559023D01*
X166566023Y-110559023D02*
X168656000Y-112649000D01*
X128651000Y-113284000D02*
X137668000Y-113284000D01*
X137668000Y-113284000D02*
X139319000Y-111633000D01*
X123063000Y-114554000D02*
X127381000Y-114554000D01*
X127381000Y-114554000D02*
X128651000Y-113284000D01*
X124365000Y-109125000D02*
X124365000Y-110649000D01*
X124365000Y-110649000D02*
X124945503Y-111229503D01*
D20*
X133985000Y-99060000D02*
X139365000Y-104440000D01*
X139365000Y-104440000D02*
X139365000Y-105125000D01*
D21*
X157607000Y-116459000D02*
X157607000Y-113452270D01*
X157607000Y-113452270D02*
X157861000Y-113198270D01*
D20*
X169365000Y-94795000D02*
X169626001Y-94533999D01*
X169365000Y-105125000D02*
X169365000Y-94795000D01*
X169626001Y-94533999D02*
X169926000Y-94234000D01*
X89535000Y-125349000D02*
X94132300Y-120751700D01*
X94132300Y-120751700D02*
X99415700Y-120751700D01*
X157734000Y-120015000D02*
X169037000Y-120015000D01*
X169037000Y-120015000D02*
X173101000Y-124079000D01*
D21*
X140462000Y-123444000D02*
X147447000Y-116459000D01*
X147447000Y-116459000D02*
X157607000Y-116459000D01*
X128143000Y-123444000D02*
X140462000Y-123444000D01*
X99415700Y-120751700D02*
X125450700Y-120751700D01*
X125450700Y-120751700D02*
X128143000Y-123444000D01*
X99187000Y-116840000D02*
X99187000Y-120523000D01*
X99187000Y-120523000D02*
X99415700Y-120751700D01*
X99441000Y-113538000D02*
X99441000Y-116586000D01*
X99441000Y-116586000D02*
X99187000Y-116840000D01*
X157607000Y-116459000D02*
X157607000Y-119888000D01*
X157607000Y-119888000D02*
X157734000Y-120015000D01*
X128270000Y-120142000D02*
X128270000Y-123317000D01*
X128270000Y-123317000D02*
X128143000Y-123444000D01*
X128397000Y-116459000D02*
X128397000Y-120015000D01*
X128397000Y-120015000D02*
X128270000Y-120142000D01*
X128651000Y-113284000D02*
X128651000Y-116205000D01*
X128651000Y-116205000D02*
X128397000Y-116459000D01*
D20*
X168523071Y-71252929D02*
X168523071Y-62978081D01*
X168523071Y-62978081D02*
X167005000Y-61460010D01*
X141478000Y-69723000D02*
X141478000Y-62738000D01*
X141478000Y-62738000D02*
X140208000Y-61468000D01*
X125222000Y-63373000D02*
X127127000Y-61468000D01*
X127127000Y-61468000D02*
X129667000Y-61468000D01*
X90795000Y-49725020D02*
X90795000Y-48647390D01*
X90795000Y-48647390D02*
X89172610Y-47025000D01*
X89172610Y-47025000D02*
X87974722Y-47025000D01*
X87974722Y-47025000D02*
X86065520Y-47025000D01*
X111125000Y-53594000D02*
X119380000Y-61849000D01*
X119380000Y-61849000D02*
X125857000Y-61849000D01*
X98298000Y-53594000D02*
X111125000Y-53594000D01*
X96266000Y-51562000D02*
X98298000Y-53594000D01*
X95108722Y-51562000D02*
X96266000Y-51562000D01*
X90952370Y-52959000D02*
X93711722Y-52959000D01*
X93711722Y-52959000D02*
X95108722Y-51562000D01*
X90795000Y-51724000D02*
X90795000Y-52801630D01*
X90795000Y-52801630D02*
X90952370Y-52959000D01*
X196977000Y-51816000D02*
X193675000Y-55118000D01*
X193675000Y-55118000D02*
X193675000Y-58928000D01*
X92837000Y-48133000D02*
X92245999Y-48724001D01*
X92245999Y-48724001D02*
X92245999Y-50634999D01*
X92245999Y-50634999D02*
X92573001Y-50962001D01*
X92573001Y-50962001D02*
X93335000Y-51724000D01*
X92837000Y-42799000D02*
X92837000Y-48133000D01*
X95831010Y-39804990D02*
X92837000Y-42799000D01*
X205359000Y-58803540D02*
X205359000Y-57660540D01*
X205359000Y-57660540D02*
X187503450Y-39804990D01*
X187503450Y-39804990D02*
X95831010Y-39804990D01*
X124333000Y-105791000D02*
X122365000Y-107759000D01*
X122365000Y-107759000D02*
X122365000Y-109125000D01*
X124333000Y-102362000D02*
X124333000Y-105791000D01*
X123705990Y-101854000D02*
X122428000Y-103131990D01*
X122428000Y-103131990D02*
X122428000Y-106299000D01*
X118618000Y-107442000D02*
X117778000Y-107442000D01*
X122428000Y-106299000D02*
X121666000Y-107061000D01*
X121666000Y-107061000D02*
X118999000Y-107061000D01*
X118999000Y-107061000D02*
X118618000Y-107442000D01*
X117778000Y-107442000D02*
X116365000Y-108855000D01*
X116365000Y-108855000D02*
X116365000Y-109125000D01*
X142113000Y-136017000D02*
X147447000Y-136017000D01*
X147447000Y-136017000D02*
X149860000Y-138430000D01*
X137795000Y-131699000D02*
X142113000Y-136017000D01*
X137795000Y-130302000D02*
X137795000Y-131699000D01*
X140970000Y-127127000D02*
X137795000Y-130302000D01*
X123063000Y-101092000D02*
X120396000Y-103759000D01*
X119707010Y-106606990D02*
X117401015Y-106606990D01*
X120396000Y-103759000D02*
X120396000Y-105918000D01*
X117401015Y-106606990D02*
X115507990Y-108500015D01*
X116010015Y-110252010D02*
X117507990Y-110252010D01*
X120396000Y-105918000D02*
X119707010Y-106606990D01*
X115507990Y-108500015D02*
X115507990Y-109749985D01*
X118365000Y-109395000D02*
X118365000Y-109125000D01*
X115507990Y-109749985D02*
X116010015Y-110252010D01*
X117507990Y-110252010D02*
X118365000Y-109395000D01*
X139446000Y-136906000D02*
X143256000Y-136906000D01*
X143256000Y-136906000D02*
X144780000Y-138430000D01*
X135582010Y-133042010D02*
X139446000Y-136906000D01*
X135582010Y-130820726D02*
X135582010Y-133042010D01*
X139827000Y-127000000D02*
X139402736Y-127000000D01*
X139402736Y-127000000D02*
X135582010Y-130820726D01*
X135128000Y-129819316D02*
X135128000Y-133858000D01*
X135128000Y-133858000D02*
X139700000Y-138430000D01*
X138371580Y-127000000D02*
X137947316Y-127000000D01*
X137947316Y-127000000D02*
X135128000Y-129819316D01*
X136906000Y-127000000D02*
X134620000Y-129286000D01*
X134620000Y-129286000D02*
X134620000Y-138430000D01*
X110998000Y-76327000D02*
X115316000Y-72009000D01*
X115316000Y-72009000D02*
X168351180Y-72009000D01*
X168351180Y-72009000D02*
X183591180Y-87249000D01*
X213062736Y-91186000D02*
X213487000Y-91186000D01*
X183591180Y-87249000D02*
X209125736Y-87249000D01*
X209125736Y-87249000D02*
X213062736Y-91186000D01*
X211130173Y-99660031D02*
X213706033Y-97084171D01*
X147574000Y-73025000D02*
X161886038Y-73025000D01*
X213706033Y-96259352D02*
X213879042Y-96086343D01*
X161886038Y-73025000D02*
X188521069Y-99660031D01*
X188521069Y-99660031D02*
X211130173Y-99660031D01*
X133215001Y-80129001D02*
X140469999Y-80129001D01*
X140469999Y-80129001D02*
X147574000Y-73025000D01*
X132715000Y-79629000D02*
X133215001Y-80129001D01*
X213879042Y-96086343D02*
X213879042Y-95662079D01*
X213706033Y-97084171D02*
X213706033Y-96259352D01*
X128056070Y-100243070D02*
X130365000Y-102552000D01*
X130365000Y-102552000D02*
X130365000Y-109125000D01*
X123311071Y-99943071D02*
X123611070Y-100243070D01*
X123611070Y-100243070D02*
X128056070Y-100243070D01*
X154512997Y-102153999D02*
X154812996Y-101854000D01*
X154477999Y-106742001D02*
X154477999Y-102188997D01*
X152365000Y-109125000D02*
X152365000Y-108855000D01*
X154477999Y-102188997D02*
X154512997Y-102153999D01*
X152365000Y-108855000D02*
X154477999Y-106742001D01*
X154178000Y-101296166D02*
X154145772Y-101263938D01*
X148159000Y-107061000D02*
X151384000Y-107061000D01*
X151384000Y-107061000D02*
X152400000Y-106045000D01*
X146365000Y-108855000D02*
X148159000Y-107061000D01*
X152400000Y-106045000D02*
X152400000Y-102958036D01*
X146365000Y-109125000D02*
X146365000Y-108855000D01*
X154178000Y-101346000D02*
X154178000Y-101296166D01*
X154012036Y-101346000D02*
X154178000Y-101346000D01*
X152400000Y-102958036D02*
X154012036Y-101346000D01*
X176530000Y-138430000D02*
X176530000Y-128092671D01*
X176530000Y-128092671D02*
X176965057Y-127657614D01*
X176965057Y-127657614D02*
X177265056Y-127357615D01*
X153206691Y-101082696D02*
X153506690Y-100782697D01*
X146050000Y-110490000D02*
X145415000Y-109855000D01*
X148365000Y-109395000D02*
X147270000Y-110490000D01*
X149679010Y-106606990D02*
X150368000Y-105918000D01*
X145415000Y-108323933D02*
X147131943Y-106606990D01*
X145415000Y-109855000D02*
X145415000Y-108323933D01*
X147131943Y-106606990D02*
X149679010Y-106606990D01*
X150368000Y-103921387D02*
X153206691Y-101082696D01*
X150368000Y-105918000D02*
X150368000Y-103921387D01*
X147270000Y-110490000D02*
X146050000Y-110490000D01*
X148365000Y-109125000D02*
X148365000Y-109395000D01*
X167513000Y-130175000D02*
X167513000Y-134493000D01*
X167513000Y-134493000D02*
X171450000Y-138430000D01*
X169479981Y-128208019D02*
X167513000Y-130175000D01*
X176022000Y-127508000D02*
X175321981Y-128208019D01*
X175321981Y-128208019D02*
X169479981Y-128208019D01*
X175133000Y-127381000D02*
X174708736Y-127381000D01*
X174708736Y-127381000D02*
X174335727Y-127754009D01*
X174335727Y-127754009D02*
X168536991Y-127754009D01*
X168536991Y-127754009D02*
X166370000Y-129921000D01*
X166370000Y-129921000D02*
X166370000Y-138430000D01*
X167848001Y-127299999D02*
X161290000Y-133858000D01*
X161290000Y-133858000D02*
X161290000Y-138430000D01*
X173863000Y-127000000D02*
X173563001Y-127299999D01*
X173563001Y-127299999D02*
X167848001Y-127299999D01*
X212690043Y-96816025D02*
X212690043Y-92522713D01*
X212690043Y-92522713D02*
X212944043Y-92268713D01*
X212944043Y-92268713D02*
X213244042Y-91968714D01*
X210754057Y-98752011D02*
X212690043Y-96816025D01*
X145923000Y-72517000D02*
X168217112Y-72517000D01*
X194452123Y-98752011D02*
X210754057Y-98752011D01*
X168217112Y-72517000D02*
X194452123Y-98752011D01*
X138938000Y-79502000D02*
X145923000Y-72517000D01*
X214030486Y-97440862D02*
X214330485Y-97140863D01*
X159385000Y-79883000D02*
X168101970Y-79883000D01*
X211357306Y-100114042D02*
X214030486Y-97440862D01*
X188333012Y-100114042D02*
X211357306Y-100114042D01*
X168101970Y-79883000D02*
X188333012Y-100114042D01*
X156337000Y-102191736D02*
X154094264Y-99949000D01*
X157099000Y-107061000D02*
X156337000Y-106299000D01*
X158571000Y-107061000D02*
X157099000Y-107061000D01*
X154094264Y-99949000D02*
X153670000Y-99949000D01*
X160365000Y-108855000D02*
X158571000Y-107061000D01*
X160365000Y-109125000D02*
X160365000Y-108855000D01*
X156337000Y-106299000D02*
X156337000Y-102191736D01*
X184647569Y-100974050D02*
X184647569Y-103002503D01*
X184647569Y-103002503D02*
X184404000Y-103246072D01*
X184404000Y-103246072D02*
X184404000Y-106816000D01*
X184404000Y-106816000D02*
X182365000Y-108855000D01*
X182365000Y-108855000D02*
X182365000Y-109125000D01*
X183903990Y-100383990D02*
X183903990Y-103104015D01*
X183903990Y-103104015D02*
X182372000Y-104636005D01*
X182372000Y-104636005D02*
X182372000Y-106934000D01*
X182372000Y-106934000D02*
X181864000Y-107442000D01*
X181864000Y-107442000D02*
X178435000Y-107442000D01*
X178435000Y-107442000D02*
X177800000Y-108077000D01*
X177143000Y-108077000D02*
X176365000Y-108855000D01*
X177800000Y-108077000D02*
X177143000Y-108077000D01*
X176365000Y-108855000D02*
X176365000Y-109125000D01*
X201295000Y-133731000D02*
X203200000Y-135636000D01*
X203200000Y-135636000D02*
X203200000Y-138430000D01*
X201295000Y-131909736D02*
X201295000Y-133731000D01*
X206375000Y-127254000D02*
X205950736Y-127254000D01*
X205950736Y-127254000D02*
X201295000Y-131909736D01*
X183261000Y-99695000D02*
X180340000Y-102616000D01*
X179397010Y-106987990D02*
X176837990Y-106987990D01*
X176010015Y-110252010D02*
X177507990Y-110252010D01*
X180340000Y-102616000D02*
X180340000Y-106045000D01*
X180340000Y-106045000D02*
X179397010Y-106987990D01*
X176837990Y-106987990D02*
X175507990Y-108317990D01*
X175507990Y-108317990D02*
X175507990Y-109749985D01*
X175507990Y-109749985D02*
X176010015Y-110252010D01*
X177507990Y-110252010D02*
X178365000Y-109395000D01*
X178365000Y-109395000D02*
X178365000Y-109125000D01*
X204343000Y-127254000D02*
X201348991Y-130248009D01*
X201348991Y-130248009D02*
X199570991Y-130248009D01*
X199570991Y-130248009D02*
X198120000Y-131699000D01*
X198120000Y-131699000D02*
X198120000Y-138430000D01*
X202692000Y-127508000D02*
X202267736Y-127508000D01*
X202267736Y-127508000D02*
X199981736Y-129794000D01*
X199981736Y-129794000D02*
X196342000Y-129794000D01*
X196342000Y-129794000D02*
X193040000Y-133096000D01*
X193040000Y-133096000D02*
X193040000Y-133477000D01*
X193040000Y-133477000D02*
X193040000Y-138430000D01*
X201422000Y-127254000D02*
X199517000Y-129159000D01*
X199517000Y-129159000D02*
X192278000Y-129159000D01*
X187960000Y-133477000D02*
X187960000Y-133731000D01*
X192278000Y-129159000D02*
X187960000Y-133477000D01*
X187960000Y-133731000D02*
X187960000Y-138430000D01*
X188995021Y-99206021D02*
X210942115Y-99206021D01*
X210942115Y-99206021D02*
X213252022Y-96896114D01*
X213252022Y-96896114D02*
X213252022Y-94612179D01*
X171069000Y-81280000D02*
X188995021Y-99206021D01*
X213252022Y-94612179D02*
X213425031Y-94439170D01*
X213425031Y-94439170D02*
X213425031Y-94014906D01*
X197612000Y-81280000D02*
X188341000Y-81280000D01*
X188341000Y-81280000D02*
X187960000Y-80899000D01*
X182941980Y-98806000D02*
X183366244Y-98806000D01*
X183366244Y-98806000D02*
X185128295Y-100568051D01*
X186309000Y-101330051D02*
X186309000Y-105791000D01*
X185128295Y-100568051D02*
X185547000Y-100568051D01*
X185547000Y-100568051D02*
X186309000Y-101330051D01*
X186309000Y-105791000D02*
X187833000Y-107315000D01*
X187833000Y-107315000D02*
X188825000Y-107315000D01*
X188825000Y-107315000D02*
X190365000Y-108855000D01*
X190365000Y-108855000D02*
X190365000Y-109125000D01*
X122428000Y-69215000D02*
X109855000Y-69215000D01*
X109855000Y-69215000D02*
X109601000Y-68961000D01*
X212598000Y-74041000D02*
X178562000Y-74041000D01*
X178562000Y-74041000D02*
X170307000Y-65786000D01*
X195453000Y-104013000D02*
X195453000Y-101092000D01*
X195453000Y-101092000D02*
X195701062Y-100843938D01*
X186436000Y-121074264D02*
X186436000Y-120650000D01*
X185034115Y-141243021D02*
X186436000Y-139841136D01*
X89173020Y-141243020D02*
X185034115Y-141243021D01*
X86360000Y-138430000D02*
X89173020Y-141243020D01*
X186436000Y-139841136D02*
X186436000Y-121074264D01*
X196342000Y-103759000D02*
X196342000Y-101766725D01*
X196469343Y-101639382D02*
X196769342Y-101339383D01*
X196342000Y-101766725D02*
X196469343Y-101639382D01*
X185973999Y-121711999D02*
X185973999Y-139661069D01*
X93726000Y-140716000D02*
X92455999Y-139445999D01*
X185973999Y-139661069D02*
X184846057Y-140789011D01*
X92455999Y-139445999D02*
X91440000Y-138430000D01*
X98236942Y-140789010D02*
X98163932Y-140716000D01*
X184846057Y-140789011D02*
X98236942Y-140789010D01*
X185674000Y-121412000D02*
X185973999Y-121711999D01*
X98163932Y-140716000D02*
X93726000Y-140716000D01*
X111760000Y-127525501D02*
X107950000Y-131335501D01*
X107950000Y-131335501D02*
X107950000Y-138430000D01*
X113919000Y-127525501D02*
X113030000Y-128414501D01*
X113030000Y-128414501D02*
X113030000Y-138430000D01*
X116332000Y-127525501D02*
X116032001Y-127825500D01*
X116032001Y-127825500D02*
X116032001Y-136352001D01*
X116032001Y-136352001D02*
X117094001Y-137414001D01*
X117094001Y-137414001D02*
X118110000Y-138430000D01*
X121793000Y-127254000D02*
X121493001Y-127553999D01*
X121493001Y-127553999D02*
X121493001Y-131653001D01*
X121493001Y-131653001D02*
X127254001Y-137414001D01*
X127254001Y-137414001D02*
X128270000Y-138430000D01*
X118618000Y-127508000D02*
X118318001Y-127807999D01*
X118318001Y-127807999D02*
X118318001Y-133558001D01*
X118318001Y-133558001D02*
X122174001Y-137414001D01*
X122174001Y-137414001D02*
X123190000Y-138430000D01*
X97028000Y-40259000D02*
X93335000Y-43952000D01*
X93335000Y-43952000D02*
X93335000Y-49725020D01*
X186347962Y-40259000D02*
X97028000Y-40259000D01*
X203327000Y-58803540D02*
X203327000Y-57238038D01*
X203327000Y-57238038D02*
X186347962Y-40259000D01*
X203327000Y-58803540D02*
X203327000Y-57660540D01*
X184404000Y-122809000D02*
X184785000Y-123190000D01*
X184785000Y-123190000D02*
X184785000Y-139192000D01*
X102615999Y-139445999D02*
X101600000Y-138430000D01*
X184785000Y-139192000D02*
X184150000Y-139827000D01*
X184150000Y-139827000D02*
X102997000Y-139827000D01*
X102997000Y-139827000D02*
X102615999Y-139445999D01*
X198755000Y-101727000D02*
X198755000Y-102997000D01*
X198755000Y-102997000D02*
X198501000Y-103251000D01*
X101092000Y-126746000D02*
X101600000Y-127254000D01*
X101600000Y-127254000D02*
X101600000Y-138430000D01*
X197358000Y-103378000D02*
X197358000Y-101630548D01*
X197358000Y-101630548D02*
X197564904Y-101423644D01*
X98425000Y-140335000D02*
X97535999Y-139445999D01*
X185166000Y-122047000D02*
X185473990Y-122354990D01*
X185473990Y-122354990D02*
X185473990Y-139519010D01*
X185473990Y-139519010D02*
X184658000Y-140335000D01*
X184658000Y-140335000D02*
X98425000Y-140335000D01*
X97535999Y-139445999D02*
X96520000Y-138430000D01*
D21*
X168506770Y-107061000D02*
X168633770Y-106934000D01*
X162045697Y-107061000D02*
X168506770Y-107061000D01*
D20*
X182880000Y-96647000D02*
X183179999Y-96946999D01*
X183179999Y-96946999D02*
X183814999Y-96946999D01*
X183814999Y-96946999D02*
X188729999Y-101861999D01*
X188715000Y-103505000D02*
X187365000Y-104855000D01*
X188729999Y-101861999D02*
X190673961Y-101861999D01*
X190673961Y-101861999D02*
X191000001Y-102188039D01*
X191000001Y-102789961D02*
X190284962Y-103505000D01*
X191000001Y-102188039D02*
X191000001Y-102789961D01*
X190284962Y-103505000D02*
X188715000Y-103505000D01*
X187365000Y-104855000D02*
X187365000Y-105125000D01*
X183642000Y-89789000D02*
X183642000Y-92837000D01*
X155112999Y-98978999D02*
X157365000Y-101231000D01*
X157365000Y-101231000D02*
X157365000Y-105125000D01*
X153042990Y-98679000D02*
X153342989Y-98978999D01*
X153342989Y-98978999D02*
X155112999Y-98978999D01*
X127254000Y-102108000D02*
X127254000Y-105014000D01*
X127254000Y-105014000D02*
X127365000Y-105125000D01*
X125222000Y-96520000D02*
X127508000Y-98806000D01*
X127508000Y-98806000D02*
X127762000Y-98806000D01*
D21*
X194437000Y-107061000D02*
X205620250Y-107061000D01*
X221234000Y-43688000D02*
X219710000Y-42164000D01*
X203306532Y-42164000D02*
X202184000Y-42164000D01*
X221234000Y-91447250D02*
X221234000Y-43688000D01*
X219710000Y-42164000D02*
X203306532Y-42164000D01*
X205620250Y-107061000D02*
X221234000Y-91447250D01*
X106954468Y-107188000D02*
X108077000Y-107188000D01*
X81788000Y-107188000D02*
X106954468Y-107188000D01*
X74930000Y-100330000D02*
X81788000Y-107188000D01*
X74930000Y-90170000D02*
X74930000Y-85090000D01*
X74930000Y-95250000D02*
X74930000Y-90170000D01*
X74930000Y-100330000D02*
X74930000Y-95250000D01*
X131826000Y-107061000D02*
X138303000Y-107061000D01*
D20*
X117042005Y-113284000D02*
X124476000Y-113284000D01*
X124476000Y-113284000D02*
X128365000Y-109395000D01*
X128365000Y-109395000D02*
X128365000Y-109125000D01*
X116967000Y-103632000D02*
X116222010Y-104376990D01*
X116222010Y-104376990D02*
X116222010Y-105785995D01*
X116222010Y-105785995D02*
X113507990Y-108500015D01*
X113507990Y-108500015D02*
X113507990Y-109749985D01*
X113507990Y-109749985D02*
X117042005Y-113284000D01*
X119376005Y-103632000D02*
X116967000Y-103632000D01*
X119634000Y-103505000D02*
X119503005Y-103505000D01*
X119503005Y-103505000D02*
X119376005Y-103632000D01*
X122301000Y-100838000D02*
X119634000Y-103505000D01*
X122301000Y-95123000D02*
X122301000Y-100838000D01*
X113919000Y-86741000D02*
X122301000Y-95123000D01*
X109601000Y-86741000D02*
X113919000Y-86741000D01*
X138303000Y-86614000D02*
X142748000Y-91059000D01*
X142748000Y-91059000D02*
X142748000Y-104260005D01*
X142748000Y-104260005D02*
X142507990Y-104500015D01*
X142507990Y-104500015D02*
X142507990Y-105749985D01*
X142507990Y-105749985D02*
X142748000Y-105989995D01*
X142748000Y-105989995D02*
X142748000Y-107823000D01*
X142748000Y-107823000D02*
X143383000Y-108458000D01*
X143383000Y-108458000D02*
X143383000Y-109910975D01*
X143383000Y-109910975D02*
X144526000Y-111053975D01*
X144526000Y-111053975D02*
X144526000Y-111633000D01*
X144526000Y-111633000D02*
X145923000Y-113030000D01*
X145923000Y-113030000D02*
X155829000Y-113030000D01*
X155829000Y-113030000D02*
X158365000Y-110494000D01*
X158365000Y-110494000D02*
X158365000Y-109125000D01*
X113411000Y-95250000D02*
X112365000Y-96296000D01*
X112365000Y-96296000D02*
X112365000Y-109125000D01*
X190373000Y-102489000D02*
X187325000Y-102489000D01*
X141605000Y-94615000D02*
X140335000Y-95885000D01*
X140335000Y-106825000D02*
X142365000Y-108855000D01*
X140335000Y-95885000D02*
X140335000Y-106825000D01*
X142365000Y-108855000D02*
X142365000Y-109125000D01*
X182245000Y-98044000D02*
X181229000Y-98044000D01*
X181229000Y-98044000D02*
X176403000Y-102870000D01*
X168529000Y-86868000D02*
X174371000Y-92710000D01*
X174371000Y-92710000D02*
X174371000Y-107696000D01*
X174371000Y-107696000D02*
X174069010Y-107997990D01*
X175740025Y-112268000D02*
X187071000Y-112268000D01*
X174069010Y-107997990D02*
X173815010Y-107997990D01*
X173815010Y-107997990D02*
X173355000Y-108458000D01*
X173355000Y-108458000D02*
X173355000Y-109882975D01*
X173355000Y-109882975D02*
X175740025Y-112268000D01*
X187071000Y-112268000D02*
X188365000Y-110974000D01*
X188365000Y-110974000D02*
X188365000Y-109125000D01*
X114935000Y-82042000D02*
X76962000Y-82042000D01*
X76962000Y-82042000D02*
X74930000Y-80010000D01*
X121539000Y-75438000D02*
X114935000Y-82042000D01*
X167259000Y-64897000D02*
X165735000Y-66421000D01*
X165735000Y-66421000D02*
X142494000Y-66421000D01*
X196469000Y-75565000D02*
X179158038Y-75565000D01*
X179158038Y-75565000D02*
X169291000Y-65697962D01*
X169291000Y-65697962D02*
X169291000Y-64643000D01*
X157353000Y-58801000D02*
X152400000Y-53848000D01*
X152400000Y-53848000D02*
X152400000Y-52197000D01*
X171704000Y-58801000D02*
X157353000Y-58801000D01*
X172339000Y-59436000D02*
X171704000Y-58801000D01*
X146919980Y-59289980D02*
X142240000Y-54610000D01*
X142240000Y-54610000D02*
X142240000Y-52451000D01*
X169964378Y-59289980D02*
X146919980Y-59289980D01*
X171577000Y-60078990D02*
X171577000Y-59654726D01*
X171577000Y-59654726D02*
X171212254Y-59289980D01*
X171212254Y-59289980D02*
X169964378Y-59289980D01*
X131826000Y-55880000D02*
X131826000Y-52705000D01*
X135689990Y-59743990D02*
X131826000Y-55880000D01*
X169776321Y-59743990D02*
X135689990Y-59743990D01*
X170815000Y-60706000D02*
X170815000Y-60281736D01*
X170815000Y-60281736D02*
X170277254Y-59743990D01*
X170277254Y-59743990D02*
X169776321Y-59743990D01*
X122174000Y-58547000D02*
X122174000Y-52451000D01*
X122174000Y-52451000D02*
X122682000Y-51943000D01*
X123825000Y-60198000D02*
X122174000Y-58547000D01*
X169588264Y-60198000D02*
X123825000Y-60198000D01*
X169926000Y-60960000D02*
X169926000Y-60535736D01*
X169926000Y-60535736D02*
X169588264Y-60198000D01*
X168910000Y-60833000D02*
X119380000Y-60833000D01*
X119380000Y-60833000D02*
X113157000Y-54610000D01*
G36*
X222175000Y-43630186D02*
X222113995Y-43323494D01*
X221927240Y-43043995D01*
X221907519Y-43014480D01*
X220383519Y-41490481D01*
X220074506Y-41284005D01*
X219710000Y-41211500D01*
X203251958Y-41211500D01*
X202994379Y-40953471D01*
X202469443Y-40735498D01*
X201901051Y-40735002D01*
X201375735Y-40952058D01*
X200973471Y-41353621D01*
X200755498Y-41878557D01*
X200755002Y-42446949D01*
X200972058Y-42972265D01*
X201373621Y-43374529D01*
X201898557Y-43592502D01*
X202466949Y-43592998D01*
X202992265Y-43375942D01*
X203252160Y-43116500D01*
X219315462Y-43116500D01*
X220281500Y-44082539D01*
X220281500Y-91052712D01*
X214923122Y-96411090D01*
X214860812Y-96348671D01*
X214616374Y-96247171D01*
X214671234Y-96192406D01*
X214813880Y-95848878D01*
X214814204Y-95476912D01*
X214672159Y-95133136D01*
X214409369Y-94869887D01*
X214117152Y-94748547D01*
X214129027Y-94730775D01*
X214153226Y-94609118D01*
X214217223Y-94545233D01*
X214359869Y-94201705D01*
X214360193Y-93829739D01*
X214218148Y-93485963D01*
X213955358Y-93222714D01*
X213611830Y-93080068D01*
X213452043Y-93079929D01*
X213452043Y-92894441D01*
X213772985Y-92761831D01*
X214036234Y-92499041D01*
X214178880Y-92155513D01*
X214179176Y-91816169D01*
X214279192Y-91716327D01*
X214421838Y-91372799D01*
X214422162Y-91000833D01*
X214280117Y-90657057D01*
X214017327Y-90393808D01*
X213673799Y-90251162D01*
X213301833Y-90250838D01*
X213233457Y-90279090D01*
X209664551Y-86710185D01*
X209623616Y-86682833D01*
X209417341Y-86545004D01*
X209125736Y-86487000D01*
X183906811Y-86487000D01*
X178503978Y-81084167D01*
X187024838Y-81084167D01*
X187166883Y-81427943D01*
X187429673Y-81691192D01*
X187773201Y-81833838D01*
X187824735Y-81833883D01*
X188049395Y-81983996D01*
X188341000Y-82042000D01*
X197051534Y-82042000D01*
X197081673Y-82072192D01*
X197425201Y-82214838D01*
X197797167Y-82215162D01*
X198140943Y-82073117D01*
X198404192Y-81810327D01*
X198546838Y-81466799D01*
X198547162Y-81094833D01*
X198405117Y-80751057D01*
X198142327Y-80487808D01*
X197798799Y-80345162D01*
X197426833Y-80344838D01*
X197083057Y-80486883D01*
X197051886Y-80518000D01*
X188814246Y-80518000D01*
X188753117Y-80370057D01*
X188490327Y-80106808D01*
X188146799Y-79964162D01*
X187774833Y-79963838D01*
X187431057Y-80105883D01*
X187167808Y-80368673D01*
X187025162Y-80712201D01*
X187024838Y-81084167D01*
X178503978Y-81084167D01*
X168889995Y-71470185D01*
X168642785Y-71305004D01*
X168351180Y-71247000D01*
X115316000Y-71247000D01*
X115024395Y-71305004D01*
X114777185Y-71470185D01*
X110855495Y-75391875D01*
X110812833Y-75391838D01*
X110469057Y-75533883D01*
X110205808Y-75796673D01*
X110063162Y-76140201D01*
X110062838Y-76512167D01*
X110204883Y-76855943D01*
X110467673Y-77119192D01*
X110811201Y-77261838D01*
X111183167Y-77262162D01*
X111526943Y-77120117D01*
X111790192Y-76857327D01*
X111932838Y-76513799D01*
X111932876Y-76469754D01*
X115631630Y-72771000D01*
X144591369Y-72771000D01*
X138795495Y-78566875D01*
X138752833Y-78566838D01*
X138409057Y-78708883D01*
X138145808Y-78971673D01*
X138003162Y-79315201D01*
X138003117Y-79367001D01*
X133618416Y-79367001D01*
X133508117Y-79100057D01*
X133245327Y-78836808D01*
X132901799Y-78694162D01*
X132529833Y-78693838D01*
X132186057Y-78835883D01*
X131922808Y-79098673D01*
X131780162Y-79442201D01*
X131779838Y-79814167D01*
X131921883Y-80157943D01*
X132184673Y-80421192D01*
X132528201Y-80563838D01*
X132572246Y-80563876D01*
X132676185Y-80667816D01*
X132900709Y-80817838D01*
X132923396Y-80832997D01*
X133215001Y-80891001D01*
X140469999Y-80891001D01*
X140761604Y-80832997D01*
X141008814Y-80667816D01*
X147889631Y-73787000D01*
X161570408Y-73787000D01*
X166904408Y-79121000D01*
X159945466Y-79121000D01*
X159915327Y-79090808D01*
X159571799Y-78948162D01*
X159199833Y-78947838D01*
X158856057Y-79089883D01*
X158592808Y-79352673D01*
X158450162Y-79696201D01*
X158449838Y-80068167D01*
X158591883Y-80411943D01*
X158854673Y-80675192D01*
X159198201Y-80817838D01*
X159570167Y-80818162D01*
X159913943Y-80676117D01*
X159945114Y-80645000D01*
X167786340Y-80645000D01*
X182853316Y-95711976D01*
X182694833Y-95711838D01*
X182351057Y-95853883D01*
X182087808Y-96116673D01*
X181945162Y-96460201D01*
X181944838Y-96832167D01*
X182059255Y-97109077D01*
X181716057Y-97250883D01*
X181684886Y-97282000D01*
X181229000Y-97282000D01*
X180937395Y-97340004D01*
X180883859Y-97375776D01*
X180690185Y-97505184D01*
X176260495Y-101934875D01*
X176217833Y-101934838D01*
X175874057Y-102076883D01*
X175610808Y-102339673D01*
X175468162Y-102683201D01*
X175467838Y-103055167D01*
X175609883Y-103398943D01*
X175872673Y-103662192D01*
X176216201Y-103804838D01*
X176588167Y-103805162D01*
X176931943Y-103663117D01*
X177195192Y-103400327D01*
X177337838Y-103056799D01*
X177337876Y-103012754D01*
X181544631Y-98806000D01*
X181684534Y-98806000D01*
X181714673Y-98836192D01*
X182006847Y-98957514D01*
X182006818Y-98991167D01*
X182148863Y-99334943D01*
X182326158Y-99512548D01*
X182326124Y-99552246D01*
X179801185Y-102077185D01*
X179636004Y-102324395D01*
X179578000Y-102616000D01*
X179578000Y-103704255D01*
X179365000Y-103661887D01*
X178919174Y-103750567D01*
X178541221Y-104003108D01*
X178365000Y-104266840D01*
X178188779Y-104003108D01*
X177810826Y-103750567D01*
X177365000Y-103661887D01*
X176919174Y-103750567D01*
X176541221Y-104003108D01*
X176367999Y-104262351D01*
X176098977Y-103941418D01*
X175671596Y-103731068D01*
X175492000Y-103856797D01*
X175492000Y-104998000D01*
X175512000Y-104998000D01*
X175512000Y-105252000D01*
X175492000Y-105252000D01*
X175492000Y-106393203D01*
X175671596Y-106518932D01*
X176098977Y-106308582D01*
X176367999Y-105987649D01*
X176541221Y-106246892D01*
X176585195Y-106276274D01*
X176546385Y-106283994D01*
X176299175Y-106449175D01*
X175133000Y-107615350D01*
X175133000Y-106466710D01*
X175238000Y-106393203D01*
X175238000Y-105252000D01*
X175218000Y-105252000D01*
X175218000Y-104998000D01*
X175238000Y-104998000D01*
X175238000Y-103856797D01*
X175133000Y-103783290D01*
X175133000Y-92710000D01*
X175074996Y-92418395D01*
X175001270Y-92308057D01*
X174909816Y-92171185D01*
X169464125Y-86725495D01*
X169464162Y-86682833D01*
X169322117Y-86339057D01*
X169059327Y-86075808D01*
X168715799Y-85933162D01*
X168343833Y-85932838D01*
X168000057Y-86074883D01*
X167736808Y-86337673D01*
X167594162Y-86681201D01*
X167593838Y-87053167D01*
X167735883Y-87396943D01*
X167998673Y-87660192D01*
X168342201Y-87802838D01*
X168386246Y-87802876D01*
X173609000Y-93025631D01*
X173609000Y-103710421D01*
X173365000Y-103661887D01*
X172919174Y-103750567D01*
X172541221Y-104003108D01*
X172367999Y-104262351D01*
X172098977Y-103941418D01*
X171671596Y-103731068D01*
X171492000Y-103856797D01*
X171492000Y-104998000D01*
X171512000Y-104998000D01*
X171512000Y-105252000D01*
X171492000Y-105252000D01*
X171492000Y-106393203D01*
X171671596Y-106518932D01*
X172098977Y-106308582D01*
X172367999Y-105987649D01*
X172541221Y-106246892D01*
X172919174Y-106499433D01*
X173365000Y-106588113D01*
X173609000Y-106539579D01*
X173609000Y-107276968D01*
X173523405Y-107293994D01*
X173276194Y-107459175D01*
X172915117Y-107820252D01*
X172810826Y-107750567D01*
X172365000Y-107661887D01*
X171919174Y-107750567D01*
X171541221Y-108003108D01*
X171365000Y-108266840D01*
X171188779Y-108003108D01*
X170810826Y-107750567D01*
X170365000Y-107661887D01*
X169919174Y-107750567D01*
X169673981Y-107914400D01*
X169844299Y-107744379D01*
X170062272Y-107219443D01*
X170062768Y-106651051D01*
X169951296Y-106381268D01*
X170098977Y-106308582D01*
X170365000Y-105991227D01*
X170631023Y-106308582D01*
X171058404Y-106518932D01*
X171238000Y-106393203D01*
X171238000Y-105252000D01*
X169492000Y-105252000D01*
X169492000Y-105272000D01*
X169238000Y-105272000D01*
X169238000Y-105252000D01*
X168200000Y-105252000D01*
X168200000Y-105522000D01*
X168212623Y-105562104D01*
X167825505Y-105722058D01*
X167438388Y-106108500D01*
X163113655Y-106108500D01*
X162856076Y-105850471D01*
X162476357Y-105692797D01*
X162530000Y-105423113D01*
X162530000Y-104826887D01*
X162510331Y-104728000D01*
X168200000Y-104728000D01*
X168200000Y-104998000D01*
X169238000Y-104998000D01*
X169238000Y-103856797D01*
X169492000Y-103856797D01*
X169492000Y-104998000D01*
X171238000Y-104998000D01*
X171238000Y-103856797D01*
X171058404Y-103731068D01*
X170631023Y-103941418D01*
X170365000Y-104258773D01*
X170098977Y-103941418D01*
X169671596Y-103731068D01*
X169492000Y-103856797D01*
X169238000Y-103856797D01*
X169058404Y-103731068D01*
X168631023Y-103941418D01*
X168337281Y-104291841D01*
X168200000Y-104728000D01*
X162510331Y-104728000D01*
X162441320Y-104381061D01*
X162188779Y-104003108D01*
X161810826Y-103750567D01*
X161365000Y-103661887D01*
X160919174Y-103750567D01*
X160541221Y-104003108D01*
X160365000Y-104266840D01*
X160188779Y-104003108D01*
X159810826Y-103750567D01*
X159365000Y-103661887D01*
X158919174Y-103750567D01*
X158541221Y-104003108D01*
X158365000Y-104266840D01*
X158188779Y-104003108D01*
X158127000Y-103961828D01*
X158127000Y-101231000D01*
X158068996Y-100939395D01*
X158032536Y-100884829D01*
X157903815Y-100692184D01*
X155651814Y-98440184D01*
X155572811Y-98387396D01*
X155404604Y-98275003D01*
X155112999Y-98216999D01*
X153863767Y-98216999D01*
X153836107Y-98150057D01*
X153573317Y-97886808D01*
X153229789Y-97744162D01*
X152857823Y-97743838D01*
X152514047Y-97885883D01*
X152250798Y-98148673D01*
X152108152Y-98492201D01*
X152107828Y-98864167D01*
X152249873Y-99207943D01*
X152512663Y-99471192D01*
X152805507Y-99592792D01*
X152735162Y-99762201D01*
X152734838Y-100134167D01*
X152763476Y-100203477D01*
X152714498Y-100252370D01*
X152571852Y-100595898D01*
X152571814Y-100639942D01*
X149829185Y-103382572D01*
X149664004Y-103629782D01*
X149646481Y-103717877D01*
X149365000Y-103661887D01*
X148919174Y-103750567D01*
X148541221Y-104003108D01*
X148365000Y-104266840D01*
X148188779Y-104003108D01*
X147810826Y-103750567D01*
X147365000Y-103661887D01*
X146919174Y-103750567D01*
X146541221Y-104003108D01*
X146367999Y-104262351D01*
X146098977Y-103941418D01*
X145671596Y-103731068D01*
X145492000Y-103856797D01*
X145492000Y-104998000D01*
X145512000Y-104998000D01*
X145512000Y-105252000D01*
X145492000Y-105252000D01*
X145492000Y-106393203D01*
X145671596Y-106518932D01*
X146098977Y-106308582D01*
X146367999Y-105987649D01*
X146490428Y-106170875D01*
X144876185Y-107785118D01*
X144871972Y-107791423D01*
X144810826Y-107750567D01*
X144365000Y-107661887D01*
X143919174Y-107750567D01*
X143819679Y-107817048D01*
X143510000Y-107507370D01*
X143510000Y-106559271D01*
X143810826Y-106499433D01*
X144188779Y-106246892D01*
X144362001Y-105987649D01*
X144631023Y-106308582D01*
X145058404Y-106518932D01*
X145238000Y-106393203D01*
X145238000Y-105252000D01*
X145218000Y-105252000D01*
X145218000Y-104998000D01*
X145238000Y-104998000D01*
X145238000Y-103856797D01*
X145058404Y-103731068D01*
X144631023Y-103941418D01*
X144362001Y-104262351D01*
X144188779Y-104003108D01*
X143810826Y-103750567D01*
X143510000Y-103690729D01*
X143510000Y-91059000D01*
X143451996Y-90767395D01*
X143422892Y-90723838D01*
X143286815Y-90520184D01*
X139238125Y-86471495D01*
X139238162Y-86428833D01*
X139096117Y-86085057D01*
X138833327Y-85821808D01*
X138489799Y-85679162D01*
X138117833Y-85678838D01*
X137774057Y-85820883D01*
X137510808Y-86083673D01*
X137368162Y-86427201D01*
X137367838Y-86799167D01*
X137509883Y-87142943D01*
X137772673Y-87406192D01*
X138116201Y-87548838D01*
X138160246Y-87548876D01*
X141986000Y-91374631D01*
X141986000Y-93760802D01*
X141791799Y-93680162D01*
X141419833Y-93679838D01*
X141076057Y-93821883D01*
X140812808Y-94084673D01*
X140670162Y-94428201D01*
X140670124Y-94472246D01*
X139796185Y-95346185D01*
X139631004Y-95593395D01*
X139573000Y-95885000D01*
X139573000Y-103800092D01*
X139492000Y-103856797D01*
X139492000Y-104998000D01*
X139512000Y-104998000D01*
X139512000Y-105252000D01*
X139492000Y-105252000D01*
X139492000Y-105272000D01*
X139238000Y-105272000D01*
X139238000Y-105252000D01*
X138200000Y-105252000D01*
X138200000Y-105522000D01*
X138234682Y-105632189D01*
X138020051Y-105632002D01*
X137494735Y-105849058D01*
X137234840Y-106108500D01*
X132893958Y-106108500D01*
X132636379Y-105850471D01*
X132459595Y-105777064D01*
X132530000Y-105423113D01*
X132530000Y-104826887D01*
X132510331Y-104728000D01*
X138200000Y-104728000D01*
X138200000Y-104998000D01*
X139238000Y-104998000D01*
X139238000Y-103856797D01*
X139058404Y-103731068D01*
X138631023Y-103941418D01*
X138337281Y-104291841D01*
X138200000Y-104728000D01*
X132510331Y-104728000D01*
X132441320Y-104381061D01*
X132188779Y-104003108D01*
X131810826Y-103750567D01*
X131365000Y-103661887D01*
X131127000Y-103709228D01*
X131127000Y-102552000D01*
X131068996Y-102260395D01*
X130903815Y-102013185D01*
X128594885Y-99704255D01*
X128471767Y-99621990D01*
X128349721Y-99540441D01*
X128554192Y-99336327D01*
X128696838Y-98992799D01*
X128697162Y-98620833D01*
X128555117Y-98277057D01*
X128292327Y-98013808D01*
X127948799Y-97871162D01*
X127650533Y-97870902D01*
X126157125Y-96377495D01*
X126157162Y-96334833D01*
X126015117Y-95991057D01*
X125752327Y-95727808D01*
X125408799Y-95585162D01*
X125036833Y-95584838D01*
X124693057Y-95726883D01*
X124429808Y-95989673D01*
X124287162Y-96333201D01*
X124286838Y-96705167D01*
X124428883Y-97048943D01*
X124691673Y-97312192D01*
X125035201Y-97454838D01*
X125079246Y-97454876D01*
X126969184Y-99344815D01*
X126997875Y-99363986D01*
X127114755Y-99481070D01*
X124131848Y-99481070D01*
X124104188Y-99414128D01*
X123841398Y-99150879D01*
X123497870Y-99008233D01*
X123125904Y-99007909D01*
X123063000Y-99033900D01*
X123063000Y-95123000D01*
X123004996Y-94831395D01*
X122839815Y-94584185D01*
X114457815Y-86202185D01*
X114400673Y-86164004D01*
X114210605Y-86037004D01*
X113919000Y-85979000D01*
X110161466Y-85979000D01*
X110131327Y-85948808D01*
X109787799Y-85806162D01*
X109415833Y-85805838D01*
X109072057Y-85947883D01*
X108808808Y-86210673D01*
X108666162Y-86554201D01*
X108665838Y-86926167D01*
X108807883Y-87269943D01*
X109070673Y-87533192D01*
X109414201Y-87675838D01*
X109786167Y-87676162D01*
X110129943Y-87534117D01*
X110161114Y-87503000D01*
X113603370Y-87503000D01*
X121539000Y-95438630D01*
X121539000Y-100522369D01*
X119272524Y-102788846D01*
X119211400Y-102801004D01*
X119108141Y-102870000D01*
X116967000Y-102870000D01*
X116675395Y-102928004D01*
X116445576Y-103081565D01*
X116428185Y-103093185D01*
X115751148Y-103770222D01*
X115671596Y-103731068D01*
X115492000Y-103856797D01*
X115492000Y-104216166D01*
X115460010Y-104376990D01*
X115460010Y-105272000D01*
X115238000Y-105272000D01*
X115238000Y-105252000D01*
X115218000Y-105252000D01*
X115218000Y-104998000D01*
X115238000Y-104998000D01*
X115238000Y-103856797D01*
X115058404Y-103731068D01*
X114631023Y-103941418D01*
X114362001Y-104262351D01*
X114188779Y-104003108D01*
X113810826Y-103750567D01*
X113365000Y-103661887D01*
X113127000Y-103709228D01*
X113127000Y-96611630D01*
X113553506Y-96185125D01*
X113596167Y-96185162D01*
X113939943Y-96043117D01*
X114203192Y-95780327D01*
X114345838Y-95436799D01*
X114346162Y-95064833D01*
X114204117Y-94721057D01*
X113941327Y-94457808D01*
X113597799Y-94315162D01*
X113225833Y-94314838D01*
X112882057Y-94456883D01*
X112618808Y-94719673D01*
X112476162Y-95063201D01*
X112476124Y-95107246D01*
X111826185Y-95757185D01*
X111661004Y-96004395D01*
X111603000Y-96296000D01*
X111603000Y-103779090D01*
X111492000Y-103856797D01*
X111492000Y-104998000D01*
X111512000Y-104998000D01*
X111512000Y-105252000D01*
X111492000Y-105252000D01*
X111492000Y-106393203D01*
X111603000Y-106470910D01*
X111603000Y-107961828D01*
X111541221Y-108003108D01*
X111365000Y-108266840D01*
X111188779Y-108003108D01*
X110810826Y-107750567D01*
X110365000Y-107661887D01*
X109919174Y-107750567D01*
X109541221Y-108003108D01*
X109365000Y-108266840D01*
X109226396Y-108059406D01*
X109287529Y-107998379D01*
X109505502Y-107473443D01*
X109505998Y-106905051D01*
X109288942Y-106379735D01*
X109238000Y-106328704D01*
X109238000Y-105252000D01*
X109492000Y-105252000D01*
X109492000Y-106393203D01*
X109671596Y-106518932D01*
X110098977Y-106308582D01*
X110365000Y-105991227D01*
X110631023Y-106308582D01*
X111058404Y-106518932D01*
X111238000Y-106393203D01*
X111238000Y-105252000D01*
X109492000Y-105252000D01*
X109238000Y-105252000D01*
X108200000Y-105252000D01*
X108200000Y-105522000D01*
X108274728Y-105759421D01*
X107794051Y-105759002D01*
X107268735Y-105976058D01*
X107008840Y-106235500D01*
X82182538Y-106235500D01*
X80675038Y-104728000D01*
X108200000Y-104728000D01*
X108200000Y-104998000D01*
X109238000Y-104998000D01*
X109238000Y-103856797D01*
X109492000Y-103856797D01*
X109492000Y-104998000D01*
X111238000Y-104998000D01*
X111238000Y-103856797D01*
X111058404Y-103731068D01*
X110631023Y-103941418D01*
X110365000Y-104258773D01*
X110098977Y-103941418D01*
X109671596Y-103731068D01*
X109492000Y-103856797D01*
X109238000Y-103856797D01*
X109058404Y-103731068D01*
X108631023Y-103941418D01*
X108337281Y-104291841D01*
X108200000Y-104728000D01*
X80675038Y-104728000D01*
X76580736Y-100633698D01*
X76581286Y-100003037D01*
X76330466Y-99396005D01*
X75882500Y-98947257D01*
X75882500Y-96631993D01*
X76328834Y-96186437D01*
X76580713Y-95579845D01*
X76581286Y-94923037D01*
X76330466Y-94316005D01*
X75882500Y-93867257D01*
X75882500Y-91551993D01*
X76328834Y-91106437D01*
X76580713Y-90499845D01*
X76581286Y-89843037D01*
X76330466Y-89236005D01*
X75882500Y-88787257D01*
X75882500Y-86471993D01*
X76328834Y-86026437D01*
X76580713Y-85419845D01*
X76581286Y-84763037D01*
X76330466Y-84156005D01*
X75866437Y-83691166D01*
X75259845Y-83439287D01*
X74603037Y-83438714D01*
X73996005Y-83689534D01*
X73531166Y-84153563D01*
X73279287Y-84760155D01*
X73278714Y-85416963D01*
X73529534Y-86023995D01*
X73977500Y-86472743D01*
X73977500Y-88788007D01*
X73531166Y-89233563D01*
X73279287Y-89840155D01*
X73278714Y-90496963D01*
X73529534Y-91103995D01*
X73977500Y-91552743D01*
X73977500Y-93868007D01*
X73531166Y-94313563D01*
X73279287Y-94920155D01*
X73278714Y-95576963D01*
X73529534Y-96183995D01*
X73977500Y-96632743D01*
X73977500Y-98948007D01*
X73531166Y-99393563D01*
X73279287Y-100000155D01*
X73278714Y-100656963D01*
X73529534Y-101263995D01*
X73993563Y-101728834D01*
X74600155Y-101980713D01*
X75234228Y-101981266D01*
X81114481Y-107861519D01*
X81423494Y-108067995D01*
X81788000Y-108140500D01*
X107009042Y-108140500D01*
X107266621Y-108398529D01*
X107283788Y-108405657D01*
X107200000Y-108826887D01*
X107200000Y-109423113D01*
X107288680Y-109868939D01*
X107541221Y-110246892D01*
X107919174Y-110499433D01*
X108365000Y-110588113D01*
X108810826Y-110499433D01*
X109188779Y-110246892D01*
X109365000Y-109983160D01*
X109541221Y-110246892D01*
X109919174Y-110499433D01*
X110365000Y-110588113D01*
X110810826Y-110499433D01*
X111188779Y-110246892D01*
X111365000Y-109983160D01*
X111541221Y-110246892D01*
X111919174Y-110499433D01*
X112365000Y-110588113D01*
X112810826Y-110499433D01*
X113032014Y-110351639D01*
X116503190Y-113822815D01*
X116750400Y-113987996D01*
X117042005Y-114046000D01*
X124476000Y-114046000D01*
X124767605Y-113987996D01*
X125014815Y-113822815D01*
X128268678Y-110568953D01*
X128365000Y-110588113D01*
X128810826Y-110499433D01*
X129188779Y-110246892D01*
X129365000Y-109983160D01*
X129541221Y-110246892D01*
X129919174Y-110499433D01*
X130365000Y-110588113D01*
X130810826Y-110499433D01*
X131188779Y-110246892D01*
X131365000Y-109983160D01*
X131541221Y-110246892D01*
X131919174Y-110499433D01*
X132365000Y-110588113D01*
X132810826Y-110499433D01*
X133188779Y-110246892D01*
X133441320Y-109868939D01*
X133530000Y-109423113D01*
X133530000Y-108826887D01*
X133441320Y-108381061D01*
X133195723Y-108013500D01*
X137235042Y-108013500D01*
X137414295Y-108193066D01*
X137288680Y-108381061D01*
X137200000Y-108826887D01*
X137200000Y-109423113D01*
X137288680Y-109868939D01*
X137541221Y-110246892D01*
X137919174Y-110499433D01*
X138365000Y-110588113D01*
X138810826Y-110499433D01*
X139188779Y-110246892D01*
X139365000Y-109983160D01*
X139541221Y-110246892D01*
X139919174Y-110499433D01*
X140365000Y-110588113D01*
X140810826Y-110499433D01*
X141188779Y-110246892D01*
X141365000Y-109983160D01*
X141541221Y-110246892D01*
X141919174Y-110499433D01*
X142365000Y-110588113D01*
X142810826Y-110499433D01*
X142860582Y-110466187D01*
X143764000Y-111369605D01*
X143764000Y-111633000D01*
X143822004Y-111924605D01*
X143856610Y-111976396D01*
X143987185Y-112171815D01*
X145384184Y-113568815D01*
X145631395Y-113733996D01*
X145923000Y-113792000D01*
X155829000Y-113792000D01*
X156120605Y-113733996D01*
X156367815Y-113568815D01*
X158903816Y-111032815D01*
X159068997Y-110785604D01*
X159127000Y-110494000D01*
X159127000Y-110288172D01*
X159188779Y-110246892D01*
X159365000Y-109983160D01*
X159541221Y-110246892D01*
X159919174Y-110499433D01*
X160365000Y-110588113D01*
X160810826Y-110499433D01*
X161188779Y-110246892D01*
X161365000Y-109983160D01*
X161541221Y-110246892D01*
X161919174Y-110499433D01*
X162365000Y-110588113D01*
X162810826Y-110499433D01*
X163188779Y-110246892D01*
X163441320Y-109868939D01*
X163530000Y-109423113D01*
X163530000Y-108826887D01*
X163441320Y-108381061D01*
X163195723Y-108013500D01*
X167534277Y-108013500D01*
X167288680Y-108381061D01*
X167200000Y-108826887D01*
X167200000Y-109423113D01*
X167288680Y-109868939D01*
X167541221Y-110246892D01*
X167919174Y-110499433D01*
X168365000Y-110588113D01*
X168810826Y-110499433D01*
X169188779Y-110246892D01*
X169365000Y-109983160D01*
X169541221Y-110246892D01*
X169919174Y-110499433D01*
X170365000Y-110588113D01*
X170810826Y-110499433D01*
X171188779Y-110246892D01*
X171365000Y-109983160D01*
X171541221Y-110246892D01*
X171919174Y-110499433D01*
X172365000Y-110588113D01*
X172810826Y-110499433D01*
X172860582Y-110466187D01*
X175201210Y-112806816D01*
X175349402Y-112905834D01*
X175448420Y-112971996D01*
X175740025Y-113030000D01*
X187071000Y-113030000D01*
X187362605Y-112971996D01*
X187609815Y-112806815D01*
X188903815Y-111512816D01*
X189068996Y-111265605D01*
X189083240Y-111193996D01*
X189127000Y-110974000D01*
X189127000Y-110288172D01*
X189188779Y-110246892D01*
X189365000Y-109983160D01*
X189541221Y-110246892D01*
X189919174Y-110499433D01*
X190365000Y-110588113D01*
X190810826Y-110499433D01*
X191188779Y-110246892D01*
X191365000Y-109983160D01*
X191541221Y-110246892D01*
X191919174Y-110499433D01*
X192365000Y-110588113D01*
X192810826Y-110499433D01*
X193188779Y-110246892D01*
X193441320Y-109868939D01*
X193530000Y-109423113D01*
X193530000Y-108826887D01*
X193441320Y-108381061D01*
X193188779Y-108003108D01*
X192810826Y-107750567D01*
X192365000Y-107661887D01*
X191919174Y-107750567D01*
X191541221Y-108003108D01*
X191365000Y-108266840D01*
X191188779Y-108003108D01*
X190810826Y-107750567D01*
X190365000Y-107661887D01*
X190268677Y-107681047D01*
X189363815Y-106776185D01*
X189244549Y-106696494D01*
X189116605Y-106611004D01*
X188825000Y-106553000D01*
X188148631Y-106553000D01*
X187981214Y-106385583D01*
X188188779Y-106246892D01*
X188365000Y-105983160D01*
X188541221Y-106246892D01*
X188919174Y-106499433D01*
X189365000Y-106588113D01*
X189810826Y-106499433D01*
X190188779Y-106246892D01*
X190365000Y-105983160D01*
X190541221Y-106246892D01*
X190919174Y-106499433D01*
X191365000Y-106588113D01*
X191810826Y-106499433D01*
X192188779Y-106246892D01*
X192441320Y-105868939D01*
X192530000Y-105423113D01*
X192530000Y-104826887D01*
X192441320Y-104381061D01*
X192188779Y-104003108D01*
X191810826Y-103750567D01*
X191365000Y-103661887D01*
X191166152Y-103701440D01*
X191538816Y-103328776D01*
X191613241Y-103217391D01*
X191703997Y-103081566D01*
X191762001Y-102789961D01*
X191762001Y-102188039D01*
X191703997Y-101896434D01*
X191680988Y-101861999D01*
X191538816Y-101649223D01*
X191212776Y-101323184D01*
X191200353Y-101314883D01*
X190965566Y-101158003D01*
X190673961Y-101099999D01*
X189045630Y-101099999D01*
X188821673Y-100876042D01*
X194733957Y-100876042D01*
X194691000Y-101092000D01*
X194691000Y-103452534D01*
X194660808Y-103482673D01*
X194518162Y-103826201D01*
X194517838Y-104198167D01*
X194659883Y-104541943D01*
X194922673Y-104805192D01*
X195266201Y-104947838D01*
X195638167Y-104948162D01*
X195981943Y-104806117D01*
X196112274Y-104676013D01*
X196155201Y-104693838D01*
X196527167Y-104694162D01*
X196870943Y-104552117D01*
X197128431Y-104295078D01*
X197171201Y-104312838D01*
X197543167Y-104313162D01*
X197886943Y-104171117D01*
X198002043Y-104056218D01*
X198314201Y-104185838D01*
X198686167Y-104186162D01*
X199029943Y-104044117D01*
X199293192Y-103781327D01*
X199435838Y-103437799D01*
X199435938Y-103323114D01*
X199458996Y-103288605D01*
X199470917Y-103228673D01*
X199517000Y-102997000D01*
X199517000Y-102287466D01*
X199547192Y-102257327D01*
X199689838Y-101913799D01*
X199690162Y-101541833D01*
X199548117Y-101198057D01*
X199285327Y-100934808D01*
X199143803Y-100876042D01*
X210458170Y-100876042D01*
X205225712Y-106108500D01*
X195504958Y-106108500D01*
X195247379Y-105850471D01*
X194722443Y-105632498D01*
X194154051Y-105632002D01*
X193628735Y-105849058D01*
X193226471Y-106250621D01*
X193008498Y-106775557D01*
X193008002Y-107343949D01*
X193225058Y-107869265D01*
X193626621Y-108271529D01*
X194151557Y-108489502D01*
X194719949Y-108489998D01*
X195245265Y-108272942D01*
X195505160Y-108013500D01*
X205620250Y-108013500D01*
X205984756Y-107940995D01*
X206293769Y-107734519D01*
X221907519Y-92120769D01*
X222113995Y-91811756D01*
X222175000Y-91505064D01*
X222175000Y-140895000D01*
X186459767Y-140895000D01*
X186974816Y-140379951D01*
X187110299Y-140177185D01*
X187139996Y-140132741D01*
X187186952Y-139896679D01*
X187630155Y-140080713D01*
X188286963Y-140081286D01*
X188893995Y-139830466D01*
X189358834Y-139366437D01*
X189610713Y-138759845D01*
X189611286Y-138103037D01*
X189360466Y-137496005D01*
X188896437Y-137031166D01*
X188722000Y-136958733D01*
X188722000Y-133792630D01*
X192593630Y-129921000D01*
X195137370Y-129921000D01*
X192501185Y-132557185D01*
X192336004Y-132804395D01*
X192278000Y-133096000D01*
X192278000Y-136958467D01*
X192106005Y-137029534D01*
X191641166Y-137493563D01*
X191389287Y-138100155D01*
X191388714Y-138756963D01*
X191639534Y-139363995D01*
X192103563Y-139828834D01*
X192710155Y-140080713D01*
X193366963Y-140081286D01*
X193973995Y-139830466D01*
X194438834Y-139366437D01*
X194690713Y-138759845D01*
X194691286Y-138103037D01*
X194440466Y-137496005D01*
X193976437Y-137031166D01*
X193802000Y-136958733D01*
X193802000Y-133411630D01*
X196657630Y-130556000D01*
X198185370Y-130556000D01*
X197581185Y-131160185D01*
X197416004Y-131407395D01*
X197358000Y-131699000D01*
X197358000Y-136958467D01*
X197186005Y-137029534D01*
X196721166Y-137493563D01*
X196469287Y-138100155D01*
X196468714Y-138756963D01*
X196719534Y-139363995D01*
X197183563Y-139828834D01*
X197790155Y-140080713D01*
X198446963Y-140081286D01*
X199053995Y-139830466D01*
X199518834Y-139366437D01*
X199770713Y-138759845D01*
X199771286Y-138103037D01*
X199520466Y-137496005D01*
X199056437Y-137031166D01*
X198882000Y-136958733D01*
X198882000Y-132014630D01*
X199886621Y-131010009D01*
X201117097Y-131010009D01*
X200756185Y-131370921D01*
X200591004Y-131618131D01*
X200533000Y-131909736D01*
X200533000Y-133731000D01*
X200591004Y-134022605D01*
X200675863Y-134149605D01*
X200756185Y-134269815D01*
X202438000Y-135951630D01*
X202438000Y-136958467D01*
X202266005Y-137029534D01*
X201801166Y-137493563D01*
X201549287Y-138100155D01*
X201548714Y-138756963D01*
X201799534Y-139363995D01*
X202263563Y-139828834D01*
X202870155Y-140080713D01*
X203526963Y-140081286D01*
X204133995Y-139830466D01*
X204370766Y-139594107D01*
X207295498Y-139594107D01*
X207396120Y-139862622D01*
X208011642Y-140091816D01*
X208668019Y-140068014D01*
X209163880Y-139862622D01*
X209264502Y-139594107D01*
X208280000Y-138609605D01*
X207295498Y-139594107D01*
X204370766Y-139594107D01*
X204598834Y-139366437D01*
X204850713Y-138759845D01*
X204851234Y-138161642D01*
X206618184Y-138161642D01*
X206641986Y-138818019D01*
X206847378Y-139313880D01*
X207115893Y-139414502D01*
X208100395Y-138430000D01*
X208459605Y-138430000D01*
X209444107Y-139414502D01*
X209712622Y-139313880D01*
X209907787Y-138789744D01*
X213179862Y-138789744D01*
X213466431Y-139216584D01*
X214633363Y-139699982D01*
X215896457Y-139700018D01*
X217063417Y-139216685D01*
X217063569Y-139216584D01*
X217350138Y-138789744D01*
X215265000Y-136704605D01*
X213179862Y-138789744D01*
X209907787Y-138789744D01*
X209941816Y-138698358D01*
X209918014Y-138041981D01*
X209712622Y-137546120D01*
X209444107Y-137445498D01*
X208459605Y-138430000D01*
X208100395Y-138430000D01*
X207115893Y-137445498D01*
X206847378Y-137546120D01*
X206618184Y-138161642D01*
X204851234Y-138161642D01*
X204851286Y-138103037D01*
X204600466Y-137496005D01*
X204370755Y-137265893D01*
X207295498Y-137265893D01*
X208280000Y-138250395D01*
X209264502Y-137265893D01*
X209223493Y-137156457D01*
X212089982Y-137156457D01*
X212573315Y-138323417D01*
X212573416Y-138323569D01*
X213000256Y-138610138D01*
X215085395Y-136525000D01*
X215444605Y-136525000D01*
X217529744Y-138610138D01*
X217956584Y-138323569D01*
X218439982Y-137156637D01*
X218440018Y-135893543D01*
X217956685Y-134726583D01*
X217956584Y-134726431D01*
X217529744Y-134439862D01*
X215444605Y-136525000D01*
X215085395Y-136525000D01*
X213000256Y-134439862D01*
X212573416Y-134726431D01*
X212090018Y-135893363D01*
X212089982Y-137156457D01*
X209223493Y-137156457D01*
X209163880Y-136997378D01*
X208548358Y-136768184D01*
X207891981Y-136791986D01*
X207396120Y-136997378D01*
X207295498Y-137265893D01*
X204370755Y-137265893D01*
X204136437Y-137031166D01*
X203962000Y-136958733D01*
X203962000Y-135636000D01*
X203903996Y-135344395D01*
X203738815Y-135097185D01*
X202901886Y-134260256D01*
X213179862Y-134260256D01*
X215265000Y-136345395D01*
X217350138Y-134260256D01*
X217063569Y-133833416D01*
X215896637Y-133350018D01*
X214633543Y-133349982D01*
X213466583Y-133833315D01*
X213466431Y-133833416D01*
X213179862Y-134260256D01*
X202901886Y-134260256D01*
X202057000Y-133415370D01*
X202057000Y-132225366D01*
X206121306Y-128161060D01*
X206188201Y-128188838D01*
X206560167Y-128189162D01*
X206903943Y-128047117D01*
X207167192Y-127784327D01*
X207309838Y-127440799D01*
X207310162Y-127068833D01*
X207168117Y-126725057D01*
X206905327Y-126461808D01*
X206561799Y-126319162D01*
X206189833Y-126318838D01*
X205846057Y-126460883D01*
X205781080Y-126525747D01*
X205659131Y-126550004D01*
X205504061Y-126653619D01*
X205411921Y-126715185D01*
X205213871Y-126913235D01*
X205136117Y-126725057D01*
X204873327Y-126461808D01*
X204529799Y-126319162D01*
X204157833Y-126318838D01*
X203814057Y-126460883D01*
X203550808Y-126723673D01*
X203456618Y-126950508D01*
X203222327Y-126715808D01*
X202878799Y-126573162D01*
X202506833Y-126572838D01*
X202192724Y-126702625D01*
X201952327Y-126461808D01*
X201608799Y-126319162D01*
X201236833Y-126318838D01*
X200893057Y-126460883D01*
X200629808Y-126723673D01*
X200487162Y-127067201D01*
X200487124Y-127111246D01*
X199201370Y-128397000D01*
X192278000Y-128397000D01*
X191986395Y-128455004D01*
X191739185Y-128620185D01*
X187421185Y-132938185D01*
X187256004Y-133185395D01*
X187198000Y-133477000D01*
X187198000Y-121210466D01*
X187228192Y-121180327D01*
X187370838Y-120836799D01*
X187371162Y-120464833D01*
X187229117Y-120121057D01*
X186966327Y-119857808D01*
X186622799Y-119715162D01*
X186250833Y-119714838D01*
X185907057Y-119856883D01*
X185643808Y-120119673D01*
X185501162Y-120463201D01*
X185501150Y-120476849D01*
X185488833Y-120476838D01*
X185145057Y-120618883D01*
X184881808Y-120881673D01*
X184745932Y-121208897D01*
X184637057Y-121253883D01*
X184373808Y-121516673D01*
X184231162Y-121860201D01*
X184231150Y-121873849D01*
X184218833Y-121873838D01*
X183875057Y-122015883D01*
X183611808Y-122278673D01*
X183469162Y-122622201D01*
X183468838Y-122994167D01*
X183610883Y-123337943D01*
X183873673Y-123601192D01*
X184023000Y-123663198D01*
X184023000Y-138876369D01*
X183834370Y-139065000D01*
X183135294Y-139065000D01*
X183271816Y-138698358D01*
X183248014Y-138041981D01*
X183042622Y-137546120D01*
X182774107Y-137445498D01*
X181789605Y-138430000D01*
X181803748Y-138444143D01*
X181624143Y-138623748D01*
X181610000Y-138609605D01*
X181595858Y-138623748D01*
X181416253Y-138444143D01*
X181430395Y-138430000D01*
X180445893Y-137445498D01*
X180177378Y-137546120D01*
X179948184Y-138161642D01*
X179971986Y-138818019D01*
X180074289Y-139065000D01*
X178054002Y-139065000D01*
X178180713Y-138759845D01*
X178181286Y-138103037D01*
X177930466Y-137496005D01*
X177700755Y-137265893D01*
X180625498Y-137265893D01*
X181610000Y-138250395D01*
X182594502Y-137265893D01*
X182493880Y-136997378D01*
X181878358Y-136768184D01*
X181221981Y-136791986D01*
X180726120Y-136997378D01*
X180625498Y-137265893D01*
X177700755Y-137265893D01*
X177466437Y-137031166D01*
X177292000Y-136958733D01*
X177292000Y-128408302D01*
X177407562Y-128292740D01*
X177450223Y-128292777D01*
X177793999Y-128150732D01*
X178057248Y-127887942D01*
X178199894Y-127544414D01*
X178200218Y-127172448D01*
X178058173Y-126828672D01*
X177795383Y-126565423D01*
X177451855Y-126422777D01*
X177079889Y-126422453D01*
X176736113Y-126564498D01*
X176568405Y-126731914D01*
X176552327Y-126715808D01*
X176208799Y-126573162D01*
X175836833Y-126572838D01*
X175702708Y-126628257D01*
X175663327Y-126588808D01*
X175319799Y-126446162D01*
X174947833Y-126445838D01*
X174689757Y-126552473D01*
X174656117Y-126471057D01*
X174393327Y-126207808D01*
X174049799Y-126065162D01*
X173677833Y-126064838D01*
X173334057Y-126206883D01*
X173070808Y-126469673D01*
X173042436Y-126537999D01*
X167848001Y-126537999D01*
X167556396Y-126596003D01*
X167441107Y-126673037D01*
X167309186Y-126761184D01*
X160751185Y-133319185D01*
X160586004Y-133566395D01*
X160528000Y-133858000D01*
X160528000Y-136958467D01*
X160356005Y-137029534D01*
X159891166Y-137493563D01*
X159639287Y-138100155D01*
X159638714Y-138756963D01*
X159765992Y-139065000D01*
X156465294Y-139065000D01*
X156601816Y-138698358D01*
X156578014Y-138041981D01*
X156372622Y-137546120D01*
X156104107Y-137445498D01*
X155119605Y-138430000D01*
X155133748Y-138444143D01*
X154954143Y-138623748D01*
X154940000Y-138609605D01*
X154925858Y-138623748D01*
X154746253Y-138444143D01*
X154760395Y-138430000D01*
X153775893Y-137445498D01*
X153507378Y-137546120D01*
X153278184Y-138161642D01*
X153301986Y-138818019D01*
X153404289Y-139065000D01*
X151384002Y-139065000D01*
X151510713Y-138759845D01*
X151511286Y-138103037D01*
X151260466Y-137496005D01*
X151030755Y-137265893D01*
X153955498Y-137265893D01*
X154940000Y-138250395D01*
X155924502Y-137265893D01*
X155823880Y-136997378D01*
X155208358Y-136768184D01*
X154551981Y-136791986D01*
X154056120Y-136997378D01*
X153955498Y-137265893D01*
X151030755Y-137265893D01*
X150796437Y-137031166D01*
X150189845Y-136779287D01*
X149533037Y-136778714D01*
X149358473Y-136850842D01*
X147985815Y-135478185D01*
X147738605Y-135313004D01*
X147447000Y-135255000D01*
X142428630Y-135255000D01*
X138557000Y-131383370D01*
X138557000Y-130617630D01*
X141112505Y-128062125D01*
X141155167Y-128062162D01*
X141498943Y-127920117D01*
X141762192Y-127657327D01*
X141904838Y-127313799D01*
X141905162Y-126941833D01*
X141763117Y-126598057D01*
X141500327Y-126334808D01*
X141156799Y-126192162D01*
X140784833Y-126191838D01*
X140470881Y-126321560D01*
X140357327Y-126207808D01*
X140013799Y-126065162D01*
X139641833Y-126064838D01*
X139298057Y-126206883D01*
X139233081Y-126271746D01*
X139111132Y-126296003D01*
X139038437Y-126344576D01*
X138901907Y-126207808D01*
X138558379Y-126065162D01*
X138186413Y-126064838D01*
X137842637Y-126206883D01*
X137777660Y-126271747D01*
X137655711Y-126296004D01*
X137576922Y-126348649D01*
X137436327Y-126207808D01*
X137092799Y-126065162D01*
X136720833Y-126064838D01*
X136377057Y-126206883D01*
X136113808Y-126469673D01*
X135971162Y-126813201D01*
X135971124Y-126857246D01*
X134081185Y-128747185D01*
X133916004Y-128994395D01*
X133858000Y-129286000D01*
X133858000Y-136958467D01*
X133686005Y-137029534D01*
X133221166Y-137493563D01*
X132969287Y-138100155D01*
X132968714Y-138756963D01*
X133095992Y-139065000D01*
X129794002Y-139065000D01*
X129920713Y-138759845D01*
X129921286Y-138103037D01*
X129670466Y-137496005D01*
X129206437Y-137031166D01*
X128599845Y-136779287D01*
X127943037Y-136778714D01*
X127768473Y-136850842D01*
X122255001Y-131337371D01*
X122255001Y-128074777D01*
X122321943Y-128047117D01*
X122585192Y-127784327D01*
X122727838Y-127440799D01*
X122728162Y-127068833D01*
X122586117Y-126725057D01*
X122323327Y-126461808D01*
X121979799Y-126319162D01*
X121607833Y-126318838D01*
X121264057Y-126460883D01*
X121000808Y-126723673D01*
X120858162Y-127067201D01*
X120858082Y-127159013D01*
X120789005Y-127262394D01*
X120731001Y-127553999D01*
X120731001Y-131653001D01*
X120789005Y-131944606D01*
X120891166Y-132097500D01*
X120954186Y-132191816D01*
X126690654Y-137928285D01*
X126619287Y-138100155D01*
X126618714Y-138756963D01*
X126745992Y-139065000D01*
X124714002Y-139065000D01*
X124840713Y-138759845D01*
X124841286Y-138103037D01*
X124590466Y-137496005D01*
X124126437Y-137031166D01*
X123519845Y-136779287D01*
X122863037Y-136778714D01*
X122688473Y-136850842D01*
X119080001Y-133242371D01*
X119080001Y-128328777D01*
X119146943Y-128301117D01*
X119410192Y-128038327D01*
X119552838Y-127694799D01*
X119553162Y-127322833D01*
X119411117Y-126979057D01*
X119148327Y-126715808D01*
X118804799Y-126573162D01*
X118432833Y-126572838D01*
X118089057Y-126714883D01*
X117825808Y-126977673D01*
X117683162Y-127321201D01*
X117683082Y-127413013D01*
X117614005Y-127516394D01*
X117556001Y-127807999D01*
X117556001Y-133558001D01*
X117614005Y-133849606D01*
X117619614Y-133858000D01*
X117779186Y-134096816D01*
X121610654Y-137928285D01*
X121539287Y-138100155D01*
X121538714Y-138756963D01*
X121665992Y-139065000D01*
X119634002Y-139065000D01*
X119760713Y-138759845D01*
X119761286Y-138103037D01*
X119510466Y-137496005D01*
X119046437Y-137031166D01*
X118439845Y-136779287D01*
X117783037Y-136778714D01*
X117608473Y-136850842D01*
X116794001Y-136036371D01*
X116794001Y-128346278D01*
X116860943Y-128318618D01*
X117124192Y-128055828D01*
X117266838Y-127712300D01*
X117267162Y-127340334D01*
X117125117Y-126996558D01*
X116862327Y-126733309D01*
X116518799Y-126590663D01*
X116146833Y-126590339D01*
X115803057Y-126732384D01*
X115539808Y-126995174D01*
X115397162Y-127338702D01*
X115397082Y-127430514D01*
X115328005Y-127533895D01*
X115270001Y-127825500D01*
X115270001Y-136352001D01*
X115328005Y-136643606D01*
X115427150Y-136791986D01*
X115493186Y-136890816D01*
X116530654Y-137928285D01*
X116459287Y-138100155D01*
X116458714Y-138756963D01*
X116585992Y-139065000D01*
X114554002Y-139065000D01*
X114680713Y-138759845D01*
X114681286Y-138103037D01*
X114430466Y-137496005D01*
X113966437Y-137031166D01*
X113792000Y-136958733D01*
X113792000Y-128730131D01*
X114061505Y-128460626D01*
X114104167Y-128460663D01*
X114447943Y-128318618D01*
X114711192Y-128055828D01*
X114853838Y-127712300D01*
X114854162Y-127340334D01*
X114712117Y-126996558D01*
X114449327Y-126733309D01*
X114105799Y-126590663D01*
X113733833Y-126590339D01*
X113390057Y-126732384D01*
X113126808Y-126995174D01*
X112984162Y-127338702D01*
X112984124Y-127382747D01*
X112694873Y-127671998D01*
X112695162Y-127340334D01*
X112553117Y-126996558D01*
X112290327Y-126733309D01*
X111946799Y-126590663D01*
X111574833Y-126590339D01*
X111231057Y-126732384D01*
X110967808Y-126995174D01*
X110825162Y-127338702D01*
X110825124Y-127382746D01*
X107411185Y-130796686D01*
X107246004Y-131043896D01*
X107188000Y-131335501D01*
X107188000Y-136958467D01*
X107016005Y-137029534D01*
X106551166Y-137493563D01*
X106299287Y-138100155D01*
X106298714Y-138756963D01*
X106425992Y-139065000D01*
X103312630Y-139065000D01*
X103179346Y-138931716D01*
X103250713Y-138759845D01*
X103251286Y-138103037D01*
X103000466Y-137496005D01*
X102536437Y-137031166D01*
X102362000Y-136958733D01*
X102362000Y-127254000D01*
X102303996Y-126962395D01*
X102259374Y-126895614D01*
X102138815Y-126715184D01*
X102027125Y-126603494D01*
X102027162Y-126560833D01*
X101885117Y-126217057D01*
X101622327Y-125953808D01*
X101278799Y-125811162D01*
X100906833Y-125810838D01*
X100563057Y-125952883D01*
X100299808Y-126215673D01*
X100157162Y-126559201D01*
X100156838Y-126931167D01*
X100298883Y-127274943D01*
X100561673Y-127538192D01*
X100838000Y-127652934D01*
X100838000Y-136958467D01*
X100666005Y-137029534D01*
X100201166Y-137493563D01*
X99949287Y-138100155D01*
X99948714Y-138756963D01*
X100199534Y-139363995D01*
X100408175Y-139573000D01*
X98740631Y-139573000D01*
X98099346Y-138931716D01*
X98170713Y-138759845D01*
X98171286Y-138103037D01*
X97920466Y-137496005D01*
X97456437Y-137031166D01*
X96849845Y-136779287D01*
X96193037Y-136778714D01*
X95586005Y-137029534D01*
X95121166Y-137493563D01*
X94869287Y-138100155D01*
X94868714Y-138756963D01*
X95119534Y-139363995D01*
X95583563Y-139828834D01*
X95884996Y-139954000D01*
X94041631Y-139954000D01*
X93019346Y-138931716D01*
X93090713Y-138759845D01*
X93091286Y-138103037D01*
X92840466Y-137496005D01*
X92376437Y-137031166D01*
X91769845Y-136779287D01*
X91113037Y-136778714D01*
X90506005Y-137029534D01*
X90041166Y-137493563D01*
X89789287Y-138100155D01*
X89788714Y-138756963D01*
X90039534Y-139363995D01*
X90503563Y-139828834D01*
X91110155Y-140080713D01*
X91766963Y-140081286D01*
X91941528Y-140009158D01*
X92413390Y-140481020D01*
X89488650Y-140481020D01*
X87939346Y-138931716D01*
X88010713Y-138759845D01*
X88011286Y-138103037D01*
X87760466Y-137496005D01*
X87296437Y-137031166D01*
X86689845Y-136779287D01*
X86033037Y-136778714D01*
X85426005Y-137029534D01*
X84961166Y-137493563D01*
X84709287Y-138100155D01*
X84708714Y-138756963D01*
X84959534Y-139363995D01*
X85423563Y-139828834D01*
X86030155Y-140080713D01*
X86686963Y-140081286D01*
X86861528Y-140009158D01*
X87747370Y-140895000D01*
X71195000Y-140895000D01*
X71195000Y-138789744D01*
X73479862Y-138789744D01*
X73766431Y-139216584D01*
X74933363Y-139699982D01*
X76196457Y-139700018D01*
X77363417Y-139216685D01*
X77363569Y-139216584D01*
X77650138Y-138789744D01*
X77617358Y-138756963D01*
X79628714Y-138756963D01*
X79879534Y-139363995D01*
X80343563Y-139828834D01*
X80950155Y-140080713D01*
X81606963Y-140081286D01*
X82213995Y-139830466D01*
X82678834Y-139366437D01*
X82930713Y-138759845D01*
X82931286Y-138103037D01*
X82680466Y-137496005D01*
X82216437Y-137031166D01*
X81609845Y-136779287D01*
X80953037Y-136778714D01*
X80346005Y-137029534D01*
X79881166Y-137493563D01*
X79629287Y-138100155D01*
X79628714Y-138756963D01*
X77617358Y-138756963D01*
X75565000Y-136704605D01*
X73479862Y-138789744D01*
X71195000Y-138789744D01*
X71195000Y-137156457D01*
X72389982Y-137156457D01*
X72873315Y-138323417D01*
X72873416Y-138323569D01*
X73300256Y-138610138D01*
X75385395Y-136525000D01*
X75744605Y-136525000D01*
X77829744Y-138610138D01*
X78256584Y-138323569D01*
X78739982Y-137156637D01*
X78740018Y-135893543D01*
X78256685Y-134726583D01*
X78256584Y-134726431D01*
X77829744Y-134439862D01*
X75744605Y-136525000D01*
X75385395Y-136525000D01*
X73300256Y-134439862D01*
X72873416Y-134726431D01*
X72390018Y-135893363D01*
X72389982Y-137156457D01*
X71195000Y-137156457D01*
X71195000Y-134260256D01*
X73479862Y-134260256D01*
X75565000Y-136345395D01*
X77650138Y-134260256D01*
X77363569Y-133833416D01*
X76196637Y-133350018D01*
X74933543Y-133349982D01*
X73766583Y-133833315D01*
X73766431Y-133833416D01*
X73479862Y-134260256D01*
X71195000Y-134260256D01*
X71195000Y-127326963D01*
X73278714Y-127326963D01*
X73529534Y-127933995D01*
X73993563Y-128398834D01*
X74600155Y-128650713D01*
X75256963Y-128651286D01*
X75863995Y-128400466D01*
X76328834Y-127936437D01*
X76580713Y-127329845D01*
X76581286Y-126673037D01*
X76330466Y-126066005D01*
X75866437Y-125601166D01*
X75259845Y-125349287D01*
X74603037Y-125348714D01*
X73996005Y-125599534D01*
X73531166Y-126063563D01*
X73279287Y-126670155D01*
X73278714Y-127326963D01*
X71195000Y-127326963D01*
X71195000Y-122246963D01*
X73278714Y-122246963D01*
X73529534Y-122853995D01*
X73993563Y-123318834D01*
X74600155Y-123570713D01*
X75256963Y-123571286D01*
X75863995Y-123320466D01*
X76328834Y-122856437D01*
X76580713Y-122249845D01*
X76581286Y-121593037D01*
X76330466Y-120986005D01*
X75866437Y-120521166D01*
X75259845Y-120269287D01*
X74603037Y-120268714D01*
X73996005Y-120519534D01*
X73531166Y-120983563D01*
X73279287Y-121590155D01*
X73278714Y-122246963D01*
X71195000Y-122246963D01*
X71195000Y-117166963D01*
X73278714Y-117166963D01*
X73529534Y-117773995D01*
X73993563Y-118238834D01*
X74600155Y-118490713D01*
X75256963Y-118491286D01*
X75863995Y-118240466D01*
X76328834Y-117776437D01*
X76580713Y-117169845D01*
X76581286Y-116513037D01*
X76330466Y-115906005D01*
X75866437Y-115441166D01*
X75259845Y-115189287D01*
X74603037Y-115188714D01*
X73996005Y-115439534D01*
X73531166Y-115903563D01*
X73279287Y-116510155D01*
X73278714Y-117166963D01*
X71195000Y-117166963D01*
X71195000Y-112086963D01*
X73278714Y-112086963D01*
X73529534Y-112693995D01*
X73993563Y-113158834D01*
X74600155Y-113410713D01*
X75256963Y-113411286D01*
X75863995Y-113160466D01*
X76328834Y-112696437D01*
X76580713Y-112089845D01*
X76581286Y-111433037D01*
X76330466Y-110826005D01*
X75866437Y-110361166D01*
X75259845Y-110109287D01*
X74603037Y-110108714D01*
X73996005Y-110359534D01*
X73531166Y-110823563D01*
X73279287Y-111430155D01*
X73278714Y-112086963D01*
X71195000Y-112086963D01*
X71195000Y-107006963D01*
X73278714Y-107006963D01*
X73529534Y-107613995D01*
X73993563Y-108078834D01*
X74600155Y-108330713D01*
X75256963Y-108331286D01*
X75863995Y-108080466D01*
X76328834Y-107616437D01*
X76580713Y-107009845D01*
X76581286Y-106353037D01*
X76330466Y-105746005D01*
X75866437Y-105281166D01*
X75259845Y-105029287D01*
X74603037Y-105028714D01*
X73996005Y-105279534D01*
X73531166Y-105743563D01*
X73279287Y-106350155D01*
X73278714Y-107006963D01*
X71195000Y-107006963D01*
X71195000Y-80336963D01*
X73278714Y-80336963D01*
X73529534Y-80943995D01*
X73993563Y-81408834D01*
X74600155Y-81660713D01*
X75256963Y-81661286D01*
X75431528Y-81589158D01*
X76423185Y-82580815D01*
X76670395Y-82745996D01*
X76962000Y-82804000D01*
X114935000Y-82804000D01*
X115226605Y-82745996D01*
X115473815Y-82580815D01*
X121681506Y-76373125D01*
X121724167Y-76373162D01*
X122067943Y-76231117D01*
X122331192Y-75968327D01*
X122473838Y-75624799D01*
X122474162Y-75252833D01*
X122332117Y-74909057D01*
X122069327Y-74645808D01*
X121725799Y-74503162D01*
X121353833Y-74502838D01*
X121010057Y-74644883D01*
X120746808Y-74907673D01*
X120604162Y-75251201D01*
X120604124Y-75295245D01*
X114619370Y-81280000D01*
X77277630Y-81280000D01*
X76509346Y-80511716D01*
X76580713Y-80339845D01*
X76581286Y-79683037D01*
X76330466Y-79076005D01*
X75866437Y-78611166D01*
X75259845Y-78359287D01*
X74603037Y-78358714D01*
X73996005Y-78609534D01*
X73531166Y-79073563D01*
X73279287Y-79680155D01*
X73278714Y-80336963D01*
X71195000Y-80336963D01*
X71195000Y-69146167D01*
X108665838Y-69146167D01*
X108807883Y-69489943D01*
X109070673Y-69753192D01*
X109414201Y-69895838D01*
X109528886Y-69895938D01*
X109563395Y-69918996D01*
X109855000Y-69977000D01*
X121867534Y-69977000D01*
X121897673Y-70007192D01*
X122241201Y-70149838D01*
X122613167Y-70150162D01*
X122956943Y-70008117D01*
X123220192Y-69745327D01*
X123362838Y-69401799D01*
X123363162Y-69029833D01*
X123221117Y-68686057D01*
X122958327Y-68422808D01*
X122614799Y-68280162D01*
X122242833Y-68279838D01*
X121899057Y-68421883D01*
X121867886Y-68453000D01*
X110402770Y-68453000D01*
X110394117Y-68432057D01*
X110131327Y-68168808D01*
X109787799Y-68026162D01*
X109415833Y-68025838D01*
X109072057Y-68167883D01*
X108808808Y-68430673D01*
X108666162Y-68774201D01*
X108665838Y-69146167D01*
X71195000Y-69146167D01*
X71195000Y-66606167D01*
X141558838Y-66606167D01*
X141700883Y-66949943D01*
X141963673Y-67213192D01*
X142307201Y-67355838D01*
X142679167Y-67356162D01*
X143022943Y-67214117D01*
X143054114Y-67183000D01*
X165735000Y-67183000D01*
X166026605Y-67124996D01*
X166273815Y-66959815D01*
X167401506Y-65832125D01*
X167444167Y-65832162D01*
X167787943Y-65690117D01*
X168051192Y-65427327D01*
X168193838Y-65083799D01*
X168194060Y-64828167D01*
X168355838Y-64828167D01*
X168497883Y-65171943D01*
X168529000Y-65203114D01*
X168529000Y-65697962D01*
X168587004Y-65989567D01*
X168680435Y-66129396D01*
X168752185Y-66236777D01*
X178619223Y-76103815D01*
X178866433Y-76268996D01*
X179158038Y-76327000D01*
X195908534Y-76327000D01*
X195938673Y-76357192D01*
X196282201Y-76499838D01*
X196654167Y-76500162D01*
X196997943Y-76358117D01*
X197261192Y-76095327D01*
X197403838Y-75751799D01*
X197404162Y-75379833D01*
X197262117Y-75036057D01*
X197029466Y-74803000D01*
X212037534Y-74803000D01*
X212067673Y-74833192D01*
X212411201Y-74975838D01*
X212783167Y-74976162D01*
X213126943Y-74834117D01*
X213390192Y-74571327D01*
X213532838Y-74227799D01*
X213533162Y-73855833D01*
X213391117Y-73512057D01*
X213128327Y-73248808D01*
X212784799Y-73106162D01*
X212412833Y-73105838D01*
X212069057Y-73247883D01*
X212037886Y-73279000D01*
X178877630Y-73279000D01*
X171242125Y-65643495D01*
X171242162Y-65600833D01*
X171100117Y-65257057D01*
X170837327Y-64993808D01*
X170493799Y-64851162D01*
X170217067Y-64850921D01*
X170225838Y-64829799D01*
X170226162Y-64457833D01*
X170084117Y-64114057D01*
X169821327Y-63850808D01*
X169477799Y-63708162D01*
X169105833Y-63707838D01*
X168762057Y-63849883D01*
X168498808Y-64112673D01*
X168356162Y-64456201D01*
X168355838Y-64828167D01*
X168194060Y-64828167D01*
X168194162Y-64711833D01*
X168052117Y-64368057D01*
X167789327Y-64104808D01*
X167445799Y-63962162D01*
X167073833Y-63961838D01*
X166730057Y-64103883D01*
X166466808Y-64366673D01*
X166324162Y-64710201D01*
X166324124Y-64754246D01*
X165419370Y-65659000D01*
X143054466Y-65659000D01*
X143024327Y-65628808D01*
X142680799Y-65486162D01*
X142308833Y-65485838D01*
X141965057Y-65627883D01*
X141701808Y-65890673D01*
X141559162Y-66234201D01*
X141558838Y-66606167D01*
X71195000Y-66606167D01*
X71195000Y-52000661D01*
X89397758Y-52000661D01*
X89609990Y-52514303D01*
X90002630Y-52907629D01*
X90058717Y-52930918D01*
X90091004Y-53093235D01*
X90196155Y-53250604D01*
X90256185Y-53340445D01*
X90413555Y-53497816D01*
X90561747Y-53596834D01*
X90660765Y-53662996D01*
X90952370Y-53721000D01*
X93711722Y-53721000D01*
X94003327Y-53662996D01*
X94250537Y-53497815D01*
X95424353Y-52324000D01*
X95950370Y-52324000D01*
X97759185Y-54132815D01*
X98006395Y-54297996D01*
X98298000Y-54356000D01*
X110809370Y-54356000D01*
X118841185Y-62387815D01*
X119088395Y-62552996D01*
X119380000Y-62611000D01*
X125296534Y-62611000D01*
X125326673Y-62641192D01*
X125670201Y-62783838D01*
X126042167Y-62784162D01*
X126385943Y-62642117D01*
X126649192Y-62379327D01*
X126791838Y-62035799D01*
X126792162Y-61663833D01*
X126763721Y-61595000D01*
X168349534Y-61595000D01*
X168379673Y-61625192D01*
X168723201Y-61767838D01*
X169095167Y-61768162D01*
X169319206Y-61675591D01*
X169395673Y-61752192D01*
X169739201Y-61894838D01*
X170111167Y-61895162D01*
X170454943Y-61753117D01*
X170585274Y-61623013D01*
X170628201Y-61640838D01*
X171000167Y-61641162D01*
X171343943Y-61499117D01*
X171607192Y-61236327D01*
X171699470Y-61014097D01*
X171762167Y-61014152D01*
X172105943Y-60872107D01*
X172369192Y-60609317D01*
X172468103Y-60371113D01*
X172524167Y-60371162D01*
X172867943Y-60229117D01*
X173131192Y-59966327D01*
X173273838Y-59622799D01*
X173274162Y-59250833D01*
X173132117Y-58907057D01*
X172869327Y-58643808D01*
X172525799Y-58501162D01*
X172481754Y-58501124D01*
X172242815Y-58262185D01*
X172232655Y-58255396D01*
X171995605Y-58097004D01*
X171704000Y-58039000D01*
X157668631Y-58039000D01*
X153162000Y-53532370D01*
X153162000Y-52757466D01*
X153192192Y-52727327D01*
X153334838Y-52383799D01*
X153335162Y-52011833D01*
X153193117Y-51668057D01*
X152930327Y-51404808D01*
X152586799Y-51262162D01*
X152214833Y-51261838D01*
X151871057Y-51403883D01*
X151607808Y-51666673D01*
X151465162Y-52010201D01*
X151464838Y-52382167D01*
X151606883Y-52725943D01*
X151638000Y-52757114D01*
X151638000Y-53848000D01*
X151696004Y-54139605D01*
X151801838Y-54297996D01*
X151861185Y-54386815D01*
X156002349Y-58527980D01*
X147235610Y-58527980D01*
X143002000Y-54294370D01*
X143002000Y-53011466D01*
X143032192Y-52981327D01*
X143174838Y-52637799D01*
X143175162Y-52265833D01*
X143033117Y-51922057D01*
X142770327Y-51658808D01*
X142426799Y-51516162D01*
X142054833Y-51515838D01*
X141711057Y-51657883D01*
X141447808Y-51920673D01*
X141305162Y-52264201D01*
X141304838Y-52636167D01*
X141446883Y-52979943D01*
X141478000Y-53011114D01*
X141478000Y-54610000D01*
X141536004Y-54901605D01*
X141701185Y-55148815D01*
X145534360Y-58981990D01*
X136005620Y-58981990D01*
X132588000Y-55564370D01*
X132588000Y-53265466D01*
X132618192Y-53235327D01*
X132760838Y-52891799D01*
X132761162Y-52519833D01*
X132619117Y-52176057D01*
X132356327Y-51912808D01*
X132012799Y-51770162D01*
X131640833Y-51769838D01*
X131297057Y-51911883D01*
X131033808Y-52174673D01*
X130891162Y-52518201D01*
X130890838Y-52890167D01*
X131032883Y-53233943D01*
X131064000Y-53265114D01*
X131064000Y-55880000D01*
X131122004Y-56171605D01*
X131287185Y-56418815D01*
X134304370Y-59436000D01*
X124140631Y-59436000D01*
X122936000Y-58231370D01*
X122936000Y-52849721D01*
X123210943Y-52736117D01*
X123474192Y-52473327D01*
X123616838Y-52129799D01*
X123617162Y-51757833D01*
X123475117Y-51414057D01*
X123212327Y-51150808D01*
X122868799Y-51008162D01*
X122496833Y-51007838D01*
X122153057Y-51149883D01*
X121889808Y-51412673D01*
X121747162Y-51756201D01*
X121747124Y-51800246D01*
X121635185Y-51912185D01*
X121470004Y-52159395D01*
X121412000Y-52451000D01*
X121412000Y-58547000D01*
X121470004Y-58838605D01*
X121529736Y-58928000D01*
X121635185Y-59085815D01*
X122620369Y-60071000D01*
X119695630Y-60071000D01*
X114092125Y-54467495D01*
X114092162Y-54424833D01*
X113950117Y-54081057D01*
X113687327Y-53817808D01*
X113343799Y-53675162D01*
X112971833Y-53674838D01*
X112628057Y-53816883D01*
X112526697Y-53918067D01*
X111663815Y-53055185D01*
X111565982Y-52989815D01*
X111416605Y-52890004D01*
X111125000Y-52832000D01*
X109339809Y-52832000D01*
X109411491Y-52727090D01*
X109462500Y-52475200D01*
X109462500Y-48975080D01*
X109418222Y-48739763D01*
X109279150Y-48523639D01*
X109066950Y-48378649D01*
X108815060Y-48327640D01*
X105314940Y-48327640D01*
X105079623Y-48371918D01*
X104863499Y-48510990D01*
X104751060Y-48675550D01*
X104751060Y-48011150D01*
X104592310Y-47852400D01*
X102493000Y-47852400D01*
X102493000Y-49951710D01*
X102651750Y-50110460D01*
X104242370Y-50110460D01*
X104475759Y-50013787D01*
X104654387Y-49835158D01*
X104667500Y-49803500D01*
X104667500Y-52475200D01*
X104711778Y-52710517D01*
X104789950Y-52832000D01*
X98613630Y-52832000D01*
X96804815Y-51023185D01*
X96800054Y-51020004D01*
X96557605Y-50858004D01*
X96266000Y-50800000D01*
X95108722Y-50800000D01*
X94817117Y-50858004D01*
X94569906Y-51023185D01*
X94560763Y-51032328D01*
X94520010Y-50933697D01*
X94311168Y-50724490D01*
X94518629Y-50517390D01*
X94731757Y-50004120D01*
X94732242Y-49448359D01*
X94520010Y-48934717D01*
X94127370Y-48541391D01*
X94097000Y-48528780D01*
X94097000Y-48430601D01*
X96838484Y-48430601D01*
X96979952Y-48733790D01*
X97716432Y-49018747D01*
X98505900Y-49000174D01*
X99149008Y-48733790D01*
X99290476Y-48430601D01*
X98064480Y-47204605D01*
X96838484Y-48430601D01*
X94097000Y-48430601D01*
X94097000Y-46676952D01*
X96070733Y-46676952D01*
X96089306Y-47466420D01*
X96355690Y-48109528D01*
X96658879Y-48250996D01*
X97884875Y-47025000D01*
X98244085Y-47025000D01*
X99470081Y-48250996D01*
X99773270Y-48109528D01*
X99811334Y-48011150D01*
X99980940Y-48011150D01*
X99980940Y-49601769D01*
X100077613Y-49835158D01*
X100256241Y-50013787D01*
X100489630Y-50110460D01*
X102080250Y-50110460D01*
X102239000Y-49951710D01*
X102239000Y-47852400D01*
X100139690Y-47852400D01*
X99980940Y-48011150D01*
X99811334Y-48011150D01*
X100018085Y-47476795D01*
X100139690Y-47598400D01*
X102239000Y-47598400D01*
X102239000Y-45499090D01*
X102493000Y-45499090D01*
X102493000Y-47598400D01*
X104592310Y-47598400D01*
X104751060Y-47439650D01*
X104751060Y-46773728D01*
X104776613Y-46835418D01*
X104955241Y-47014047D01*
X105188630Y-47110720D01*
X106779250Y-47110720D01*
X106938000Y-46951970D01*
X106938000Y-44852660D01*
X107192000Y-44852660D01*
X107192000Y-46951970D01*
X107350750Y-47110720D01*
X108941370Y-47110720D01*
X109174759Y-47014047D01*
X109353387Y-46835418D01*
X109450060Y-46602029D01*
X109450060Y-45011410D01*
X109291310Y-44852660D01*
X107192000Y-44852660D01*
X106938000Y-44852660D01*
X104838690Y-44852660D01*
X104679940Y-45011410D01*
X104679940Y-45677332D01*
X104654387Y-45615642D01*
X104475759Y-45437013D01*
X104242370Y-45340340D01*
X102651750Y-45340340D01*
X102493000Y-45499090D01*
X102239000Y-45499090D01*
X102080250Y-45340340D01*
X100489630Y-45340340D01*
X100256241Y-45437013D01*
X100077613Y-45615642D01*
X99980940Y-45849031D01*
X99980940Y-46441832D01*
X99773270Y-45940472D01*
X99470081Y-45799004D01*
X98244085Y-47025000D01*
X97884875Y-47025000D01*
X96658879Y-45799004D01*
X96355690Y-45940472D01*
X96070733Y-46676952D01*
X94097000Y-46676952D01*
X94097000Y-45619399D01*
X96838484Y-45619399D01*
X98064480Y-46845395D01*
X99290476Y-45619399D01*
X99149008Y-45316210D01*
X98412528Y-45031253D01*
X97623060Y-45049826D01*
X96979952Y-45316210D01*
X96838484Y-45619399D01*
X94097000Y-45619399D01*
X94097000Y-44267630D01*
X95515339Y-42849291D01*
X104679940Y-42849291D01*
X104679940Y-44439910D01*
X104838690Y-44598660D01*
X106938000Y-44598660D01*
X106938000Y-42499350D01*
X107192000Y-42499350D01*
X107192000Y-44598660D01*
X109291310Y-44598660D01*
X109450060Y-44439910D01*
X109450060Y-42849291D01*
X109353387Y-42615902D01*
X109174759Y-42437273D01*
X108941370Y-42340600D01*
X107350750Y-42340600D01*
X107192000Y-42499350D01*
X106938000Y-42499350D01*
X106779250Y-42340600D01*
X105188630Y-42340600D01*
X104955241Y-42437273D01*
X104776613Y-42615902D01*
X104679940Y-42849291D01*
X95515339Y-42849291D01*
X97343631Y-41021000D01*
X186032332Y-41021000D01*
X196240955Y-51229623D01*
X196184808Y-51285673D01*
X196042162Y-51629201D01*
X196042124Y-51673246D01*
X193136185Y-54579185D01*
X192971004Y-54826395D01*
X192913000Y-55118000D01*
X192913000Y-58367534D01*
X192882808Y-58397673D01*
X192740162Y-58741201D01*
X192739838Y-59113167D01*
X192881883Y-59456943D01*
X193144673Y-59720192D01*
X193488201Y-59862838D01*
X193860167Y-59863162D01*
X194203943Y-59721117D01*
X194467192Y-59458327D01*
X194609838Y-59114799D01*
X194610162Y-58742833D01*
X194468117Y-58399057D01*
X194437000Y-58367886D01*
X194437000Y-55433630D01*
X197119505Y-52751125D01*
X197162167Y-52751162D01*
X197505943Y-52609117D01*
X197563246Y-52551914D01*
X202325440Y-57314108D01*
X202113559Y-57450450D01*
X201968569Y-57662650D01*
X201917560Y-57914540D01*
X201917560Y-59692540D01*
X201961838Y-59927857D01*
X202100910Y-60143981D01*
X202313110Y-60288971D01*
X202565000Y-60339980D01*
X204089000Y-60339980D01*
X204324317Y-60295702D01*
X204340099Y-60285547D01*
X204345110Y-60288971D01*
X204597000Y-60339980D01*
X206121000Y-60339980D01*
X206356317Y-60295702D01*
X206572441Y-60156630D01*
X206717431Y-59944430D01*
X206768440Y-59692540D01*
X206768440Y-57914540D01*
X206724162Y-57679223D01*
X206585090Y-57463099D01*
X206372890Y-57318109D01*
X206121000Y-57267100D01*
X205994952Y-57267100D01*
X205897815Y-57121725D01*
X198065834Y-49289744D01*
X213179862Y-49289744D01*
X213466431Y-49716584D01*
X214633363Y-50199982D01*
X215896457Y-50200018D01*
X217063417Y-49716685D01*
X217063569Y-49716584D01*
X217350138Y-49289744D01*
X215265000Y-47204605D01*
X213179862Y-49289744D01*
X198065834Y-49289744D01*
X196432547Y-47656457D01*
X212089982Y-47656457D01*
X212573315Y-48823417D01*
X212573416Y-48823569D01*
X213000256Y-49110138D01*
X215085395Y-47025000D01*
X215444605Y-47025000D01*
X217529744Y-49110138D01*
X217956584Y-48823569D01*
X218439982Y-47656637D01*
X218440018Y-46393543D01*
X217956685Y-45226583D01*
X217956584Y-45226431D01*
X217529744Y-44939862D01*
X215444605Y-47025000D01*
X215085395Y-47025000D01*
X213000256Y-44939862D01*
X212573416Y-45226431D01*
X212090018Y-46393363D01*
X212089982Y-47656457D01*
X196432547Y-47656457D01*
X193536346Y-44760256D01*
X213179862Y-44760256D01*
X215265000Y-46845395D01*
X217350138Y-44760256D01*
X217063569Y-44333416D01*
X215896637Y-43850018D01*
X214633543Y-43849982D01*
X213466583Y-44333315D01*
X213466431Y-44333416D01*
X213179862Y-44760256D01*
X193536346Y-44760256D01*
X188042264Y-39266174D01*
X187795055Y-39100994D01*
X187503450Y-39042990D01*
X95831010Y-39042990D01*
X95539406Y-39100993D01*
X95292195Y-39266174D01*
X92298185Y-42260185D01*
X92133004Y-42507395D01*
X92075000Y-42799000D01*
X92075000Y-47817369D01*
X91707184Y-48185186D01*
X91542003Y-48432396D01*
X91527260Y-48506516D01*
X91526143Y-48502623D01*
X91002698Y-48315876D01*
X90447632Y-48343658D01*
X90063857Y-48502623D01*
X89994392Y-48744807D01*
X90795000Y-49545415D01*
X90809143Y-49531273D01*
X90988748Y-49710878D01*
X90974605Y-49725020D01*
X90988748Y-49739163D01*
X90809143Y-49918768D01*
X90795000Y-49904625D01*
X90270436Y-50429189D01*
X90004697Y-50538990D01*
X89611371Y-50931630D01*
X89398243Y-51444900D01*
X89397758Y-52000661D01*
X71195000Y-52000661D01*
X71195000Y-49889744D01*
X73479862Y-49889744D01*
X73766431Y-50316584D01*
X74933363Y-50799982D01*
X76196457Y-50800018D01*
X77363417Y-50316685D01*
X77363569Y-50316584D01*
X77650138Y-49889744D01*
X75565000Y-47804605D01*
X73479862Y-49889744D01*
X71195000Y-49889744D01*
X71195000Y-48256457D01*
X72389982Y-48256457D01*
X72873315Y-49423417D01*
X72873416Y-49423569D01*
X73300256Y-49710138D01*
X75385395Y-47625000D01*
X75744605Y-47625000D01*
X77829744Y-49710138D01*
X78116940Y-49517322D01*
X89385856Y-49517322D01*
X89413638Y-50072388D01*
X89572603Y-50456163D01*
X89814787Y-50525628D01*
X90615395Y-49725020D01*
X89814787Y-48924412D01*
X89572603Y-48993877D01*
X89385856Y-49517322D01*
X78116940Y-49517322D01*
X78256584Y-49423569D01*
X78667917Y-48430601D01*
X84839524Y-48430601D01*
X84980992Y-48733790D01*
X85717472Y-49018747D01*
X86506940Y-49000174D01*
X87150048Y-48733790D01*
X87291516Y-48430601D01*
X86065520Y-47204605D01*
X84839524Y-48430601D01*
X78667917Y-48430601D01*
X78739982Y-48256637D01*
X78740018Y-46993543D01*
X78608892Y-46676952D01*
X84071773Y-46676952D01*
X84090346Y-47466420D01*
X84356730Y-48109528D01*
X84659919Y-48250996D01*
X85885915Y-47025000D01*
X86245125Y-47025000D01*
X87471121Y-48250996D01*
X87774310Y-48109528D01*
X88059267Y-47373048D01*
X88040694Y-46583580D01*
X87774310Y-45940472D01*
X87471121Y-45799004D01*
X86245125Y-47025000D01*
X85885915Y-47025000D01*
X84659919Y-45799004D01*
X84356730Y-45940472D01*
X84071773Y-46676952D01*
X78608892Y-46676952D01*
X78256685Y-45826583D01*
X78256584Y-45826431D01*
X77948214Y-45619399D01*
X84839524Y-45619399D01*
X86065520Y-46845395D01*
X87291516Y-45619399D01*
X87150048Y-45316210D01*
X86413568Y-45031253D01*
X85624100Y-45049826D01*
X84980992Y-45316210D01*
X84839524Y-45619399D01*
X77948214Y-45619399D01*
X77829744Y-45539862D01*
X75744605Y-47625000D01*
X75385395Y-47625000D01*
X73300256Y-45539862D01*
X72873416Y-45826431D01*
X72390018Y-46993363D01*
X72389982Y-48256457D01*
X71195000Y-48256457D01*
X71195000Y-45360256D01*
X73479862Y-45360256D01*
X75565000Y-47445395D01*
X77650138Y-45360256D01*
X77363569Y-44933416D01*
X76196637Y-44450018D01*
X74933543Y-44449982D01*
X73766583Y-44933315D01*
X73766431Y-44933416D01*
X73479862Y-45360256D01*
X71195000Y-45360256D01*
X71195000Y-38175000D01*
X222175000Y-38175000D01*
X222175000Y-43630186D01*
X222175000Y-43630186D01*
G37*
X222175000Y-43630186D02*
X222113995Y-43323494D01*
X221927240Y-43043995D01*
X221907519Y-43014480D01*
X220383519Y-41490481D01*
X220074506Y-41284005D01*
X219710000Y-41211500D01*
X203251958Y-41211500D01*
X202994379Y-40953471D01*
X202469443Y-40735498D01*
X201901051Y-40735002D01*
X201375735Y-40952058D01*
X200973471Y-41353621D01*
X200755498Y-41878557D01*
X200755002Y-42446949D01*
X200972058Y-42972265D01*
X201373621Y-43374529D01*
X201898557Y-43592502D01*
X202466949Y-43592998D01*
X202992265Y-43375942D01*
X203252160Y-43116500D01*
X219315462Y-43116500D01*
X220281500Y-44082539D01*
X220281500Y-91052712D01*
X214923122Y-96411090D01*
X214860812Y-96348671D01*
X214616374Y-96247171D01*
X214671234Y-96192406D01*
X214813880Y-95848878D01*
X214814204Y-95476912D01*
X214672159Y-95133136D01*
X214409369Y-94869887D01*
X214117152Y-94748547D01*
X214129027Y-94730775D01*
X214153226Y-94609118D01*
X214217223Y-94545233D01*
X214359869Y-94201705D01*
X214360193Y-93829739D01*
X214218148Y-93485963D01*
X213955358Y-93222714D01*
X213611830Y-93080068D01*
X213452043Y-93079929D01*
X213452043Y-92894441D01*
X213772985Y-92761831D01*
X214036234Y-92499041D01*
X214178880Y-92155513D01*
X214179176Y-91816169D01*
X214279192Y-91716327D01*
X214421838Y-91372799D01*
X214422162Y-91000833D01*
X214280117Y-90657057D01*
X214017327Y-90393808D01*
X213673799Y-90251162D01*
X213301833Y-90250838D01*
X213233457Y-90279090D01*
X209664551Y-86710185D01*
X209623616Y-86682833D01*
X209417341Y-86545004D01*
X209125736Y-86487000D01*
X183906811Y-86487000D01*
X178503978Y-81084167D01*
X187024838Y-81084167D01*
X187166883Y-81427943D01*
X187429673Y-81691192D01*
X187773201Y-81833838D01*
X187824735Y-81833883D01*
X188049395Y-81983996D01*
X188341000Y-82042000D01*
X197051534Y-82042000D01*
X197081673Y-82072192D01*
X197425201Y-82214838D01*
X197797167Y-82215162D01*
X198140943Y-82073117D01*
X198404192Y-81810327D01*
X198546838Y-81466799D01*
X198547162Y-81094833D01*
X198405117Y-80751057D01*
X198142327Y-80487808D01*
X197798799Y-80345162D01*
X197426833Y-80344838D01*
X197083057Y-80486883D01*
X197051886Y-80518000D01*
X188814246Y-80518000D01*
X188753117Y-80370057D01*
X188490327Y-80106808D01*
X188146799Y-79964162D01*
X187774833Y-79963838D01*
X187431057Y-80105883D01*
X187167808Y-80368673D01*
X187025162Y-80712201D01*
X187024838Y-81084167D01*
X178503978Y-81084167D01*
X168889995Y-71470185D01*
X168642785Y-71305004D01*
X168351180Y-71247000D01*
X115316000Y-71247000D01*
X115024395Y-71305004D01*
X114777185Y-71470185D01*
X110855495Y-75391875D01*
X110812833Y-75391838D01*
X110469057Y-75533883D01*
X110205808Y-75796673D01*
X110063162Y-76140201D01*
X110062838Y-76512167D01*
X110204883Y-76855943D01*
X110467673Y-77119192D01*
X110811201Y-77261838D01*
X111183167Y-77262162D01*
X111526943Y-77120117D01*
X111790192Y-76857327D01*
X111932838Y-76513799D01*
X111932876Y-76469754D01*
X115631630Y-72771000D01*
X144591369Y-72771000D01*
X138795495Y-78566875D01*
X138752833Y-78566838D01*
X138409057Y-78708883D01*
X138145808Y-78971673D01*
X138003162Y-79315201D01*
X138003117Y-79367001D01*
X133618416Y-79367001D01*
X133508117Y-79100057D01*
X133245327Y-78836808D01*
X132901799Y-78694162D01*
X132529833Y-78693838D01*
X132186057Y-78835883D01*
X131922808Y-79098673D01*
X131780162Y-79442201D01*
X131779838Y-79814167D01*
X131921883Y-80157943D01*
X132184673Y-80421192D01*
X132528201Y-80563838D01*
X132572246Y-80563876D01*
X132676185Y-80667816D01*
X132900709Y-80817838D01*
X132923396Y-80832997D01*
X133215001Y-80891001D01*
X140469999Y-80891001D01*
X140761604Y-80832997D01*
X141008814Y-80667816D01*
X147889631Y-73787000D01*
X161570408Y-73787000D01*
X166904408Y-79121000D01*
X159945466Y-79121000D01*
X159915327Y-79090808D01*
X159571799Y-78948162D01*
X159199833Y-78947838D01*
X158856057Y-79089883D01*
X158592808Y-79352673D01*
X158450162Y-79696201D01*
X158449838Y-80068167D01*
X158591883Y-80411943D01*
X158854673Y-80675192D01*
X159198201Y-80817838D01*
X159570167Y-80818162D01*
X159913943Y-80676117D01*
X159945114Y-80645000D01*
X167786340Y-80645000D01*
X182853316Y-95711976D01*
X182694833Y-95711838D01*
X182351057Y-95853883D01*
X182087808Y-96116673D01*
X181945162Y-96460201D01*
X181944838Y-96832167D01*
X182059255Y-97109077D01*
X181716057Y-97250883D01*
X181684886Y-97282000D01*
X181229000Y-97282000D01*
X180937395Y-97340004D01*
X180883859Y-97375776D01*
X180690185Y-97505184D01*
X176260495Y-101934875D01*
X176217833Y-101934838D01*
X175874057Y-102076883D01*
X175610808Y-102339673D01*
X175468162Y-102683201D01*
X175467838Y-103055167D01*
X175609883Y-103398943D01*
X175872673Y-103662192D01*
X176216201Y-103804838D01*
X176588167Y-103805162D01*
X176931943Y-103663117D01*
X177195192Y-103400327D01*
X177337838Y-103056799D01*
X177337876Y-103012754D01*
X181544631Y-98806000D01*
X181684534Y-98806000D01*
X181714673Y-98836192D01*
X182006847Y-98957514D01*
X182006818Y-98991167D01*
X182148863Y-99334943D01*
X182326158Y-99512548D01*
X182326124Y-99552246D01*
X179801185Y-102077185D01*
X179636004Y-102324395D01*
X179578000Y-102616000D01*
X179578000Y-103704255D01*
X179365000Y-103661887D01*
X178919174Y-103750567D01*
X178541221Y-104003108D01*
X178365000Y-104266840D01*
X178188779Y-104003108D01*
X177810826Y-103750567D01*
X177365000Y-103661887D01*
X176919174Y-103750567D01*
X176541221Y-104003108D01*
X176367999Y-104262351D01*
X176098977Y-103941418D01*
X175671596Y-103731068D01*
X175492000Y-103856797D01*
X175492000Y-104998000D01*
X175512000Y-104998000D01*
X175512000Y-105252000D01*
X175492000Y-105252000D01*
X175492000Y-106393203D01*
X175671596Y-106518932D01*
X176098977Y-106308582D01*
X176367999Y-105987649D01*
X176541221Y-106246892D01*
X176585195Y-106276274D01*
X176546385Y-106283994D01*
X176299175Y-106449175D01*
X175133000Y-107615350D01*
X175133000Y-106466710D01*
X175238000Y-106393203D01*
X175238000Y-105252000D01*
X175218000Y-105252000D01*
X175218000Y-104998000D01*
X175238000Y-104998000D01*
X175238000Y-103856797D01*
X175133000Y-103783290D01*
X175133000Y-92710000D01*
X175074996Y-92418395D01*
X175001270Y-92308057D01*
X174909816Y-92171185D01*
X169464125Y-86725495D01*
X169464162Y-86682833D01*
X169322117Y-86339057D01*
X169059327Y-86075808D01*
X168715799Y-85933162D01*
X168343833Y-85932838D01*
X168000057Y-86074883D01*
X167736808Y-86337673D01*
X167594162Y-86681201D01*
X167593838Y-87053167D01*
X167735883Y-87396943D01*
X167998673Y-87660192D01*
X168342201Y-87802838D01*
X168386246Y-87802876D01*
X173609000Y-93025631D01*
X173609000Y-103710421D01*
X173365000Y-103661887D01*
X172919174Y-103750567D01*
X172541221Y-104003108D01*
X172367999Y-104262351D01*
X172098977Y-103941418D01*
X171671596Y-103731068D01*
X171492000Y-103856797D01*
X171492000Y-104998000D01*
X171512000Y-104998000D01*
X171512000Y-105252000D01*
X171492000Y-105252000D01*
X171492000Y-106393203D01*
X171671596Y-106518932D01*
X172098977Y-106308582D01*
X172367999Y-105987649D01*
X172541221Y-106246892D01*
X172919174Y-106499433D01*
X173365000Y-106588113D01*
X173609000Y-106539579D01*
X173609000Y-107276968D01*
X173523405Y-107293994D01*
X173276194Y-107459175D01*
X172915117Y-107820252D01*
X172810826Y-107750567D01*
X172365000Y-107661887D01*
X171919174Y-107750567D01*
X171541221Y-108003108D01*
X171365000Y-108266840D01*
X171188779Y-108003108D01*
X170810826Y-107750567D01*
X170365000Y-107661887D01*
X169919174Y-107750567D01*
X169673981Y-107914400D01*
X169844299Y-107744379D01*
X170062272Y-107219443D01*
X170062768Y-106651051D01*
X169951296Y-106381268D01*
X170098977Y-106308582D01*
X170365000Y-105991227D01*
X170631023Y-106308582D01*
X171058404Y-106518932D01*
X171238000Y-106393203D01*
X171238000Y-105252000D01*
X169492000Y-105252000D01*
X169492000Y-105272000D01*
X169238000Y-105272000D01*
X169238000Y-105252000D01*
X168200000Y-105252000D01*
X168200000Y-105522000D01*
X168212623Y-105562104D01*
X167825505Y-105722058D01*
X167438388Y-106108500D01*
X163113655Y-106108500D01*
X162856076Y-105850471D01*
X162476357Y-105692797D01*
X162530000Y-105423113D01*
X162530000Y-104826887D01*
X162510331Y-104728000D01*
X168200000Y-104728000D01*
X168200000Y-104998000D01*
X169238000Y-104998000D01*
X169238000Y-103856797D01*
X169492000Y-103856797D01*
X169492000Y-104998000D01*
X171238000Y-104998000D01*
X171238000Y-103856797D01*
X171058404Y-103731068D01*
X170631023Y-103941418D01*
X170365000Y-104258773D01*
X170098977Y-103941418D01*
X169671596Y-103731068D01*
X169492000Y-103856797D01*
X169238000Y-103856797D01*
X169058404Y-103731068D01*
X168631023Y-103941418D01*
X168337281Y-104291841D01*
X168200000Y-104728000D01*
X162510331Y-104728000D01*
X162441320Y-104381061D01*
X162188779Y-104003108D01*
X161810826Y-103750567D01*
X161365000Y-103661887D01*
X160919174Y-103750567D01*
X160541221Y-104003108D01*
X160365000Y-104266840D01*
X160188779Y-104003108D01*
X159810826Y-103750567D01*
X159365000Y-103661887D01*
X158919174Y-103750567D01*
X158541221Y-104003108D01*
X158365000Y-104266840D01*
X158188779Y-104003108D01*
X158127000Y-103961828D01*
X158127000Y-101231000D01*
X158068996Y-100939395D01*
X158032536Y-100884829D01*
X157903815Y-100692184D01*
X155651814Y-98440184D01*
X155572811Y-98387396D01*
X155404604Y-98275003D01*
X155112999Y-98216999D01*
X153863767Y-98216999D01*
X153836107Y-98150057D01*
X153573317Y-97886808D01*
X153229789Y-97744162D01*
X152857823Y-97743838D01*
X152514047Y-97885883D01*
X152250798Y-98148673D01*
X152108152Y-98492201D01*
X152107828Y-98864167D01*
X152249873Y-99207943D01*
X152512663Y-99471192D01*
X152805507Y-99592792D01*
X152735162Y-99762201D01*
X152734838Y-100134167D01*
X152763476Y-100203477D01*
X152714498Y-100252370D01*
X152571852Y-100595898D01*
X152571814Y-100639942D01*
X149829185Y-103382572D01*
X149664004Y-103629782D01*
X149646481Y-103717877D01*
X149365000Y-103661887D01*
X148919174Y-103750567D01*
X148541221Y-104003108D01*
X148365000Y-104266840D01*
X148188779Y-104003108D01*
X147810826Y-103750567D01*
X147365000Y-103661887D01*
X146919174Y-103750567D01*
X146541221Y-104003108D01*
X146367999Y-104262351D01*
X146098977Y-103941418D01*
X145671596Y-103731068D01*
X145492000Y-103856797D01*
X145492000Y-104998000D01*
X145512000Y-104998000D01*
X145512000Y-105252000D01*
X145492000Y-105252000D01*
X145492000Y-106393203D01*
X145671596Y-106518932D01*
X146098977Y-106308582D01*
X146367999Y-105987649D01*
X146490428Y-106170875D01*
X144876185Y-107785118D01*
X144871972Y-107791423D01*
X144810826Y-107750567D01*
X144365000Y-107661887D01*
X143919174Y-107750567D01*
X143819679Y-107817048D01*
X143510000Y-107507370D01*
X143510000Y-106559271D01*
X143810826Y-106499433D01*
X144188779Y-106246892D01*
X144362001Y-105987649D01*
X144631023Y-106308582D01*
X145058404Y-106518932D01*
X145238000Y-106393203D01*
X145238000Y-105252000D01*
X145218000Y-105252000D01*
X145218000Y-104998000D01*
X145238000Y-104998000D01*
X145238000Y-103856797D01*
X145058404Y-103731068D01*
X144631023Y-103941418D01*
X144362001Y-104262351D01*
X144188779Y-104003108D01*
X143810826Y-103750567D01*
X143510000Y-103690729D01*
X143510000Y-91059000D01*
X143451996Y-90767395D01*
X143422892Y-90723838D01*
X143286815Y-90520184D01*
X139238125Y-86471495D01*
X139238162Y-86428833D01*
X139096117Y-86085057D01*
X138833327Y-85821808D01*
X138489799Y-85679162D01*
X138117833Y-85678838D01*
X137774057Y-85820883D01*
X137510808Y-86083673D01*
X137368162Y-86427201D01*
X137367838Y-86799167D01*
X137509883Y-87142943D01*
X137772673Y-87406192D01*
X138116201Y-87548838D01*
X138160246Y-87548876D01*
X141986000Y-91374631D01*
X141986000Y-93760802D01*
X141791799Y-93680162D01*
X141419833Y-93679838D01*
X141076057Y-93821883D01*
X140812808Y-94084673D01*
X140670162Y-94428201D01*
X140670124Y-94472246D01*
X139796185Y-95346185D01*
X139631004Y-95593395D01*
X139573000Y-95885000D01*
X139573000Y-103800092D01*
X139492000Y-103856797D01*
X139492000Y-104998000D01*
X139512000Y-104998000D01*
X139512000Y-105252000D01*
X139492000Y-105252000D01*
X139492000Y-105272000D01*
X139238000Y-105272000D01*
X139238000Y-105252000D01*
X138200000Y-105252000D01*
X138200000Y-105522000D01*
X138234682Y-105632189D01*
X138020051Y-105632002D01*
X137494735Y-105849058D01*
X137234840Y-106108500D01*
X132893958Y-106108500D01*
X132636379Y-105850471D01*
X132459595Y-105777064D01*
X132530000Y-105423113D01*
X132530000Y-104826887D01*
X132510331Y-104728000D01*
X138200000Y-104728000D01*
X138200000Y-104998000D01*
X139238000Y-104998000D01*
X139238000Y-103856797D01*
X139058404Y-103731068D01*
X138631023Y-103941418D01*
X138337281Y-104291841D01*
X138200000Y-104728000D01*
X132510331Y-104728000D01*
X132441320Y-104381061D01*
X132188779Y-104003108D01*
X131810826Y-103750567D01*
X131365000Y-103661887D01*
X131127000Y-103709228D01*
X131127000Y-102552000D01*
X131068996Y-102260395D01*
X130903815Y-102013185D01*
X128594885Y-99704255D01*
X128471767Y-99621990D01*
X128349721Y-99540441D01*
X128554192Y-99336327D01*
X128696838Y-98992799D01*
X128697162Y-98620833D01*
X128555117Y-98277057D01*
X128292327Y-98013808D01*
X127948799Y-97871162D01*
X127650533Y-97870902D01*
X126157125Y-96377495D01*
X126157162Y-96334833D01*
X126015117Y-95991057D01*
X125752327Y-95727808D01*
X125408799Y-95585162D01*
X125036833Y-95584838D01*
X124693057Y-95726883D01*
X124429808Y-95989673D01*
X124287162Y-96333201D01*
X124286838Y-96705167D01*
X124428883Y-97048943D01*
X124691673Y-97312192D01*
X125035201Y-97454838D01*
X125079246Y-97454876D01*
X126969184Y-99344815D01*
X126997875Y-99363986D01*
X127114755Y-99481070D01*
X124131848Y-99481070D01*
X124104188Y-99414128D01*
X123841398Y-99150879D01*
X123497870Y-99008233D01*
X123125904Y-99007909D01*
X123063000Y-99033900D01*
X123063000Y-95123000D01*
X123004996Y-94831395D01*
X122839815Y-94584185D01*
X114457815Y-86202185D01*
X114400673Y-86164004D01*
X114210605Y-86037004D01*
X113919000Y-85979000D01*
X110161466Y-85979000D01*
X110131327Y-85948808D01*
X109787799Y-85806162D01*
X109415833Y-85805838D01*
X109072057Y-85947883D01*
X108808808Y-86210673D01*
X108666162Y-86554201D01*
X108665838Y-86926167D01*
X108807883Y-87269943D01*
X109070673Y-87533192D01*
X109414201Y-87675838D01*
X109786167Y-87676162D01*
X110129943Y-87534117D01*
X110161114Y-87503000D01*
X113603370Y-87503000D01*
X121539000Y-95438630D01*
X121539000Y-100522369D01*
X119272524Y-102788846D01*
X119211400Y-102801004D01*
X119108141Y-102870000D01*
X116967000Y-102870000D01*
X116675395Y-102928004D01*
X116445576Y-103081565D01*
X116428185Y-103093185D01*
X115751148Y-103770222D01*
X115671596Y-103731068D01*
X115492000Y-103856797D01*
X115492000Y-104216166D01*
X115460010Y-104376990D01*
X115460010Y-105272000D01*
X115238000Y-105272000D01*
X115238000Y-105252000D01*
X115218000Y-105252000D01*
X115218000Y-104998000D01*
X115238000Y-104998000D01*
X115238000Y-103856797D01*
X115058404Y-103731068D01*
X114631023Y-103941418D01*
X114362001Y-104262351D01*
X114188779Y-104003108D01*
X113810826Y-103750567D01*
X113365000Y-103661887D01*
X113127000Y-103709228D01*
X113127000Y-96611630D01*
X113553506Y-96185125D01*
X113596167Y-96185162D01*
X113939943Y-96043117D01*
X114203192Y-95780327D01*
X114345838Y-95436799D01*
X114346162Y-95064833D01*
X114204117Y-94721057D01*
X113941327Y-94457808D01*
X113597799Y-94315162D01*
X113225833Y-94314838D01*
X112882057Y-94456883D01*
X112618808Y-94719673D01*
X112476162Y-95063201D01*
X112476124Y-95107246D01*
X111826185Y-95757185D01*
X111661004Y-96004395D01*
X111603000Y-96296000D01*
X111603000Y-103779090D01*
X111492000Y-103856797D01*
X111492000Y-104998000D01*
X111512000Y-104998000D01*
X111512000Y-105252000D01*
X111492000Y-105252000D01*
X111492000Y-106393203D01*
X111603000Y-106470910D01*
X111603000Y-107961828D01*
X111541221Y-108003108D01*
X111365000Y-108266840D01*
X111188779Y-108003108D01*
X110810826Y-107750567D01*
X110365000Y-107661887D01*
X109919174Y-107750567D01*
X109541221Y-108003108D01*
X109365000Y-108266840D01*
X109226396Y-108059406D01*
X109287529Y-107998379D01*
X109505502Y-107473443D01*
X109505998Y-106905051D01*
X109288942Y-106379735D01*
X109238000Y-106328704D01*
X109238000Y-105252000D01*
X109492000Y-105252000D01*
X109492000Y-106393203D01*
X109671596Y-106518932D01*
X110098977Y-106308582D01*
X110365000Y-105991227D01*
X110631023Y-106308582D01*
X111058404Y-106518932D01*
X111238000Y-106393203D01*
X111238000Y-105252000D01*
X109492000Y-105252000D01*
X109238000Y-105252000D01*
X108200000Y-105252000D01*
X108200000Y-105522000D01*
X108274728Y-105759421D01*
X107794051Y-105759002D01*
X107268735Y-105976058D01*
X107008840Y-106235500D01*
X82182538Y-106235500D01*
X80675038Y-104728000D01*
X108200000Y-104728000D01*
X108200000Y-104998000D01*
X109238000Y-104998000D01*
X109238000Y-103856797D01*
X109492000Y-103856797D01*
X109492000Y-104998000D01*
X111238000Y-104998000D01*
X111238000Y-103856797D01*
X111058404Y-103731068D01*
X110631023Y-103941418D01*
X110365000Y-104258773D01*
X110098977Y-103941418D01*
X109671596Y-103731068D01*
X109492000Y-103856797D01*
X109238000Y-103856797D01*
X109058404Y-103731068D01*
X108631023Y-103941418D01*
X108337281Y-104291841D01*
X108200000Y-104728000D01*
X80675038Y-104728000D01*
X76580736Y-100633698D01*
X76581286Y-100003037D01*
X76330466Y-99396005D01*
X75882500Y-98947257D01*
X75882500Y-96631993D01*
X76328834Y-96186437D01*
X76580713Y-95579845D01*
X76581286Y-94923037D01*
X76330466Y-94316005D01*
X75882500Y-93867257D01*
X75882500Y-91551993D01*
X76328834Y-91106437D01*
X76580713Y-90499845D01*
X76581286Y-89843037D01*
X76330466Y-89236005D01*
X75882500Y-88787257D01*
X75882500Y-86471993D01*
X76328834Y-86026437D01*
X76580713Y-85419845D01*
X76581286Y-84763037D01*
X76330466Y-84156005D01*
X75866437Y-83691166D01*
X75259845Y-83439287D01*
X74603037Y-83438714D01*
X73996005Y-83689534D01*
X73531166Y-84153563D01*
X73279287Y-84760155D01*
X73278714Y-85416963D01*
X73529534Y-86023995D01*
X73977500Y-86472743D01*
X73977500Y-88788007D01*
X73531166Y-89233563D01*
X73279287Y-89840155D01*
X73278714Y-90496963D01*
X73529534Y-91103995D01*
X73977500Y-91552743D01*
X73977500Y-93868007D01*
X73531166Y-94313563D01*
X73279287Y-94920155D01*
X73278714Y-95576963D01*
X73529534Y-96183995D01*
X73977500Y-96632743D01*
X73977500Y-98948007D01*
X73531166Y-99393563D01*
X73279287Y-100000155D01*
X73278714Y-100656963D01*
X73529534Y-101263995D01*
X73993563Y-101728834D01*
X74600155Y-101980713D01*
X75234228Y-101981266D01*
X81114481Y-107861519D01*
X81423494Y-108067995D01*
X81788000Y-108140500D01*
X107009042Y-108140500D01*
X107266621Y-108398529D01*
X107283788Y-108405657D01*
X107200000Y-108826887D01*
X107200000Y-109423113D01*
X107288680Y-109868939D01*
X107541221Y-110246892D01*
X107919174Y-110499433D01*
X108365000Y-110588113D01*
X108810826Y-110499433D01*
X109188779Y-110246892D01*
X109365000Y-109983160D01*
X109541221Y-110246892D01*
X109919174Y-110499433D01*
X110365000Y-110588113D01*
X110810826Y-110499433D01*
X111188779Y-110246892D01*
X111365000Y-109983160D01*
X111541221Y-110246892D01*
X111919174Y-110499433D01*
X112365000Y-110588113D01*
X112810826Y-110499433D01*
X113032014Y-110351639D01*
X116503190Y-113822815D01*
X116750400Y-113987996D01*
X117042005Y-114046000D01*
X124476000Y-114046000D01*
X124767605Y-113987996D01*
X125014815Y-113822815D01*
X128268678Y-110568953D01*
X128365000Y-110588113D01*
X128810826Y-110499433D01*
X129188779Y-110246892D01*
X129365000Y-109983160D01*
X129541221Y-110246892D01*
X129919174Y-110499433D01*
X130365000Y-110588113D01*
X130810826Y-110499433D01*
X131188779Y-110246892D01*
X131365000Y-109983160D01*
X131541221Y-110246892D01*
X131919174Y-110499433D01*
X132365000Y-110588113D01*
X132810826Y-110499433D01*
X133188779Y-110246892D01*
X133441320Y-109868939D01*
X133530000Y-109423113D01*
X133530000Y-108826887D01*
X133441320Y-108381061D01*
X133195723Y-108013500D01*
X137235042Y-108013500D01*
X137414295Y-108193066D01*
X137288680Y-108381061D01*
X137200000Y-108826887D01*
X137200000Y-109423113D01*
X137288680Y-109868939D01*
X137541221Y-110246892D01*
X137919174Y-110499433D01*
X138365000Y-110588113D01*
X138810826Y-110499433D01*
X139188779Y-110246892D01*
X139365000Y-109983160D01*
X139541221Y-110246892D01*
X139919174Y-110499433D01*
X140365000Y-110588113D01*
X140810826Y-110499433D01*
X141188779Y-110246892D01*
X141365000Y-109983160D01*
X141541221Y-110246892D01*
X141919174Y-110499433D01*
X142365000Y-110588113D01*
X142810826Y-110499433D01*
X142860582Y-110466187D01*
X143764000Y-111369605D01*
X143764000Y-111633000D01*
X143822004Y-111924605D01*
X143856610Y-111976396D01*
X143987185Y-112171815D01*
X145384184Y-113568815D01*
X145631395Y-113733996D01*
X145923000Y-113792000D01*
X155829000Y-113792000D01*
X156120605Y-113733996D01*
X156367815Y-113568815D01*
X158903816Y-111032815D01*
X159068997Y-110785604D01*
X159127000Y-110494000D01*
X159127000Y-110288172D01*
X159188779Y-110246892D01*
X159365000Y-109983160D01*
X159541221Y-110246892D01*
X159919174Y-110499433D01*
X160365000Y-110588113D01*
X160810826Y-110499433D01*
X161188779Y-110246892D01*
X161365000Y-109983160D01*
X161541221Y-110246892D01*
X161919174Y-110499433D01*
X162365000Y-110588113D01*
X162810826Y-110499433D01*
X163188779Y-110246892D01*
X163441320Y-109868939D01*
X163530000Y-109423113D01*
X163530000Y-108826887D01*
X163441320Y-108381061D01*
X163195723Y-108013500D01*
X167534277Y-108013500D01*
X167288680Y-108381061D01*
X167200000Y-108826887D01*
X167200000Y-109423113D01*
X167288680Y-109868939D01*
X167541221Y-110246892D01*
X167919174Y-110499433D01*
X168365000Y-110588113D01*
X168810826Y-110499433D01*
X169188779Y-110246892D01*
X169365000Y-109983160D01*
X169541221Y-110246892D01*
X169919174Y-110499433D01*
X170365000Y-110588113D01*
X170810826Y-110499433D01*
X171188779Y-110246892D01*
X171365000Y-109983160D01*
X171541221Y-110246892D01*
X171919174Y-110499433D01*
X172365000Y-110588113D01*
X172810826Y-110499433D01*
X172860582Y-110466187D01*
X175201210Y-112806816D01*
X175349402Y-112905834D01*
X175448420Y-112971996D01*
X175740025Y-113030000D01*
X187071000Y-113030000D01*
X187362605Y-112971996D01*
X187609815Y-112806815D01*
X188903815Y-111512816D01*
X189068996Y-111265605D01*
X189083240Y-111193996D01*
X189127000Y-110974000D01*
X189127000Y-110288172D01*
X189188779Y-110246892D01*
X189365000Y-109983160D01*
X189541221Y-110246892D01*
X189919174Y-110499433D01*
X190365000Y-110588113D01*
X190810826Y-110499433D01*
X191188779Y-110246892D01*
X191365000Y-109983160D01*
X191541221Y-110246892D01*
X191919174Y-110499433D01*
X192365000Y-110588113D01*
X192810826Y-110499433D01*
X193188779Y-110246892D01*
X193441320Y-109868939D01*
X193530000Y-109423113D01*
X193530000Y-108826887D01*
X193441320Y-108381061D01*
X193188779Y-108003108D01*
X192810826Y-107750567D01*
X192365000Y-107661887D01*
X191919174Y-107750567D01*
X191541221Y-108003108D01*
X191365000Y-108266840D01*
X191188779Y-108003108D01*
X190810826Y-107750567D01*
X190365000Y-107661887D01*
X190268677Y-107681047D01*
X189363815Y-106776185D01*
X189244549Y-106696494D01*
X189116605Y-106611004D01*
X188825000Y-106553000D01*
X188148631Y-106553000D01*
X187981214Y-106385583D01*
X188188779Y-106246892D01*
X188365000Y-105983160D01*
X188541221Y-106246892D01*
X188919174Y-106499433D01*
X189365000Y-106588113D01*
X189810826Y-106499433D01*
X190188779Y-106246892D01*
X190365000Y-105983160D01*
X190541221Y-106246892D01*
X190919174Y-106499433D01*
X191365000Y-106588113D01*
X191810826Y-106499433D01*
X192188779Y-106246892D01*
X192441320Y-105868939D01*
X192530000Y-105423113D01*
X192530000Y-104826887D01*
X192441320Y-104381061D01*
X192188779Y-104003108D01*
X191810826Y-103750567D01*
X191365000Y-103661887D01*
X191166152Y-103701440D01*
X191538816Y-103328776D01*
X191613241Y-103217391D01*
X191703997Y-103081566D01*
X191762001Y-102789961D01*
X191762001Y-102188039D01*
X191703997Y-101896434D01*
X191680988Y-101861999D01*
X191538816Y-101649223D01*
X191212776Y-101323184D01*
X191200353Y-101314883D01*
X190965566Y-101158003D01*
X190673961Y-101099999D01*
X189045630Y-101099999D01*
X188821673Y-100876042D01*
X194733957Y-100876042D01*
X194691000Y-101092000D01*
X194691000Y-103452534D01*
X194660808Y-103482673D01*
X194518162Y-103826201D01*
X194517838Y-104198167D01*
X194659883Y-104541943D01*
X194922673Y-104805192D01*
X195266201Y-104947838D01*
X195638167Y-104948162D01*
X195981943Y-104806117D01*
X196112274Y-104676013D01*
X196155201Y-104693838D01*
X196527167Y-104694162D01*
X196870943Y-104552117D01*
X197128431Y-104295078D01*
X197171201Y-104312838D01*
X197543167Y-104313162D01*
X197886943Y-104171117D01*
X198002043Y-104056218D01*
X198314201Y-104185838D01*
X198686167Y-104186162D01*
X199029943Y-104044117D01*
X199293192Y-103781327D01*
X199435838Y-103437799D01*
X199435938Y-103323114D01*
X199458996Y-103288605D01*
X199470917Y-103228673D01*
X199517000Y-102997000D01*
X199517000Y-102287466D01*
X199547192Y-102257327D01*
X199689838Y-101913799D01*
X199690162Y-101541833D01*
X199548117Y-101198057D01*
X199285327Y-100934808D01*
X199143803Y-100876042D01*
X210458170Y-100876042D01*
X205225712Y-106108500D01*
X195504958Y-106108500D01*
X195247379Y-105850471D01*
X194722443Y-105632498D01*
X194154051Y-105632002D01*
X193628735Y-105849058D01*
X193226471Y-106250621D01*
X193008498Y-106775557D01*
X193008002Y-107343949D01*
X193225058Y-107869265D01*
X193626621Y-108271529D01*
X194151557Y-108489502D01*
X194719949Y-108489998D01*
X195245265Y-108272942D01*
X195505160Y-108013500D01*
X205620250Y-108013500D01*
X205984756Y-107940995D01*
X206293769Y-107734519D01*
X221907519Y-92120769D01*
X222113995Y-91811756D01*
X222175000Y-91505064D01*
X222175000Y-140895000D01*
X186459767Y-140895000D01*
X186974816Y-140379951D01*
X187110299Y-140177185D01*
X187139996Y-140132741D01*
X187186952Y-139896679D01*
X187630155Y-140080713D01*
X188286963Y-140081286D01*
X188893995Y-139830466D01*
X189358834Y-139366437D01*
X189610713Y-138759845D01*
X189611286Y-138103037D01*
X189360466Y-137496005D01*
X188896437Y-137031166D01*
X188722000Y-136958733D01*
X188722000Y-133792630D01*
X192593630Y-129921000D01*
X195137370Y-129921000D01*
X192501185Y-132557185D01*
X192336004Y-132804395D01*
X192278000Y-133096000D01*
X192278000Y-136958467D01*
X192106005Y-137029534D01*
X191641166Y-137493563D01*
X191389287Y-138100155D01*
X191388714Y-138756963D01*
X191639534Y-139363995D01*
X192103563Y-139828834D01*
X192710155Y-140080713D01*
X193366963Y-140081286D01*
X193973995Y-139830466D01*
X194438834Y-139366437D01*
X194690713Y-138759845D01*
X194691286Y-138103037D01*
X194440466Y-137496005D01*
X193976437Y-137031166D01*
X193802000Y-136958733D01*
X193802000Y-133411630D01*
X196657630Y-130556000D01*
X198185370Y-130556000D01*
X197581185Y-131160185D01*
X197416004Y-131407395D01*
X197358000Y-131699000D01*
X197358000Y-136958467D01*
X197186005Y-137029534D01*
X196721166Y-137493563D01*
X196469287Y-138100155D01*
X196468714Y-138756963D01*
X196719534Y-139363995D01*
X197183563Y-139828834D01*
X197790155Y-140080713D01*
X198446963Y-140081286D01*
X199053995Y-139830466D01*
X199518834Y-139366437D01*
X199770713Y-138759845D01*
X199771286Y-138103037D01*
X199520466Y-137496005D01*
X199056437Y-137031166D01*
X198882000Y-136958733D01*
X198882000Y-132014630D01*
X199886621Y-131010009D01*
X201117097Y-131010009D01*
X200756185Y-131370921D01*
X200591004Y-131618131D01*
X200533000Y-131909736D01*
X200533000Y-133731000D01*
X200591004Y-134022605D01*
X200675863Y-134149605D01*
X200756185Y-134269815D01*
X202438000Y-135951630D01*
X202438000Y-136958467D01*
X202266005Y-137029534D01*
X201801166Y-137493563D01*
X201549287Y-138100155D01*
X201548714Y-138756963D01*
X201799534Y-139363995D01*
X202263563Y-139828834D01*
X202870155Y-140080713D01*
X203526963Y-140081286D01*
X204133995Y-139830466D01*
X204370766Y-139594107D01*
X207295498Y-139594107D01*
X207396120Y-139862622D01*
X208011642Y-140091816D01*
X208668019Y-140068014D01*
X209163880Y-139862622D01*
X209264502Y-139594107D01*
X208280000Y-138609605D01*
X207295498Y-139594107D01*
X204370766Y-139594107D01*
X204598834Y-139366437D01*
X204850713Y-138759845D01*
X204851234Y-138161642D01*
X206618184Y-138161642D01*
X206641986Y-138818019D01*
X206847378Y-139313880D01*
X207115893Y-139414502D01*
X208100395Y-138430000D01*
X208459605Y-138430000D01*
X209444107Y-139414502D01*
X209712622Y-139313880D01*
X209907787Y-138789744D01*
X213179862Y-138789744D01*
X213466431Y-139216584D01*
X214633363Y-139699982D01*
X215896457Y-139700018D01*
X217063417Y-139216685D01*
X217063569Y-139216584D01*
X217350138Y-138789744D01*
X215265000Y-136704605D01*
X213179862Y-138789744D01*
X209907787Y-138789744D01*
X209941816Y-138698358D01*
X209918014Y-138041981D01*
X209712622Y-137546120D01*
X209444107Y-137445498D01*
X208459605Y-138430000D01*
X208100395Y-138430000D01*
X207115893Y-137445498D01*
X206847378Y-137546120D01*
X206618184Y-138161642D01*
X204851234Y-138161642D01*
X204851286Y-138103037D01*
X204600466Y-137496005D01*
X204370755Y-137265893D01*
X207295498Y-137265893D01*
X208280000Y-138250395D01*
X209264502Y-137265893D01*
X209223493Y-137156457D01*
X212089982Y-137156457D01*
X212573315Y-138323417D01*
X212573416Y-138323569D01*
X213000256Y-138610138D01*
X215085395Y-136525000D01*
X215444605Y-136525000D01*
X217529744Y-138610138D01*
X217956584Y-138323569D01*
X218439982Y-137156637D01*
X218440018Y-135893543D01*
X217956685Y-134726583D01*
X217956584Y-134726431D01*
X217529744Y-134439862D01*
X215444605Y-136525000D01*
X215085395Y-136525000D01*
X213000256Y-134439862D01*
X212573416Y-134726431D01*
X212090018Y-135893363D01*
X212089982Y-137156457D01*
X209223493Y-137156457D01*
X209163880Y-136997378D01*
X208548358Y-136768184D01*
X207891981Y-136791986D01*
X207396120Y-136997378D01*
X207295498Y-137265893D01*
X204370755Y-137265893D01*
X204136437Y-137031166D01*
X203962000Y-136958733D01*
X203962000Y-135636000D01*
X203903996Y-135344395D01*
X203738815Y-135097185D01*
X202901886Y-134260256D01*
X213179862Y-134260256D01*
X215265000Y-136345395D01*
X217350138Y-134260256D01*
X217063569Y-133833416D01*
X215896637Y-133350018D01*
X214633543Y-133349982D01*
X213466583Y-133833315D01*
X213466431Y-133833416D01*
X213179862Y-134260256D01*
X202901886Y-134260256D01*
X202057000Y-133415370D01*
X202057000Y-132225366D01*
X206121306Y-128161060D01*
X206188201Y-128188838D01*
X206560167Y-128189162D01*
X206903943Y-128047117D01*
X207167192Y-127784327D01*
X207309838Y-127440799D01*
X207310162Y-127068833D01*
X207168117Y-126725057D01*
X206905327Y-126461808D01*
X206561799Y-126319162D01*
X206189833Y-126318838D01*
X205846057Y-126460883D01*
X205781080Y-126525747D01*
X205659131Y-126550004D01*
X205504061Y-126653619D01*
X205411921Y-126715185D01*
X205213871Y-126913235D01*
X205136117Y-126725057D01*
X204873327Y-126461808D01*
X204529799Y-126319162D01*
X204157833Y-126318838D01*
X203814057Y-126460883D01*
X203550808Y-126723673D01*
X203456618Y-126950508D01*
X203222327Y-126715808D01*
X202878799Y-126573162D01*
X202506833Y-126572838D01*
X202192724Y-126702625D01*
X201952327Y-126461808D01*
X201608799Y-126319162D01*
X201236833Y-126318838D01*
X200893057Y-126460883D01*
X200629808Y-126723673D01*
X200487162Y-127067201D01*
X200487124Y-127111246D01*
X199201370Y-128397000D01*
X192278000Y-128397000D01*
X191986395Y-128455004D01*
X191739185Y-128620185D01*
X187421185Y-132938185D01*
X187256004Y-133185395D01*
X187198000Y-133477000D01*
X187198000Y-121210466D01*
X187228192Y-121180327D01*
X187370838Y-120836799D01*
X187371162Y-120464833D01*
X187229117Y-120121057D01*
X186966327Y-119857808D01*
X186622799Y-119715162D01*
X186250833Y-119714838D01*
X185907057Y-119856883D01*
X185643808Y-120119673D01*
X185501162Y-120463201D01*
X185501150Y-120476849D01*
X185488833Y-120476838D01*
X185145057Y-120618883D01*
X184881808Y-120881673D01*
X184745932Y-121208897D01*
X184637057Y-121253883D01*
X184373808Y-121516673D01*
X184231162Y-121860201D01*
X184231150Y-121873849D01*
X184218833Y-121873838D01*
X183875057Y-122015883D01*
X183611808Y-122278673D01*
X183469162Y-122622201D01*
X183468838Y-122994167D01*
X183610883Y-123337943D01*
X183873673Y-123601192D01*
X184023000Y-123663198D01*
X184023000Y-138876369D01*
X183834370Y-139065000D01*
X183135294Y-139065000D01*
X183271816Y-138698358D01*
X183248014Y-138041981D01*
X183042622Y-137546120D01*
X182774107Y-137445498D01*
X181789605Y-138430000D01*
X181803748Y-138444143D01*
X181624143Y-138623748D01*
X181610000Y-138609605D01*
X181595858Y-138623748D01*
X181416253Y-138444143D01*
X181430395Y-138430000D01*
X180445893Y-137445498D01*
X180177378Y-137546120D01*
X179948184Y-138161642D01*
X179971986Y-138818019D01*
X180074289Y-139065000D01*
X178054002Y-139065000D01*
X178180713Y-138759845D01*
X178181286Y-138103037D01*
X177930466Y-137496005D01*
X177700755Y-137265893D01*
X180625498Y-137265893D01*
X181610000Y-138250395D01*
X182594502Y-137265893D01*
X182493880Y-136997378D01*
X181878358Y-136768184D01*
X181221981Y-136791986D01*
X180726120Y-136997378D01*
X180625498Y-137265893D01*
X177700755Y-137265893D01*
X177466437Y-137031166D01*
X177292000Y-136958733D01*
X177292000Y-128408302D01*
X177407562Y-128292740D01*
X177450223Y-128292777D01*
X177793999Y-128150732D01*
X178057248Y-127887942D01*
X178199894Y-127544414D01*
X178200218Y-127172448D01*
X178058173Y-126828672D01*
X177795383Y-126565423D01*
X177451855Y-126422777D01*
X177079889Y-126422453D01*
X176736113Y-126564498D01*
X176568405Y-126731914D01*
X176552327Y-126715808D01*
X176208799Y-126573162D01*
X175836833Y-126572838D01*
X175702708Y-126628257D01*
X175663327Y-126588808D01*
X175319799Y-126446162D01*
X174947833Y-126445838D01*
X174689757Y-126552473D01*
X174656117Y-126471057D01*
X174393327Y-126207808D01*
X174049799Y-126065162D01*
X173677833Y-126064838D01*
X173334057Y-126206883D01*
X173070808Y-126469673D01*
X173042436Y-126537999D01*
X167848001Y-126537999D01*
X167556396Y-126596003D01*
X167441107Y-126673037D01*
X167309186Y-126761184D01*
X160751185Y-133319185D01*
X160586004Y-133566395D01*
X160528000Y-133858000D01*
X160528000Y-136958467D01*
X160356005Y-137029534D01*
X159891166Y-137493563D01*
X159639287Y-138100155D01*
X159638714Y-138756963D01*
X159765992Y-139065000D01*
X156465294Y-139065000D01*
X156601816Y-138698358D01*
X156578014Y-138041981D01*
X156372622Y-137546120D01*
X156104107Y-137445498D01*
X155119605Y-138430000D01*
X155133748Y-138444143D01*
X154954143Y-138623748D01*
X154940000Y-138609605D01*
X154925858Y-138623748D01*
X154746253Y-138444143D01*
X154760395Y-138430000D01*
X153775893Y-137445498D01*
X153507378Y-137546120D01*
X153278184Y-138161642D01*
X153301986Y-138818019D01*
X153404289Y-139065000D01*
X151384002Y-139065000D01*
X151510713Y-138759845D01*
X151511286Y-138103037D01*
X151260466Y-137496005D01*
X151030755Y-137265893D01*
X153955498Y-137265893D01*
X154940000Y-138250395D01*
X155924502Y-137265893D01*
X155823880Y-136997378D01*
X155208358Y-136768184D01*
X154551981Y-136791986D01*
X154056120Y-136997378D01*
X153955498Y-137265893D01*
X151030755Y-137265893D01*
X150796437Y-137031166D01*
X150189845Y-136779287D01*
X149533037Y-136778714D01*
X149358473Y-136850842D01*
X147985815Y-135478185D01*
X147738605Y-135313004D01*
X147447000Y-135255000D01*
X142428630Y-135255000D01*
X138557000Y-131383370D01*
X138557000Y-130617630D01*
X141112505Y-128062125D01*
X141155167Y-128062162D01*
X141498943Y-127920117D01*
X141762192Y-127657327D01*
X141904838Y-127313799D01*
X141905162Y-126941833D01*
X141763117Y-126598057D01*
X141500327Y-126334808D01*
X141156799Y-126192162D01*
X140784833Y-126191838D01*
X140470881Y-126321560D01*
X140357327Y-126207808D01*
X140013799Y-126065162D01*
X139641833Y-126064838D01*
X139298057Y-126206883D01*
X139233081Y-126271746D01*
X139111132Y-126296003D01*
X139038437Y-126344576D01*
X138901907Y-126207808D01*
X138558379Y-126065162D01*
X138186413Y-126064838D01*
X137842637Y-126206883D01*
X137777660Y-126271747D01*
X137655711Y-126296004D01*
X137576922Y-126348649D01*
X137436327Y-126207808D01*
X137092799Y-126065162D01*
X136720833Y-126064838D01*
X136377057Y-126206883D01*
X136113808Y-126469673D01*
X135971162Y-126813201D01*
X135971124Y-126857246D01*
X134081185Y-128747185D01*
X133916004Y-128994395D01*
X133858000Y-129286000D01*
X133858000Y-136958467D01*
X133686005Y-137029534D01*
X133221166Y-137493563D01*
X132969287Y-138100155D01*
X132968714Y-138756963D01*
X133095992Y-139065000D01*
X129794002Y-139065000D01*
X129920713Y-138759845D01*
X129921286Y-138103037D01*
X129670466Y-137496005D01*
X129206437Y-137031166D01*
X128599845Y-136779287D01*
X127943037Y-136778714D01*
X127768473Y-136850842D01*
X122255001Y-131337371D01*
X122255001Y-128074777D01*
X122321943Y-128047117D01*
X122585192Y-127784327D01*
X122727838Y-127440799D01*
X122728162Y-127068833D01*
X122586117Y-126725057D01*
X122323327Y-126461808D01*
X121979799Y-126319162D01*
X121607833Y-126318838D01*
X121264057Y-126460883D01*
X121000808Y-126723673D01*
X120858162Y-127067201D01*
X120858082Y-127159013D01*
X120789005Y-127262394D01*
X120731001Y-127553999D01*
X120731001Y-131653001D01*
X120789005Y-131944606D01*
X120891166Y-132097500D01*
X120954186Y-132191816D01*
X126690654Y-137928285D01*
X126619287Y-138100155D01*
X126618714Y-138756963D01*
X126745992Y-139065000D01*
X124714002Y-139065000D01*
X124840713Y-138759845D01*
X124841286Y-138103037D01*
X124590466Y-137496005D01*
X124126437Y-137031166D01*
X123519845Y-136779287D01*
X122863037Y-136778714D01*
X122688473Y-136850842D01*
X119080001Y-133242371D01*
X119080001Y-128328777D01*
X119146943Y-128301117D01*
X119410192Y-128038327D01*
X119552838Y-127694799D01*
X119553162Y-127322833D01*
X119411117Y-126979057D01*
X119148327Y-126715808D01*
X118804799Y-126573162D01*
X118432833Y-126572838D01*
X118089057Y-126714883D01*
X117825808Y-126977673D01*
X117683162Y-127321201D01*
X117683082Y-127413013D01*
X117614005Y-127516394D01*
X117556001Y-127807999D01*
X117556001Y-133558001D01*
X117614005Y-133849606D01*
X117619614Y-133858000D01*
X117779186Y-134096816D01*
X121610654Y-137928285D01*
X121539287Y-138100155D01*
X121538714Y-138756963D01*
X121665992Y-139065000D01*
X119634002Y-139065000D01*
X119760713Y-138759845D01*
X119761286Y-138103037D01*
X119510466Y-137496005D01*
X119046437Y-137031166D01*
X118439845Y-136779287D01*
X117783037Y-136778714D01*
X117608473Y-136850842D01*
X116794001Y-136036371D01*
X116794001Y-128346278D01*
X116860943Y-128318618D01*
X117124192Y-128055828D01*
X117266838Y-127712300D01*
X117267162Y-127340334D01*
X117125117Y-126996558D01*
X116862327Y-126733309D01*
X116518799Y-126590663D01*
X116146833Y-126590339D01*
X115803057Y-126732384D01*
X115539808Y-126995174D01*
X115397162Y-127338702D01*
X115397082Y-127430514D01*
X115328005Y-127533895D01*
X115270001Y-127825500D01*
X115270001Y-136352001D01*
X115328005Y-136643606D01*
X115427150Y-136791986D01*
X115493186Y-136890816D01*
X116530654Y-137928285D01*
X116459287Y-138100155D01*
X116458714Y-138756963D01*
X116585992Y-139065000D01*
X114554002Y-139065000D01*
X114680713Y-138759845D01*
X114681286Y-138103037D01*
X114430466Y-137496005D01*
X113966437Y-137031166D01*
X113792000Y-136958733D01*
X113792000Y-128730131D01*
X114061505Y-128460626D01*
X114104167Y-128460663D01*
X114447943Y-128318618D01*
X114711192Y-128055828D01*
X114853838Y-127712300D01*
X114854162Y-127340334D01*
X114712117Y-126996558D01*
X114449327Y-126733309D01*
X114105799Y-126590663D01*
X113733833Y-126590339D01*
X113390057Y-126732384D01*
X113126808Y-126995174D01*
X112984162Y-127338702D01*
X112984124Y-127382747D01*
X112694873Y-127671998D01*
X112695162Y-127340334D01*
X112553117Y-126996558D01*
X112290327Y-126733309D01*
X111946799Y-126590663D01*
X111574833Y-126590339D01*
X111231057Y-126732384D01*
X110967808Y-126995174D01*
X110825162Y-127338702D01*
X110825124Y-127382746D01*
X107411185Y-130796686D01*
X107246004Y-131043896D01*
X107188000Y-131335501D01*
X107188000Y-136958467D01*
X107016005Y-137029534D01*
X106551166Y-137493563D01*
X106299287Y-138100155D01*
X106298714Y-138756963D01*
X106425992Y-139065000D01*
X103312630Y-139065000D01*
X103179346Y-138931716D01*
X103250713Y-138759845D01*
X103251286Y-138103037D01*
X103000466Y-137496005D01*
X102536437Y-137031166D01*
X102362000Y-136958733D01*
X102362000Y-127254000D01*
X102303996Y-126962395D01*
X102259374Y-126895614D01*
X102138815Y-126715184D01*
X102027125Y-126603494D01*
X102027162Y-126560833D01*
X101885117Y-126217057D01*
X101622327Y-125953808D01*
X101278799Y-125811162D01*
X100906833Y-125810838D01*
X100563057Y-125952883D01*
X100299808Y-126215673D01*
X100157162Y-126559201D01*
X100156838Y-126931167D01*
X100298883Y-127274943D01*
X100561673Y-127538192D01*
X100838000Y-127652934D01*
X100838000Y-136958467D01*
X100666005Y-137029534D01*
X100201166Y-137493563D01*
X99949287Y-138100155D01*
X99948714Y-138756963D01*
X100199534Y-139363995D01*
X100408175Y-139573000D01*
X98740631Y-139573000D01*
X98099346Y-138931716D01*
X98170713Y-138759845D01*
X98171286Y-138103037D01*
X97920466Y-137496005D01*
X97456437Y-137031166D01*
X96849845Y-136779287D01*
X96193037Y-136778714D01*
X95586005Y-137029534D01*
X95121166Y-137493563D01*
X94869287Y-138100155D01*
X94868714Y-138756963D01*
X95119534Y-139363995D01*
X95583563Y-139828834D01*
X95884996Y-139954000D01*
X94041631Y-139954000D01*
X93019346Y-138931716D01*
X93090713Y-138759845D01*
X93091286Y-138103037D01*
X92840466Y-137496005D01*
X92376437Y-137031166D01*
X91769845Y-136779287D01*
X91113037Y-136778714D01*
X90506005Y-137029534D01*
X90041166Y-137493563D01*
X89789287Y-138100155D01*
X89788714Y-138756963D01*
X90039534Y-139363995D01*
X90503563Y-139828834D01*
X91110155Y-140080713D01*
X91766963Y-140081286D01*
X91941528Y-140009158D01*
X92413390Y-140481020D01*
X89488650Y-140481020D01*
X87939346Y-138931716D01*
X88010713Y-138759845D01*
X88011286Y-138103037D01*
X87760466Y-137496005D01*
X87296437Y-137031166D01*
X86689845Y-136779287D01*
X86033037Y-136778714D01*
X85426005Y-137029534D01*
X84961166Y-137493563D01*
X84709287Y-138100155D01*
X84708714Y-138756963D01*
X84959534Y-139363995D01*
X85423563Y-139828834D01*
X86030155Y-140080713D01*
X86686963Y-140081286D01*
X86861528Y-140009158D01*
X87747370Y-140895000D01*
X71195000Y-140895000D01*
X71195000Y-138789744D01*
X73479862Y-138789744D01*
X73766431Y-139216584D01*
X74933363Y-139699982D01*
X76196457Y-139700018D01*
X77363417Y-139216685D01*
X77363569Y-139216584D01*
X77650138Y-138789744D01*
X77617358Y-138756963D01*
X79628714Y-138756963D01*
X79879534Y-139363995D01*
X80343563Y-139828834D01*
X80950155Y-140080713D01*
X81606963Y-140081286D01*
X82213995Y-139830466D01*
X82678834Y-139366437D01*
X82930713Y-138759845D01*
X82931286Y-138103037D01*
X82680466Y-137496005D01*
X82216437Y-137031166D01*
X81609845Y-136779287D01*
X80953037Y-136778714D01*
X80346005Y-137029534D01*
X79881166Y-137493563D01*
X79629287Y-138100155D01*
X79628714Y-138756963D01*
X77617358Y-138756963D01*
X75565000Y-136704605D01*
X73479862Y-138789744D01*
X71195000Y-138789744D01*
X71195000Y-137156457D01*
X72389982Y-137156457D01*
X72873315Y-138323417D01*
X72873416Y-138323569D01*
X73300256Y-138610138D01*
X75385395Y-136525000D01*
X75744605Y-136525000D01*
X77829744Y-138610138D01*
X78256584Y-138323569D01*
X78739982Y-137156637D01*
X78740018Y-135893543D01*
X78256685Y-134726583D01*
X78256584Y-134726431D01*
X77829744Y-134439862D01*
X75744605Y-136525000D01*
X75385395Y-136525000D01*
X73300256Y-134439862D01*
X72873416Y-134726431D01*
X72390018Y-135893363D01*
X72389982Y-137156457D01*
X71195000Y-137156457D01*
X71195000Y-134260256D01*
X73479862Y-134260256D01*
X75565000Y-136345395D01*
X77650138Y-134260256D01*
X77363569Y-133833416D01*
X76196637Y-133350018D01*
X74933543Y-133349982D01*
X73766583Y-133833315D01*
X73766431Y-133833416D01*
X73479862Y-134260256D01*
X71195000Y-134260256D01*
X71195000Y-127326963D01*
X73278714Y-127326963D01*
X73529534Y-127933995D01*
X73993563Y-128398834D01*
X74600155Y-128650713D01*
X75256963Y-128651286D01*
X75863995Y-128400466D01*
X76328834Y-127936437D01*
X76580713Y-127329845D01*
X76581286Y-126673037D01*
X76330466Y-126066005D01*
X75866437Y-125601166D01*
X75259845Y-125349287D01*
X74603037Y-125348714D01*
X73996005Y-125599534D01*
X73531166Y-126063563D01*
X73279287Y-126670155D01*
X73278714Y-127326963D01*
X71195000Y-127326963D01*
X71195000Y-122246963D01*
X73278714Y-122246963D01*
X73529534Y-122853995D01*
X73993563Y-123318834D01*
X74600155Y-123570713D01*
X75256963Y-123571286D01*
X75863995Y-123320466D01*
X76328834Y-122856437D01*
X76580713Y-122249845D01*
X76581286Y-121593037D01*
X76330466Y-120986005D01*
X75866437Y-120521166D01*
X75259845Y-120269287D01*
X74603037Y-120268714D01*
X73996005Y-120519534D01*
X73531166Y-120983563D01*
X73279287Y-121590155D01*
X73278714Y-122246963D01*
X71195000Y-122246963D01*
X71195000Y-117166963D01*
X73278714Y-117166963D01*
X73529534Y-117773995D01*
X73993563Y-118238834D01*
X74600155Y-118490713D01*
X75256963Y-118491286D01*
X75863995Y-118240466D01*
X76328834Y-117776437D01*
X76580713Y-117169845D01*
X76581286Y-116513037D01*
X76330466Y-115906005D01*
X75866437Y-115441166D01*
X75259845Y-115189287D01*
X74603037Y-115188714D01*
X73996005Y-115439534D01*
X73531166Y-115903563D01*
X73279287Y-116510155D01*
X73278714Y-117166963D01*
X71195000Y-117166963D01*
X71195000Y-112086963D01*
X73278714Y-112086963D01*
X73529534Y-112693995D01*
X73993563Y-113158834D01*
X74600155Y-113410713D01*
X75256963Y-113411286D01*
X75863995Y-113160466D01*
X76328834Y-112696437D01*
X76580713Y-112089845D01*
X76581286Y-111433037D01*
X76330466Y-110826005D01*
X75866437Y-110361166D01*
X75259845Y-110109287D01*
X74603037Y-110108714D01*
X73996005Y-110359534D01*
X73531166Y-110823563D01*
X73279287Y-111430155D01*
X73278714Y-112086963D01*
X71195000Y-112086963D01*
X71195000Y-107006963D01*
X73278714Y-107006963D01*
X73529534Y-107613995D01*
X73993563Y-108078834D01*
X74600155Y-108330713D01*
X75256963Y-108331286D01*
X75863995Y-108080466D01*
X76328834Y-107616437D01*
X76580713Y-107009845D01*
X76581286Y-106353037D01*
X76330466Y-105746005D01*
X75866437Y-105281166D01*
X75259845Y-105029287D01*
X74603037Y-105028714D01*
X73996005Y-105279534D01*
X73531166Y-105743563D01*
X73279287Y-106350155D01*
X73278714Y-107006963D01*
X71195000Y-107006963D01*
X71195000Y-80336963D01*
X73278714Y-80336963D01*
X73529534Y-80943995D01*
X73993563Y-81408834D01*
X74600155Y-81660713D01*
X75256963Y-81661286D01*
X75431528Y-81589158D01*
X76423185Y-82580815D01*
X76670395Y-82745996D01*
X76962000Y-82804000D01*
X114935000Y-82804000D01*
X115226605Y-82745996D01*
X115473815Y-82580815D01*
X121681506Y-76373125D01*
X121724167Y-76373162D01*
X122067943Y-76231117D01*
X122331192Y-75968327D01*
X122473838Y-75624799D01*
X122474162Y-75252833D01*
X122332117Y-74909057D01*
X122069327Y-74645808D01*
X121725799Y-74503162D01*
X121353833Y-74502838D01*
X121010057Y-74644883D01*
X120746808Y-74907673D01*
X120604162Y-75251201D01*
X120604124Y-75295245D01*
X114619370Y-81280000D01*
X77277630Y-81280000D01*
X76509346Y-80511716D01*
X76580713Y-80339845D01*
X76581286Y-79683037D01*
X76330466Y-79076005D01*
X75866437Y-78611166D01*
X75259845Y-78359287D01*
X74603037Y-78358714D01*
X73996005Y-78609534D01*
X73531166Y-79073563D01*
X73279287Y-79680155D01*
X73278714Y-80336963D01*
X71195000Y-80336963D01*
X71195000Y-69146167D01*
X108665838Y-69146167D01*
X108807883Y-69489943D01*
X109070673Y-69753192D01*
X109414201Y-69895838D01*
X109528886Y-69895938D01*
X109563395Y-69918996D01*
X109855000Y-69977000D01*
X121867534Y-69977000D01*
X121897673Y-70007192D01*
X122241201Y-70149838D01*
X122613167Y-70150162D01*
X122956943Y-70008117D01*
X123220192Y-69745327D01*
X123362838Y-69401799D01*
X123363162Y-69029833D01*
X123221117Y-68686057D01*
X122958327Y-68422808D01*
X122614799Y-68280162D01*
X122242833Y-68279838D01*
X121899057Y-68421883D01*
X121867886Y-68453000D01*
X110402770Y-68453000D01*
X110394117Y-68432057D01*
X110131327Y-68168808D01*
X109787799Y-68026162D01*
X109415833Y-68025838D01*
X109072057Y-68167883D01*
X108808808Y-68430673D01*
X108666162Y-68774201D01*
X108665838Y-69146167D01*
X71195000Y-69146167D01*
X71195000Y-66606167D01*
X141558838Y-66606167D01*
X141700883Y-66949943D01*
X141963673Y-67213192D01*
X142307201Y-67355838D01*
X142679167Y-67356162D01*
X143022943Y-67214117D01*
X143054114Y-67183000D01*
X165735000Y-67183000D01*
X166026605Y-67124996D01*
X166273815Y-66959815D01*
X167401506Y-65832125D01*
X167444167Y-65832162D01*
X167787943Y-65690117D01*
X168051192Y-65427327D01*
X168193838Y-65083799D01*
X168194060Y-64828167D01*
X168355838Y-64828167D01*
X168497883Y-65171943D01*
X168529000Y-65203114D01*
X168529000Y-65697962D01*
X168587004Y-65989567D01*
X168680435Y-66129396D01*
X168752185Y-66236777D01*
X178619223Y-76103815D01*
X178866433Y-76268996D01*
X179158038Y-76327000D01*
X195908534Y-76327000D01*
X195938673Y-76357192D01*
X196282201Y-76499838D01*
X196654167Y-76500162D01*
X196997943Y-76358117D01*
X197261192Y-76095327D01*
X197403838Y-75751799D01*
X197404162Y-75379833D01*
X197262117Y-75036057D01*
X197029466Y-74803000D01*
X212037534Y-74803000D01*
X212067673Y-74833192D01*
X212411201Y-74975838D01*
X212783167Y-74976162D01*
X213126943Y-74834117D01*
X213390192Y-74571327D01*
X213532838Y-74227799D01*
X213533162Y-73855833D01*
X213391117Y-73512057D01*
X213128327Y-73248808D01*
X212784799Y-73106162D01*
X212412833Y-73105838D01*
X212069057Y-73247883D01*
X212037886Y-73279000D01*
X178877630Y-73279000D01*
X171242125Y-65643495D01*
X171242162Y-65600833D01*
X171100117Y-65257057D01*
X170837327Y-64993808D01*
X170493799Y-64851162D01*
X170217067Y-64850921D01*
X170225838Y-64829799D01*
X170226162Y-64457833D01*
X170084117Y-64114057D01*
X169821327Y-63850808D01*
X169477799Y-63708162D01*
X169105833Y-63707838D01*
X168762057Y-63849883D01*
X168498808Y-64112673D01*
X168356162Y-64456201D01*
X168355838Y-64828167D01*
X168194060Y-64828167D01*
X168194162Y-64711833D01*
X168052117Y-64368057D01*
X167789327Y-64104808D01*
X167445799Y-63962162D01*
X167073833Y-63961838D01*
X166730057Y-64103883D01*
X166466808Y-64366673D01*
X166324162Y-64710201D01*
X166324124Y-64754246D01*
X165419370Y-65659000D01*
X143054466Y-65659000D01*
X143024327Y-65628808D01*
X142680799Y-65486162D01*
X142308833Y-65485838D01*
X141965057Y-65627883D01*
X141701808Y-65890673D01*
X141559162Y-66234201D01*
X141558838Y-66606167D01*
X71195000Y-66606167D01*
X71195000Y-52000661D01*
X89397758Y-52000661D01*
X89609990Y-52514303D01*
X90002630Y-52907629D01*
X90058717Y-52930918D01*
X90091004Y-53093235D01*
X90196155Y-53250604D01*
X90256185Y-53340445D01*
X90413555Y-53497816D01*
X90561747Y-53596834D01*
X90660765Y-53662996D01*
X90952370Y-53721000D01*
X93711722Y-53721000D01*
X94003327Y-53662996D01*
X94250537Y-53497815D01*
X95424353Y-52324000D01*
X95950370Y-52324000D01*
X97759185Y-54132815D01*
X98006395Y-54297996D01*
X98298000Y-54356000D01*
X110809370Y-54356000D01*
X118841185Y-62387815D01*
X119088395Y-62552996D01*
X119380000Y-62611000D01*
X125296534Y-62611000D01*
X125326673Y-62641192D01*
X125670201Y-62783838D01*
X126042167Y-62784162D01*
X126385943Y-62642117D01*
X126649192Y-62379327D01*
X126791838Y-62035799D01*
X126792162Y-61663833D01*
X126763721Y-61595000D01*
X168349534Y-61595000D01*
X168379673Y-61625192D01*
X168723201Y-61767838D01*
X169095167Y-61768162D01*
X169319206Y-61675591D01*
X169395673Y-61752192D01*
X169739201Y-61894838D01*
X170111167Y-61895162D01*
X170454943Y-61753117D01*
X170585274Y-61623013D01*
X170628201Y-61640838D01*
X171000167Y-61641162D01*
X171343943Y-61499117D01*
X171607192Y-61236327D01*
X171699470Y-61014097D01*
X171762167Y-61014152D01*
X172105943Y-60872107D01*
X172369192Y-60609317D01*
X172468103Y-60371113D01*
X172524167Y-60371162D01*
X172867943Y-60229117D01*
X173131192Y-59966327D01*
X173273838Y-59622799D01*
X173274162Y-59250833D01*
X173132117Y-58907057D01*
X172869327Y-58643808D01*
X172525799Y-58501162D01*
X172481754Y-58501124D01*
X172242815Y-58262185D01*
X172232655Y-58255396D01*
X171995605Y-58097004D01*
X171704000Y-58039000D01*
X157668631Y-58039000D01*
X153162000Y-53532370D01*
X153162000Y-52757466D01*
X153192192Y-52727327D01*
X153334838Y-52383799D01*
X153335162Y-52011833D01*
X153193117Y-51668057D01*
X152930327Y-51404808D01*
X152586799Y-51262162D01*
X152214833Y-51261838D01*
X151871057Y-51403883D01*
X151607808Y-51666673D01*
X151465162Y-52010201D01*
X151464838Y-52382167D01*
X151606883Y-52725943D01*
X151638000Y-52757114D01*
X151638000Y-53848000D01*
X151696004Y-54139605D01*
X151801838Y-54297996D01*
X151861185Y-54386815D01*
X156002349Y-58527980D01*
X147235610Y-58527980D01*
X143002000Y-54294370D01*
X143002000Y-53011466D01*
X143032192Y-52981327D01*
X143174838Y-52637799D01*
X143175162Y-52265833D01*
X143033117Y-51922057D01*
X142770327Y-51658808D01*
X142426799Y-51516162D01*
X142054833Y-51515838D01*
X141711057Y-51657883D01*
X141447808Y-51920673D01*
X141305162Y-52264201D01*
X141304838Y-52636167D01*
X141446883Y-52979943D01*
X141478000Y-53011114D01*
X141478000Y-54610000D01*
X141536004Y-54901605D01*
X141701185Y-55148815D01*
X145534360Y-58981990D01*
X136005620Y-58981990D01*
X132588000Y-55564370D01*
X132588000Y-53265466D01*
X132618192Y-53235327D01*
X132760838Y-52891799D01*
X132761162Y-52519833D01*
X132619117Y-52176057D01*
X132356327Y-51912808D01*
X132012799Y-51770162D01*
X131640833Y-51769838D01*
X131297057Y-51911883D01*
X131033808Y-52174673D01*
X130891162Y-52518201D01*
X130890838Y-52890167D01*
X131032883Y-53233943D01*
X131064000Y-53265114D01*
X131064000Y-55880000D01*
X131122004Y-56171605D01*
X131287185Y-56418815D01*
X134304370Y-59436000D01*
X124140631Y-59436000D01*
X122936000Y-58231370D01*
X122936000Y-52849721D01*
X123210943Y-52736117D01*
X123474192Y-52473327D01*
X123616838Y-52129799D01*
X123617162Y-51757833D01*
X123475117Y-51414057D01*
X123212327Y-51150808D01*
X122868799Y-51008162D01*
X122496833Y-51007838D01*
X122153057Y-51149883D01*
X121889808Y-51412673D01*
X121747162Y-51756201D01*
X121747124Y-51800246D01*
X121635185Y-51912185D01*
X121470004Y-52159395D01*
X121412000Y-52451000D01*
X121412000Y-58547000D01*
X121470004Y-58838605D01*
X121529736Y-58928000D01*
X121635185Y-59085815D01*
X122620369Y-60071000D01*
X119695630Y-60071000D01*
X114092125Y-54467495D01*
X114092162Y-54424833D01*
X113950117Y-54081057D01*
X113687327Y-53817808D01*
X113343799Y-53675162D01*
X112971833Y-53674838D01*
X112628057Y-53816883D01*
X112526697Y-53918067D01*
X111663815Y-53055185D01*
X111565982Y-52989815D01*
X111416605Y-52890004D01*
X111125000Y-52832000D01*
X109339809Y-52832000D01*
X109411491Y-52727090D01*
X109462500Y-52475200D01*
X109462500Y-48975080D01*
X109418222Y-48739763D01*
X109279150Y-48523639D01*
X109066950Y-48378649D01*
X108815060Y-48327640D01*
X105314940Y-48327640D01*
X105079623Y-48371918D01*
X104863499Y-48510990D01*
X104751060Y-48675550D01*
X104751060Y-48011150D01*
X104592310Y-47852400D01*
X102493000Y-47852400D01*
X102493000Y-49951710D01*
X102651750Y-50110460D01*
X104242370Y-50110460D01*
X104475759Y-50013787D01*
X104654387Y-49835158D01*
X104667500Y-49803500D01*
X104667500Y-52475200D01*
X104711778Y-52710517D01*
X104789950Y-52832000D01*
X98613630Y-52832000D01*
X96804815Y-51023185D01*
X96800054Y-51020004D01*
X96557605Y-50858004D01*
X96266000Y-50800000D01*
X95108722Y-50800000D01*
X94817117Y-50858004D01*
X94569906Y-51023185D01*
X94560763Y-51032328D01*
X94520010Y-50933697D01*
X94311168Y-50724490D01*
X94518629Y-50517390D01*
X94731757Y-50004120D01*
X94732242Y-49448359D01*
X94520010Y-48934717D01*
X94127370Y-48541391D01*
X94097000Y-48528780D01*
X94097000Y-48430601D01*
X96838484Y-48430601D01*
X96979952Y-48733790D01*
X97716432Y-49018747D01*
X98505900Y-49000174D01*
X99149008Y-48733790D01*
X99290476Y-48430601D01*
X98064480Y-47204605D01*
X96838484Y-48430601D01*
X94097000Y-48430601D01*
X94097000Y-46676952D01*
X96070733Y-46676952D01*
X96089306Y-47466420D01*
X96355690Y-48109528D01*
X96658879Y-48250996D01*
X97884875Y-47025000D01*
X98244085Y-47025000D01*
X99470081Y-48250996D01*
X99773270Y-48109528D01*
X99811334Y-48011150D01*
X99980940Y-48011150D01*
X99980940Y-49601769D01*
X100077613Y-49835158D01*
X100256241Y-50013787D01*
X100489630Y-50110460D01*
X102080250Y-50110460D01*
X102239000Y-49951710D01*
X102239000Y-47852400D01*
X100139690Y-47852400D01*
X99980940Y-48011150D01*
X99811334Y-48011150D01*
X100018085Y-47476795D01*
X100139690Y-47598400D01*
X102239000Y-47598400D01*
X102239000Y-45499090D01*
X102493000Y-45499090D01*
X102493000Y-47598400D01*
X104592310Y-47598400D01*
X104751060Y-47439650D01*
X104751060Y-46773728D01*
X104776613Y-46835418D01*
X104955241Y-47014047D01*
X105188630Y-47110720D01*
X106779250Y-47110720D01*
X106938000Y-46951970D01*
X106938000Y-44852660D01*
X107192000Y-44852660D01*
X107192000Y-46951970D01*
X107350750Y-47110720D01*
X108941370Y-47110720D01*
X109174759Y-47014047D01*
X109353387Y-46835418D01*
X109450060Y-46602029D01*
X109450060Y-45011410D01*
X109291310Y-44852660D01*
X107192000Y-44852660D01*
X106938000Y-44852660D01*
X104838690Y-44852660D01*
X104679940Y-45011410D01*
X104679940Y-45677332D01*
X104654387Y-45615642D01*
X104475759Y-45437013D01*
X104242370Y-45340340D01*
X102651750Y-45340340D01*
X102493000Y-45499090D01*
X102239000Y-45499090D01*
X102080250Y-45340340D01*
X100489630Y-45340340D01*
X100256241Y-45437013D01*
X100077613Y-45615642D01*
X99980940Y-45849031D01*
X99980940Y-46441832D01*
X99773270Y-45940472D01*
X99470081Y-45799004D01*
X98244085Y-47025000D01*
X97884875Y-47025000D01*
X96658879Y-45799004D01*
X96355690Y-45940472D01*
X96070733Y-46676952D01*
X94097000Y-46676952D01*
X94097000Y-45619399D01*
X96838484Y-45619399D01*
X98064480Y-46845395D01*
X99290476Y-45619399D01*
X99149008Y-45316210D01*
X98412528Y-45031253D01*
X97623060Y-45049826D01*
X96979952Y-45316210D01*
X96838484Y-45619399D01*
X94097000Y-45619399D01*
X94097000Y-44267630D01*
X95515339Y-42849291D01*
X104679940Y-42849291D01*
X104679940Y-44439910D01*
X104838690Y-44598660D01*
X106938000Y-44598660D01*
X106938000Y-42499350D01*
X107192000Y-42499350D01*
X107192000Y-44598660D01*
X109291310Y-44598660D01*
X109450060Y-44439910D01*
X109450060Y-42849291D01*
X109353387Y-42615902D01*
X109174759Y-42437273D01*
X108941370Y-42340600D01*
X107350750Y-42340600D01*
X107192000Y-42499350D01*
X106938000Y-42499350D01*
X106779250Y-42340600D01*
X105188630Y-42340600D01*
X104955241Y-42437273D01*
X104776613Y-42615902D01*
X104679940Y-42849291D01*
X95515339Y-42849291D01*
X97343631Y-41021000D01*
X186032332Y-41021000D01*
X196240955Y-51229623D01*
X196184808Y-51285673D01*
X196042162Y-51629201D01*
X196042124Y-51673246D01*
X193136185Y-54579185D01*
X192971004Y-54826395D01*
X192913000Y-55118000D01*
X192913000Y-58367534D01*
X192882808Y-58397673D01*
X192740162Y-58741201D01*
X192739838Y-59113167D01*
X192881883Y-59456943D01*
X193144673Y-59720192D01*
X193488201Y-59862838D01*
X193860167Y-59863162D01*
X194203943Y-59721117D01*
X194467192Y-59458327D01*
X194609838Y-59114799D01*
X194610162Y-58742833D01*
X194468117Y-58399057D01*
X194437000Y-58367886D01*
X194437000Y-55433630D01*
X197119505Y-52751125D01*
X197162167Y-52751162D01*
X197505943Y-52609117D01*
X197563246Y-52551914D01*
X202325440Y-57314108D01*
X202113559Y-57450450D01*
X201968569Y-57662650D01*
X201917560Y-57914540D01*
X201917560Y-59692540D01*
X201961838Y-59927857D01*
X202100910Y-60143981D01*
X202313110Y-60288971D01*
X202565000Y-60339980D01*
X204089000Y-60339980D01*
X204324317Y-60295702D01*
X204340099Y-60285547D01*
X204345110Y-60288971D01*
X204597000Y-60339980D01*
X206121000Y-60339980D01*
X206356317Y-60295702D01*
X206572441Y-60156630D01*
X206717431Y-59944430D01*
X206768440Y-59692540D01*
X206768440Y-57914540D01*
X206724162Y-57679223D01*
X206585090Y-57463099D01*
X206372890Y-57318109D01*
X206121000Y-57267100D01*
X205994952Y-57267100D01*
X205897815Y-57121725D01*
X198065834Y-49289744D01*
X213179862Y-49289744D01*
X213466431Y-49716584D01*
X214633363Y-50199982D01*
X215896457Y-50200018D01*
X217063417Y-49716685D01*
X217063569Y-49716584D01*
X217350138Y-49289744D01*
X215265000Y-47204605D01*
X213179862Y-49289744D01*
X198065834Y-49289744D01*
X196432547Y-47656457D01*
X212089982Y-47656457D01*
X212573315Y-48823417D01*
X212573416Y-48823569D01*
X213000256Y-49110138D01*
X215085395Y-47025000D01*
X215444605Y-47025000D01*
X217529744Y-49110138D01*
X217956584Y-48823569D01*
X218439982Y-47656637D01*
X218440018Y-46393543D01*
X217956685Y-45226583D01*
X217956584Y-45226431D01*
X217529744Y-44939862D01*
X215444605Y-47025000D01*
X215085395Y-47025000D01*
X213000256Y-44939862D01*
X212573416Y-45226431D01*
X212090018Y-46393363D01*
X212089982Y-47656457D01*
X196432547Y-47656457D01*
X193536346Y-44760256D01*
X213179862Y-44760256D01*
X215265000Y-46845395D01*
X217350138Y-44760256D01*
X217063569Y-44333416D01*
X215896637Y-43850018D01*
X214633543Y-43849982D01*
X213466583Y-44333315D01*
X213466431Y-44333416D01*
X213179862Y-44760256D01*
X193536346Y-44760256D01*
X188042264Y-39266174D01*
X187795055Y-39100994D01*
X187503450Y-39042990D01*
X95831010Y-39042990D01*
X95539406Y-39100993D01*
X95292195Y-39266174D01*
X92298185Y-42260185D01*
X92133004Y-42507395D01*
X92075000Y-42799000D01*
X92075000Y-47817369D01*
X91707184Y-48185186D01*
X91542003Y-48432396D01*
X91527260Y-48506516D01*
X91526143Y-48502623D01*
X91002698Y-48315876D01*
X90447632Y-48343658D01*
X90063857Y-48502623D01*
X89994392Y-48744807D01*
X90795000Y-49545415D01*
X90809143Y-49531273D01*
X90988748Y-49710878D01*
X90974605Y-49725020D01*
X90988748Y-49739163D01*
X90809143Y-49918768D01*
X90795000Y-49904625D01*
X90270436Y-50429189D01*
X90004697Y-50538990D01*
X89611371Y-50931630D01*
X89398243Y-51444900D01*
X89397758Y-52000661D01*
X71195000Y-52000661D01*
X71195000Y-49889744D01*
X73479862Y-49889744D01*
X73766431Y-50316584D01*
X74933363Y-50799982D01*
X76196457Y-50800018D01*
X77363417Y-50316685D01*
X77363569Y-50316584D01*
X77650138Y-49889744D01*
X75565000Y-47804605D01*
X73479862Y-49889744D01*
X71195000Y-49889744D01*
X71195000Y-48256457D01*
X72389982Y-48256457D01*
X72873315Y-49423417D01*
X72873416Y-49423569D01*
X73300256Y-49710138D01*
X75385395Y-47625000D01*
X75744605Y-47625000D01*
X77829744Y-49710138D01*
X78116940Y-49517322D01*
X89385856Y-49517322D01*
X89413638Y-50072388D01*
X89572603Y-50456163D01*
X89814787Y-50525628D01*
X90615395Y-49725020D01*
X89814787Y-48924412D01*
X89572603Y-48993877D01*
X89385856Y-49517322D01*
X78116940Y-49517322D01*
X78256584Y-49423569D01*
X78667917Y-48430601D01*
X84839524Y-48430601D01*
X84980992Y-48733790D01*
X85717472Y-49018747D01*
X86506940Y-49000174D01*
X87150048Y-48733790D01*
X87291516Y-48430601D01*
X86065520Y-47204605D01*
X84839524Y-48430601D01*
X78667917Y-48430601D01*
X78739982Y-48256637D01*
X78740018Y-46993543D01*
X78608892Y-46676952D01*
X84071773Y-46676952D01*
X84090346Y-47466420D01*
X84356730Y-48109528D01*
X84659919Y-48250996D01*
X85885915Y-47025000D01*
X86245125Y-47025000D01*
X87471121Y-48250996D01*
X87774310Y-48109528D01*
X88059267Y-47373048D01*
X88040694Y-46583580D01*
X87774310Y-45940472D01*
X87471121Y-45799004D01*
X86245125Y-47025000D01*
X85885915Y-47025000D01*
X84659919Y-45799004D01*
X84356730Y-45940472D01*
X84071773Y-46676952D01*
X78608892Y-46676952D01*
X78256685Y-45826583D01*
X78256584Y-45826431D01*
X77948214Y-45619399D01*
X84839524Y-45619399D01*
X86065520Y-46845395D01*
X87291516Y-45619399D01*
X87150048Y-45316210D01*
X86413568Y-45031253D01*
X85624100Y-45049826D01*
X84980992Y-45316210D01*
X84839524Y-45619399D01*
X77948214Y-45619399D01*
X77829744Y-45539862D01*
X75744605Y-47625000D01*
X75385395Y-47625000D01*
X73300256Y-45539862D01*
X72873416Y-45826431D01*
X72390018Y-46993363D01*
X72389982Y-48256457D01*
X71195000Y-48256457D01*
X71195000Y-45360256D01*
X73479862Y-45360256D01*
X75565000Y-47445395D01*
X77650138Y-45360256D01*
X77363569Y-44933416D01*
X76196637Y-44450018D01*
X74933543Y-44449982D01*
X73766583Y-44933315D01*
X73766431Y-44933416D01*
X73479862Y-45360256D01*
X71195000Y-45360256D01*
X71195000Y-38175000D01*
X222175000Y-38175000D01*
X222175000Y-43630186D01*
G36*
X128541221Y-106246892D02*
X128919174Y-106499433D01*
X129365000Y-106588113D01*
X129603000Y-106540772D01*
X129603000Y-107961828D01*
X129541221Y-108003108D01*
X129365000Y-108266840D01*
X129188779Y-108003108D01*
X128810826Y-107750567D01*
X128365000Y-107661887D01*
X127919174Y-107750567D01*
X127541221Y-108003108D01*
X127365000Y-108266840D01*
X127188779Y-108003108D01*
X126810826Y-107750567D01*
X126365000Y-107661887D01*
X125919174Y-107750567D01*
X125541221Y-108003108D01*
X125367999Y-108262351D01*
X125098977Y-107941418D01*
X124671596Y-107731068D01*
X124492000Y-107856797D01*
X124492000Y-108998000D01*
X124512000Y-108998000D01*
X124512000Y-109252000D01*
X124492000Y-109252000D01*
X124492000Y-110393203D01*
X124671596Y-110518932D01*
X125098977Y-110308582D01*
X125367999Y-109987649D01*
X125541221Y-110246892D01*
X125919174Y-110499433D01*
X126139176Y-110543194D01*
X124160370Y-112522000D01*
X117357635Y-112522000D01*
X115809825Y-110974190D01*
X116010015Y-111014010D01*
X117507990Y-111014010D01*
X117799595Y-110956006D01*
X118046805Y-110790825D01*
X118268677Y-110568953D01*
X118365000Y-110588113D01*
X118810826Y-110499433D01*
X119188779Y-110246892D01*
X119362001Y-109987649D01*
X119631023Y-110308582D01*
X120058404Y-110518932D01*
X120238000Y-110393203D01*
X120238000Y-109252000D01*
X120218000Y-109252000D01*
X120218000Y-108998000D01*
X120238000Y-108998000D01*
X120238000Y-108978000D01*
X120492000Y-108978000D01*
X120492000Y-108998000D01*
X120512000Y-108998000D01*
X120512000Y-109252000D01*
X120492000Y-109252000D01*
X120492000Y-110393203D01*
X120671596Y-110518932D01*
X121098977Y-110308582D01*
X121367999Y-109987649D01*
X121541221Y-110246892D01*
X121919174Y-110499433D01*
X122365000Y-110588113D01*
X122810826Y-110499433D01*
X123188779Y-110246892D01*
X123362001Y-109987649D01*
X123631023Y-110308582D01*
X124058404Y-110518932D01*
X124238000Y-110393203D01*
X124238000Y-109252000D01*
X124218000Y-109252000D01*
X124218000Y-108998000D01*
X124238000Y-108998000D01*
X124238000Y-107856797D01*
X124058404Y-107731068D01*
X123631023Y-107941418D01*
X123362001Y-108262351D01*
X123192682Y-108008949D01*
X124789107Y-106412524D01*
X124919174Y-106499433D01*
X125365000Y-106588113D01*
X125810826Y-106499433D01*
X126188779Y-106246892D01*
X126365000Y-105983160D01*
X126541221Y-106246892D01*
X126919174Y-106499433D01*
X127365000Y-106588113D01*
X127810826Y-106499433D01*
X128188779Y-106246892D01*
X128365000Y-105983160D01*
X128541221Y-106246892D01*
X128541221Y-106246892D01*
G37*
X128541221Y-106246892D02*
X128919174Y-106499433D01*
X129365000Y-106588113D01*
X129603000Y-106540772D01*
X129603000Y-107961828D01*
X129541221Y-108003108D01*
X129365000Y-108266840D01*
X129188779Y-108003108D01*
X128810826Y-107750567D01*
X128365000Y-107661887D01*
X127919174Y-107750567D01*
X127541221Y-108003108D01*
X127365000Y-108266840D01*
X127188779Y-108003108D01*
X126810826Y-107750567D01*
X126365000Y-107661887D01*
X125919174Y-107750567D01*
X125541221Y-108003108D01*
X125367999Y-108262351D01*
X125098977Y-107941418D01*
X124671596Y-107731068D01*
X124492000Y-107856797D01*
X124492000Y-108998000D01*
X124512000Y-108998000D01*
X124512000Y-109252000D01*
X124492000Y-109252000D01*
X124492000Y-110393203D01*
X124671596Y-110518932D01*
X125098977Y-110308582D01*
X125367999Y-109987649D01*
X125541221Y-110246892D01*
X125919174Y-110499433D01*
X126139176Y-110543194D01*
X124160370Y-112522000D01*
X117357635Y-112522000D01*
X115809825Y-110974190D01*
X116010015Y-111014010D01*
X117507990Y-111014010D01*
X117799595Y-110956006D01*
X118046805Y-110790825D01*
X118268677Y-110568953D01*
X118365000Y-110588113D01*
X118810826Y-110499433D01*
X119188779Y-110246892D01*
X119362001Y-109987649D01*
X119631023Y-110308582D01*
X120058404Y-110518932D01*
X120238000Y-110393203D01*
X120238000Y-109252000D01*
X120218000Y-109252000D01*
X120218000Y-108998000D01*
X120238000Y-108998000D01*
X120238000Y-108978000D01*
X120492000Y-108978000D01*
X120492000Y-108998000D01*
X120512000Y-108998000D01*
X120512000Y-109252000D01*
X120492000Y-109252000D01*
X120492000Y-110393203D01*
X120671596Y-110518932D01*
X121098977Y-110308582D01*
X121367999Y-109987649D01*
X121541221Y-110246892D01*
X121919174Y-110499433D01*
X122365000Y-110588113D01*
X122810826Y-110499433D01*
X123188779Y-110246892D01*
X123362001Y-109987649D01*
X123631023Y-110308582D01*
X124058404Y-110518932D01*
X124238000Y-110393203D01*
X124238000Y-109252000D01*
X124218000Y-109252000D01*
X124218000Y-108998000D01*
X124238000Y-108998000D01*
X124238000Y-107856797D01*
X124058404Y-107731068D01*
X123631023Y-107941418D01*
X123362001Y-108262351D01*
X123192682Y-108008949D01*
X124789107Y-106412524D01*
X124919174Y-106499433D01*
X125365000Y-106588113D01*
X125810826Y-106499433D01*
X126188779Y-106246892D01*
X126365000Y-105983160D01*
X126541221Y-106246892D01*
X126919174Y-106499433D01*
X127365000Y-106588113D01*
X127810826Y-106499433D01*
X128188779Y-106246892D01*
X128365000Y-105983160D01*
X128541221Y-106246892D01*
G36*
X150492000Y-108998000D02*
X150512000Y-108998000D01*
X150512000Y-109252000D01*
X150492000Y-109252000D01*
X150492000Y-110393203D01*
X150671596Y-110518932D01*
X151098977Y-110308582D01*
X151367999Y-109987649D01*
X151541221Y-110246892D01*
X151919174Y-110499433D01*
X152365000Y-110588113D01*
X152810826Y-110499433D01*
X153188779Y-110246892D01*
X153362001Y-109987649D01*
X153631023Y-110308582D01*
X154058404Y-110518932D01*
X154238000Y-110393203D01*
X154238000Y-109252000D01*
X154218000Y-109252000D01*
X154218000Y-108998000D01*
X154238000Y-108998000D01*
X154238000Y-108978000D01*
X154492000Y-108978000D01*
X154492000Y-108998000D01*
X154512000Y-108998000D01*
X154512000Y-109252000D01*
X154492000Y-109252000D01*
X154492000Y-110393203D01*
X154671596Y-110518932D01*
X155098977Y-110308582D01*
X155367999Y-109987649D01*
X155541221Y-110246892D01*
X155919174Y-110499433D01*
X156365000Y-110588113D01*
X156810826Y-110499433D01*
X157188779Y-110246892D01*
X157365000Y-109983160D01*
X157538520Y-110242849D01*
X155513370Y-112268000D01*
X146238631Y-112268000D01*
X145288000Y-111317370D01*
X145288000Y-111053975D01*
X145229996Y-110762370D01*
X145200307Y-110717938D01*
X145511185Y-111028816D01*
X145659377Y-111127834D01*
X145758395Y-111193996D01*
X146050000Y-111252000D01*
X147270000Y-111252000D01*
X147561605Y-111193996D01*
X147808815Y-111028815D01*
X148268677Y-110568953D01*
X148365000Y-110588113D01*
X148810826Y-110499433D01*
X149188779Y-110246892D01*
X149362001Y-109987649D01*
X149631023Y-110308582D01*
X150058404Y-110518932D01*
X150238000Y-110393203D01*
X150238000Y-109252000D01*
X150218000Y-109252000D01*
X150218000Y-108998000D01*
X150238000Y-108998000D01*
X150238000Y-108978000D01*
X150492000Y-108978000D01*
X150492000Y-108998000D01*
X150492000Y-108998000D01*
G37*
X150492000Y-108998000D02*
X150512000Y-108998000D01*
X150512000Y-109252000D01*
X150492000Y-109252000D01*
X150492000Y-110393203D01*
X150671596Y-110518932D01*
X151098977Y-110308582D01*
X151367999Y-109987649D01*
X151541221Y-110246892D01*
X151919174Y-110499433D01*
X152365000Y-110588113D01*
X152810826Y-110499433D01*
X153188779Y-110246892D01*
X153362001Y-109987649D01*
X153631023Y-110308582D01*
X154058404Y-110518932D01*
X154238000Y-110393203D01*
X154238000Y-109252000D01*
X154218000Y-109252000D01*
X154218000Y-108998000D01*
X154238000Y-108998000D01*
X154238000Y-108978000D01*
X154492000Y-108978000D01*
X154492000Y-108998000D01*
X154512000Y-108998000D01*
X154512000Y-109252000D01*
X154492000Y-109252000D01*
X154492000Y-110393203D01*
X154671596Y-110518932D01*
X155098977Y-110308582D01*
X155367999Y-109987649D01*
X155541221Y-110246892D01*
X155919174Y-110499433D01*
X156365000Y-110588113D01*
X156810826Y-110499433D01*
X157188779Y-110246892D01*
X157365000Y-109983160D01*
X157538520Y-110242849D01*
X155513370Y-112268000D01*
X146238631Y-112268000D01*
X145288000Y-111317370D01*
X145288000Y-111053975D01*
X145229996Y-110762370D01*
X145200307Y-110717938D01*
X145511185Y-111028816D01*
X145659377Y-111127834D01*
X145758395Y-111193996D01*
X146050000Y-111252000D01*
X147270000Y-111252000D01*
X147561605Y-111193996D01*
X147808815Y-111028815D01*
X148268677Y-110568953D01*
X148365000Y-110588113D01*
X148810826Y-110499433D01*
X149188779Y-110246892D01*
X149362001Y-109987649D01*
X149631023Y-110308582D01*
X150058404Y-110518932D01*
X150238000Y-110393203D01*
X150238000Y-109252000D01*
X150218000Y-109252000D01*
X150218000Y-108998000D01*
X150238000Y-108998000D01*
X150238000Y-108978000D01*
X150492000Y-108978000D01*
X150492000Y-108998000D01*
G36*
X180492000Y-108998000D02*
X180512000Y-108998000D01*
X180512000Y-109252000D01*
X180492000Y-109252000D01*
X180492000Y-110393203D01*
X180671596Y-110518932D01*
X181098977Y-110308582D01*
X181367999Y-109987649D01*
X181541221Y-110246892D01*
X181919174Y-110499433D01*
X182365000Y-110588113D01*
X182810826Y-110499433D01*
X183188779Y-110246892D01*
X183362001Y-109987649D01*
X183631023Y-110308582D01*
X184058404Y-110518932D01*
X184238000Y-110393203D01*
X184238000Y-109252000D01*
X184218000Y-109252000D01*
X184218000Y-108998000D01*
X184238000Y-108998000D01*
X184238000Y-108978000D01*
X184492000Y-108978000D01*
X184492000Y-108998000D01*
X184512000Y-108998000D01*
X184512000Y-109252000D01*
X184492000Y-109252000D01*
X184492000Y-110393203D01*
X184671596Y-110518932D01*
X185098977Y-110308582D01*
X185367999Y-109987649D01*
X185541221Y-110246892D01*
X185919174Y-110499433D01*
X186365000Y-110588113D01*
X186810826Y-110499433D01*
X187188779Y-110246892D01*
X187365000Y-109983160D01*
X187541221Y-110246892D01*
X187603000Y-110288172D01*
X187603000Y-110658369D01*
X186755370Y-111506000D01*
X176055656Y-111506000D01*
X174953654Y-110403998D01*
X175032014Y-110351639D01*
X175471200Y-110790826D01*
X175718411Y-110956007D01*
X176010015Y-111014010D01*
X177507990Y-111014010D01*
X177799595Y-110956006D01*
X178046805Y-110790825D01*
X178268677Y-110568953D01*
X178365000Y-110588113D01*
X178810826Y-110499433D01*
X179188779Y-110246892D01*
X179362001Y-109987649D01*
X179631023Y-110308582D01*
X180058404Y-110518932D01*
X180238000Y-110393203D01*
X180238000Y-109252000D01*
X180218000Y-109252000D01*
X180218000Y-108998000D01*
X180238000Y-108998000D01*
X180238000Y-108978000D01*
X180492000Y-108978000D01*
X180492000Y-108998000D01*
X180492000Y-108998000D01*
G37*
X180492000Y-108998000D02*
X180512000Y-108998000D01*
X180512000Y-109252000D01*
X180492000Y-109252000D01*
X180492000Y-110393203D01*
X180671596Y-110518932D01*
X181098977Y-110308582D01*
X181367999Y-109987649D01*
X181541221Y-110246892D01*
X181919174Y-110499433D01*
X182365000Y-110588113D01*
X182810826Y-110499433D01*
X183188779Y-110246892D01*
X183362001Y-109987649D01*
X183631023Y-110308582D01*
X184058404Y-110518932D01*
X184238000Y-110393203D01*
X184238000Y-109252000D01*
X184218000Y-109252000D01*
X184218000Y-108998000D01*
X184238000Y-108998000D01*
X184238000Y-108978000D01*
X184492000Y-108978000D01*
X184492000Y-108998000D01*
X184512000Y-108998000D01*
X184512000Y-109252000D01*
X184492000Y-109252000D01*
X184492000Y-110393203D01*
X184671596Y-110518932D01*
X185098977Y-110308582D01*
X185367999Y-109987649D01*
X185541221Y-110246892D01*
X185919174Y-110499433D01*
X186365000Y-110588113D01*
X186810826Y-110499433D01*
X187188779Y-110246892D01*
X187365000Y-109983160D01*
X187541221Y-110246892D01*
X187603000Y-110288172D01*
X187603000Y-110658369D01*
X186755370Y-111506000D01*
X176055656Y-111506000D01*
X174953654Y-110403998D01*
X175032014Y-110351639D01*
X175471200Y-110790826D01*
X175718411Y-110956007D01*
X176010015Y-111014010D01*
X177507990Y-111014010D01*
X177799595Y-110956006D01*
X178046805Y-110790825D01*
X178268677Y-110568953D01*
X178365000Y-110588113D01*
X178810826Y-110499433D01*
X179188779Y-110246892D01*
X179362001Y-109987649D01*
X179631023Y-110308582D01*
X180058404Y-110518932D01*
X180238000Y-110393203D01*
X180238000Y-109252000D01*
X180218000Y-109252000D01*
X180218000Y-108998000D01*
X180238000Y-108998000D01*
X180238000Y-108978000D01*
X180492000Y-108978000D01*
X180492000Y-108998000D01*
G36*
X141986000Y-103885813D02*
X141671596Y-103731068D01*
X141492000Y-103856797D01*
X141492000Y-104998000D01*
X141512000Y-104998000D01*
X141512000Y-105252000D01*
X141492000Y-105252000D01*
X141492000Y-106393203D01*
X141671596Y-106518932D01*
X141986000Y-106364187D01*
X141986000Y-107398369D01*
X141097000Y-106509370D01*
X141097000Y-106491912D01*
X141238000Y-106393203D01*
X141238000Y-105252000D01*
X141218000Y-105252000D01*
X141218000Y-104998000D01*
X141238000Y-104998000D01*
X141238000Y-103856797D01*
X141097000Y-103758088D01*
X141097000Y-96200630D01*
X141747506Y-95550125D01*
X141790167Y-95550162D01*
X141986000Y-95469246D01*
X141986000Y-103885813D01*
X141986000Y-103885813D01*
G37*
X141986000Y-103885813D02*
X141671596Y-103731068D01*
X141492000Y-103856797D01*
X141492000Y-104998000D01*
X141512000Y-104998000D01*
X141512000Y-105252000D01*
X141492000Y-105252000D01*
X141492000Y-106393203D01*
X141671596Y-106518932D01*
X141986000Y-106364187D01*
X141986000Y-107398369D01*
X141097000Y-106509370D01*
X141097000Y-106491912D01*
X141238000Y-106393203D01*
X141238000Y-105252000D01*
X141218000Y-105252000D01*
X141218000Y-104998000D01*
X141238000Y-104998000D01*
X141238000Y-103856797D01*
X141097000Y-103758088D01*
X141097000Y-96200630D01*
X141747506Y-95550125D01*
X141790167Y-95550162D01*
X141986000Y-95469246D01*
X141986000Y-103885813D01*
M02*
