M48
;DRILL file {KiCad 4.0.4-stable} date 11/11/17 12:43:12
;FORMAT={-:-/ absolute / inch / decimal}
FMAT,2
INCH,TZ
T1C0.016
T2C0.031
T3C0.032
T4C0.040
T5C0.045
T6C0.052
T7C0.120
T8C0.195
%
G90
G05
M72
T1
X7.0382Y-2.5012
X7.0512Y-2.5591
X7.0925Y-2.574
X7.1402Y-2.5897
X7.1967Y-2.6547
X7.2118Y-2.5591
X7.3032Y-2.6842
X7.349Y-2.6222
X7.385Y-2.5591
X7.4512Y-2.5271
X7.5476Y-2.5264
X7.6886Y-4.6043
X7.7028Y-2.5055
X7.7894Y-4.8484
X8.1201Y-5.4024
X8.5256Y-5.4055
X8.5382Y-4.5535
X8.5508Y-5.1146
X8.5787Y-4.5866
X8.6022Y-4.4406
X8.6063Y-4.6248
X8.6264Y-5.111
X8.6437Y-4.465
X8.6528Y-4.6421
X8.6697Y-5.0961
X8.6736Y-4.4976
X8.7106Y-5.0425
X8.7213Y-4.5205
X8.7547Y-4.7102
X8.7585Y-4.5547
X8.7849Y-2.5216
X8.8094Y-5.0378
X8.8193Y-2.4827
X8.8468Y-5.0581
X8.889Y-5.0976
X9.0205Y-5.3059
X9.3839Y-3.348
X9.8415Y-4.1224
X9.848Y-3.9677
X9.9807Y-2.7941
X10.4394Y-4.4075
X10.4461Y-4.4634
X10.4866Y-3.5382
X10.5386Y-3.5331
T2
X8.9906Y-3.9539
X8.9906Y-4.0539
X8.9906Y-4.1539
X8.9941Y-3.5323
X8.9941Y-3.6323
X8.9941Y-3.7323
X8.9945Y-4.3697
X8.9945Y-4.4697
X8.9945Y-4.5697
X9.3906Y-3.9539
X9.3906Y-4.0539
X9.3906Y-4.1539
X9.3941Y-3.5323
X9.3941Y-3.6323
X9.3941Y-3.7323
X9.3945Y-4.3697
X9.3945Y-4.4697
X9.3945Y-4.5697
X9.5839Y-3.5268
X9.5839Y-3.6268
X9.5839Y-3.7268
X9.5866Y-3.9575
X9.5866Y-4.0575
X9.5866Y-4.1575
X9.5965Y-4.3657
X9.5965Y-4.4657
X9.5965Y-4.5657
X9.9839Y-3.5268
X9.9839Y-3.6268
X9.9839Y-3.7268
X9.9866Y-3.9575
X9.9866Y-4.0575
X9.9866Y-4.1575
X9.9965Y-4.3657
X9.9965Y-4.4657
X9.9965Y-4.5657
T3
X5.4232Y-2.2465
X5.5232Y-2.2465
X5.537Y-5.6236
X5.537Y-5.7236
X5.537Y-5.8236
X5.6232Y-2.2465
X8.8213Y-3.913
X8.8213Y-4.213
X8.8224Y-4.311
X8.8224Y-4.611
X8.824Y-3.4984
X8.824Y-3.7984
X8.8283Y-2.8799
X8.8283Y-3.1799
X8.9276Y-2.8799
X8.9276Y-3.1799
X9.448Y-2.8969
X9.448Y-3.1969
X9.5421Y-2.8965
X9.5421Y-3.1965
X10.0654Y-2.8181
X10.0654Y-3.1181
X10.1232Y-3.4665
X10.1232Y-3.7665
X10.1264Y-3.9106
X10.1264Y-4.2106
X10.1276Y-4.3146
X10.1276Y-4.6146
X10.1622Y-2.8169
X10.1622Y-3.1169
X11.491Y-2.2858
X11.591Y-2.2858
X11.691Y-2.2858
X11.7776Y-6.7181
X11.8776Y-6.7181
X11.9776Y-6.7181
T4
X6.6457Y-2.3803
X6.7077Y-2.2803
X6.7557Y-2.3803
X6.8077Y-2.2803
X6.8607Y-2.3803
X6.9177Y-2.2803
X6.9707Y-2.3803
X7.0257Y-2.2803
X7.0807Y-2.3803
X7.1337Y-2.2803
X7.1907Y-2.3803
X7.2437Y-2.2803
X7.2957Y-2.3803
X7.3517Y-2.2803
X7.4057Y-2.3803
X7.4597Y-2.2803
X7.5157Y-2.3803
X7.5717Y-2.2803
X7.6257Y-2.3803
X7.6777Y-2.2803
X7.7307Y-2.3803
X7.7857Y-2.2803
X7.8407Y-2.3803
X7.8957Y-2.2803
X7.9507Y-2.3803
X9.1487Y-2.3813
X9.2107Y-2.2813
X9.2587Y-2.3813
X9.3107Y-2.2813
X9.3637Y-2.3813
X9.4207Y-2.2813
X9.4737Y-2.3813
X9.5287Y-2.2813
X9.5837Y-2.3813
X9.6367Y-2.2813
X9.6937Y-2.3813
X9.7467Y-2.2813
X9.7987Y-2.3813
X9.8547Y-2.2813
X9.9087Y-2.3813
X9.9627Y-2.2813
X10.0187Y-2.3813
X10.0747Y-2.2813
X10.1287Y-2.3813
X10.1807Y-2.2813
X10.2337Y-2.3813
X10.2887Y-2.2813
X10.3437Y-2.3813
X10.3987Y-2.2813
X10.4537Y-2.3813
T5
X9.0819Y-2.7661
X9.0886Y-3.0449
X9.089Y-3.3102
X9.1819Y-2.7661
X9.1886Y-3.0449
X9.189Y-3.3102
X9.2819Y-2.7661
X9.2886Y-3.0449
X9.289Y-3.3102
X9.687Y-2.7791
X9.6886Y-3.0579
X9.6909Y-3.2992
X9.787Y-2.7791
X9.7886Y-3.0579
X9.7909Y-3.2992
X9.887Y-2.7791
X9.8886Y-3.0579
X9.8909Y-3.2992
T6
X5.5185Y-6.6576
X5.5979Y-3.9289
X5.5979Y-4.1289
X5.5979Y-4.3289
X5.5979Y-4.5289
X5.5979Y-4.7289
X5.6022Y-2.8476
X5.6022Y-3.0476
X5.6022Y-3.2476
X5.6022Y-3.4476
X5.6022Y-3.6476
X5.7185Y-6.6576
X5.9185Y-6.6576
X5.9855Y-5.1615
X5.9942Y-5.8682
X6.1185Y-6.6576
X6.1855Y-5.1615
X6.1942Y-5.8682
X6.3185Y-6.6576
X6.3855Y-5.1615
X6.3942Y-5.8682
X6.505Y-2.8589
X6.505Y-3.0589
X6.505Y-3.2589
X6.505Y-3.4589
X6.505Y-3.6589
X6.505Y-3.9442
X6.505Y-4.1442
X6.505Y-4.3442
X6.505Y-4.5442
X6.505Y-4.7442
X6.5855Y-5.1615
X6.5942Y-5.8682
X6.635Y-6.6571
X6.7855Y-5.1615
X6.7942Y-5.8682
X6.835Y-6.6571
X7.035Y-6.6571
X7.235Y-6.6571
X7.3929Y-5.8621
X7.4341Y-2.8519
X7.4341Y-3.0519
X7.4341Y-3.2519
X7.4341Y-3.4519
X7.4341Y-3.6519
X7.4341Y-3.9341
X7.4341Y-4.1341
X7.4341Y-4.3341
X7.4341Y-4.5341
X7.4341Y-4.7341
X7.435Y-6.6571
X7.4407Y-5.1291
X7.5929Y-5.8621
X7.6407Y-5.1291
X7.7894Y-6.6549
X7.7929Y-5.8621
X7.8407Y-5.1291
X7.9894Y-6.6549
X7.9929Y-5.8621
X8.0407Y-5.1291
X8.1894Y-6.6549
X8.1929Y-5.8621
X8.2407Y-5.1291
X8.2932Y-2.8458
X8.2932Y-3.0458
X8.2932Y-3.2458
X8.2932Y-3.4458
X8.2932Y-3.6458
X8.2949Y-3.935
X8.2949Y-4.135
X8.2949Y-4.335
X8.2949Y-4.535
X8.2949Y-4.735
X8.3894Y-6.6549
X8.5894Y-6.6549
X8.9115Y-6.6543
X8.9663Y-5.7582
X9.1115Y-6.6543
X9.1663Y-5.7582
X9.3115Y-6.6543
X9.3663Y-5.7582
X9.5115Y-6.6543
X9.5663Y-5.7582
X9.7115Y-6.6543
X9.7663Y-5.7582
X10.383Y-6.6472
X10.3978Y-5.6564
X10.4189Y-4.6521
X10.4311Y-3.6788
X10.4409Y-2.8381
X10.583Y-6.6472
X10.5978Y-5.6564
X10.6189Y-4.6521
X10.6311Y-3.6788
X10.6409Y-2.8381
X10.783Y-6.6472
X10.7978Y-5.6564
X10.8189Y-4.6521
X10.8311Y-3.6788
X10.8409Y-2.8381
X10.983Y-6.6472
X10.9978Y-5.6564
X11.0189Y-4.6521
X11.0311Y-3.6788
X11.0409Y-2.8381
X11.183Y-6.6472
X11.1978Y-5.6564
X11.2189Y-4.6521
X11.2311Y-3.6788
X11.2409Y-2.8381
X11.973Y-2.6432
X11.973Y-2.8432
X11.973Y-3.0432
X11.973Y-3.2432
X11.973Y-3.4432
X11.9831Y-3.7952
X11.9831Y-3.9952
X11.9831Y-4.1952
X11.9831Y-4.3952
X11.9831Y-4.5952
X11.9904Y-5.125
X11.9904Y-5.325
X11.9904Y-5.525
X11.9904Y-5.725
X11.9904Y-5.925
T7
X6.3707Y-2.2803
X8.2207Y-2.2803
X8.8737Y-2.2813
X10.7237Y-2.2813
T8
X5.6055Y-6.2941
X11.7575Y-6.3471
T0
M30
