G04 #@! TF.FileFunction,Copper,L2,Bot,Signal*
%FSLAX46Y46*%
G04 Gerber Fmt 4.6, Leading zero omitted, Abs format (unit mm)*
G04 Created by KiCad (PCBNEW 4.0.4-stable) date 11/11/17 12:43:10*
%MOMM*%
%LPD*%
G01*
G04 APERTURE LIST*
%ADD10C,0.100000*%
%ADD11C,2.032000*%
%ADD12R,1.397000X1.397000*%
%ADD13C,1.397000*%
%ADD14C,3.810000*%
%ADD15C,1.524000*%
%ADD16R,1.524000X1.524000*%
%ADD17R,1.600000X1.600000*%
%ADD18O,1.600000X1.600000*%
%ADD19R,1.778000X1.778000*%
%ADD20C,1.778000*%
%ADD21C,6.858000*%
%ADD22C,0.825500*%
%ADD23C,0.558800*%
%ADD24C,1.270000*%
%ADD25C,0.254000*%
G04 APERTURE END LIST*
D10*
D11*
X188825000Y-99925600D03*
X188825000Y-105005600D03*
X188825000Y-110085600D03*
X188825000Y-115165600D03*
X188825000Y-120245600D03*
X264640320Y-118163780D03*
X269720320Y-118163780D03*
X274800320Y-118163780D03*
X279880320Y-118163780D03*
X284960320Y-118163780D03*
X304114200Y-87457280D03*
X304114200Y-82377280D03*
X304114200Y-77297280D03*
X304114200Y-72217280D03*
X304114200Y-67137280D03*
X265199220Y-72088400D03*
X270279220Y-72088400D03*
X275359220Y-72088400D03*
X280439220Y-72088400D03*
X285519220Y-72088400D03*
X304370740Y-116718080D03*
X304370740Y-111638080D03*
X304370740Y-106558080D03*
X304370740Y-101478080D03*
X304370740Y-96398080D03*
D12*
X296951400Y-58059320D03*
D13*
X294411400Y-58059320D03*
X291871400Y-58059320D03*
D11*
X264949580Y-93441760D03*
X270029580Y-93441760D03*
X275109580Y-93441760D03*
X280189580Y-93441760D03*
X285269580Y-93441760D03*
D14*
X272381980Y-57945020D03*
X225391980Y-57945020D03*
D15*
X232376980Y-60485020D03*
X235170980Y-60485020D03*
X237837980Y-60485020D03*
X240631980Y-60485020D03*
X243425980Y-60485020D03*
X246219980Y-60485020D03*
X248886980Y-60485020D03*
X251680980Y-60485020D03*
X254474980Y-60485020D03*
X257268980Y-60485020D03*
X259935980Y-60485020D03*
X262729980Y-60485020D03*
D16*
X265523980Y-60485020D03*
D15*
X233951780Y-57945020D03*
X236491780Y-57945020D03*
X239285780Y-57945020D03*
X242028980Y-57945020D03*
X244772180Y-57945020D03*
X247566180Y-57945020D03*
X250309380Y-57945020D03*
X253052580Y-57945020D03*
X255897380Y-57945020D03*
X258589780Y-57945020D03*
X261332980Y-57945020D03*
X264126980Y-57945020D03*
D11*
X263728900Y-168838660D03*
X268808900Y-168838660D03*
X273888900Y-168838660D03*
X278968900Y-168838660D03*
X284048900Y-168838660D03*
X304555740Y-150495800D03*
X304555740Y-145415800D03*
X304555740Y-140335800D03*
X304555740Y-135255800D03*
X304555740Y-130175800D03*
X264104800Y-143671720D03*
X269184800Y-143671720D03*
X274264800Y-143671720D03*
X279344800Y-143671720D03*
X284424800Y-143671720D03*
D12*
X299150000Y-170640000D03*
D13*
X301690000Y-170640000D03*
X304230000Y-170640000D03*
D11*
X246672780Y-169018400D03*
X241592780Y-169018400D03*
X236512780Y-169018400D03*
X231432780Y-169018400D03*
X226352780Y-169018400D03*
X227744420Y-146258920D03*
X232824420Y-146258920D03*
X237904420Y-146258920D03*
X242984420Y-146258920D03*
X248064420Y-146258920D03*
D14*
X208805780Y-57919620D03*
X161815780Y-57919620D03*
D15*
X168800780Y-60459620D03*
X171594780Y-60459620D03*
X174261780Y-60459620D03*
X177055780Y-60459620D03*
X179849780Y-60459620D03*
X182643780Y-60459620D03*
X185310780Y-60459620D03*
X188104780Y-60459620D03*
X190898780Y-60459620D03*
X193692780Y-60459620D03*
X196359780Y-60459620D03*
X199153780Y-60459620D03*
D16*
X201947780Y-60459620D03*
D15*
X170375580Y-57919620D03*
X172915580Y-57919620D03*
X175709580Y-57919620D03*
X178452780Y-57919620D03*
X181195980Y-57919620D03*
X183989980Y-57919620D03*
X186733180Y-57919620D03*
X189476380Y-57919620D03*
X192321180Y-57919620D03*
X195013580Y-57919620D03*
X197756780Y-57919620D03*
X200550780Y-57919620D03*
D11*
X142297100Y-72327840D03*
X142297100Y-77407840D03*
X142297100Y-82487840D03*
X142297100Y-87567840D03*
X142297100Y-92647840D03*
X165228220Y-72617060D03*
X165228220Y-77697060D03*
X165228220Y-82777060D03*
X165228220Y-87857060D03*
X165228220Y-92937060D03*
X210647140Y-72282960D03*
X210647140Y-77362960D03*
X210647140Y-82442960D03*
X210647140Y-87522960D03*
X210647140Y-92602960D03*
X188825000Y-72437720D03*
X188825000Y-77517720D03*
X188825000Y-82597720D03*
X188825000Y-87677720D03*
X188825000Y-92757720D03*
D12*
X137750000Y-57060000D03*
D13*
X140290000Y-57060000D03*
X142830000Y-57060000D03*
D11*
X172573240Y-149052720D03*
X167493240Y-149052720D03*
X162413240Y-149052720D03*
X157333240Y-149052720D03*
X152253240Y-149052720D03*
X160489000Y-169102540D03*
X155409000Y-169102540D03*
X150329000Y-169102540D03*
X145249000Y-169102540D03*
X140169000Y-169102540D03*
X188848100Y-169089840D03*
X183768100Y-169089840D03*
X178688100Y-169089840D03*
X173608100Y-169089840D03*
X168528100Y-169089840D03*
X218171440Y-169033640D03*
X213091440Y-169033640D03*
X208011440Y-169033640D03*
X202931440Y-169033640D03*
X197851440Y-169033640D03*
X209313280Y-130278280D03*
X204233280Y-130278280D03*
X199153280Y-130278280D03*
X194073280Y-130278280D03*
X188993280Y-130278280D03*
X172351520Y-131101640D03*
X167271520Y-131101640D03*
X162191520Y-131101640D03*
X157111520Y-131101640D03*
X152031520Y-131101640D03*
X208098480Y-148898600D03*
X203018480Y-148898600D03*
X197938480Y-148898600D03*
X192858480Y-148898600D03*
X187778480Y-148898600D03*
D12*
X140640000Y-147920000D03*
D13*
X140640000Y-145380000D03*
X140640000Y-142840000D03*
D11*
X142187880Y-99792860D03*
X142187880Y-104872860D03*
X142187880Y-109952860D03*
X142187880Y-115032860D03*
X142187880Y-120112860D03*
X165228220Y-100183680D03*
X165228220Y-105263680D03*
X165228220Y-110343680D03*
X165228220Y-115423680D03*
X165228220Y-120503680D03*
X210690320Y-99948640D03*
X210690320Y-105028640D03*
X210690320Y-110108640D03*
X210690320Y-115188640D03*
X210690320Y-120268640D03*
D13*
X224240000Y-73150000D03*
X224240000Y-80770000D03*
X226760000Y-73150000D03*
X226760000Y-80770000D03*
X239980000Y-73580000D03*
X239980000Y-81200000D03*
X242370000Y-73570000D03*
X242370000Y-81190000D03*
X258120000Y-71550000D03*
X258120000Y-79170000D03*
X255660000Y-71580000D03*
X255660000Y-79200000D03*
D17*
X228450000Y-89720000D03*
D18*
X238610000Y-94800000D03*
X228450000Y-92260000D03*
X238610000Y-92260000D03*
X228450000Y-94800000D03*
X238610000Y-89720000D03*
D17*
X243430000Y-89580000D03*
D18*
X253590000Y-94660000D03*
X243430000Y-92120000D03*
X253590000Y-92120000D03*
X243430000Y-94660000D03*
X253590000Y-89580000D03*
D17*
X228360000Y-100430000D03*
D18*
X238520000Y-105510000D03*
X228360000Y-102970000D03*
X238520000Y-102970000D03*
X228360000Y-105510000D03*
X238520000Y-100430000D03*
D17*
X243500000Y-100520000D03*
D18*
X253660000Y-105600000D03*
X243500000Y-103060000D03*
X253660000Y-103060000D03*
X243500000Y-105600000D03*
X253660000Y-100520000D03*
D17*
X228460000Y-110990000D03*
D18*
X238620000Y-116070000D03*
X228460000Y-113530000D03*
X238620000Y-113530000D03*
X228460000Y-116070000D03*
X238620000Y-110990000D03*
D17*
X243750000Y-110890000D03*
D18*
X253910000Y-115970000D03*
X243750000Y-113430000D03*
X253910000Y-113430000D03*
X243750000Y-115970000D03*
X253910000Y-110890000D03*
D19*
X235760000Y-70260000D03*
D20*
X230680000Y-70260000D03*
X233220000Y-70260000D03*
D19*
X251230000Y-83800000D03*
D20*
X246150000Y-83800000D03*
X248690000Y-83800000D03*
D19*
X235940000Y-84080000D03*
D20*
X230860000Y-84080000D03*
X233400000Y-84080000D03*
D19*
X251130000Y-70590000D03*
D20*
X246050000Y-70590000D03*
X248590000Y-70590000D03*
D19*
X251170000Y-77670000D03*
D20*
X246090000Y-77670000D03*
X248630000Y-77670000D03*
D19*
X235930000Y-77340000D03*
D20*
X230850000Y-77340000D03*
X233390000Y-77340000D03*
D21*
X142380000Y-159870000D03*
X298640500Y-161216340D03*
D13*
X224130000Y-96480000D03*
X224130000Y-88860000D03*
X257130000Y-88050000D03*
X257130000Y-95670000D03*
X224060000Y-107010000D03*
X224060000Y-99390000D03*
X257210000Y-99330000D03*
X257210000Y-106950000D03*
X224090000Y-117120000D03*
X224090000Y-109500000D03*
X257240000Y-109590000D03*
X257240000Y-117210000D03*
D22*
X197850000Y-123150000D03*
X187580000Y-65001782D03*
X181360257Y-65779330D03*
X179100000Y-65000000D03*
X191710000Y-64170000D03*
X183180000Y-65001782D03*
X186664098Y-66603976D03*
X185501644Y-68179900D03*
X182796522Y-67428348D03*
X229120000Y-134770000D03*
X216550000Y-137300000D03*
X206250000Y-137220000D03*
X195290000Y-116950000D03*
X217190000Y-129910000D03*
X189260000Y-64188971D03*
X180150000Y-65380000D03*
X220310000Y-114240000D03*
X218600000Y-117470000D03*
X223135963Y-64048240D03*
X218496150Y-112790000D03*
X216870530Y-115660000D03*
X222466150Y-115690000D03*
X222370000Y-119640000D03*
X223760000Y-127960000D03*
X221250000Y-128080000D03*
X249973840Y-104710000D03*
X224707690Y-128476921D03*
X220210000Y-129440000D03*
X250140000Y-100780000D03*
X225780000Y-129480000D03*
X219110000Y-129820000D03*
X178770000Y-63530000D03*
X195650000Y-63640000D03*
X253510000Y-70970000D03*
X224010000Y-63060000D03*
X219550000Y-113410000D03*
X217900000Y-116500000D03*
X221520000Y-114820000D03*
X219780000Y-117910000D03*
X238350000Y-85040000D03*
X265330000Y-113370000D03*
X267680000Y-89740000D03*
X265160000Y-111950000D03*
X266360000Y-89870000D03*
D23*
X246330000Y-97560000D02*
X246330000Y-102770000D01*
X244299999Y-104800001D02*
X243500000Y-105600000D01*
X246330000Y-102770000D02*
X244299999Y-104800001D01*
X243430000Y-94660000D02*
X246330000Y-97560000D01*
X235190000Y-107960000D02*
X235860000Y-108630000D01*
X235860000Y-108630000D02*
X240170000Y-108630000D01*
X240170000Y-108630000D02*
X240840000Y-107960000D01*
X232630000Y-104870000D02*
X232740000Y-104980000D01*
X232740000Y-104980000D02*
X232740000Y-105510000D01*
X228450000Y-94800000D02*
X232630000Y-98980000D01*
X232630000Y-98980000D02*
X232630000Y-104870000D01*
X228460000Y-116070000D02*
X235190000Y-109340000D01*
X235190000Y-109340000D02*
X235190000Y-107960000D01*
X240840000Y-107960000D02*
X241140000Y-107960000D01*
X240840000Y-107960000D02*
X240840000Y-113060000D01*
X240840000Y-113060000D02*
X242080000Y-114300000D01*
X242080000Y-114300000D02*
X243750000Y-115970000D01*
X241140000Y-107960000D02*
X243500000Y-105600000D01*
X232740000Y-105510000D02*
X235190000Y-107960000D01*
X228360000Y-105510000D02*
X232740000Y-105510000D01*
X135262811Y-68236677D02*
X135262811Y-152253323D01*
X170077501Y-169833553D02*
X169271813Y-170639241D01*
X170077501Y-167407501D02*
X170077501Y-169833553D01*
X161504999Y-170118539D02*
X160489000Y-169102540D01*
X155607189Y-152937189D02*
X170077501Y-167407501D01*
X141276677Y-62222811D02*
X135262811Y-68236677D01*
X167037590Y-62222810D02*
X141276677Y-62222811D01*
X169271813Y-170639241D02*
X162025701Y-170639241D01*
X168800780Y-60459620D02*
X167037590Y-62222810D01*
X135262811Y-152253323D02*
X135946677Y-152937189D01*
X162025701Y-170639241D02*
X161504999Y-170118539D01*
X135946677Y-152937189D02*
X155607189Y-152937189D01*
X155944891Y-152124379D02*
X169683323Y-165862811D01*
X223197191Y-165862811D02*
X225336781Y-168002401D01*
X225336781Y-168002401D02*
X226352780Y-169018400D01*
X136283355Y-152124379D02*
X155944891Y-152124379D01*
X136075622Y-151916646D02*
X136283355Y-152124379D01*
X169018779Y-63035621D02*
X141613355Y-63035621D01*
X171594780Y-60459620D02*
X169018779Y-63035621D01*
X169683323Y-165862811D02*
X223197191Y-165862811D01*
X136075622Y-68573354D02*
X136075622Y-151916646D01*
X141613355Y-63035621D02*
X136075622Y-68573354D01*
X170020000Y-165050000D02*
X232544380Y-165050000D01*
X156281569Y-151311569D02*
X170020000Y-165050000D01*
X136888433Y-68910031D02*
X136888433Y-151311569D01*
X170872968Y-63848432D02*
X141950032Y-63848432D01*
X136888433Y-151311569D02*
X156281569Y-151311569D01*
X141950032Y-63848432D02*
X136888433Y-68910031D01*
X174261780Y-60459620D02*
X170872968Y-63848432D01*
X235496781Y-168002401D02*
X236512780Y-169018400D01*
X232544380Y-165050000D02*
X235496781Y-168002401D01*
X247759994Y-118560000D02*
X248481567Y-117838427D01*
X217550000Y-70620000D02*
X217550000Y-113230206D01*
X245108800Y-110890000D02*
X243750000Y-110890000D01*
X248481567Y-114262767D02*
X245108800Y-110890000D01*
X248481567Y-117838427D02*
X248481567Y-114262767D01*
X219960832Y-115641038D02*
X220310830Y-115641038D01*
X217550000Y-113230206D02*
X219960832Y-115641038D01*
X201598409Y-54668409D02*
X217550000Y-70620000D01*
X195572391Y-54668409D02*
X201598409Y-54668409D01*
X192321180Y-57919620D02*
X195572391Y-54668409D01*
X220310830Y-115641038D02*
X223229792Y-118560000D01*
X223229792Y-118560000D02*
X247759994Y-118560000D01*
X197850000Y-123150000D02*
X197850000Y-81462720D01*
X197850000Y-81462720D02*
X188825000Y-72437720D01*
X200169279Y-131294279D02*
X199153280Y-130278280D01*
X204976993Y-131827681D02*
X200702681Y-131827681D01*
X215924380Y-120880294D02*
X204976993Y-131827681D01*
X200702681Y-131827681D02*
X200169279Y-131294279D01*
X215924380Y-71376028D02*
X215924380Y-120880294D01*
X199052181Y-56624219D02*
X201172571Y-56624219D01*
X201172571Y-56624219D02*
X215924380Y-71376028D01*
X197756780Y-57919620D02*
X199052181Y-56624219D01*
X215111569Y-119399991D02*
X205249279Y-129262281D01*
X215111569Y-72302609D02*
X215111569Y-119399991D01*
X203268580Y-60459620D02*
X215111569Y-72302609D01*
X201947780Y-60459620D02*
X203268580Y-60459620D01*
X205249279Y-129262281D02*
X204233280Y-130278280D01*
X187580000Y-64418066D02*
X187580000Y-65001782D01*
X187580000Y-63778400D02*
X187580000Y-64418066D01*
X181360257Y-66645023D02*
X181360257Y-66363046D01*
X190898780Y-60459620D02*
X187580000Y-63778400D01*
X181360257Y-66363046D02*
X181360257Y-65779330D01*
X165228220Y-82777060D02*
X181360257Y-66645023D01*
X157422129Y-67362811D02*
X143313099Y-81471841D01*
X176737189Y-67362811D02*
X157422129Y-67362811D01*
X143313099Y-81471841D02*
X142297100Y-82487840D01*
X179100000Y-65000000D02*
X176737189Y-67362811D01*
X196359780Y-60459620D02*
X192649400Y-64170000D01*
X192649400Y-64170000D02*
X191710000Y-64170000D01*
X185440000Y-69486546D02*
X185440000Y-76919606D01*
X184555493Y-67725747D02*
X184555493Y-68602039D01*
X188104780Y-60459620D02*
X185372381Y-63192019D01*
X185372381Y-66908859D02*
X184555493Y-67725747D01*
X185440000Y-76919606D02*
X190374401Y-81854007D01*
X190374401Y-91208319D02*
X189840999Y-91741721D01*
X190374401Y-81854007D02*
X190374401Y-91208319D01*
X185372381Y-63192019D02*
X185372381Y-66908859D01*
X189840999Y-91741721D02*
X188825000Y-92757720D01*
X184555493Y-68602039D02*
X185440000Y-69486546D01*
X182767251Y-64589033D02*
X183180000Y-65001782D01*
X182643780Y-64465562D02*
X182767251Y-64589033D01*
X182643780Y-60459620D02*
X182643780Y-64465562D01*
X207944180Y-89900000D02*
X206950000Y-89900000D01*
X205090000Y-84446162D02*
X187247814Y-66603976D01*
X206950000Y-89900000D02*
X205090000Y-88040000D01*
X205090000Y-88040000D02*
X205090000Y-84446162D01*
X210647140Y-92602960D02*
X207944180Y-89900000D01*
X187247814Y-66603976D02*
X186664098Y-66603976D01*
X179849780Y-62929780D02*
X182233849Y-65313849D01*
X179849780Y-60459620D02*
X179849780Y-62929780D01*
X182796522Y-65978608D02*
X182796522Y-66844632D01*
X182233849Y-65415935D02*
X182796522Y-65978608D01*
X182796522Y-66844632D02*
X182796522Y-67428348D01*
X182233849Y-65313849D02*
X182233849Y-65415935D01*
X187540920Y-68179900D02*
X186085360Y-68179900D01*
X212900000Y-84695820D02*
X212900000Y-92643214D01*
X207060514Y-91160000D02*
X204130000Y-88229486D01*
X207060514Y-91309448D02*
X207060514Y-91160000D01*
X211313214Y-94230000D02*
X209981066Y-94230000D01*
X209981066Y-94230000D02*
X207060514Y-91309448D01*
X204130000Y-84768980D02*
X187540920Y-68179900D01*
X210647140Y-82442960D02*
X212900000Y-84695820D01*
X186085360Y-68179900D02*
X185501644Y-68179900D01*
X204130000Y-88229486D02*
X204130000Y-84768980D01*
X212900000Y-92643214D02*
X211313214Y-94230000D01*
X184548781Y-61221619D02*
X184548781Y-66487638D01*
X183742683Y-68970731D02*
X184548781Y-69776829D01*
X184548781Y-66487638D02*
X183742683Y-67293736D01*
X185310780Y-60459620D02*
X184548781Y-61221619D01*
X183742683Y-67293736D02*
X183742683Y-68970731D01*
X187809001Y-81581721D02*
X188825000Y-82597720D01*
X184548781Y-69776829D02*
X184548781Y-78321501D01*
X184548781Y-78321501D02*
X187809001Y-81581721D01*
D24*
X250309380Y-57945020D02*
X253052580Y-57945020D01*
X247566180Y-57945020D02*
X250309380Y-57945020D01*
X244772180Y-57945020D02*
X247566180Y-57945020D01*
X242028980Y-57945020D02*
X244772180Y-57945020D01*
X239285780Y-57945020D02*
X242028980Y-57945020D01*
X236491780Y-57945020D02*
X239285780Y-57945020D01*
X233951780Y-57945020D02*
X236491780Y-57945020D01*
X172915580Y-57919620D02*
X170375580Y-57919620D01*
X175709580Y-57919620D02*
X172915580Y-57919620D01*
X178452780Y-57919620D02*
X175709580Y-57919620D01*
X181195980Y-57919620D02*
X178452780Y-57919620D01*
X183989980Y-57919620D02*
X181195980Y-57919620D01*
X186733180Y-57919620D02*
X183989980Y-57919620D01*
X189476380Y-57919620D02*
X186733180Y-57919620D01*
X233951780Y-57945020D02*
X229506759Y-53499999D01*
X229506759Y-53499999D02*
X193896001Y-53499999D01*
X193896001Y-53499999D02*
X190238379Y-57157621D01*
X190238379Y-57157621D02*
X189476380Y-57919620D01*
D23*
X229120000Y-134770000D02*
X239680000Y-134770000D01*
X239680000Y-134770000D02*
X257240000Y-117210000D01*
X206250000Y-137220000D02*
X216470000Y-137220000D01*
X216470000Y-137220000D02*
X216550000Y-137300000D01*
X195290000Y-116950000D02*
X188993280Y-123246720D01*
X188993280Y-123246720D02*
X188993280Y-130278280D01*
D24*
X208011440Y-169033640D02*
X205750842Y-169033640D01*
X156424999Y-170118539D02*
X155409000Y-169102540D01*
X205750842Y-169033640D02*
X202976831Y-171807651D01*
X202976831Y-171807651D02*
X158114111Y-171807651D01*
X158114111Y-171807651D02*
X156424999Y-170118539D01*
X218171440Y-169033640D02*
X220061201Y-170923401D01*
X220061201Y-170923401D02*
X229527779Y-170923401D01*
X229527779Y-170923401D02*
X230416781Y-170034399D01*
X230416781Y-170034399D02*
X231432780Y-169018400D01*
X208011440Y-169033640D02*
X209916441Y-167128639D01*
X209916441Y-167128639D02*
X216266439Y-167128639D01*
X216266439Y-167128639D02*
X217155441Y-168017641D01*
X217155441Y-168017641D02*
X218171440Y-169033640D01*
X152031520Y-131101640D02*
X152031520Y-109636500D01*
X152031520Y-109636500D02*
X142187880Y-99792860D01*
X152253240Y-149052720D02*
X152253240Y-131323360D01*
X152253240Y-131323360D02*
X152031520Y-131101640D01*
D23*
X195089279Y-129262281D02*
X194073280Y-130278280D01*
X200550780Y-57919620D02*
X200550780Y-61546742D01*
X207601046Y-116750514D02*
X195089279Y-129262281D01*
X214298760Y-72668760D02*
X214298760Y-115670514D01*
X201394038Y-62390000D02*
X204020000Y-62390000D01*
X200550780Y-61546742D02*
X201394038Y-62390000D01*
X214298760Y-115670514D02*
X213218760Y-116750514D01*
X204020000Y-62390000D02*
X214298760Y-72668760D01*
X213218760Y-116750514D02*
X207601046Y-116750514D01*
X217602749Y-129497251D02*
X217190000Y-129910000D01*
X221257189Y-125842811D02*
X217602749Y-129497251D01*
X219624155Y-116453849D02*
X219974153Y-116453849D01*
X216737189Y-113566883D02*
X219624155Y-116453849D01*
X219974153Y-116453849D02*
X221257189Y-117736885D01*
X216737189Y-71039349D02*
X216737189Y-113566883D01*
X197451980Y-55481220D02*
X201179060Y-55481220D01*
X195013580Y-57919620D02*
X197451980Y-55481220D01*
X201179060Y-55481220D02*
X216737189Y-71039349D01*
X221257189Y-117736885D02*
X221257189Y-125842811D01*
X189843716Y-64188971D02*
X189260000Y-64188971D01*
X193692780Y-60459620D02*
X189963429Y-64188971D01*
X189963429Y-64188971D02*
X189843716Y-64188971D01*
X180150000Y-65380000D02*
X163678819Y-81851181D01*
X163678819Y-81851181D02*
X163678819Y-91387659D01*
X163678819Y-91387659D02*
X164212221Y-91921061D01*
X164212221Y-91921061D02*
X165228220Y-92937060D01*
X157111520Y-131101640D02*
X160399880Y-134390000D01*
X160399880Y-134390000D02*
X209880000Y-134390000D01*
X209880000Y-134390000D02*
X218600000Y-125670000D01*
X218600000Y-125670000D02*
X218600000Y-118053716D01*
X218600000Y-118053716D02*
X218600000Y-117470000D01*
X220510000Y-114040000D02*
X220310000Y-114240000D01*
X220510000Y-72352000D02*
X220510000Y-114040000D01*
X232376980Y-60485020D02*
X220510000Y-72352000D01*
X222723214Y-64460989D02*
X223135963Y-64048240D01*
X218496150Y-68688053D02*
X222723214Y-64460989D01*
X218496150Y-112790000D02*
X218496150Y-68688053D01*
X216870530Y-116243716D02*
X216870530Y-115660000D01*
X216841039Y-116273207D02*
X216870530Y-116243716D01*
X209330534Y-132640490D02*
X216841038Y-125129986D01*
X173890370Y-132640490D02*
X209330534Y-132640490D01*
X216841038Y-125129986D02*
X216841039Y-116273207D01*
X172351520Y-131101640D02*
X173890370Y-132640490D01*
X188794479Y-149914599D02*
X187778480Y-148898600D01*
X194639879Y-155759999D02*
X188794479Y-149914599D01*
X285369999Y-155759999D02*
X194639879Y-155759999D01*
X291517189Y-149612809D02*
X285369999Y-155759999D01*
X291517189Y-73186677D02*
X291517189Y-149612809D01*
X285663323Y-67332811D02*
X291517189Y-73186677D01*
X261322771Y-67332811D02*
X285663323Y-67332811D01*
X254474980Y-60485020D02*
X261322771Y-67332811D01*
X261810000Y-66520000D02*
X257268980Y-61978980D01*
X286000000Y-66520000D02*
X261810000Y-66520000D01*
X292330000Y-149949486D02*
X292330000Y-72850000D01*
X285706676Y-156572810D02*
X292330000Y-149949486D01*
X193023324Y-156572810D02*
X285706676Y-156572810D01*
X186229079Y-149778565D02*
X193023324Y-156572810D01*
X187034767Y-147349199D02*
X186229079Y-148154887D01*
X192858480Y-148898600D02*
X191309079Y-147349199D01*
X257268980Y-61978980D02*
X257268980Y-60485020D01*
X186229079Y-148154887D02*
X186229079Y-149778565D01*
X292330000Y-72850000D02*
X286000000Y-66520000D01*
X191309079Y-147349199D02*
X187034767Y-147349199D01*
X222466150Y-115690000D02*
X226260000Y-111896150D01*
X227091200Y-89720000D02*
X228450000Y-89720000D01*
X226260000Y-111896150D02*
X226260000Y-90551200D01*
X226260000Y-90551200D02*
X227091200Y-89720000D01*
X210832811Y-154947189D02*
X222370000Y-143410000D01*
X222370000Y-143410000D02*
X222370000Y-119640000D01*
X195090000Y-154947189D02*
X210832811Y-154947189D01*
X192858480Y-152715669D02*
X195090000Y-154947189D01*
X192858480Y-148898600D02*
X192858480Y-152715669D01*
X185416271Y-147818213D02*
X186698093Y-146536391D01*
X293142809Y-72513323D02*
X293142809Y-150286157D01*
X264080520Y-65707190D02*
X286336676Y-65707190D01*
X192204083Y-157385619D02*
X185416271Y-150597807D01*
X259935980Y-61562650D02*
X264080520Y-65707190D01*
X286043347Y-157385619D02*
X192204083Y-157385619D01*
X286336676Y-65707190D02*
X293142809Y-72513323D01*
X196922481Y-147882601D02*
X197938480Y-148898600D01*
X185416271Y-150597807D02*
X185416271Y-147818213D01*
X259935980Y-60485020D02*
X259935980Y-61562650D01*
X293142809Y-150286157D02*
X286043347Y-157385619D01*
X186698093Y-146536391D02*
X195576271Y-146536391D01*
X195576271Y-146536391D02*
X196922481Y-147882601D01*
X249294378Y-105430844D02*
X249027688Y-105164154D01*
X249294378Y-118175104D02*
X249294378Y-105430844D01*
X249027688Y-93818888D02*
X244788800Y-89580000D01*
X248096673Y-119372809D02*
X249294378Y-118175104D01*
X232347190Y-119372810D02*
X248096673Y-119372809D01*
X223760000Y-127960000D02*
X232347190Y-119372810D01*
X249027688Y-105164154D02*
X249027688Y-93818888D01*
X244788800Y-89580000D02*
X243430000Y-89580000D01*
X210485621Y-154134379D02*
X221250000Y-143370000D01*
X221250000Y-143370000D02*
X221250000Y-128080000D01*
X199274379Y-154134379D02*
X210485621Y-154134379D01*
X197938480Y-152798480D02*
X199274379Y-154134379D01*
X197938480Y-148898600D02*
X197938480Y-152798480D01*
X293955620Y-150622834D02*
X293955620Y-72235620D01*
X191867406Y-158198430D02*
X286380024Y-158198430D01*
X184603460Y-150934484D02*
X191867406Y-158198430D01*
X184603460Y-147481536D02*
X184603460Y-150934484D01*
X199843460Y-145723580D02*
X186361416Y-145723580D01*
X203018480Y-148898600D02*
X199843460Y-145723580D01*
X186361416Y-145723580D02*
X184603460Y-147481536D01*
X286380024Y-158198430D02*
X293955620Y-150622834D01*
X224707690Y-128476921D02*
X232998991Y-120185620D01*
X250107189Y-104843349D02*
X249973840Y-104710000D01*
X248433351Y-120185619D02*
X250107189Y-118511781D01*
X232998991Y-120185620D02*
X248433351Y-120185619D01*
X250107189Y-118511781D02*
X250107189Y-104843349D01*
X220185257Y-143285257D02*
X220210000Y-143260514D01*
X220210000Y-143260514D02*
X220210000Y-129440000D01*
X210148945Y-153321569D02*
X220185257Y-143285257D01*
X204551569Y-153321569D02*
X210148945Y-153321569D01*
X203018480Y-148898600D02*
X204034479Y-149914599D01*
X204034479Y-149914599D02*
X204034479Y-152804479D01*
X204034479Y-152804479D02*
X204551569Y-153321569D01*
X264904380Y-64894380D02*
X262729980Y-62719980D01*
X262729980Y-62719980D02*
X262729980Y-60485020D01*
X286673352Y-64894380D02*
X264904380Y-64894380D01*
X293955620Y-72235620D02*
X293955620Y-72176648D01*
X293955620Y-72176648D02*
X286673352Y-64894380D01*
X293955620Y-72235620D02*
X293940000Y-72220000D01*
X207082481Y-147882601D02*
X208098480Y-148898600D01*
X186024739Y-144910769D02*
X204110649Y-144910769D01*
X183790649Y-147144859D02*
X186024739Y-144910769D01*
X286707943Y-159019999D02*
X191539487Y-159019999D01*
X294768427Y-150959515D02*
X286707943Y-159019999D01*
X294768427Y-71839971D02*
X294768427Y-150959515D01*
X287010027Y-64081571D02*
X294768427Y-71839971D01*
X265523980Y-61805820D02*
X267799731Y-64081571D01*
X265523980Y-60485020D02*
X265523980Y-61805820D01*
X183790649Y-151271161D02*
X183790649Y-147144859D01*
X267799731Y-64081571D02*
X287010027Y-64081571D01*
X204110649Y-144910769D02*
X207082481Y-147882601D01*
X191539487Y-159019999D02*
X183790649Y-151271161D01*
X250552749Y-101192749D02*
X250140000Y-100780000D01*
X250942749Y-101582749D02*
X250552749Y-101192749D01*
X250942749Y-118825709D02*
X250942749Y-101582749D01*
X225780000Y-129480000D02*
X240288458Y-129480000D01*
X240288458Y-129480000D02*
X250942749Y-118825709D01*
X213158590Y-148898600D02*
X219110000Y-142947190D01*
X219110000Y-142947190D02*
X219110000Y-129820000D01*
X208098480Y-148898600D02*
X213158590Y-148898600D01*
X288054648Y-162271240D02*
X190192782Y-162271240D01*
X284148186Y-54544380D02*
X298019668Y-68415862D01*
X259298020Y-54544380D02*
X284148186Y-54544380D01*
X255897380Y-57945020D02*
X259298020Y-54544380D01*
X176974262Y-149052720D02*
X172573240Y-149052720D01*
X298019668Y-152306220D02*
X288054648Y-162271240D01*
X298019668Y-68415862D02*
X298019668Y-152306220D01*
X190192782Y-162271240D02*
X176974262Y-149052720D01*
X259351779Y-57183021D02*
X258589780Y-57945020D01*
X271465194Y-61643140D02*
X265179244Y-55357190D01*
X288020056Y-61643140D02*
X271465194Y-61643140D01*
X287717972Y-161458430D02*
X297206858Y-151969544D01*
X167493240Y-149052720D02*
X170485960Y-146060000D01*
X175131028Y-146060000D02*
X190529458Y-161458430D01*
X297206858Y-151969544D02*
X297206858Y-70829942D01*
X297206858Y-70829942D02*
X288020056Y-61643140D01*
X190529458Y-161458430D02*
X287717972Y-161458430D01*
X265179244Y-55357190D02*
X261177610Y-55357190D01*
X261177610Y-55357190D02*
X259351779Y-57183021D01*
X170485960Y-146060000D02*
X175131028Y-146060000D01*
X263108000Y-56170000D02*
X261332980Y-57945020D01*
X264842568Y-56170000D02*
X263108000Y-56170000D01*
X296394048Y-71166618D02*
X287683380Y-62455950D01*
X296394048Y-151632868D02*
X296394048Y-71166618D01*
X287381296Y-160645620D02*
X296394048Y-151632868D01*
X166730000Y-142482810D02*
X172703324Y-142482810D01*
X190866134Y-160645620D02*
X287381296Y-160645620D01*
X162413240Y-146799570D02*
X166730000Y-142482810D01*
X162413240Y-149052720D02*
X162413240Y-146799570D01*
X172703324Y-142482810D02*
X190866134Y-160645620D01*
X271128518Y-62455950D02*
X264842568Y-56170000D01*
X287683380Y-62455950D02*
X271128518Y-62455950D01*
X157333240Y-149036760D02*
X157333240Y-149052720D01*
X173040000Y-141670000D02*
X164700000Y-141670000D01*
X295581238Y-151296192D02*
X287044620Y-159832810D01*
X270718760Y-63268760D02*
X287346704Y-63268760D01*
X264126980Y-57945020D02*
X265395020Y-57945020D01*
X191202810Y-159832810D02*
X173040000Y-141670000D01*
X295581238Y-71503294D02*
X295581238Y-151296192D01*
X164700000Y-141670000D02*
X157333240Y-149036760D01*
X287044620Y-159832810D02*
X191202810Y-159832810D01*
X265395020Y-57945020D02*
X270718760Y-63268760D01*
X287346704Y-63268760D02*
X295581238Y-71503294D01*
X238610000Y-92260000D02*
X239943401Y-90926599D01*
X239943401Y-88586599D02*
X242330000Y-86200000D01*
X239943401Y-90926599D02*
X239943401Y-88586599D01*
X242330000Y-86200000D02*
X247700000Y-86200000D01*
X247700000Y-86200000D02*
X247700000Y-86230000D01*
X247700000Y-86230000D02*
X253590000Y-92120000D01*
X253660000Y-103060000D02*
X255550000Y-101170000D01*
X255550000Y-101170000D02*
X255550000Y-94080000D01*
X255550000Y-94080000D02*
X254389999Y-92919999D01*
X254389999Y-92919999D02*
X253590000Y-92120000D01*
X253910000Y-113430000D02*
X255243401Y-112096599D01*
X255243401Y-112096599D02*
X255243401Y-104643401D01*
X255243401Y-104643401D02*
X254459999Y-103859999D01*
X254459999Y-103859999D02*
X253660000Y-103060000D01*
X238520000Y-102970000D02*
X237880000Y-102970000D01*
D24*
X227744420Y-146258920D02*
X229649421Y-148163921D01*
X229649421Y-148163921D02*
X243898821Y-148163921D01*
X243898821Y-148163921D02*
X244889421Y-147173321D01*
X244889421Y-140945355D02*
X262735319Y-123099457D01*
X244889421Y-147173321D02*
X244889421Y-140945355D01*
X262735319Y-123099457D02*
X262735319Y-95656021D01*
X262735319Y-95656021D02*
X263933581Y-94457759D01*
X263933581Y-94457759D02*
X264949580Y-93441760D01*
D23*
X238520000Y-102970000D02*
X235490000Y-99940000D01*
X235490000Y-99940000D02*
X235490000Y-95380000D01*
X235490000Y-95380000D02*
X237810001Y-93059999D01*
X237810001Y-93059999D02*
X238610000Y-92260000D01*
X178770000Y-63530000D02*
X175750000Y-66550000D01*
X175750000Y-66550000D02*
X157085451Y-66550003D01*
X142697015Y-80938439D02*
X141553387Y-80938439D01*
X140747699Y-91098439D02*
X141281101Y-91631841D01*
X157085451Y-66550003D02*
X142697015Y-80938439D01*
X141553387Y-80938439D02*
X140747699Y-81744127D01*
X140747699Y-81744127D02*
X140747699Y-91098439D01*
X141281101Y-91631841D02*
X142297100Y-92647840D01*
X199153780Y-60459620D02*
X198830380Y-60459620D01*
X198830380Y-60459620D02*
X195650000Y-63640000D01*
D24*
X232824420Y-146258920D02*
X242105839Y-136977501D01*
X258827501Y-124852001D02*
X258827501Y-87207501D01*
X242105839Y-136977501D02*
X246702001Y-136977501D01*
X246702001Y-136977501D02*
X258827501Y-124852001D01*
X258827501Y-87207501D02*
X253641999Y-82021999D01*
X253641999Y-82021999D02*
X249210766Y-82021999D01*
X249210766Y-82021999D02*
X248690000Y-82542765D01*
X248690000Y-82542765D02*
X248690000Y-83800000D01*
X265199220Y-72088400D02*
X263762380Y-72088400D01*
X263762380Y-72088400D02*
X261812791Y-74037989D01*
X261812791Y-74037989D02*
X255226742Y-74037989D01*
X244076022Y-72843978D02*
X243214543Y-71982499D01*
X255226742Y-74037989D02*
X254032732Y-72843978D01*
X237360201Y-72038001D02*
X233740766Y-72038001D01*
X254032732Y-72843978D02*
X244076022Y-72843978D01*
X243214543Y-71982499D02*
X237415703Y-71982499D01*
X237415703Y-71982499D02*
X237360201Y-72038001D01*
X233740766Y-72038001D02*
X233220000Y-71517235D01*
X233220000Y-71517235D02*
X233220000Y-70260000D01*
X248590000Y-70590000D02*
X248590000Y-69332765D01*
X248590000Y-69332765D02*
X249110766Y-68811999D01*
X249110766Y-68811999D02*
X267002819Y-68811999D01*
X267002819Y-68811999D02*
X269263221Y-71072401D01*
X269263221Y-71072401D02*
X270279220Y-72088400D01*
X271885621Y-75561999D02*
X254472012Y-75561999D01*
X247867988Y-75438533D02*
X247867988Y-75561999D01*
X275359220Y-72088400D02*
X271885621Y-75561999D01*
X248938533Y-74367988D02*
X247867988Y-75438533D01*
X253401467Y-74367988D02*
X248938533Y-74367988D01*
X233910766Y-75561999D02*
X233390000Y-76082765D01*
X254472012Y-75438533D02*
X253401467Y-74367988D01*
X254472012Y-75561999D02*
X254472012Y-75438533D01*
X247867988Y-75561999D02*
X233910766Y-75561999D01*
X233390000Y-76082765D02*
X233390000Y-77340000D01*
X249824011Y-75891999D02*
X248630000Y-77086010D01*
X252770201Y-75891999D02*
X249824011Y-75891999D01*
X252948001Y-76069799D02*
X252770201Y-75891999D01*
X280439220Y-72088400D02*
X275441610Y-77086010D01*
X248630000Y-77086010D02*
X248630000Y-77670000D01*
X275441610Y-77086010D02*
X252948001Y-77086010D01*
X252948001Y-77086010D02*
X252948001Y-76069799D01*
X233400000Y-84080000D02*
X233400000Y-82822765D01*
X238732497Y-82301999D02*
X239217999Y-82787501D01*
X254273264Y-80497989D02*
X259955275Y-86180000D01*
X275000000Y-86180000D02*
X278100000Y-83080000D01*
X233400000Y-82822765D02*
X233920766Y-82301999D01*
X233920766Y-82301999D02*
X238732497Y-82301999D01*
X239217999Y-82787501D02*
X244531057Y-82787501D01*
X244531057Y-82787501D02*
X246820569Y-80497989D01*
X278100000Y-79507620D02*
X285519220Y-72088400D01*
X246820569Y-80497989D02*
X254273264Y-80497989D01*
X259955275Y-86180000D02*
X275000000Y-86180000D01*
X278100000Y-83080000D02*
X278100000Y-79507620D01*
D23*
X230680000Y-70260000D02*
X227130000Y-70260000D01*
X227130000Y-70260000D02*
X224240000Y-73150000D01*
X246050000Y-70590000D02*
X242530000Y-67070000D01*
X223008099Y-73741313D02*
X223648687Y-74381901D01*
X242530000Y-67070000D02*
X228496786Y-67070000D01*
X225528099Y-74381901D02*
X226061501Y-73848499D01*
X228496786Y-67070000D02*
X223008099Y-72558687D01*
X223008099Y-72558687D02*
X223008099Y-73741313D01*
X223648687Y-74381901D02*
X225528099Y-74381901D01*
X226061501Y-73848499D02*
X226760000Y-73150000D01*
X239980000Y-73580000D02*
X233352765Y-73580000D01*
X233352765Y-73580000D02*
X230850000Y-76082765D01*
X230850000Y-76082765D02*
X230850000Y-77340000D01*
X255660000Y-71580000D02*
X254120000Y-71580000D01*
X254120000Y-71580000D02*
X253510000Y-70970000D01*
X173537373Y-59215021D02*
X172293787Y-59215021D01*
X171048175Y-59164219D02*
X170997373Y-59215021D01*
X162460000Y-61410000D02*
X140940000Y-61410000D01*
X173588175Y-59164219D02*
X173537373Y-59215021D01*
X134450000Y-152590000D02*
X135610000Y-153750000D01*
X176178974Y-60459620D02*
X174883573Y-59164219D01*
X177055780Y-60459620D02*
X176178974Y-60459620D01*
X153188260Y-153750000D02*
X162230000Y-162791740D01*
X164705781Y-59164219D02*
X162460000Y-61410000D01*
X134450000Y-67900000D02*
X134450000Y-152590000D01*
X135610000Y-153750000D02*
X153188260Y-153750000D01*
X172293787Y-59215021D02*
X172242985Y-59164219D01*
X174883573Y-59164219D02*
X173588175Y-59164219D01*
X172242985Y-59164219D02*
X171048175Y-59164219D01*
X170997373Y-59215021D02*
X169753787Y-59215021D01*
X169753787Y-59215021D02*
X169702985Y-59164219D01*
X162230000Y-162791740D02*
X168528100Y-169089840D01*
X169702985Y-59164219D02*
X164705781Y-59164219D01*
X140940000Y-61410000D02*
X134450000Y-67900000D01*
X217653849Y-116746151D02*
X217900000Y-116500000D01*
X217653849Y-125466663D02*
X217653849Y-116746151D01*
X169623181Y-133453301D02*
X209667211Y-133453301D01*
X167271520Y-131101640D02*
X169623181Y-133453301D01*
X209667211Y-133453301D02*
X217653849Y-125466663D01*
X219550000Y-69010000D02*
X224146151Y-64413849D01*
X219550000Y-113410000D02*
X219550000Y-69010000D01*
X224146151Y-64413849D02*
X224146151Y-63196151D01*
X224146151Y-63196151D02*
X224010000Y-63060000D01*
X230420000Y-63770000D02*
X234553000Y-63770000D01*
X234553000Y-63770000D02*
X237837980Y-60485020D01*
X221520000Y-72670000D02*
X230420000Y-63770000D01*
X221520000Y-114820000D02*
X221520000Y-72670000D01*
X219560000Y-125859486D02*
X219560000Y-118130000D01*
X219560000Y-118130000D02*
X219780000Y-117910000D01*
X219130000Y-126490000D02*
X219130000Y-126289486D01*
X219130000Y-126289486D02*
X219560000Y-125859486D01*
X162191520Y-131101640D02*
X160642119Y-129552239D01*
X160642119Y-129552239D02*
X156367807Y-129552239D01*
X156367807Y-129552239D02*
X155562119Y-130357927D01*
X155562119Y-130357927D02*
X155562119Y-131845353D01*
X155562119Y-131845353D02*
X158919576Y-135202810D01*
X158919576Y-135202810D02*
X210417190Y-135202810D01*
X210417190Y-135202810D02*
X219130000Y-126490000D01*
X238350000Y-85040000D02*
X234677190Y-88712810D01*
X234677190Y-88712810D02*
X234677190Y-101667190D01*
X234677190Y-101667190D02*
X237720001Y-104710001D01*
X237720001Y-104710001D02*
X238520000Y-105510000D01*
X253660000Y-105600000D02*
X253660000Y-105033434D01*
X253660000Y-105033434D02*
X251755559Y-103128993D01*
X242203279Y-88246599D02*
X240756211Y-89693667D01*
X251755559Y-103128993D02*
X251755559Y-95397273D01*
X251755559Y-95397273D02*
X244604885Y-88246599D01*
X244604885Y-88246599D02*
X242203279Y-88246599D01*
X229437599Y-84762753D02*
X229437599Y-83397247D01*
X241148099Y-79968099D02*
X241671501Y-80491501D01*
X240756211Y-89693667D02*
X240756211Y-105247223D01*
X240756211Y-105247223D02*
X239160033Y-106843401D01*
X239160033Y-106843401D02*
X237879967Y-106843401D01*
X233442810Y-102406244D02*
X233442810Y-88767964D01*
X237879967Y-106843401D02*
X233442810Y-102406244D01*
X233442810Y-88767964D02*
X229437599Y-84762753D01*
X229437599Y-83397247D02*
X232866747Y-79968099D01*
X232866747Y-79968099D02*
X241148099Y-79968099D01*
X241671501Y-80491501D02*
X242370000Y-81190000D01*
X267680000Y-89740000D02*
X267680000Y-111020000D01*
X267680000Y-111020000D02*
X265330000Y-113370000D01*
X265572749Y-111537251D02*
X265160000Y-111950000D01*
X266772749Y-110337251D02*
X265572749Y-111537251D01*
X266360000Y-89870000D02*
X266772749Y-90282749D01*
X266772749Y-90282749D02*
X266772749Y-110337251D01*
D25*
G36*
X308871023Y-50897167D02*
X309609439Y-51390561D01*
X310102833Y-52128977D01*
X310290000Y-53069931D01*
X310290000Y-170930069D01*
X310026712Y-172253705D01*
X309316546Y-173316546D01*
X308253707Y-174026712D01*
X306930069Y-174290000D01*
X137069931Y-174290000D01*
X135746295Y-174026712D01*
X134683454Y-173316546D01*
X133973288Y-172253707D01*
X133710000Y-170930069D01*
X133710000Y-169429503D01*
X138517714Y-169429503D01*
X138768534Y-170036535D01*
X139232563Y-170501374D01*
X139839155Y-170753253D01*
X140495963Y-170753826D01*
X141102995Y-170503006D01*
X141567834Y-170038977D01*
X141819713Y-169432385D01*
X141819715Y-169429503D01*
X143597714Y-169429503D01*
X143848534Y-170036535D01*
X144312563Y-170501374D01*
X144919155Y-170753253D01*
X145575963Y-170753826D01*
X146182995Y-170503006D01*
X146647834Y-170038977D01*
X146899713Y-169432385D01*
X146899715Y-169429503D01*
X148677714Y-169429503D01*
X148928534Y-170036535D01*
X149392563Y-170501374D01*
X149999155Y-170753253D01*
X150655963Y-170753826D01*
X151262995Y-170503006D01*
X151727834Y-170038977D01*
X151979713Y-169432385D01*
X151980286Y-168775577D01*
X151729466Y-168168545D01*
X151265437Y-167703706D01*
X150658845Y-167451827D01*
X150002037Y-167451254D01*
X149395005Y-167702074D01*
X148930166Y-168166103D01*
X148678287Y-168772695D01*
X148677714Y-169429503D01*
X146899715Y-169429503D01*
X146900286Y-168775577D01*
X146649466Y-168168545D01*
X146185437Y-167703706D01*
X145578845Y-167451827D01*
X144922037Y-167451254D01*
X144315005Y-167702074D01*
X143850166Y-168166103D01*
X143598287Y-168772695D01*
X143597714Y-169429503D01*
X141819715Y-169429503D01*
X141820286Y-168775577D01*
X141569466Y-168168545D01*
X141105437Y-167703706D01*
X140498845Y-167451827D01*
X139842037Y-167451254D01*
X139235005Y-167702074D01*
X138770166Y-168166103D01*
X138518287Y-168772695D01*
X138517714Y-169429503D01*
X133710000Y-169429503D01*
X133710000Y-160674833D01*
X138315297Y-160674833D01*
X138932700Y-162169063D01*
X140074923Y-163313282D01*
X141568074Y-163933293D01*
X143184833Y-163934703D01*
X144679063Y-163317300D01*
X145823282Y-162175077D01*
X146443293Y-160681926D01*
X146444703Y-159065167D01*
X145827300Y-157570937D01*
X144685077Y-156426718D01*
X143191926Y-155806707D01*
X141575167Y-155805297D01*
X140080937Y-156422700D01*
X138936718Y-157564923D01*
X138316707Y-159058074D01*
X138315297Y-160674833D01*
X133710000Y-160674833D01*
X133710000Y-153096762D01*
X133792331Y-153219979D01*
X133803422Y-153236578D01*
X134963422Y-154396579D01*
X135260075Y-154594796D01*
X135610000Y-154664400D01*
X152809504Y-154664400D01*
X161583421Y-163438318D01*
X161583424Y-163438320D01*
X166885518Y-168740414D01*
X166877387Y-168759995D01*
X166876814Y-169416803D01*
X167004092Y-169724841D01*
X162404457Y-169724841D01*
X162151580Y-169471964D01*
X162151578Y-169471961D01*
X162131582Y-169451965D01*
X162139713Y-169432385D01*
X162140286Y-168775577D01*
X161889466Y-168168545D01*
X161425437Y-167703706D01*
X160818845Y-167451827D01*
X160162037Y-167451254D01*
X159555005Y-167702074D01*
X159090166Y-168166103D01*
X158838287Y-168772695D01*
X158837714Y-169429503D01*
X159088534Y-170036535D01*
X159552563Y-170501374D01*
X159639928Y-170537651D01*
X158640163Y-170537651D01*
X157323025Y-169220513D01*
X157323022Y-169220511D01*
X157060127Y-168957616D01*
X157060286Y-168775577D01*
X156809466Y-168168545D01*
X156345437Y-167703706D01*
X155738845Y-167451827D01*
X155082037Y-167451254D01*
X154475005Y-167702074D01*
X154010166Y-168166103D01*
X153758287Y-168772695D01*
X153757714Y-169429503D01*
X154008534Y-170036535D01*
X154472563Y-170501374D01*
X155079155Y-170753253D01*
X155263823Y-170753414D01*
X155526971Y-171016562D01*
X155526973Y-171016565D01*
X157216085Y-172705677D01*
X157628103Y-172980978D01*
X158114111Y-173077651D01*
X202976826Y-173077651D01*
X202976831Y-173077652D01*
X203462839Y-172980978D01*
X203874857Y-172705677D01*
X206276894Y-170303640D01*
X206946393Y-170303640D01*
X207075003Y-170432474D01*
X207681595Y-170684353D01*
X208338403Y-170684926D01*
X208945435Y-170434106D01*
X209410274Y-169970077D01*
X209662153Y-169363485D01*
X209662314Y-169178818D01*
X210442492Y-168398639D01*
X211567439Y-168398639D01*
X211440727Y-168703795D01*
X211440154Y-169360603D01*
X211690974Y-169967635D01*
X212155003Y-170432474D01*
X212761595Y-170684353D01*
X213418403Y-170684926D01*
X214025435Y-170434106D01*
X214490274Y-169970077D01*
X214742153Y-169363485D01*
X214742726Y-168706677D01*
X214615448Y-168398639D01*
X215740387Y-168398639D01*
X216257413Y-168915664D01*
X216257415Y-168915667D01*
X216520313Y-169178565D01*
X216520154Y-169360603D01*
X216770974Y-169967635D01*
X217235003Y-170432474D01*
X217841595Y-170684353D01*
X218026263Y-170684514D01*
X219163173Y-171821424D01*
X219163175Y-171821427D01*
X219341218Y-171940391D01*
X219575193Y-172096728D01*
X220061201Y-172193402D01*
X220061206Y-172193401D01*
X229527774Y-172193401D01*
X229527779Y-172193402D01*
X230013787Y-172096728D01*
X230425805Y-171821427D01*
X231314804Y-170932427D01*
X231314807Y-170932425D01*
X231577705Y-170669527D01*
X231759743Y-170669686D01*
X232366775Y-170418866D01*
X232831614Y-169954837D01*
X233083493Y-169348245D01*
X233084066Y-168691437D01*
X232833246Y-168084405D01*
X232369217Y-167619566D01*
X231762625Y-167367687D01*
X231105817Y-167367114D01*
X230498785Y-167617934D01*
X230033946Y-168081963D01*
X229782067Y-168688555D01*
X229781906Y-168873222D01*
X229518755Y-169136373D01*
X229518753Y-169136376D01*
X229001727Y-169653401D01*
X227876781Y-169653401D01*
X228003493Y-169348245D01*
X228004066Y-168691437D01*
X227753246Y-168084405D01*
X227289217Y-167619566D01*
X226682625Y-167367687D01*
X226025817Y-167367114D01*
X226003763Y-167376227D01*
X225983361Y-167355825D01*
X225983359Y-167355822D01*
X224591936Y-165964400D01*
X232165624Y-165964400D01*
X234850203Y-168648980D01*
X234850206Y-168648982D01*
X234870198Y-168668974D01*
X234862067Y-168688555D01*
X234861494Y-169345363D01*
X235112314Y-169952395D01*
X235576343Y-170417234D01*
X236182935Y-170669113D01*
X236839743Y-170669686D01*
X237446775Y-170418866D01*
X237911614Y-169954837D01*
X238163493Y-169348245D01*
X238163495Y-169345363D01*
X239941494Y-169345363D01*
X240192314Y-169952395D01*
X240656343Y-170417234D01*
X241262935Y-170669113D01*
X241919743Y-170669686D01*
X242526775Y-170418866D01*
X242991614Y-169954837D01*
X243243493Y-169348245D01*
X243243495Y-169345363D01*
X245021494Y-169345363D01*
X245272314Y-169952395D01*
X245736343Y-170417234D01*
X246342935Y-170669113D01*
X246999743Y-170669686D01*
X247606775Y-170418866D01*
X248071614Y-169954837D01*
X248323493Y-169348245D01*
X248323652Y-169165623D01*
X262077614Y-169165623D01*
X262328434Y-169772655D01*
X262792463Y-170237494D01*
X263399055Y-170489373D01*
X264055863Y-170489946D01*
X264662895Y-170239126D01*
X265127734Y-169775097D01*
X265379613Y-169168505D01*
X265379615Y-169165623D01*
X267157614Y-169165623D01*
X267408434Y-169772655D01*
X267872463Y-170237494D01*
X268479055Y-170489373D01*
X269135863Y-170489946D01*
X269742895Y-170239126D01*
X270207734Y-169775097D01*
X270459613Y-169168505D01*
X270459615Y-169165623D01*
X272237614Y-169165623D01*
X272488434Y-169772655D01*
X272952463Y-170237494D01*
X273559055Y-170489373D01*
X274215863Y-170489946D01*
X274822895Y-170239126D01*
X275287734Y-169775097D01*
X275539613Y-169168505D01*
X275539615Y-169165623D01*
X277317614Y-169165623D01*
X277568434Y-169772655D01*
X278032463Y-170237494D01*
X278639055Y-170489373D01*
X279295863Y-170489946D01*
X279902895Y-170239126D01*
X280367734Y-169775097D01*
X280619613Y-169168505D01*
X280619615Y-169165623D01*
X282397614Y-169165623D01*
X282648434Y-169772655D01*
X283112463Y-170237494D01*
X283719055Y-170489373D01*
X284375863Y-170489946D01*
X284982895Y-170239126D01*
X285281040Y-169941500D01*
X297804060Y-169941500D01*
X297804060Y-171338500D01*
X297848338Y-171573817D01*
X297987410Y-171789941D01*
X298199610Y-171934931D01*
X298451500Y-171985940D01*
X299848500Y-171985940D01*
X300083817Y-171941662D01*
X300299941Y-171802590D01*
X300444931Y-171590390D01*
X300495940Y-171338500D01*
X300495940Y-171242116D01*
X300558854Y-171394380D01*
X300933647Y-171769827D01*
X301423587Y-171973268D01*
X301954086Y-171973731D01*
X302444380Y-171771146D01*
X302819827Y-171396353D01*
X302960094Y-171058554D01*
X303098854Y-171394380D01*
X303473647Y-171769827D01*
X303963587Y-171973268D01*
X304494086Y-171973731D01*
X304984380Y-171771146D01*
X305359827Y-171396353D01*
X305563268Y-170906413D01*
X305563731Y-170375914D01*
X305361146Y-169885620D01*
X304986353Y-169510173D01*
X304496413Y-169306732D01*
X303965914Y-169306269D01*
X303475620Y-169508854D01*
X303100173Y-169883647D01*
X302959906Y-170221446D01*
X302821146Y-169885620D01*
X302446353Y-169510173D01*
X301956413Y-169306732D01*
X301425914Y-169306269D01*
X300935620Y-169508854D01*
X300560173Y-169883647D01*
X300495940Y-170038337D01*
X300495940Y-169941500D01*
X300451662Y-169706183D01*
X300312590Y-169490059D01*
X300100390Y-169345069D01*
X299848500Y-169294060D01*
X298451500Y-169294060D01*
X298216183Y-169338338D01*
X298000059Y-169477410D01*
X297855069Y-169689610D01*
X297804060Y-169941500D01*
X285281040Y-169941500D01*
X285447734Y-169775097D01*
X285699613Y-169168505D01*
X285700186Y-168511697D01*
X285449366Y-167904665D01*
X284985337Y-167439826D01*
X284378745Y-167187947D01*
X283721937Y-167187374D01*
X283114905Y-167438194D01*
X282650066Y-167902223D01*
X282398187Y-168508815D01*
X282397614Y-169165623D01*
X280619615Y-169165623D01*
X280620186Y-168511697D01*
X280369366Y-167904665D01*
X279905337Y-167439826D01*
X279298745Y-167187947D01*
X278641937Y-167187374D01*
X278034905Y-167438194D01*
X277570066Y-167902223D01*
X277318187Y-168508815D01*
X277317614Y-169165623D01*
X275539615Y-169165623D01*
X275540186Y-168511697D01*
X275289366Y-167904665D01*
X274825337Y-167439826D01*
X274218745Y-167187947D01*
X273561937Y-167187374D01*
X272954905Y-167438194D01*
X272490066Y-167902223D01*
X272238187Y-168508815D01*
X272237614Y-169165623D01*
X270459615Y-169165623D01*
X270460186Y-168511697D01*
X270209366Y-167904665D01*
X269745337Y-167439826D01*
X269138745Y-167187947D01*
X268481937Y-167187374D01*
X267874905Y-167438194D01*
X267410066Y-167902223D01*
X267158187Y-168508815D01*
X267157614Y-169165623D01*
X265379615Y-169165623D01*
X265380186Y-168511697D01*
X265129366Y-167904665D01*
X264665337Y-167439826D01*
X264058745Y-167187947D01*
X263401937Y-167187374D01*
X262794905Y-167438194D01*
X262330066Y-167902223D01*
X262078187Y-168508815D01*
X262077614Y-169165623D01*
X248323652Y-169165623D01*
X248324066Y-168691437D01*
X248073246Y-168084405D01*
X247609217Y-167619566D01*
X247002625Y-167367687D01*
X246345817Y-167367114D01*
X245738785Y-167617934D01*
X245273946Y-168081963D01*
X245022067Y-168688555D01*
X245021494Y-169345363D01*
X243243495Y-169345363D01*
X243244066Y-168691437D01*
X242993246Y-168084405D01*
X242529217Y-167619566D01*
X241922625Y-167367687D01*
X241265817Y-167367114D01*
X240658785Y-167617934D01*
X240193946Y-168081963D01*
X239942067Y-168688555D01*
X239941494Y-169345363D01*
X238163495Y-169345363D01*
X238164066Y-168691437D01*
X237913246Y-168084405D01*
X237449217Y-167619566D01*
X236842625Y-167367687D01*
X236185817Y-167367114D01*
X236163763Y-167376227D01*
X236143362Y-167355826D01*
X236143360Y-167355823D01*
X233190958Y-164403422D01*
X233190957Y-164403421D01*
X232894306Y-164205205D01*
X232544380Y-164135600D01*
X170398757Y-164135600D01*
X156940453Y-150677297D01*
X157003395Y-150703433D01*
X157660203Y-150704006D01*
X158267235Y-150453186D01*
X158732074Y-149989157D01*
X158983953Y-149382565D01*
X158984526Y-148725757D01*
X158970747Y-148692409D01*
X165078757Y-142584400D01*
X165335253Y-142584400D01*
X161766662Y-146152992D01*
X161568445Y-146449644D01*
X161498840Y-146799570D01*
X161498840Y-147644158D01*
X161479245Y-147652254D01*
X161014406Y-148116283D01*
X160762527Y-148722875D01*
X160761954Y-149379683D01*
X161012774Y-149986715D01*
X161476803Y-150451554D01*
X162083395Y-150703433D01*
X162740203Y-150704006D01*
X163347235Y-150453186D01*
X163812074Y-149989157D01*
X164063953Y-149382565D01*
X164064526Y-148725757D01*
X163813706Y-148118725D01*
X163349677Y-147653886D01*
X163327640Y-147644735D01*
X163327640Y-147178326D01*
X167108757Y-143397210D01*
X172324568Y-143397210D01*
X174072958Y-145145600D01*
X170485960Y-145145600D01*
X170136034Y-145215205D01*
X170067954Y-145260695D01*
X169839381Y-145413422D01*
X167842666Y-147410138D01*
X167823085Y-147402007D01*
X167166277Y-147401434D01*
X166559245Y-147652254D01*
X166094406Y-148116283D01*
X165842527Y-148722875D01*
X165841954Y-149379683D01*
X166092774Y-149986715D01*
X166556803Y-150451554D01*
X167163395Y-150703433D01*
X167820203Y-150704006D01*
X168427235Y-150453186D01*
X168892074Y-149989157D01*
X169143953Y-149382565D01*
X169144526Y-148725757D01*
X169135413Y-148703703D01*
X170864717Y-146974400D01*
X174752272Y-146974400D01*
X175916192Y-148138320D01*
X173981802Y-148138320D01*
X173973706Y-148118725D01*
X173509677Y-147653886D01*
X172903085Y-147402007D01*
X172246277Y-147401434D01*
X171639245Y-147652254D01*
X171174406Y-148116283D01*
X170922527Y-148722875D01*
X170921954Y-149379683D01*
X171172774Y-149986715D01*
X171636803Y-150451554D01*
X172243395Y-150703433D01*
X172900203Y-150704006D01*
X173507235Y-150453186D01*
X173972074Y-149989157D01*
X173981225Y-149967120D01*
X176595506Y-149967120D01*
X189546203Y-162917818D01*
X189694530Y-163016926D01*
X189842856Y-163116035D01*
X190192782Y-163185640D01*
X288054648Y-163185640D01*
X288404574Y-163116035D01*
X288701226Y-162917818D01*
X289597871Y-162021173D01*
X294575797Y-162021173D01*
X295193200Y-163515403D01*
X296335423Y-164659622D01*
X297828574Y-165279633D01*
X299445333Y-165281043D01*
X300939563Y-164663640D01*
X302083782Y-163521417D01*
X302703793Y-162028266D01*
X302705203Y-160411507D01*
X302087800Y-158917277D01*
X300945577Y-157773058D01*
X299452426Y-157153047D01*
X297835667Y-157151637D01*
X296341437Y-157769040D01*
X295197218Y-158911263D01*
X294577207Y-160404414D01*
X294575797Y-162021173D01*
X289597871Y-162021173D01*
X298666246Y-152952799D01*
X298864463Y-152656146D01*
X298877620Y-152590000D01*
X298934068Y-152306220D01*
X298934068Y-151659907D01*
X303571238Y-151659907D01*
X303671860Y-151928422D01*
X304287382Y-152157616D01*
X304943759Y-152133814D01*
X305439620Y-151928422D01*
X305540242Y-151659907D01*
X304555740Y-150675405D01*
X303571238Y-151659907D01*
X298934068Y-151659907D01*
X298934068Y-150227442D01*
X302893924Y-150227442D01*
X302917726Y-150883819D01*
X303123118Y-151379680D01*
X303391633Y-151480302D01*
X304376135Y-150495800D01*
X304735345Y-150495800D01*
X305719847Y-151480302D01*
X305988362Y-151379680D01*
X306217556Y-150764158D01*
X306193754Y-150107781D01*
X305988362Y-149611920D01*
X305719847Y-149511298D01*
X304735345Y-150495800D01*
X304376135Y-150495800D01*
X303391633Y-149511298D01*
X303123118Y-149611920D01*
X302893924Y-150227442D01*
X298934068Y-150227442D01*
X298934068Y-149331693D01*
X303571238Y-149331693D01*
X304555740Y-150316195D01*
X305540242Y-149331693D01*
X305439620Y-149063178D01*
X304824098Y-148833984D01*
X304167721Y-148857786D01*
X303671860Y-149063178D01*
X303571238Y-149331693D01*
X298934068Y-149331693D01*
X298934068Y-145742763D01*
X302904454Y-145742763D01*
X303155274Y-146349795D01*
X303619303Y-146814634D01*
X304225895Y-147066513D01*
X304882703Y-147067086D01*
X305489735Y-146816266D01*
X305954574Y-146352237D01*
X306206453Y-145745645D01*
X306207026Y-145088837D01*
X305956206Y-144481805D01*
X305492177Y-144016966D01*
X304885585Y-143765087D01*
X304228777Y-143764514D01*
X303621745Y-144015334D01*
X303156906Y-144479363D01*
X302905027Y-145085955D01*
X302904454Y-145742763D01*
X298934068Y-145742763D01*
X298934068Y-140662763D01*
X302904454Y-140662763D01*
X303155274Y-141269795D01*
X303619303Y-141734634D01*
X304225895Y-141986513D01*
X304882703Y-141987086D01*
X305489735Y-141736266D01*
X305954574Y-141272237D01*
X306206453Y-140665645D01*
X306207026Y-140008837D01*
X305956206Y-139401805D01*
X305492177Y-138936966D01*
X304885585Y-138685087D01*
X304228777Y-138684514D01*
X303621745Y-138935334D01*
X303156906Y-139399363D01*
X302905027Y-140005955D01*
X302904454Y-140662763D01*
X298934068Y-140662763D01*
X298934068Y-135582763D01*
X302904454Y-135582763D01*
X303155274Y-136189795D01*
X303619303Y-136654634D01*
X304225895Y-136906513D01*
X304882703Y-136907086D01*
X305489735Y-136656266D01*
X305954574Y-136192237D01*
X306206453Y-135585645D01*
X306207026Y-134928837D01*
X305956206Y-134321805D01*
X305492177Y-133856966D01*
X304885585Y-133605087D01*
X304228777Y-133604514D01*
X303621745Y-133855334D01*
X303156906Y-134319363D01*
X302905027Y-134925955D01*
X302904454Y-135582763D01*
X298934068Y-135582763D01*
X298934068Y-130502763D01*
X302904454Y-130502763D01*
X303155274Y-131109795D01*
X303619303Y-131574634D01*
X304225895Y-131826513D01*
X304882703Y-131827086D01*
X305489735Y-131576266D01*
X305954574Y-131112237D01*
X306206453Y-130505645D01*
X306207026Y-129848837D01*
X305956206Y-129241805D01*
X305492177Y-128776966D01*
X304885585Y-128525087D01*
X304228777Y-128524514D01*
X303621745Y-128775334D01*
X303156906Y-129239363D01*
X302905027Y-129845955D01*
X302904454Y-130502763D01*
X298934068Y-130502763D01*
X298934068Y-117882187D01*
X303386238Y-117882187D01*
X303486860Y-118150702D01*
X304102382Y-118379896D01*
X304758759Y-118356094D01*
X305254620Y-118150702D01*
X305355242Y-117882187D01*
X304370740Y-116897685D01*
X303386238Y-117882187D01*
X298934068Y-117882187D01*
X298934068Y-116449722D01*
X302708924Y-116449722D01*
X302732726Y-117106099D01*
X302938118Y-117601960D01*
X303206633Y-117702582D01*
X304191135Y-116718080D01*
X304550345Y-116718080D01*
X305534847Y-117702582D01*
X305803362Y-117601960D01*
X306032556Y-116986438D01*
X306008754Y-116330061D01*
X305803362Y-115834200D01*
X305534847Y-115733578D01*
X304550345Y-116718080D01*
X304191135Y-116718080D01*
X303206633Y-115733578D01*
X302938118Y-115834200D01*
X302708924Y-116449722D01*
X298934068Y-116449722D01*
X298934068Y-115553973D01*
X303386238Y-115553973D01*
X304370740Y-116538475D01*
X305355242Y-115553973D01*
X305254620Y-115285458D01*
X304639098Y-115056264D01*
X303982721Y-115080066D01*
X303486860Y-115285458D01*
X303386238Y-115553973D01*
X298934068Y-115553973D01*
X298934068Y-112802187D01*
X303386238Y-112802187D01*
X303486860Y-113070702D01*
X304102382Y-113299896D01*
X304758759Y-113276094D01*
X305254620Y-113070702D01*
X305355242Y-112802187D01*
X304370740Y-111817685D01*
X303386238Y-112802187D01*
X298934068Y-112802187D01*
X298934068Y-111369722D01*
X302708924Y-111369722D01*
X302732726Y-112026099D01*
X302938118Y-112521960D01*
X303206633Y-112622582D01*
X304191135Y-111638080D01*
X304550345Y-111638080D01*
X305534847Y-112622582D01*
X305803362Y-112521960D01*
X306032556Y-111906438D01*
X306008754Y-111250061D01*
X305803362Y-110754200D01*
X305534847Y-110653578D01*
X304550345Y-111638080D01*
X304191135Y-111638080D01*
X303206633Y-110653578D01*
X302938118Y-110754200D01*
X302708924Y-111369722D01*
X298934068Y-111369722D01*
X298934068Y-110473973D01*
X303386238Y-110473973D01*
X304370740Y-111458475D01*
X305355242Y-110473973D01*
X305254620Y-110205458D01*
X304639098Y-109976264D01*
X303982721Y-110000066D01*
X303486860Y-110205458D01*
X303386238Y-110473973D01*
X298934068Y-110473973D01*
X298934068Y-107722187D01*
X303386238Y-107722187D01*
X303486860Y-107990702D01*
X304102382Y-108219896D01*
X304758759Y-108196094D01*
X305254620Y-107990702D01*
X305355242Y-107722187D01*
X304370740Y-106737685D01*
X303386238Y-107722187D01*
X298934068Y-107722187D01*
X298934068Y-106289722D01*
X302708924Y-106289722D01*
X302732726Y-106946099D01*
X302938118Y-107441960D01*
X303206633Y-107542582D01*
X304191135Y-106558080D01*
X304550345Y-106558080D01*
X305534847Y-107542582D01*
X305803362Y-107441960D01*
X306032556Y-106826438D01*
X306008754Y-106170061D01*
X305803362Y-105674200D01*
X305534847Y-105573578D01*
X304550345Y-106558080D01*
X304191135Y-106558080D01*
X303206633Y-105573578D01*
X302938118Y-105674200D01*
X302708924Y-106289722D01*
X298934068Y-106289722D01*
X298934068Y-105393973D01*
X303386238Y-105393973D01*
X304370740Y-106378475D01*
X305355242Y-105393973D01*
X305254620Y-105125458D01*
X304639098Y-104896264D01*
X303982721Y-104920066D01*
X303486860Y-105125458D01*
X303386238Y-105393973D01*
X298934068Y-105393973D01*
X298934068Y-102642187D01*
X303386238Y-102642187D01*
X303486860Y-102910702D01*
X304102382Y-103139896D01*
X304758759Y-103116094D01*
X305254620Y-102910702D01*
X305355242Y-102642187D01*
X304370740Y-101657685D01*
X303386238Y-102642187D01*
X298934068Y-102642187D01*
X298934068Y-101209722D01*
X302708924Y-101209722D01*
X302732726Y-101866099D01*
X302938118Y-102361960D01*
X303206633Y-102462582D01*
X304191135Y-101478080D01*
X304550345Y-101478080D01*
X305534847Y-102462582D01*
X305803362Y-102361960D01*
X306032556Y-101746438D01*
X306008754Y-101090061D01*
X305803362Y-100594200D01*
X305534847Y-100493578D01*
X304550345Y-101478080D01*
X304191135Y-101478080D01*
X303206633Y-100493578D01*
X302938118Y-100594200D01*
X302708924Y-101209722D01*
X298934068Y-101209722D01*
X298934068Y-100313973D01*
X303386238Y-100313973D01*
X304370740Y-101298475D01*
X305355242Y-100313973D01*
X305254620Y-100045458D01*
X304639098Y-99816264D01*
X303982721Y-99840066D01*
X303486860Y-100045458D01*
X303386238Y-100313973D01*
X298934068Y-100313973D01*
X298934068Y-97562187D01*
X303386238Y-97562187D01*
X303486860Y-97830702D01*
X304102382Y-98059896D01*
X304758759Y-98036094D01*
X305254620Y-97830702D01*
X305355242Y-97562187D01*
X304370740Y-96577685D01*
X303386238Y-97562187D01*
X298934068Y-97562187D01*
X298934068Y-96129722D01*
X302708924Y-96129722D01*
X302732726Y-96786099D01*
X302938118Y-97281960D01*
X303206633Y-97382582D01*
X304191135Y-96398080D01*
X304550345Y-96398080D01*
X305534847Y-97382582D01*
X305803362Y-97281960D01*
X306032556Y-96666438D01*
X306008754Y-96010061D01*
X305803362Y-95514200D01*
X305534847Y-95413578D01*
X304550345Y-96398080D01*
X304191135Y-96398080D01*
X303206633Y-95413578D01*
X302938118Y-95514200D01*
X302708924Y-96129722D01*
X298934068Y-96129722D01*
X298934068Y-95233973D01*
X303386238Y-95233973D01*
X304370740Y-96218475D01*
X305355242Y-95233973D01*
X305254620Y-94965458D01*
X304639098Y-94736264D01*
X303982721Y-94760066D01*
X303486860Y-94965458D01*
X303386238Y-95233973D01*
X298934068Y-95233973D01*
X298934068Y-87784243D01*
X302462914Y-87784243D01*
X302713734Y-88391275D01*
X303177763Y-88856114D01*
X303784355Y-89107993D01*
X304441163Y-89108566D01*
X305048195Y-88857746D01*
X305513034Y-88393717D01*
X305764913Y-87787125D01*
X305765486Y-87130317D01*
X305514666Y-86523285D01*
X305050637Y-86058446D01*
X304444045Y-85806567D01*
X303787237Y-85805994D01*
X303180205Y-86056814D01*
X302715366Y-86520843D01*
X302463487Y-87127435D01*
X302462914Y-87784243D01*
X298934068Y-87784243D01*
X298934068Y-82704243D01*
X302462914Y-82704243D01*
X302713734Y-83311275D01*
X303177763Y-83776114D01*
X303784355Y-84027993D01*
X304441163Y-84028566D01*
X305048195Y-83777746D01*
X305513034Y-83313717D01*
X305764913Y-82707125D01*
X305765486Y-82050317D01*
X305514666Y-81443285D01*
X305050637Y-80978446D01*
X304444045Y-80726567D01*
X303787237Y-80725994D01*
X303180205Y-80976814D01*
X302715366Y-81440843D01*
X302463487Y-82047435D01*
X302462914Y-82704243D01*
X298934068Y-82704243D01*
X298934068Y-77624243D01*
X302462914Y-77624243D01*
X302713734Y-78231275D01*
X303177763Y-78696114D01*
X303784355Y-78947993D01*
X304441163Y-78948566D01*
X305048195Y-78697746D01*
X305513034Y-78233717D01*
X305764913Y-77627125D01*
X305765486Y-76970317D01*
X305514666Y-76363285D01*
X305050637Y-75898446D01*
X304444045Y-75646567D01*
X303787237Y-75645994D01*
X303180205Y-75896814D01*
X302715366Y-76360843D01*
X302463487Y-76967435D01*
X302462914Y-77624243D01*
X298934068Y-77624243D01*
X298934068Y-72544243D01*
X302462914Y-72544243D01*
X302713734Y-73151275D01*
X303177763Y-73616114D01*
X303784355Y-73867993D01*
X304441163Y-73868566D01*
X305048195Y-73617746D01*
X305513034Y-73153717D01*
X305764913Y-72547125D01*
X305765486Y-71890317D01*
X305514666Y-71283285D01*
X305050637Y-70818446D01*
X304444045Y-70566567D01*
X303787237Y-70565994D01*
X303180205Y-70816814D01*
X302715366Y-71280843D01*
X302463487Y-71887435D01*
X302462914Y-72544243D01*
X298934068Y-72544243D01*
X298934068Y-68415862D01*
X298864463Y-68065936D01*
X298666246Y-67769284D01*
X298361205Y-67464243D01*
X302462914Y-67464243D01*
X302713734Y-68071275D01*
X303177763Y-68536114D01*
X303784355Y-68787993D01*
X304441163Y-68788566D01*
X305048195Y-68537746D01*
X305513034Y-68073717D01*
X305764913Y-67467125D01*
X305765486Y-66810317D01*
X305514666Y-66203285D01*
X305050637Y-65738446D01*
X304444045Y-65486567D01*
X303787237Y-65485994D01*
X303180205Y-65736814D01*
X302715366Y-66200843D01*
X302463487Y-66807435D01*
X302462914Y-67464243D01*
X298361205Y-67464243D01*
X289220368Y-58323406D01*
X290537669Y-58323406D01*
X290740254Y-58813700D01*
X291115047Y-59189147D01*
X291604987Y-59392588D01*
X292135486Y-59393051D01*
X292625780Y-59190466D01*
X293001227Y-58815673D01*
X293141494Y-58477874D01*
X293280254Y-58813700D01*
X293655047Y-59189147D01*
X294144987Y-59392588D01*
X294675486Y-59393051D01*
X295165780Y-59190466D01*
X295541227Y-58815673D01*
X295605460Y-58660983D01*
X295605460Y-58757820D01*
X295649738Y-58993137D01*
X295788810Y-59209261D01*
X296001010Y-59354251D01*
X296252900Y-59405260D01*
X297649900Y-59405260D01*
X297885217Y-59360982D01*
X298101341Y-59221910D01*
X298246331Y-59009710D01*
X298297340Y-58757820D01*
X298297340Y-57360820D01*
X298253062Y-57125503D01*
X298113990Y-56909379D01*
X297901790Y-56764389D01*
X297649900Y-56713380D01*
X296252900Y-56713380D01*
X296017583Y-56757658D01*
X295801459Y-56896730D01*
X295656469Y-57108930D01*
X295605460Y-57360820D01*
X295605460Y-57457204D01*
X295542546Y-57304940D01*
X295167753Y-56929493D01*
X294677813Y-56726052D01*
X294147314Y-56725589D01*
X293657020Y-56928174D01*
X293281573Y-57302967D01*
X293141306Y-57640766D01*
X293002546Y-57304940D01*
X292627753Y-56929493D01*
X292137813Y-56726052D01*
X291607314Y-56725589D01*
X291117020Y-56928174D01*
X290741573Y-57302967D01*
X290538132Y-57792907D01*
X290537669Y-58323406D01*
X289220368Y-58323406D01*
X284794764Y-53897802D01*
X284683734Y-53823614D01*
X284498112Y-53699585D01*
X284148186Y-53629980D01*
X259298020Y-53629980D01*
X258948094Y-53699585D01*
X258799768Y-53798694D01*
X258651441Y-53897802D01*
X256001134Y-56548110D01*
X255620719Y-56547778D01*
X255107077Y-56760010D01*
X254713751Y-57152650D01*
X254500623Y-57665920D01*
X254500138Y-58221681D01*
X254712370Y-58735323D01*
X255105010Y-59128649D01*
X255618280Y-59341777D01*
X256174041Y-59342262D01*
X256687683Y-59130030D01*
X257081009Y-58737390D01*
X257243717Y-58345544D01*
X257404770Y-58735323D01*
X257797410Y-59128649D01*
X258310680Y-59341777D01*
X258866441Y-59342262D01*
X259380083Y-59130030D01*
X259773409Y-58737390D01*
X259961580Y-58284223D01*
X260147970Y-58735323D01*
X260540610Y-59128649D01*
X261053880Y-59341777D01*
X261609641Y-59342262D01*
X262123283Y-59130030D01*
X262516609Y-58737390D01*
X262729737Y-58224120D01*
X262729739Y-58221684D01*
X262941970Y-58735323D01*
X263334610Y-59128649D01*
X263847880Y-59341777D01*
X264253690Y-59342131D01*
X264165549Y-59471130D01*
X264114540Y-59723020D01*
X264114540Y-60177666D01*
X263914990Y-59694717D01*
X263522350Y-59301391D01*
X263009080Y-59088263D01*
X262453319Y-59087778D01*
X261939677Y-59300010D01*
X261546351Y-59692650D01*
X261333223Y-60205920D01*
X261333221Y-60208356D01*
X261120990Y-59694717D01*
X260728350Y-59301391D01*
X260215080Y-59088263D01*
X259659319Y-59087778D01*
X259145677Y-59300010D01*
X258752351Y-59692650D01*
X258602374Y-60053835D01*
X258453990Y-59694717D01*
X258061350Y-59301391D01*
X257548080Y-59088263D01*
X256992319Y-59087778D01*
X256478677Y-59300010D01*
X256085351Y-59692650D01*
X255872223Y-60205920D01*
X255872221Y-60208356D01*
X255659990Y-59694717D01*
X255267350Y-59301391D01*
X254754080Y-59088263D01*
X254198319Y-59087778D01*
X253684677Y-59300010D01*
X253291351Y-59692650D01*
X253078223Y-60205920D01*
X253078221Y-60208356D01*
X252865990Y-59694717D01*
X252473350Y-59301391D01*
X252265345Y-59215020D01*
X252468215Y-59215020D01*
X252773480Y-59341777D01*
X253329241Y-59342262D01*
X253842883Y-59130030D01*
X254236209Y-58737390D01*
X254449337Y-58224120D01*
X254449822Y-57668359D01*
X254237590Y-57154717D01*
X253844950Y-56761391D01*
X253331680Y-56548263D01*
X252775919Y-56547778D01*
X252467969Y-56675020D01*
X250893745Y-56675020D01*
X250588480Y-56548263D01*
X250032719Y-56547778D01*
X249724769Y-56675020D01*
X248150545Y-56675020D01*
X247845280Y-56548263D01*
X247289519Y-56547778D01*
X246981569Y-56675020D01*
X245356545Y-56675020D01*
X245051280Y-56548263D01*
X244495519Y-56547778D01*
X244187569Y-56675020D01*
X242613345Y-56675020D01*
X242308080Y-56548263D01*
X241752319Y-56547778D01*
X241444369Y-56675020D01*
X239870145Y-56675020D01*
X239564880Y-56548263D01*
X239009119Y-56547778D01*
X238701169Y-56675020D01*
X237076145Y-56675020D01*
X236770880Y-56548263D01*
X236215119Y-56547778D01*
X235907169Y-56675020D01*
X234536145Y-56675020D01*
X234436424Y-56633612D01*
X230404785Y-52601973D01*
X229992767Y-52326672D01*
X229506759Y-52229998D01*
X229506754Y-52229999D01*
X193896006Y-52229999D01*
X193896001Y-52229998D01*
X193409993Y-52326672D01*
X192997975Y-52601973D01*
X192997973Y-52601976D01*
X189340353Y-56259595D01*
X189340351Y-56259598D01*
X188991562Y-56608386D01*
X188891769Y-56649620D01*
X187317545Y-56649620D01*
X187012280Y-56522863D01*
X186456519Y-56522378D01*
X186148569Y-56649620D01*
X184574345Y-56649620D01*
X184269080Y-56522863D01*
X183713319Y-56522378D01*
X183405369Y-56649620D01*
X181780345Y-56649620D01*
X181475080Y-56522863D01*
X180919319Y-56522378D01*
X180611369Y-56649620D01*
X179037145Y-56649620D01*
X178731880Y-56522863D01*
X178176119Y-56522378D01*
X177868169Y-56649620D01*
X176293945Y-56649620D01*
X175988680Y-56522863D01*
X175432919Y-56522378D01*
X175124969Y-56649620D01*
X173499945Y-56649620D01*
X173194680Y-56522863D01*
X172638919Y-56522378D01*
X172330969Y-56649620D01*
X170959945Y-56649620D01*
X170654680Y-56522863D01*
X170098919Y-56522378D01*
X169585277Y-56734610D01*
X169191951Y-57127250D01*
X168978823Y-57640520D01*
X168978338Y-58196281D01*
X169000459Y-58249819D01*
X164705781Y-58249819D01*
X164355855Y-58319424D01*
X164355433Y-58319706D01*
X164356220Y-57416599D01*
X163970343Y-56482705D01*
X163256453Y-55767568D01*
X162323234Y-55380061D01*
X161312759Y-55379180D01*
X160378865Y-55765057D01*
X159663728Y-56478947D01*
X159276221Y-57412166D01*
X159275340Y-58422641D01*
X159661217Y-59356535D01*
X160375107Y-60071672D01*
X161308326Y-60459179D01*
X162116960Y-60459884D01*
X162081244Y-60495600D01*
X140940000Y-60495600D01*
X140590074Y-60565205D01*
X140385426Y-60701947D01*
X140293422Y-60763422D01*
X133803422Y-67253422D01*
X133710000Y-67393238D01*
X133710000Y-56361500D01*
X136404060Y-56361500D01*
X136404060Y-57758500D01*
X136448338Y-57993817D01*
X136587410Y-58209941D01*
X136799610Y-58354931D01*
X137051500Y-58405940D01*
X138448500Y-58405940D01*
X138683817Y-58361662D01*
X138899941Y-58222590D01*
X139044931Y-58010390D01*
X139095940Y-57758500D01*
X139095940Y-57662116D01*
X139158854Y-57814380D01*
X139533647Y-58189827D01*
X140023587Y-58393268D01*
X140554086Y-58393731D01*
X141044380Y-58191146D01*
X141419827Y-57816353D01*
X141560094Y-57478554D01*
X141698854Y-57814380D01*
X142073647Y-58189827D01*
X142563587Y-58393268D01*
X143094086Y-58393731D01*
X143584380Y-58191146D01*
X143959827Y-57816353D01*
X144163268Y-57326413D01*
X144163731Y-56795914D01*
X143961146Y-56305620D01*
X143586353Y-55930173D01*
X143096413Y-55726732D01*
X142565914Y-55726269D01*
X142075620Y-55928854D01*
X141700173Y-56303647D01*
X141559906Y-56641446D01*
X141421146Y-56305620D01*
X141046353Y-55930173D01*
X140556413Y-55726732D01*
X140025914Y-55726269D01*
X139535620Y-55928854D01*
X139160173Y-56303647D01*
X139095940Y-56458337D01*
X139095940Y-56361500D01*
X139051662Y-56126183D01*
X138912590Y-55910059D01*
X138700390Y-55765069D01*
X138448500Y-55714060D01*
X137051500Y-55714060D01*
X136816183Y-55758338D01*
X136600059Y-55897410D01*
X136455069Y-56109610D01*
X136404060Y-56361500D01*
X133710000Y-56361500D01*
X133710000Y-54069931D01*
X133973288Y-52746293D01*
X134683454Y-51683454D01*
X135746295Y-50973288D01*
X137069931Y-50710000D01*
X307930069Y-50710000D01*
X308871023Y-50897167D01*
X308871023Y-50897167D01*
G37*
X308871023Y-50897167D02*
X309609439Y-51390561D01*
X310102833Y-52128977D01*
X310290000Y-53069931D01*
X310290000Y-170930069D01*
X310026712Y-172253705D01*
X309316546Y-173316546D01*
X308253707Y-174026712D01*
X306930069Y-174290000D01*
X137069931Y-174290000D01*
X135746295Y-174026712D01*
X134683454Y-173316546D01*
X133973288Y-172253707D01*
X133710000Y-170930069D01*
X133710000Y-169429503D01*
X138517714Y-169429503D01*
X138768534Y-170036535D01*
X139232563Y-170501374D01*
X139839155Y-170753253D01*
X140495963Y-170753826D01*
X141102995Y-170503006D01*
X141567834Y-170038977D01*
X141819713Y-169432385D01*
X141819715Y-169429503D01*
X143597714Y-169429503D01*
X143848534Y-170036535D01*
X144312563Y-170501374D01*
X144919155Y-170753253D01*
X145575963Y-170753826D01*
X146182995Y-170503006D01*
X146647834Y-170038977D01*
X146899713Y-169432385D01*
X146899715Y-169429503D01*
X148677714Y-169429503D01*
X148928534Y-170036535D01*
X149392563Y-170501374D01*
X149999155Y-170753253D01*
X150655963Y-170753826D01*
X151262995Y-170503006D01*
X151727834Y-170038977D01*
X151979713Y-169432385D01*
X151980286Y-168775577D01*
X151729466Y-168168545D01*
X151265437Y-167703706D01*
X150658845Y-167451827D01*
X150002037Y-167451254D01*
X149395005Y-167702074D01*
X148930166Y-168166103D01*
X148678287Y-168772695D01*
X148677714Y-169429503D01*
X146899715Y-169429503D01*
X146900286Y-168775577D01*
X146649466Y-168168545D01*
X146185437Y-167703706D01*
X145578845Y-167451827D01*
X144922037Y-167451254D01*
X144315005Y-167702074D01*
X143850166Y-168166103D01*
X143598287Y-168772695D01*
X143597714Y-169429503D01*
X141819715Y-169429503D01*
X141820286Y-168775577D01*
X141569466Y-168168545D01*
X141105437Y-167703706D01*
X140498845Y-167451827D01*
X139842037Y-167451254D01*
X139235005Y-167702074D01*
X138770166Y-168166103D01*
X138518287Y-168772695D01*
X138517714Y-169429503D01*
X133710000Y-169429503D01*
X133710000Y-160674833D01*
X138315297Y-160674833D01*
X138932700Y-162169063D01*
X140074923Y-163313282D01*
X141568074Y-163933293D01*
X143184833Y-163934703D01*
X144679063Y-163317300D01*
X145823282Y-162175077D01*
X146443293Y-160681926D01*
X146444703Y-159065167D01*
X145827300Y-157570937D01*
X144685077Y-156426718D01*
X143191926Y-155806707D01*
X141575167Y-155805297D01*
X140080937Y-156422700D01*
X138936718Y-157564923D01*
X138316707Y-159058074D01*
X138315297Y-160674833D01*
X133710000Y-160674833D01*
X133710000Y-153096762D01*
X133792331Y-153219979D01*
X133803422Y-153236578D01*
X134963422Y-154396579D01*
X135260075Y-154594796D01*
X135610000Y-154664400D01*
X152809504Y-154664400D01*
X161583421Y-163438318D01*
X161583424Y-163438320D01*
X166885518Y-168740414D01*
X166877387Y-168759995D01*
X166876814Y-169416803D01*
X167004092Y-169724841D01*
X162404457Y-169724841D01*
X162151580Y-169471964D01*
X162151578Y-169471961D01*
X162131582Y-169451965D01*
X162139713Y-169432385D01*
X162140286Y-168775577D01*
X161889466Y-168168545D01*
X161425437Y-167703706D01*
X160818845Y-167451827D01*
X160162037Y-167451254D01*
X159555005Y-167702074D01*
X159090166Y-168166103D01*
X158838287Y-168772695D01*
X158837714Y-169429503D01*
X159088534Y-170036535D01*
X159552563Y-170501374D01*
X159639928Y-170537651D01*
X158640163Y-170537651D01*
X157323025Y-169220513D01*
X157323022Y-169220511D01*
X157060127Y-168957616D01*
X157060286Y-168775577D01*
X156809466Y-168168545D01*
X156345437Y-167703706D01*
X155738845Y-167451827D01*
X155082037Y-167451254D01*
X154475005Y-167702074D01*
X154010166Y-168166103D01*
X153758287Y-168772695D01*
X153757714Y-169429503D01*
X154008534Y-170036535D01*
X154472563Y-170501374D01*
X155079155Y-170753253D01*
X155263823Y-170753414D01*
X155526971Y-171016562D01*
X155526973Y-171016565D01*
X157216085Y-172705677D01*
X157628103Y-172980978D01*
X158114111Y-173077651D01*
X202976826Y-173077651D01*
X202976831Y-173077652D01*
X203462839Y-172980978D01*
X203874857Y-172705677D01*
X206276894Y-170303640D01*
X206946393Y-170303640D01*
X207075003Y-170432474D01*
X207681595Y-170684353D01*
X208338403Y-170684926D01*
X208945435Y-170434106D01*
X209410274Y-169970077D01*
X209662153Y-169363485D01*
X209662314Y-169178818D01*
X210442492Y-168398639D01*
X211567439Y-168398639D01*
X211440727Y-168703795D01*
X211440154Y-169360603D01*
X211690974Y-169967635D01*
X212155003Y-170432474D01*
X212761595Y-170684353D01*
X213418403Y-170684926D01*
X214025435Y-170434106D01*
X214490274Y-169970077D01*
X214742153Y-169363485D01*
X214742726Y-168706677D01*
X214615448Y-168398639D01*
X215740387Y-168398639D01*
X216257413Y-168915664D01*
X216257415Y-168915667D01*
X216520313Y-169178565D01*
X216520154Y-169360603D01*
X216770974Y-169967635D01*
X217235003Y-170432474D01*
X217841595Y-170684353D01*
X218026263Y-170684514D01*
X219163173Y-171821424D01*
X219163175Y-171821427D01*
X219341218Y-171940391D01*
X219575193Y-172096728D01*
X220061201Y-172193402D01*
X220061206Y-172193401D01*
X229527774Y-172193401D01*
X229527779Y-172193402D01*
X230013787Y-172096728D01*
X230425805Y-171821427D01*
X231314804Y-170932427D01*
X231314807Y-170932425D01*
X231577705Y-170669527D01*
X231759743Y-170669686D01*
X232366775Y-170418866D01*
X232831614Y-169954837D01*
X233083493Y-169348245D01*
X233084066Y-168691437D01*
X232833246Y-168084405D01*
X232369217Y-167619566D01*
X231762625Y-167367687D01*
X231105817Y-167367114D01*
X230498785Y-167617934D01*
X230033946Y-168081963D01*
X229782067Y-168688555D01*
X229781906Y-168873222D01*
X229518755Y-169136373D01*
X229518753Y-169136376D01*
X229001727Y-169653401D01*
X227876781Y-169653401D01*
X228003493Y-169348245D01*
X228004066Y-168691437D01*
X227753246Y-168084405D01*
X227289217Y-167619566D01*
X226682625Y-167367687D01*
X226025817Y-167367114D01*
X226003763Y-167376227D01*
X225983361Y-167355825D01*
X225983359Y-167355822D01*
X224591936Y-165964400D01*
X232165624Y-165964400D01*
X234850203Y-168648980D01*
X234850206Y-168648982D01*
X234870198Y-168668974D01*
X234862067Y-168688555D01*
X234861494Y-169345363D01*
X235112314Y-169952395D01*
X235576343Y-170417234D01*
X236182935Y-170669113D01*
X236839743Y-170669686D01*
X237446775Y-170418866D01*
X237911614Y-169954837D01*
X238163493Y-169348245D01*
X238163495Y-169345363D01*
X239941494Y-169345363D01*
X240192314Y-169952395D01*
X240656343Y-170417234D01*
X241262935Y-170669113D01*
X241919743Y-170669686D01*
X242526775Y-170418866D01*
X242991614Y-169954837D01*
X243243493Y-169348245D01*
X243243495Y-169345363D01*
X245021494Y-169345363D01*
X245272314Y-169952395D01*
X245736343Y-170417234D01*
X246342935Y-170669113D01*
X246999743Y-170669686D01*
X247606775Y-170418866D01*
X248071614Y-169954837D01*
X248323493Y-169348245D01*
X248323652Y-169165623D01*
X262077614Y-169165623D01*
X262328434Y-169772655D01*
X262792463Y-170237494D01*
X263399055Y-170489373D01*
X264055863Y-170489946D01*
X264662895Y-170239126D01*
X265127734Y-169775097D01*
X265379613Y-169168505D01*
X265379615Y-169165623D01*
X267157614Y-169165623D01*
X267408434Y-169772655D01*
X267872463Y-170237494D01*
X268479055Y-170489373D01*
X269135863Y-170489946D01*
X269742895Y-170239126D01*
X270207734Y-169775097D01*
X270459613Y-169168505D01*
X270459615Y-169165623D01*
X272237614Y-169165623D01*
X272488434Y-169772655D01*
X272952463Y-170237494D01*
X273559055Y-170489373D01*
X274215863Y-170489946D01*
X274822895Y-170239126D01*
X275287734Y-169775097D01*
X275539613Y-169168505D01*
X275539615Y-169165623D01*
X277317614Y-169165623D01*
X277568434Y-169772655D01*
X278032463Y-170237494D01*
X278639055Y-170489373D01*
X279295863Y-170489946D01*
X279902895Y-170239126D01*
X280367734Y-169775097D01*
X280619613Y-169168505D01*
X280619615Y-169165623D01*
X282397614Y-169165623D01*
X282648434Y-169772655D01*
X283112463Y-170237494D01*
X283719055Y-170489373D01*
X284375863Y-170489946D01*
X284982895Y-170239126D01*
X285281040Y-169941500D01*
X297804060Y-169941500D01*
X297804060Y-171338500D01*
X297848338Y-171573817D01*
X297987410Y-171789941D01*
X298199610Y-171934931D01*
X298451500Y-171985940D01*
X299848500Y-171985940D01*
X300083817Y-171941662D01*
X300299941Y-171802590D01*
X300444931Y-171590390D01*
X300495940Y-171338500D01*
X300495940Y-171242116D01*
X300558854Y-171394380D01*
X300933647Y-171769827D01*
X301423587Y-171973268D01*
X301954086Y-171973731D01*
X302444380Y-171771146D01*
X302819827Y-171396353D01*
X302960094Y-171058554D01*
X303098854Y-171394380D01*
X303473647Y-171769827D01*
X303963587Y-171973268D01*
X304494086Y-171973731D01*
X304984380Y-171771146D01*
X305359827Y-171396353D01*
X305563268Y-170906413D01*
X305563731Y-170375914D01*
X305361146Y-169885620D01*
X304986353Y-169510173D01*
X304496413Y-169306732D01*
X303965914Y-169306269D01*
X303475620Y-169508854D01*
X303100173Y-169883647D01*
X302959906Y-170221446D01*
X302821146Y-169885620D01*
X302446353Y-169510173D01*
X301956413Y-169306732D01*
X301425914Y-169306269D01*
X300935620Y-169508854D01*
X300560173Y-169883647D01*
X300495940Y-170038337D01*
X300495940Y-169941500D01*
X300451662Y-169706183D01*
X300312590Y-169490059D01*
X300100390Y-169345069D01*
X299848500Y-169294060D01*
X298451500Y-169294060D01*
X298216183Y-169338338D01*
X298000059Y-169477410D01*
X297855069Y-169689610D01*
X297804060Y-169941500D01*
X285281040Y-169941500D01*
X285447734Y-169775097D01*
X285699613Y-169168505D01*
X285700186Y-168511697D01*
X285449366Y-167904665D01*
X284985337Y-167439826D01*
X284378745Y-167187947D01*
X283721937Y-167187374D01*
X283114905Y-167438194D01*
X282650066Y-167902223D01*
X282398187Y-168508815D01*
X282397614Y-169165623D01*
X280619615Y-169165623D01*
X280620186Y-168511697D01*
X280369366Y-167904665D01*
X279905337Y-167439826D01*
X279298745Y-167187947D01*
X278641937Y-167187374D01*
X278034905Y-167438194D01*
X277570066Y-167902223D01*
X277318187Y-168508815D01*
X277317614Y-169165623D01*
X275539615Y-169165623D01*
X275540186Y-168511697D01*
X275289366Y-167904665D01*
X274825337Y-167439826D01*
X274218745Y-167187947D01*
X273561937Y-167187374D01*
X272954905Y-167438194D01*
X272490066Y-167902223D01*
X272238187Y-168508815D01*
X272237614Y-169165623D01*
X270459615Y-169165623D01*
X270460186Y-168511697D01*
X270209366Y-167904665D01*
X269745337Y-167439826D01*
X269138745Y-167187947D01*
X268481937Y-167187374D01*
X267874905Y-167438194D01*
X267410066Y-167902223D01*
X267158187Y-168508815D01*
X267157614Y-169165623D01*
X265379615Y-169165623D01*
X265380186Y-168511697D01*
X265129366Y-167904665D01*
X264665337Y-167439826D01*
X264058745Y-167187947D01*
X263401937Y-167187374D01*
X262794905Y-167438194D01*
X262330066Y-167902223D01*
X262078187Y-168508815D01*
X262077614Y-169165623D01*
X248323652Y-169165623D01*
X248324066Y-168691437D01*
X248073246Y-168084405D01*
X247609217Y-167619566D01*
X247002625Y-167367687D01*
X246345817Y-167367114D01*
X245738785Y-167617934D01*
X245273946Y-168081963D01*
X245022067Y-168688555D01*
X245021494Y-169345363D01*
X243243495Y-169345363D01*
X243244066Y-168691437D01*
X242993246Y-168084405D01*
X242529217Y-167619566D01*
X241922625Y-167367687D01*
X241265817Y-167367114D01*
X240658785Y-167617934D01*
X240193946Y-168081963D01*
X239942067Y-168688555D01*
X239941494Y-169345363D01*
X238163495Y-169345363D01*
X238164066Y-168691437D01*
X237913246Y-168084405D01*
X237449217Y-167619566D01*
X236842625Y-167367687D01*
X236185817Y-167367114D01*
X236163763Y-167376227D01*
X236143362Y-167355826D01*
X236143360Y-167355823D01*
X233190958Y-164403422D01*
X233190957Y-164403421D01*
X232894306Y-164205205D01*
X232544380Y-164135600D01*
X170398757Y-164135600D01*
X156940453Y-150677297D01*
X157003395Y-150703433D01*
X157660203Y-150704006D01*
X158267235Y-150453186D01*
X158732074Y-149989157D01*
X158983953Y-149382565D01*
X158984526Y-148725757D01*
X158970747Y-148692409D01*
X165078757Y-142584400D01*
X165335253Y-142584400D01*
X161766662Y-146152992D01*
X161568445Y-146449644D01*
X161498840Y-146799570D01*
X161498840Y-147644158D01*
X161479245Y-147652254D01*
X161014406Y-148116283D01*
X160762527Y-148722875D01*
X160761954Y-149379683D01*
X161012774Y-149986715D01*
X161476803Y-150451554D01*
X162083395Y-150703433D01*
X162740203Y-150704006D01*
X163347235Y-150453186D01*
X163812074Y-149989157D01*
X164063953Y-149382565D01*
X164064526Y-148725757D01*
X163813706Y-148118725D01*
X163349677Y-147653886D01*
X163327640Y-147644735D01*
X163327640Y-147178326D01*
X167108757Y-143397210D01*
X172324568Y-143397210D01*
X174072958Y-145145600D01*
X170485960Y-145145600D01*
X170136034Y-145215205D01*
X170067954Y-145260695D01*
X169839381Y-145413422D01*
X167842666Y-147410138D01*
X167823085Y-147402007D01*
X167166277Y-147401434D01*
X166559245Y-147652254D01*
X166094406Y-148116283D01*
X165842527Y-148722875D01*
X165841954Y-149379683D01*
X166092774Y-149986715D01*
X166556803Y-150451554D01*
X167163395Y-150703433D01*
X167820203Y-150704006D01*
X168427235Y-150453186D01*
X168892074Y-149989157D01*
X169143953Y-149382565D01*
X169144526Y-148725757D01*
X169135413Y-148703703D01*
X170864717Y-146974400D01*
X174752272Y-146974400D01*
X175916192Y-148138320D01*
X173981802Y-148138320D01*
X173973706Y-148118725D01*
X173509677Y-147653886D01*
X172903085Y-147402007D01*
X172246277Y-147401434D01*
X171639245Y-147652254D01*
X171174406Y-148116283D01*
X170922527Y-148722875D01*
X170921954Y-149379683D01*
X171172774Y-149986715D01*
X171636803Y-150451554D01*
X172243395Y-150703433D01*
X172900203Y-150704006D01*
X173507235Y-150453186D01*
X173972074Y-149989157D01*
X173981225Y-149967120D01*
X176595506Y-149967120D01*
X189546203Y-162917818D01*
X189694530Y-163016926D01*
X189842856Y-163116035D01*
X190192782Y-163185640D01*
X288054648Y-163185640D01*
X288404574Y-163116035D01*
X288701226Y-162917818D01*
X289597871Y-162021173D01*
X294575797Y-162021173D01*
X295193200Y-163515403D01*
X296335423Y-164659622D01*
X297828574Y-165279633D01*
X299445333Y-165281043D01*
X300939563Y-164663640D01*
X302083782Y-163521417D01*
X302703793Y-162028266D01*
X302705203Y-160411507D01*
X302087800Y-158917277D01*
X300945577Y-157773058D01*
X299452426Y-157153047D01*
X297835667Y-157151637D01*
X296341437Y-157769040D01*
X295197218Y-158911263D01*
X294577207Y-160404414D01*
X294575797Y-162021173D01*
X289597871Y-162021173D01*
X298666246Y-152952799D01*
X298864463Y-152656146D01*
X298877620Y-152590000D01*
X298934068Y-152306220D01*
X298934068Y-151659907D01*
X303571238Y-151659907D01*
X303671860Y-151928422D01*
X304287382Y-152157616D01*
X304943759Y-152133814D01*
X305439620Y-151928422D01*
X305540242Y-151659907D01*
X304555740Y-150675405D01*
X303571238Y-151659907D01*
X298934068Y-151659907D01*
X298934068Y-150227442D01*
X302893924Y-150227442D01*
X302917726Y-150883819D01*
X303123118Y-151379680D01*
X303391633Y-151480302D01*
X304376135Y-150495800D01*
X304735345Y-150495800D01*
X305719847Y-151480302D01*
X305988362Y-151379680D01*
X306217556Y-150764158D01*
X306193754Y-150107781D01*
X305988362Y-149611920D01*
X305719847Y-149511298D01*
X304735345Y-150495800D01*
X304376135Y-150495800D01*
X303391633Y-149511298D01*
X303123118Y-149611920D01*
X302893924Y-150227442D01*
X298934068Y-150227442D01*
X298934068Y-149331693D01*
X303571238Y-149331693D01*
X304555740Y-150316195D01*
X305540242Y-149331693D01*
X305439620Y-149063178D01*
X304824098Y-148833984D01*
X304167721Y-148857786D01*
X303671860Y-149063178D01*
X303571238Y-149331693D01*
X298934068Y-149331693D01*
X298934068Y-145742763D01*
X302904454Y-145742763D01*
X303155274Y-146349795D01*
X303619303Y-146814634D01*
X304225895Y-147066513D01*
X304882703Y-147067086D01*
X305489735Y-146816266D01*
X305954574Y-146352237D01*
X306206453Y-145745645D01*
X306207026Y-145088837D01*
X305956206Y-144481805D01*
X305492177Y-144016966D01*
X304885585Y-143765087D01*
X304228777Y-143764514D01*
X303621745Y-144015334D01*
X303156906Y-144479363D01*
X302905027Y-145085955D01*
X302904454Y-145742763D01*
X298934068Y-145742763D01*
X298934068Y-140662763D01*
X302904454Y-140662763D01*
X303155274Y-141269795D01*
X303619303Y-141734634D01*
X304225895Y-141986513D01*
X304882703Y-141987086D01*
X305489735Y-141736266D01*
X305954574Y-141272237D01*
X306206453Y-140665645D01*
X306207026Y-140008837D01*
X305956206Y-139401805D01*
X305492177Y-138936966D01*
X304885585Y-138685087D01*
X304228777Y-138684514D01*
X303621745Y-138935334D01*
X303156906Y-139399363D01*
X302905027Y-140005955D01*
X302904454Y-140662763D01*
X298934068Y-140662763D01*
X298934068Y-135582763D01*
X302904454Y-135582763D01*
X303155274Y-136189795D01*
X303619303Y-136654634D01*
X304225895Y-136906513D01*
X304882703Y-136907086D01*
X305489735Y-136656266D01*
X305954574Y-136192237D01*
X306206453Y-135585645D01*
X306207026Y-134928837D01*
X305956206Y-134321805D01*
X305492177Y-133856966D01*
X304885585Y-133605087D01*
X304228777Y-133604514D01*
X303621745Y-133855334D01*
X303156906Y-134319363D01*
X302905027Y-134925955D01*
X302904454Y-135582763D01*
X298934068Y-135582763D01*
X298934068Y-130502763D01*
X302904454Y-130502763D01*
X303155274Y-131109795D01*
X303619303Y-131574634D01*
X304225895Y-131826513D01*
X304882703Y-131827086D01*
X305489735Y-131576266D01*
X305954574Y-131112237D01*
X306206453Y-130505645D01*
X306207026Y-129848837D01*
X305956206Y-129241805D01*
X305492177Y-128776966D01*
X304885585Y-128525087D01*
X304228777Y-128524514D01*
X303621745Y-128775334D01*
X303156906Y-129239363D01*
X302905027Y-129845955D01*
X302904454Y-130502763D01*
X298934068Y-130502763D01*
X298934068Y-117882187D01*
X303386238Y-117882187D01*
X303486860Y-118150702D01*
X304102382Y-118379896D01*
X304758759Y-118356094D01*
X305254620Y-118150702D01*
X305355242Y-117882187D01*
X304370740Y-116897685D01*
X303386238Y-117882187D01*
X298934068Y-117882187D01*
X298934068Y-116449722D01*
X302708924Y-116449722D01*
X302732726Y-117106099D01*
X302938118Y-117601960D01*
X303206633Y-117702582D01*
X304191135Y-116718080D01*
X304550345Y-116718080D01*
X305534847Y-117702582D01*
X305803362Y-117601960D01*
X306032556Y-116986438D01*
X306008754Y-116330061D01*
X305803362Y-115834200D01*
X305534847Y-115733578D01*
X304550345Y-116718080D01*
X304191135Y-116718080D01*
X303206633Y-115733578D01*
X302938118Y-115834200D01*
X302708924Y-116449722D01*
X298934068Y-116449722D01*
X298934068Y-115553973D01*
X303386238Y-115553973D01*
X304370740Y-116538475D01*
X305355242Y-115553973D01*
X305254620Y-115285458D01*
X304639098Y-115056264D01*
X303982721Y-115080066D01*
X303486860Y-115285458D01*
X303386238Y-115553973D01*
X298934068Y-115553973D01*
X298934068Y-112802187D01*
X303386238Y-112802187D01*
X303486860Y-113070702D01*
X304102382Y-113299896D01*
X304758759Y-113276094D01*
X305254620Y-113070702D01*
X305355242Y-112802187D01*
X304370740Y-111817685D01*
X303386238Y-112802187D01*
X298934068Y-112802187D01*
X298934068Y-111369722D01*
X302708924Y-111369722D01*
X302732726Y-112026099D01*
X302938118Y-112521960D01*
X303206633Y-112622582D01*
X304191135Y-111638080D01*
X304550345Y-111638080D01*
X305534847Y-112622582D01*
X305803362Y-112521960D01*
X306032556Y-111906438D01*
X306008754Y-111250061D01*
X305803362Y-110754200D01*
X305534847Y-110653578D01*
X304550345Y-111638080D01*
X304191135Y-111638080D01*
X303206633Y-110653578D01*
X302938118Y-110754200D01*
X302708924Y-111369722D01*
X298934068Y-111369722D01*
X298934068Y-110473973D01*
X303386238Y-110473973D01*
X304370740Y-111458475D01*
X305355242Y-110473973D01*
X305254620Y-110205458D01*
X304639098Y-109976264D01*
X303982721Y-110000066D01*
X303486860Y-110205458D01*
X303386238Y-110473973D01*
X298934068Y-110473973D01*
X298934068Y-107722187D01*
X303386238Y-107722187D01*
X303486860Y-107990702D01*
X304102382Y-108219896D01*
X304758759Y-108196094D01*
X305254620Y-107990702D01*
X305355242Y-107722187D01*
X304370740Y-106737685D01*
X303386238Y-107722187D01*
X298934068Y-107722187D01*
X298934068Y-106289722D01*
X302708924Y-106289722D01*
X302732726Y-106946099D01*
X302938118Y-107441960D01*
X303206633Y-107542582D01*
X304191135Y-106558080D01*
X304550345Y-106558080D01*
X305534847Y-107542582D01*
X305803362Y-107441960D01*
X306032556Y-106826438D01*
X306008754Y-106170061D01*
X305803362Y-105674200D01*
X305534847Y-105573578D01*
X304550345Y-106558080D01*
X304191135Y-106558080D01*
X303206633Y-105573578D01*
X302938118Y-105674200D01*
X302708924Y-106289722D01*
X298934068Y-106289722D01*
X298934068Y-105393973D01*
X303386238Y-105393973D01*
X304370740Y-106378475D01*
X305355242Y-105393973D01*
X305254620Y-105125458D01*
X304639098Y-104896264D01*
X303982721Y-104920066D01*
X303486860Y-105125458D01*
X303386238Y-105393973D01*
X298934068Y-105393973D01*
X298934068Y-102642187D01*
X303386238Y-102642187D01*
X303486860Y-102910702D01*
X304102382Y-103139896D01*
X304758759Y-103116094D01*
X305254620Y-102910702D01*
X305355242Y-102642187D01*
X304370740Y-101657685D01*
X303386238Y-102642187D01*
X298934068Y-102642187D01*
X298934068Y-101209722D01*
X302708924Y-101209722D01*
X302732726Y-101866099D01*
X302938118Y-102361960D01*
X303206633Y-102462582D01*
X304191135Y-101478080D01*
X304550345Y-101478080D01*
X305534847Y-102462582D01*
X305803362Y-102361960D01*
X306032556Y-101746438D01*
X306008754Y-101090061D01*
X305803362Y-100594200D01*
X305534847Y-100493578D01*
X304550345Y-101478080D01*
X304191135Y-101478080D01*
X303206633Y-100493578D01*
X302938118Y-100594200D01*
X302708924Y-101209722D01*
X298934068Y-101209722D01*
X298934068Y-100313973D01*
X303386238Y-100313973D01*
X304370740Y-101298475D01*
X305355242Y-100313973D01*
X305254620Y-100045458D01*
X304639098Y-99816264D01*
X303982721Y-99840066D01*
X303486860Y-100045458D01*
X303386238Y-100313973D01*
X298934068Y-100313973D01*
X298934068Y-97562187D01*
X303386238Y-97562187D01*
X303486860Y-97830702D01*
X304102382Y-98059896D01*
X304758759Y-98036094D01*
X305254620Y-97830702D01*
X305355242Y-97562187D01*
X304370740Y-96577685D01*
X303386238Y-97562187D01*
X298934068Y-97562187D01*
X298934068Y-96129722D01*
X302708924Y-96129722D01*
X302732726Y-96786099D01*
X302938118Y-97281960D01*
X303206633Y-97382582D01*
X304191135Y-96398080D01*
X304550345Y-96398080D01*
X305534847Y-97382582D01*
X305803362Y-97281960D01*
X306032556Y-96666438D01*
X306008754Y-96010061D01*
X305803362Y-95514200D01*
X305534847Y-95413578D01*
X304550345Y-96398080D01*
X304191135Y-96398080D01*
X303206633Y-95413578D01*
X302938118Y-95514200D01*
X302708924Y-96129722D01*
X298934068Y-96129722D01*
X298934068Y-95233973D01*
X303386238Y-95233973D01*
X304370740Y-96218475D01*
X305355242Y-95233973D01*
X305254620Y-94965458D01*
X304639098Y-94736264D01*
X303982721Y-94760066D01*
X303486860Y-94965458D01*
X303386238Y-95233973D01*
X298934068Y-95233973D01*
X298934068Y-87784243D01*
X302462914Y-87784243D01*
X302713734Y-88391275D01*
X303177763Y-88856114D01*
X303784355Y-89107993D01*
X304441163Y-89108566D01*
X305048195Y-88857746D01*
X305513034Y-88393717D01*
X305764913Y-87787125D01*
X305765486Y-87130317D01*
X305514666Y-86523285D01*
X305050637Y-86058446D01*
X304444045Y-85806567D01*
X303787237Y-85805994D01*
X303180205Y-86056814D01*
X302715366Y-86520843D01*
X302463487Y-87127435D01*
X302462914Y-87784243D01*
X298934068Y-87784243D01*
X298934068Y-82704243D01*
X302462914Y-82704243D01*
X302713734Y-83311275D01*
X303177763Y-83776114D01*
X303784355Y-84027993D01*
X304441163Y-84028566D01*
X305048195Y-83777746D01*
X305513034Y-83313717D01*
X305764913Y-82707125D01*
X305765486Y-82050317D01*
X305514666Y-81443285D01*
X305050637Y-80978446D01*
X304444045Y-80726567D01*
X303787237Y-80725994D01*
X303180205Y-80976814D01*
X302715366Y-81440843D01*
X302463487Y-82047435D01*
X302462914Y-82704243D01*
X298934068Y-82704243D01*
X298934068Y-77624243D01*
X302462914Y-77624243D01*
X302713734Y-78231275D01*
X303177763Y-78696114D01*
X303784355Y-78947993D01*
X304441163Y-78948566D01*
X305048195Y-78697746D01*
X305513034Y-78233717D01*
X305764913Y-77627125D01*
X305765486Y-76970317D01*
X305514666Y-76363285D01*
X305050637Y-75898446D01*
X304444045Y-75646567D01*
X303787237Y-75645994D01*
X303180205Y-75896814D01*
X302715366Y-76360843D01*
X302463487Y-76967435D01*
X302462914Y-77624243D01*
X298934068Y-77624243D01*
X298934068Y-72544243D01*
X302462914Y-72544243D01*
X302713734Y-73151275D01*
X303177763Y-73616114D01*
X303784355Y-73867993D01*
X304441163Y-73868566D01*
X305048195Y-73617746D01*
X305513034Y-73153717D01*
X305764913Y-72547125D01*
X305765486Y-71890317D01*
X305514666Y-71283285D01*
X305050637Y-70818446D01*
X304444045Y-70566567D01*
X303787237Y-70565994D01*
X303180205Y-70816814D01*
X302715366Y-71280843D01*
X302463487Y-71887435D01*
X302462914Y-72544243D01*
X298934068Y-72544243D01*
X298934068Y-68415862D01*
X298864463Y-68065936D01*
X298666246Y-67769284D01*
X298361205Y-67464243D01*
X302462914Y-67464243D01*
X302713734Y-68071275D01*
X303177763Y-68536114D01*
X303784355Y-68787993D01*
X304441163Y-68788566D01*
X305048195Y-68537746D01*
X305513034Y-68073717D01*
X305764913Y-67467125D01*
X305765486Y-66810317D01*
X305514666Y-66203285D01*
X305050637Y-65738446D01*
X304444045Y-65486567D01*
X303787237Y-65485994D01*
X303180205Y-65736814D01*
X302715366Y-66200843D01*
X302463487Y-66807435D01*
X302462914Y-67464243D01*
X298361205Y-67464243D01*
X289220368Y-58323406D01*
X290537669Y-58323406D01*
X290740254Y-58813700D01*
X291115047Y-59189147D01*
X291604987Y-59392588D01*
X292135486Y-59393051D01*
X292625780Y-59190466D01*
X293001227Y-58815673D01*
X293141494Y-58477874D01*
X293280254Y-58813700D01*
X293655047Y-59189147D01*
X294144987Y-59392588D01*
X294675486Y-59393051D01*
X295165780Y-59190466D01*
X295541227Y-58815673D01*
X295605460Y-58660983D01*
X295605460Y-58757820D01*
X295649738Y-58993137D01*
X295788810Y-59209261D01*
X296001010Y-59354251D01*
X296252900Y-59405260D01*
X297649900Y-59405260D01*
X297885217Y-59360982D01*
X298101341Y-59221910D01*
X298246331Y-59009710D01*
X298297340Y-58757820D01*
X298297340Y-57360820D01*
X298253062Y-57125503D01*
X298113990Y-56909379D01*
X297901790Y-56764389D01*
X297649900Y-56713380D01*
X296252900Y-56713380D01*
X296017583Y-56757658D01*
X295801459Y-56896730D01*
X295656469Y-57108930D01*
X295605460Y-57360820D01*
X295605460Y-57457204D01*
X295542546Y-57304940D01*
X295167753Y-56929493D01*
X294677813Y-56726052D01*
X294147314Y-56725589D01*
X293657020Y-56928174D01*
X293281573Y-57302967D01*
X293141306Y-57640766D01*
X293002546Y-57304940D01*
X292627753Y-56929493D01*
X292137813Y-56726052D01*
X291607314Y-56725589D01*
X291117020Y-56928174D01*
X290741573Y-57302967D01*
X290538132Y-57792907D01*
X290537669Y-58323406D01*
X289220368Y-58323406D01*
X284794764Y-53897802D01*
X284683734Y-53823614D01*
X284498112Y-53699585D01*
X284148186Y-53629980D01*
X259298020Y-53629980D01*
X258948094Y-53699585D01*
X258799768Y-53798694D01*
X258651441Y-53897802D01*
X256001134Y-56548110D01*
X255620719Y-56547778D01*
X255107077Y-56760010D01*
X254713751Y-57152650D01*
X254500623Y-57665920D01*
X254500138Y-58221681D01*
X254712370Y-58735323D01*
X255105010Y-59128649D01*
X255618280Y-59341777D01*
X256174041Y-59342262D01*
X256687683Y-59130030D01*
X257081009Y-58737390D01*
X257243717Y-58345544D01*
X257404770Y-58735323D01*
X257797410Y-59128649D01*
X258310680Y-59341777D01*
X258866441Y-59342262D01*
X259380083Y-59130030D01*
X259773409Y-58737390D01*
X259961580Y-58284223D01*
X260147970Y-58735323D01*
X260540610Y-59128649D01*
X261053880Y-59341777D01*
X261609641Y-59342262D01*
X262123283Y-59130030D01*
X262516609Y-58737390D01*
X262729737Y-58224120D01*
X262729739Y-58221684D01*
X262941970Y-58735323D01*
X263334610Y-59128649D01*
X263847880Y-59341777D01*
X264253690Y-59342131D01*
X264165549Y-59471130D01*
X264114540Y-59723020D01*
X264114540Y-60177666D01*
X263914990Y-59694717D01*
X263522350Y-59301391D01*
X263009080Y-59088263D01*
X262453319Y-59087778D01*
X261939677Y-59300010D01*
X261546351Y-59692650D01*
X261333223Y-60205920D01*
X261333221Y-60208356D01*
X261120990Y-59694717D01*
X260728350Y-59301391D01*
X260215080Y-59088263D01*
X259659319Y-59087778D01*
X259145677Y-59300010D01*
X258752351Y-59692650D01*
X258602374Y-60053835D01*
X258453990Y-59694717D01*
X258061350Y-59301391D01*
X257548080Y-59088263D01*
X256992319Y-59087778D01*
X256478677Y-59300010D01*
X256085351Y-59692650D01*
X255872223Y-60205920D01*
X255872221Y-60208356D01*
X255659990Y-59694717D01*
X255267350Y-59301391D01*
X254754080Y-59088263D01*
X254198319Y-59087778D01*
X253684677Y-59300010D01*
X253291351Y-59692650D01*
X253078223Y-60205920D01*
X253078221Y-60208356D01*
X252865990Y-59694717D01*
X252473350Y-59301391D01*
X252265345Y-59215020D01*
X252468215Y-59215020D01*
X252773480Y-59341777D01*
X253329241Y-59342262D01*
X253842883Y-59130030D01*
X254236209Y-58737390D01*
X254449337Y-58224120D01*
X254449822Y-57668359D01*
X254237590Y-57154717D01*
X253844950Y-56761391D01*
X253331680Y-56548263D01*
X252775919Y-56547778D01*
X252467969Y-56675020D01*
X250893745Y-56675020D01*
X250588480Y-56548263D01*
X250032719Y-56547778D01*
X249724769Y-56675020D01*
X248150545Y-56675020D01*
X247845280Y-56548263D01*
X247289519Y-56547778D01*
X246981569Y-56675020D01*
X245356545Y-56675020D01*
X245051280Y-56548263D01*
X244495519Y-56547778D01*
X244187569Y-56675020D01*
X242613345Y-56675020D01*
X242308080Y-56548263D01*
X241752319Y-56547778D01*
X241444369Y-56675020D01*
X239870145Y-56675020D01*
X239564880Y-56548263D01*
X239009119Y-56547778D01*
X238701169Y-56675020D01*
X237076145Y-56675020D01*
X236770880Y-56548263D01*
X236215119Y-56547778D01*
X235907169Y-56675020D01*
X234536145Y-56675020D01*
X234436424Y-56633612D01*
X230404785Y-52601973D01*
X229992767Y-52326672D01*
X229506759Y-52229998D01*
X229506754Y-52229999D01*
X193896006Y-52229999D01*
X193896001Y-52229998D01*
X193409993Y-52326672D01*
X192997975Y-52601973D01*
X192997973Y-52601976D01*
X189340353Y-56259595D01*
X189340351Y-56259598D01*
X188991562Y-56608386D01*
X188891769Y-56649620D01*
X187317545Y-56649620D01*
X187012280Y-56522863D01*
X186456519Y-56522378D01*
X186148569Y-56649620D01*
X184574345Y-56649620D01*
X184269080Y-56522863D01*
X183713319Y-56522378D01*
X183405369Y-56649620D01*
X181780345Y-56649620D01*
X181475080Y-56522863D01*
X180919319Y-56522378D01*
X180611369Y-56649620D01*
X179037145Y-56649620D01*
X178731880Y-56522863D01*
X178176119Y-56522378D01*
X177868169Y-56649620D01*
X176293945Y-56649620D01*
X175988680Y-56522863D01*
X175432919Y-56522378D01*
X175124969Y-56649620D01*
X173499945Y-56649620D01*
X173194680Y-56522863D01*
X172638919Y-56522378D01*
X172330969Y-56649620D01*
X170959945Y-56649620D01*
X170654680Y-56522863D01*
X170098919Y-56522378D01*
X169585277Y-56734610D01*
X169191951Y-57127250D01*
X168978823Y-57640520D01*
X168978338Y-58196281D01*
X169000459Y-58249819D01*
X164705781Y-58249819D01*
X164355855Y-58319424D01*
X164355433Y-58319706D01*
X164356220Y-57416599D01*
X163970343Y-56482705D01*
X163256453Y-55767568D01*
X162323234Y-55380061D01*
X161312759Y-55379180D01*
X160378865Y-55765057D01*
X159663728Y-56478947D01*
X159276221Y-57412166D01*
X159275340Y-58422641D01*
X159661217Y-59356535D01*
X160375107Y-60071672D01*
X161308326Y-60459179D01*
X162116960Y-60459884D01*
X162081244Y-60495600D01*
X140940000Y-60495600D01*
X140590074Y-60565205D01*
X140385426Y-60701947D01*
X140293422Y-60763422D01*
X133803422Y-67253422D01*
X133710000Y-67393238D01*
X133710000Y-56361500D01*
X136404060Y-56361500D01*
X136404060Y-57758500D01*
X136448338Y-57993817D01*
X136587410Y-58209941D01*
X136799610Y-58354931D01*
X137051500Y-58405940D01*
X138448500Y-58405940D01*
X138683817Y-58361662D01*
X138899941Y-58222590D01*
X139044931Y-58010390D01*
X139095940Y-57758500D01*
X139095940Y-57662116D01*
X139158854Y-57814380D01*
X139533647Y-58189827D01*
X140023587Y-58393268D01*
X140554086Y-58393731D01*
X141044380Y-58191146D01*
X141419827Y-57816353D01*
X141560094Y-57478554D01*
X141698854Y-57814380D01*
X142073647Y-58189827D01*
X142563587Y-58393268D01*
X143094086Y-58393731D01*
X143584380Y-58191146D01*
X143959827Y-57816353D01*
X144163268Y-57326413D01*
X144163731Y-56795914D01*
X143961146Y-56305620D01*
X143586353Y-55930173D01*
X143096413Y-55726732D01*
X142565914Y-55726269D01*
X142075620Y-55928854D01*
X141700173Y-56303647D01*
X141559906Y-56641446D01*
X141421146Y-56305620D01*
X141046353Y-55930173D01*
X140556413Y-55726732D01*
X140025914Y-55726269D01*
X139535620Y-55928854D01*
X139160173Y-56303647D01*
X139095940Y-56458337D01*
X139095940Y-56361500D01*
X139051662Y-56126183D01*
X138912590Y-55910059D01*
X138700390Y-55765069D01*
X138448500Y-55714060D01*
X137051500Y-55714060D01*
X136816183Y-55758338D01*
X136600059Y-55897410D01*
X136455069Y-56109610D01*
X136404060Y-56361500D01*
X133710000Y-56361500D01*
X133710000Y-54069931D01*
X133973288Y-52746293D01*
X134683454Y-51683454D01*
X135746295Y-50973288D01*
X137069931Y-50710000D01*
X307930069Y-50710000D01*
X308871023Y-50897167D01*
G36*
X290602789Y-73565434D02*
X290602789Y-149234052D01*
X284991243Y-154845599D01*
X212227557Y-154845599D01*
X223016578Y-144056579D01*
X223146865Y-143861590D01*
X223214795Y-143759926D01*
X223284400Y-143410000D01*
X223284400Y-128897001D01*
X223550675Y-129007568D01*
X223793369Y-129007780D01*
X223818933Y-129069649D01*
X224113412Y-129364643D01*
X224498365Y-129524489D01*
X224732210Y-129524693D01*
X224732068Y-129687496D01*
X224891243Y-130072728D01*
X225185722Y-130367722D01*
X225570675Y-130527568D01*
X225987496Y-130527932D01*
X226310667Y-130394400D01*
X240288458Y-130394400D01*
X240638384Y-130324795D01*
X240935036Y-130126578D01*
X251589328Y-119472287D01*
X251751900Y-119228980D01*
X251787544Y-119175635D01*
X251857149Y-118825709D01*
X251857149Y-104523739D01*
X252337418Y-105004009D01*
X252306120Y-105050849D01*
X252196887Y-105600000D01*
X252306120Y-106149151D01*
X252617189Y-106614698D01*
X253082736Y-106925767D01*
X253631887Y-107035000D01*
X253688113Y-107035000D01*
X254237264Y-106925767D01*
X254329001Y-106864470D01*
X254329001Y-109532753D01*
X253938113Y-109455000D01*
X253881887Y-109455000D01*
X253332736Y-109564233D01*
X252867189Y-109875302D01*
X252556120Y-110340849D01*
X252446887Y-110890000D01*
X252556120Y-111439151D01*
X252867189Y-111904698D01*
X253249275Y-112160000D01*
X252867189Y-112415302D01*
X252556120Y-112880849D01*
X252446887Y-113430000D01*
X252556120Y-113979151D01*
X252867189Y-114444698D01*
X253249275Y-114700000D01*
X252867189Y-114955302D01*
X252556120Y-115420849D01*
X252446887Y-115970000D01*
X252556120Y-116519151D01*
X252867189Y-116984698D01*
X253332736Y-117295767D01*
X253881887Y-117405000D01*
X253938113Y-117405000D01*
X254487264Y-117295767D01*
X254952811Y-116984698D01*
X255263880Y-116519151D01*
X255373113Y-115970000D01*
X255263880Y-115420849D01*
X254952811Y-114955302D01*
X254570725Y-114700000D01*
X254952811Y-114444698D01*
X255263880Y-113979151D01*
X255373113Y-113430000D01*
X255344915Y-113288241D01*
X255889980Y-112743177D01*
X256038271Y-112521243D01*
X256088196Y-112446525D01*
X256157801Y-112096599D01*
X256157801Y-110393412D01*
X256483647Y-110719827D01*
X256973587Y-110923268D01*
X257504086Y-110923731D01*
X257557501Y-110901660D01*
X257557501Y-115897946D01*
X257506413Y-115876732D01*
X256975914Y-115876269D01*
X256485620Y-116078854D01*
X256110173Y-116453647D01*
X255906732Y-116943587D01*
X255906464Y-117250379D01*
X239301244Y-133855600D01*
X229650030Y-133855600D01*
X229329325Y-133722432D01*
X228912504Y-133722068D01*
X228527272Y-133881243D01*
X228232278Y-134175722D01*
X228072432Y-134560675D01*
X228072068Y-134977496D01*
X228231243Y-135362728D01*
X228525722Y-135657722D01*
X228910675Y-135817568D01*
X229327496Y-135817932D01*
X229650667Y-135684400D01*
X239680000Y-135684400D01*
X240029926Y-135614795D01*
X240326578Y-135416578D01*
X257199692Y-118543465D01*
X257504086Y-118543731D01*
X257557501Y-118521660D01*
X257557501Y-124325950D01*
X246175949Y-135707501D01*
X242105844Y-135707501D01*
X242105839Y-135707500D01*
X241619831Y-135804174D01*
X241207813Y-136079475D01*
X241207811Y-136079478D01*
X232679495Y-144607793D01*
X232497457Y-144607634D01*
X231890425Y-144858454D01*
X231425586Y-145322483D01*
X231173707Y-145929075D01*
X231173134Y-146585883D01*
X231300412Y-146893921D01*
X230175472Y-146893921D01*
X229395547Y-146113996D01*
X229395706Y-145931957D01*
X229144886Y-145324925D01*
X228680857Y-144860086D01*
X228074265Y-144608207D01*
X227417457Y-144607634D01*
X226810425Y-144858454D01*
X226345586Y-145322483D01*
X226093707Y-145929075D01*
X226093134Y-146585883D01*
X226343954Y-147192915D01*
X226807983Y-147657754D01*
X227414575Y-147909633D01*
X227599242Y-147909794D01*
X228751393Y-149061944D01*
X228751395Y-149061947D01*
X229112018Y-149302907D01*
X229163413Y-149337248D01*
X229649421Y-149433921D01*
X243898816Y-149433921D01*
X243898821Y-149433922D01*
X244384829Y-149337248D01*
X244796847Y-149061947D01*
X245787447Y-148071347D01*
X246062748Y-147659329D01*
X246159422Y-147173321D01*
X246159421Y-147173316D01*
X246159421Y-146585883D01*
X246413134Y-146585883D01*
X246663954Y-147192915D01*
X247127983Y-147657754D01*
X247734575Y-147909633D01*
X248391383Y-147910206D01*
X248998415Y-147659386D01*
X249463254Y-147195357D01*
X249715133Y-146588765D01*
X249715706Y-145931957D01*
X249464886Y-145324925D01*
X249000857Y-144860086D01*
X248394265Y-144608207D01*
X247737457Y-144607634D01*
X247130425Y-144858454D01*
X246665586Y-145322483D01*
X246413707Y-145929075D01*
X246413134Y-146585883D01*
X246159421Y-146585883D01*
X246159421Y-143998683D01*
X262453514Y-143998683D01*
X262704334Y-144605715D01*
X263168363Y-145070554D01*
X263774955Y-145322433D01*
X264431763Y-145323006D01*
X265038795Y-145072186D01*
X265503634Y-144608157D01*
X265755513Y-144001565D01*
X265755515Y-143998683D01*
X267533514Y-143998683D01*
X267784334Y-144605715D01*
X268248363Y-145070554D01*
X268854955Y-145322433D01*
X269511763Y-145323006D01*
X270118795Y-145072186D01*
X270583634Y-144608157D01*
X270835513Y-144001565D01*
X270835515Y-143998683D01*
X272613514Y-143998683D01*
X272864334Y-144605715D01*
X273328363Y-145070554D01*
X273934955Y-145322433D01*
X274591763Y-145323006D01*
X275198795Y-145072186D01*
X275663634Y-144608157D01*
X275915513Y-144001565D01*
X275915515Y-143998683D01*
X277693514Y-143998683D01*
X277944334Y-144605715D01*
X278408363Y-145070554D01*
X279014955Y-145322433D01*
X279671763Y-145323006D01*
X280278795Y-145072186D01*
X280743634Y-144608157D01*
X280995513Y-144001565D01*
X280995515Y-143998683D01*
X282773514Y-143998683D01*
X283024334Y-144605715D01*
X283488363Y-145070554D01*
X284094955Y-145322433D01*
X284751763Y-145323006D01*
X285358795Y-145072186D01*
X285823634Y-144608157D01*
X286075513Y-144001565D01*
X286076086Y-143344757D01*
X285825266Y-142737725D01*
X285361237Y-142272886D01*
X284754645Y-142021007D01*
X284097837Y-142020434D01*
X283490805Y-142271254D01*
X283025966Y-142735283D01*
X282774087Y-143341875D01*
X282773514Y-143998683D01*
X280995515Y-143998683D01*
X280996086Y-143344757D01*
X280745266Y-142737725D01*
X280281237Y-142272886D01*
X279674645Y-142021007D01*
X279017837Y-142020434D01*
X278410805Y-142271254D01*
X277945966Y-142735283D01*
X277694087Y-143341875D01*
X277693514Y-143998683D01*
X275915515Y-143998683D01*
X275916086Y-143344757D01*
X275665266Y-142737725D01*
X275201237Y-142272886D01*
X274594645Y-142021007D01*
X273937837Y-142020434D01*
X273330805Y-142271254D01*
X272865966Y-142735283D01*
X272614087Y-143341875D01*
X272613514Y-143998683D01*
X270835515Y-143998683D01*
X270836086Y-143344757D01*
X270585266Y-142737725D01*
X270121237Y-142272886D01*
X269514645Y-142021007D01*
X268857837Y-142020434D01*
X268250805Y-142271254D01*
X267785966Y-142735283D01*
X267534087Y-143341875D01*
X267533514Y-143998683D01*
X265755515Y-143998683D01*
X265756086Y-143344757D01*
X265505266Y-142737725D01*
X265041237Y-142272886D01*
X264434645Y-142021007D01*
X263777837Y-142020434D01*
X263170805Y-142271254D01*
X262705966Y-142735283D01*
X262454087Y-143341875D01*
X262453514Y-143998683D01*
X246159421Y-143998683D01*
X246159421Y-141471407D01*
X263633345Y-123997483D01*
X263908646Y-123585465D01*
X264005320Y-123099457D01*
X264005319Y-123099452D01*
X264005319Y-119689074D01*
X264371962Y-119825596D01*
X265028339Y-119801794D01*
X265524200Y-119596402D01*
X265624822Y-119327887D01*
X268735818Y-119327887D01*
X268836440Y-119596402D01*
X269451962Y-119825596D01*
X270108339Y-119801794D01*
X270604200Y-119596402D01*
X270704822Y-119327887D01*
X273815818Y-119327887D01*
X273916440Y-119596402D01*
X274531962Y-119825596D01*
X275188339Y-119801794D01*
X275684200Y-119596402D01*
X275784822Y-119327887D01*
X278895818Y-119327887D01*
X278996440Y-119596402D01*
X279611962Y-119825596D01*
X280268339Y-119801794D01*
X280764200Y-119596402D01*
X280864822Y-119327887D01*
X283975818Y-119327887D01*
X284076440Y-119596402D01*
X284691962Y-119825596D01*
X285348339Y-119801794D01*
X285844200Y-119596402D01*
X285944822Y-119327887D01*
X284960320Y-118343385D01*
X283975818Y-119327887D01*
X280864822Y-119327887D01*
X279880320Y-118343385D01*
X278895818Y-119327887D01*
X275784822Y-119327887D01*
X274800320Y-118343385D01*
X273815818Y-119327887D01*
X270704822Y-119327887D01*
X269720320Y-118343385D01*
X268735818Y-119327887D01*
X265624822Y-119327887D01*
X264640320Y-118343385D01*
X264626178Y-118357528D01*
X264446573Y-118177923D01*
X264460715Y-118163780D01*
X264819925Y-118163780D01*
X265804427Y-119148282D01*
X266072942Y-119047660D01*
X266302136Y-118432138D01*
X266282674Y-117895422D01*
X268058504Y-117895422D01*
X268082306Y-118551799D01*
X268287698Y-119047660D01*
X268556213Y-119148282D01*
X269540715Y-118163780D01*
X269899925Y-118163780D01*
X270884427Y-119148282D01*
X271152942Y-119047660D01*
X271382136Y-118432138D01*
X271362674Y-117895422D01*
X273138504Y-117895422D01*
X273162306Y-118551799D01*
X273367698Y-119047660D01*
X273636213Y-119148282D01*
X274620715Y-118163780D01*
X274979925Y-118163780D01*
X275964427Y-119148282D01*
X276232942Y-119047660D01*
X276462136Y-118432138D01*
X276442674Y-117895422D01*
X278218504Y-117895422D01*
X278242306Y-118551799D01*
X278447698Y-119047660D01*
X278716213Y-119148282D01*
X279700715Y-118163780D01*
X280059925Y-118163780D01*
X281044427Y-119148282D01*
X281312942Y-119047660D01*
X281542136Y-118432138D01*
X281522674Y-117895422D01*
X283298504Y-117895422D01*
X283322306Y-118551799D01*
X283527698Y-119047660D01*
X283796213Y-119148282D01*
X284780715Y-118163780D01*
X285139925Y-118163780D01*
X286124427Y-119148282D01*
X286392942Y-119047660D01*
X286622136Y-118432138D01*
X286598334Y-117775761D01*
X286392942Y-117279900D01*
X286124427Y-117179278D01*
X285139925Y-118163780D01*
X284780715Y-118163780D01*
X283796213Y-117179278D01*
X283527698Y-117279900D01*
X283298504Y-117895422D01*
X281522674Y-117895422D01*
X281518334Y-117775761D01*
X281312942Y-117279900D01*
X281044427Y-117179278D01*
X280059925Y-118163780D01*
X279700715Y-118163780D01*
X278716213Y-117179278D01*
X278447698Y-117279900D01*
X278218504Y-117895422D01*
X276442674Y-117895422D01*
X276438334Y-117775761D01*
X276232942Y-117279900D01*
X275964427Y-117179278D01*
X274979925Y-118163780D01*
X274620715Y-118163780D01*
X273636213Y-117179278D01*
X273367698Y-117279900D01*
X273138504Y-117895422D01*
X271362674Y-117895422D01*
X271358334Y-117775761D01*
X271152942Y-117279900D01*
X270884427Y-117179278D01*
X269899925Y-118163780D01*
X269540715Y-118163780D01*
X268556213Y-117179278D01*
X268287698Y-117279900D01*
X268058504Y-117895422D01*
X266282674Y-117895422D01*
X266278334Y-117775761D01*
X266072942Y-117279900D01*
X265804427Y-117179278D01*
X264819925Y-118163780D01*
X264460715Y-118163780D01*
X264446573Y-118149638D01*
X264626178Y-117970033D01*
X264640320Y-117984175D01*
X265624822Y-116999673D01*
X268735818Y-116999673D01*
X269720320Y-117984175D01*
X270704822Y-116999673D01*
X273815818Y-116999673D01*
X274800320Y-117984175D01*
X275784822Y-116999673D01*
X278895818Y-116999673D01*
X279880320Y-117984175D01*
X280864822Y-116999673D01*
X283975818Y-116999673D01*
X284960320Y-117984175D01*
X285944822Y-116999673D01*
X285844200Y-116731158D01*
X285228678Y-116501964D01*
X284572301Y-116525766D01*
X284076440Y-116731158D01*
X283975818Y-116999673D01*
X280864822Y-116999673D01*
X280764200Y-116731158D01*
X280148678Y-116501964D01*
X279492301Y-116525766D01*
X278996440Y-116731158D01*
X278895818Y-116999673D01*
X275784822Y-116999673D01*
X275684200Y-116731158D01*
X275068678Y-116501964D01*
X274412301Y-116525766D01*
X273916440Y-116731158D01*
X273815818Y-116999673D01*
X270704822Y-116999673D01*
X270604200Y-116731158D01*
X269988678Y-116501964D01*
X269332301Y-116525766D01*
X268836440Y-116731158D01*
X268735818Y-116999673D01*
X265624822Y-116999673D01*
X265524200Y-116731158D01*
X264908678Y-116501964D01*
X264252301Y-116525766D01*
X264005319Y-116628069D01*
X264005319Y-96182073D01*
X264831604Y-95355787D01*
X264831607Y-95355785D01*
X265094505Y-95092887D01*
X265276543Y-95093046D01*
X265858349Y-94852649D01*
X265858349Y-109958494D01*
X264926173Y-110890671D01*
X264926170Y-110890673D01*
X264888209Y-110928634D01*
X264567272Y-111061243D01*
X264272278Y-111355722D01*
X264112432Y-111740675D01*
X264112068Y-112157496D01*
X264271243Y-112542728D01*
X264473108Y-112744946D01*
X264442278Y-112775722D01*
X264282432Y-113160675D01*
X264282068Y-113577496D01*
X264441243Y-113962728D01*
X264735722Y-114257722D01*
X265120675Y-114417568D01*
X265537496Y-114417932D01*
X265922728Y-114258757D01*
X266217722Y-113964278D01*
X266351818Y-113641338D01*
X268326579Y-111666578D01*
X268478540Y-111439151D01*
X268524795Y-111369926D01*
X268594400Y-111020000D01*
X268594400Y-94291741D01*
X268629114Y-94375755D01*
X269093143Y-94840594D01*
X269699735Y-95092473D01*
X270356543Y-95093046D01*
X270963575Y-94842226D01*
X271428414Y-94378197D01*
X271680293Y-93771605D01*
X271680295Y-93768723D01*
X273458294Y-93768723D01*
X273709114Y-94375755D01*
X274173143Y-94840594D01*
X274779735Y-95092473D01*
X275436543Y-95093046D01*
X276043575Y-94842226D01*
X276508414Y-94378197D01*
X276760293Y-93771605D01*
X276760295Y-93768723D01*
X278538294Y-93768723D01*
X278789114Y-94375755D01*
X279253143Y-94840594D01*
X279859735Y-95092473D01*
X280516543Y-95093046D01*
X281123575Y-94842226D01*
X281588414Y-94378197D01*
X281840293Y-93771605D01*
X281840295Y-93768723D01*
X283618294Y-93768723D01*
X283869114Y-94375755D01*
X284333143Y-94840594D01*
X284939735Y-95092473D01*
X285596543Y-95093046D01*
X286203575Y-94842226D01*
X286668414Y-94378197D01*
X286920293Y-93771605D01*
X286920866Y-93114797D01*
X286670046Y-92507765D01*
X286206017Y-92042926D01*
X285599425Y-91791047D01*
X284942617Y-91790474D01*
X284335585Y-92041294D01*
X283870746Y-92505323D01*
X283618867Y-93111915D01*
X283618294Y-93768723D01*
X281840295Y-93768723D01*
X281840866Y-93114797D01*
X281590046Y-92507765D01*
X281126017Y-92042926D01*
X280519425Y-91791047D01*
X279862617Y-91790474D01*
X279255585Y-92041294D01*
X278790746Y-92505323D01*
X278538867Y-93111915D01*
X278538294Y-93768723D01*
X276760295Y-93768723D01*
X276760866Y-93114797D01*
X276510046Y-92507765D01*
X276046017Y-92042926D01*
X275439425Y-91791047D01*
X274782617Y-91790474D01*
X274175585Y-92041294D01*
X273710746Y-92505323D01*
X273458867Y-93111915D01*
X273458294Y-93768723D01*
X271680295Y-93768723D01*
X271680866Y-93114797D01*
X271430046Y-92507765D01*
X270966017Y-92042926D01*
X270359425Y-91791047D01*
X269702617Y-91790474D01*
X269095585Y-92041294D01*
X268630746Y-92505323D01*
X268594400Y-92592854D01*
X268594400Y-90270030D01*
X268727568Y-89949325D01*
X268727932Y-89532504D01*
X268568757Y-89147272D01*
X268274278Y-88852278D01*
X267889325Y-88692432D01*
X267472504Y-88692068D01*
X267087272Y-88851243D01*
X266955141Y-88983143D01*
X266954278Y-88982278D01*
X266569325Y-88822432D01*
X266152504Y-88822068D01*
X265767272Y-88981243D01*
X265472278Y-89275722D01*
X265312432Y-89660675D01*
X265312068Y-90077496D01*
X265471243Y-90462728D01*
X265765722Y-90757722D01*
X265858349Y-90796184D01*
X265858349Y-92031437D01*
X265279425Y-91791047D01*
X264622617Y-91790474D01*
X264015585Y-92041294D01*
X263550746Y-92505323D01*
X263298867Y-93111915D01*
X263298706Y-93296582D01*
X263035555Y-93559733D01*
X263035553Y-93559736D01*
X261837293Y-94757995D01*
X261561992Y-95170013D01*
X261465318Y-95656021D01*
X261465319Y-95656026D01*
X261465319Y-122573405D01*
X260097501Y-123941223D01*
X260097501Y-87450000D01*
X274999995Y-87450000D01*
X275000000Y-87450001D01*
X275486008Y-87353327D01*
X275898026Y-87078026D01*
X278998026Y-83978026D01*
X279273327Y-83566008D01*
X279370001Y-83080000D01*
X279370000Y-83079995D01*
X279370000Y-80033672D01*
X285664144Y-73739527D01*
X285846183Y-73739686D01*
X286453215Y-73488866D01*
X286918054Y-73024837D01*
X287169933Y-72418245D01*
X287170506Y-71761437D01*
X286919686Y-71154405D01*
X286455657Y-70689566D01*
X285849065Y-70437687D01*
X285192257Y-70437114D01*
X284585225Y-70687934D01*
X284120386Y-71151963D01*
X283868507Y-71758555D01*
X283868346Y-71943223D01*
X277201974Y-78609594D01*
X276926673Y-79021612D01*
X276829999Y-79507620D01*
X276830000Y-79507625D01*
X276830000Y-82553948D01*
X274473948Y-84910000D01*
X260481327Y-84910000D01*
X256052145Y-80480818D01*
X256414380Y-80331146D01*
X256789827Y-79956353D01*
X256896208Y-79700159D01*
X256988854Y-79924380D01*
X257363647Y-80299827D01*
X257853587Y-80503268D01*
X258384086Y-80503731D01*
X258874380Y-80301146D01*
X259249827Y-79926353D01*
X259453268Y-79436413D01*
X259453731Y-78905914D01*
X259251146Y-78415620D01*
X259191640Y-78356010D01*
X275441605Y-78356010D01*
X275441610Y-78356011D01*
X275927618Y-78259337D01*
X276339636Y-77984036D01*
X280584144Y-73739527D01*
X280766183Y-73739686D01*
X281373215Y-73488866D01*
X281838054Y-73024837D01*
X282089933Y-72418245D01*
X282090506Y-71761437D01*
X281839686Y-71154405D01*
X281375657Y-70689566D01*
X280769065Y-70437687D01*
X280112257Y-70437114D01*
X279505225Y-70687934D01*
X279040386Y-71151963D01*
X278788507Y-71758555D01*
X278788346Y-71943223D01*
X274915558Y-75816010D01*
X273427662Y-75816010D01*
X275504144Y-73739527D01*
X275686183Y-73739686D01*
X276293215Y-73488866D01*
X276758054Y-73024837D01*
X277009933Y-72418245D01*
X277010506Y-71761437D01*
X276759686Y-71154405D01*
X276295657Y-70689566D01*
X275689065Y-70437687D01*
X275032257Y-70437114D01*
X274425225Y-70687934D01*
X273960386Y-71151963D01*
X273708507Y-71758555D01*
X273708346Y-71943223D01*
X271359569Y-74291999D01*
X263354833Y-74291999D01*
X264211235Y-73435596D01*
X264262783Y-73487234D01*
X264869375Y-73739113D01*
X265526183Y-73739686D01*
X266133215Y-73488866D01*
X266598054Y-73024837D01*
X266849933Y-72418245D01*
X266850506Y-71761437D01*
X266599686Y-71154405D01*
X266135657Y-70689566D01*
X265529065Y-70437687D01*
X264872257Y-70437114D01*
X264265225Y-70687934D01*
X264134531Y-70818400D01*
X263762380Y-70818400D01*
X263276372Y-70915073D01*
X262864354Y-71190374D01*
X262864352Y-71190377D01*
X261286739Y-72767989D01*
X258664204Y-72767989D01*
X258874380Y-72681146D01*
X259249827Y-72306353D01*
X259453268Y-71816413D01*
X259453731Y-71285914D01*
X259251146Y-70795620D01*
X258876353Y-70420173D01*
X258386413Y-70216732D01*
X257855914Y-70216269D01*
X257365620Y-70418854D01*
X256990173Y-70793647D01*
X256883792Y-71049841D01*
X256791146Y-70825620D01*
X256416353Y-70450173D01*
X255926413Y-70246732D01*
X255395914Y-70246269D01*
X254905620Y-70448854D01*
X254688496Y-70665600D01*
X254517892Y-70665600D01*
X254398757Y-70377272D01*
X254104278Y-70082278D01*
X254103606Y-70081999D01*
X266476767Y-70081999D01*
X268365193Y-71970424D01*
X268365195Y-71970427D01*
X268628093Y-72233325D01*
X268627934Y-72415363D01*
X268878754Y-73022395D01*
X269342783Y-73487234D01*
X269949375Y-73739113D01*
X270606183Y-73739686D01*
X271213215Y-73488866D01*
X271678054Y-73024837D01*
X271929933Y-72418245D01*
X271930506Y-71761437D01*
X271679686Y-71154405D01*
X271215657Y-70689566D01*
X270609065Y-70437687D01*
X270424398Y-70437526D01*
X270161247Y-70174375D01*
X270161244Y-70174373D01*
X268234083Y-68247211D01*
X285284567Y-68247211D01*
X290602789Y-73565434D01*
X290602789Y-73565434D01*
G37*
X290602789Y-73565434D02*
X290602789Y-149234052D01*
X284991243Y-154845599D01*
X212227557Y-154845599D01*
X223016578Y-144056579D01*
X223146865Y-143861590D01*
X223214795Y-143759926D01*
X223284400Y-143410000D01*
X223284400Y-128897001D01*
X223550675Y-129007568D01*
X223793369Y-129007780D01*
X223818933Y-129069649D01*
X224113412Y-129364643D01*
X224498365Y-129524489D01*
X224732210Y-129524693D01*
X224732068Y-129687496D01*
X224891243Y-130072728D01*
X225185722Y-130367722D01*
X225570675Y-130527568D01*
X225987496Y-130527932D01*
X226310667Y-130394400D01*
X240288458Y-130394400D01*
X240638384Y-130324795D01*
X240935036Y-130126578D01*
X251589328Y-119472287D01*
X251751900Y-119228980D01*
X251787544Y-119175635D01*
X251857149Y-118825709D01*
X251857149Y-104523739D01*
X252337418Y-105004009D01*
X252306120Y-105050849D01*
X252196887Y-105600000D01*
X252306120Y-106149151D01*
X252617189Y-106614698D01*
X253082736Y-106925767D01*
X253631887Y-107035000D01*
X253688113Y-107035000D01*
X254237264Y-106925767D01*
X254329001Y-106864470D01*
X254329001Y-109532753D01*
X253938113Y-109455000D01*
X253881887Y-109455000D01*
X253332736Y-109564233D01*
X252867189Y-109875302D01*
X252556120Y-110340849D01*
X252446887Y-110890000D01*
X252556120Y-111439151D01*
X252867189Y-111904698D01*
X253249275Y-112160000D01*
X252867189Y-112415302D01*
X252556120Y-112880849D01*
X252446887Y-113430000D01*
X252556120Y-113979151D01*
X252867189Y-114444698D01*
X253249275Y-114700000D01*
X252867189Y-114955302D01*
X252556120Y-115420849D01*
X252446887Y-115970000D01*
X252556120Y-116519151D01*
X252867189Y-116984698D01*
X253332736Y-117295767D01*
X253881887Y-117405000D01*
X253938113Y-117405000D01*
X254487264Y-117295767D01*
X254952811Y-116984698D01*
X255263880Y-116519151D01*
X255373113Y-115970000D01*
X255263880Y-115420849D01*
X254952811Y-114955302D01*
X254570725Y-114700000D01*
X254952811Y-114444698D01*
X255263880Y-113979151D01*
X255373113Y-113430000D01*
X255344915Y-113288241D01*
X255889980Y-112743177D01*
X256038271Y-112521243D01*
X256088196Y-112446525D01*
X256157801Y-112096599D01*
X256157801Y-110393412D01*
X256483647Y-110719827D01*
X256973587Y-110923268D01*
X257504086Y-110923731D01*
X257557501Y-110901660D01*
X257557501Y-115897946D01*
X257506413Y-115876732D01*
X256975914Y-115876269D01*
X256485620Y-116078854D01*
X256110173Y-116453647D01*
X255906732Y-116943587D01*
X255906464Y-117250379D01*
X239301244Y-133855600D01*
X229650030Y-133855600D01*
X229329325Y-133722432D01*
X228912504Y-133722068D01*
X228527272Y-133881243D01*
X228232278Y-134175722D01*
X228072432Y-134560675D01*
X228072068Y-134977496D01*
X228231243Y-135362728D01*
X228525722Y-135657722D01*
X228910675Y-135817568D01*
X229327496Y-135817932D01*
X229650667Y-135684400D01*
X239680000Y-135684400D01*
X240029926Y-135614795D01*
X240326578Y-135416578D01*
X257199692Y-118543465D01*
X257504086Y-118543731D01*
X257557501Y-118521660D01*
X257557501Y-124325950D01*
X246175949Y-135707501D01*
X242105844Y-135707501D01*
X242105839Y-135707500D01*
X241619831Y-135804174D01*
X241207813Y-136079475D01*
X241207811Y-136079478D01*
X232679495Y-144607793D01*
X232497457Y-144607634D01*
X231890425Y-144858454D01*
X231425586Y-145322483D01*
X231173707Y-145929075D01*
X231173134Y-146585883D01*
X231300412Y-146893921D01*
X230175472Y-146893921D01*
X229395547Y-146113996D01*
X229395706Y-145931957D01*
X229144886Y-145324925D01*
X228680857Y-144860086D01*
X228074265Y-144608207D01*
X227417457Y-144607634D01*
X226810425Y-144858454D01*
X226345586Y-145322483D01*
X226093707Y-145929075D01*
X226093134Y-146585883D01*
X226343954Y-147192915D01*
X226807983Y-147657754D01*
X227414575Y-147909633D01*
X227599242Y-147909794D01*
X228751393Y-149061944D01*
X228751395Y-149061947D01*
X229112018Y-149302907D01*
X229163413Y-149337248D01*
X229649421Y-149433921D01*
X243898816Y-149433921D01*
X243898821Y-149433922D01*
X244384829Y-149337248D01*
X244796847Y-149061947D01*
X245787447Y-148071347D01*
X246062748Y-147659329D01*
X246159422Y-147173321D01*
X246159421Y-147173316D01*
X246159421Y-146585883D01*
X246413134Y-146585883D01*
X246663954Y-147192915D01*
X247127983Y-147657754D01*
X247734575Y-147909633D01*
X248391383Y-147910206D01*
X248998415Y-147659386D01*
X249463254Y-147195357D01*
X249715133Y-146588765D01*
X249715706Y-145931957D01*
X249464886Y-145324925D01*
X249000857Y-144860086D01*
X248394265Y-144608207D01*
X247737457Y-144607634D01*
X247130425Y-144858454D01*
X246665586Y-145322483D01*
X246413707Y-145929075D01*
X246413134Y-146585883D01*
X246159421Y-146585883D01*
X246159421Y-143998683D01*
X262453514Y-143998683D01*
X262704334Y-144605715D01*
X263168363Y-145070554D01*
X263774955Y-145322433D01*
X264431763Y-145323006D01*
X265038795Y-145072186D01*
X265503634Y-144608157D01*
X265755513Y-144001565D01*
X265755515Y-143998683D01*
X267533514Y-143998683D01*
X267784334Y-144605715D01*
X268248363Y-145070554D01*
X268854955Y-145322433D01*
X269511763Y-145323006D01*
X270118795Y-145072186D01*
X270583634Y-144608157D01*
X270835513Y-144001565D01*
X270835515Y-143998683D01*
X272613514Y-143998683D01*
X272864334Y-144605715D01*
X273328363Y-145070554D01*
X273934955Y-145322433D01*
X274591763Y-145323006D01*
X275198795Y-145072186D01*
X275663634Y-144608157D01*
X275915513Y-144001565D01*
X275915515Y-143998683D01*
X277693514Y-143998683D01*
X277944334Y-144605715D01*
X278408363Y-145070554D01*
X279014955Y-145322433D01*
X279671763Y-145323006D01*
X280278795Y-145072186D01*
X280743634Y-144608157D01*
X280995513Y-144001565D01*
X280995515Y-143998683D01*
X282773514Y-143998683D01*
X283024334Y-144605715D01*
X283488363Y-145070554D01*
X284094955Y-145322433D01*
X284751763Y-145323006D01*
X285358795Y-145072186D01*
X285823634Y-144608157D01*
X286075513Y-144001565D01*
X286076086Y-143344757D01*
X285825266Y-142737725D01*
X285361237Y-142272886D01*
X284754645Y-142021007D01*
X284097837Y-142020434D01*
X283490805Y-142271254D01*
X283025966Y-142735283D01*
X282774087Y-143341875D01*
X282773514Y-143998683D01*
X280995515Y-143998683D01*
X280996086Y-143344757D01*
X280745266Y-142737725D01*
X280281237Y-142272886D01*
X279674645Y-142021007D01*
X279017837Y-142020434D01*
X278410805Y-142271254D01*
X277945966Y-142735283D01*
X277694087Y-143341875D01*
X277693514Y-143998683D01*
X275915515Y-143998683D01*
X275916086Y-143344757D01*
X275665266Y-142737725D01*
X275201237Y-142272886D01*
X274594645Y-142021007D01*
X273937837Y-142020434D01*
X273330805Y-142271254D01*
X272865966Y-142735283D01*
X272614087Y-143341875D01*
X272613514Y-143998683D01*
X270835515Y-143998683D01*
X270836086Y-143344757D01*
X270585266Y-142737725D01*
X270121237Y-142272886D01*
X269514645Y-142021007D01*
X268857837Y-142020434D01*
X268250805Y-142271254D01*
X267785966Y-142735283D01*
X267534087Y-143341875D01*
X267533514Y-143998683D01*
X265755515Y-143998683D01*
X265756086Y-143344757D01*
X265505266Y-142737725D01*
X265041237Y-142272886D01*
X264434645Y-142021007D01*
X263777837Y-142020434D01*
X263170805Y-142271254D01*
X262705966Y-142735283D01*
X262454087Y-143341875D01*
X262453514Y-143998683D01*
X246159421Y-143998683D01*
X246159421Y-141471407D01*
X263633345Y-123997483D01*
X263908646Y-123585465D01*
X264005320Y-123099457D01*
X264005319Y-123099452D01*
X264005319Y-119689074D01*
X264371962Y-119825596D01*
X265028339Y-119801794D01*
X265524200Y-119596402D01*
X265624822Y-119327887D01*
X268735818Y-119327887D01*
X268836440Y-119596402D01*
X269451962Y-119825596D01*
X270108339Y-119801794D01*
X270604200Y-119596402D01*
X270704822Y-119327887D01*
X273815818Y-119327887D01*
X273916440Y-119596402D01*
X274531962Y-119825596D01*
X275188339Y-119801794D01*
X275684200Y-119596402D01*
X275784822Y-119327887D01*
X278895818Y-119327887D01*
X278996440Y-119596402D01*
X279611962Y-119825596D01*
X280268339Y-119801794D01*
X280764200Y-119596402D01*
X280864822Y-119327887D01*
X283975818Y-119327887D01*
X284076440Y-119596402D01*
X284691962Y-119825596D01*
X285348339Y-119801794D01*
X285844200Y-119596402D01*
X285944822Y-119327887D01*
X284960320Y-118343385D01*
X283975818Y-119327887D01*
X280864822Y-119327887D01*
X279880320Y-118343385D01*
X278895818Y-119327887D01*
X275784822Y-119327887D01*
X274800320Y-118343385D01*
X273815818Y-119327887D01*
X270704822Y-119327887D01*
X269720320Y-118343385D01*
X268735818Y-119327887D01*
X265624822Y-119327887D01*
X264640320Y-118343385D01*
X264626178Y-118357528D01*
X264446573Y-118177923D01*
X264460715Y-118163780D01*
X264819925Y-118163780D01*
X265804427Y-119148282D01*
X266072942Y-119047660D01*
X266302136Y-118432138D01*
X266282674Y-117895422D01*
X268058504Y-117895422D01*
X268082306Y-118551799D01*
X268287698Y-119047660D01*
X268556213Y-119148282D01*
X269540715Y-118163780D01*
X269899925Y-118163780D01*
X270884427Y-119148282D01*
X271152942Y-119047660D01*
X271382136Y-118432138D01*
X271362674Y-117895422D01*
X273138504Y-117895422D01*
X273162306Y-118551799D01*
X273367698Y-119047660D01*
X273636213Y-119148282D01*
X274620715Y-118163780D01*
X274979925Y-118163780D01*
X275964427Y-119148282D01*
X276232942Y-119047660D01*
X276462136Y-118432138D01*
X276442674Y-117895422D01*
X278218504Y-117895422D01*
X278242306Y-118551799D01*
X278447698Y-119047660D01*
X278716213Y-119148282D01*
X279700715Y-118163780D01*
X280059925Y-118163780D01*
X281044427Y-119148282D01*
X281312942Y-119047660D01*
X281542136Y-118432138D01*
X281522674Y-117895422D01*
X283298504Y-117895422D01*
X283322306Y-118551799D01*
X283527698Y-119047660D01*
X283796213Y-119148282D01*
X284780715Y-118163780D01*
X285139925Y-118163780D01*
X286124427Y-119148282D01*
X286392942Y-119047660D01*
X286622136Y-118432138D01*
X286598334Y-117775761D01*
X286392942Y-117279900D01*
X286124427Y-117179278D01*
X285139925Y-118163780D01*
X284780715Y-118163780D01*
X283796213Y-117179278D01*
X283527698Y-117279900D01*
X283298504Y-117895422D01*
X281522674Y-117895422D01*
X281518334Y-117775761D01*
X281312942Y-117279900D01*
X281044427Y-117179278D01*
X280059925Y-118163780D01*
X279700715Y-118163780D01*
X278716213Y-117179278D01*
X278447698Y-117279900D01*
X278218504Y-117895422D01*
X276442674Y-117895422D01*
X276438334Y-117775761D01*
X276232942Y-117279900D01*
X275964427Y-117179278D01*
X274979925Y-118163780D01*
X274620715Y-118163780D01*
X273636213Y-117179278D01*
X273367698Y-117279900D01*
X273138504Y-117895422D01*
X271362674Y-117895422D01*
X271358334Y-117775761D01*
X271152942Y-117279900D01*
X270884427Y-117179278D01*
X269899925Y-118163780D01*
X269540715Y-118163780D01*
X268556213Y-117179278D01*
X268287698Y-117279900D01*
X268058504Y-117895422D01*
X266282674Y-117895422D01*
X266278334Y-117775761D01*
X266072942Y-117279900D01*
X265804427Y-117179278D01*
X264819925Y-118163780D01*
X264460715Y-118163780D01*
X264446573Y-118149638D01*
X264626178Y-117970033D01*
X264640320Y-117984175D01*
X265624822Y-116999673D01*
X268735818Y-116999673D01*
X269720320Y-117984175D01*
X270704822Y-116999673D01*
X273815818Y-116999673D01*
X274800320Y-117984175D01*
X275784822Y-116999673D01*
X278895818Y-116999673D01*
X279880320Y-117984175D01*
X280864822Y-116999673D01*
X283975818Y-116999673D01*
X284960320Y-117984175D01*
X285944822Y-116999673D01*
X285844200Y-116731158D01*
X285228678Y-116501964D01*
X284572301Y-116525766D01*
X284076440Y-116731158D01*
X283975818Y-116999673D01*
X280864822Y-116999673D01*
X280764200Y-116731158D01*
X280148678Y-116501964D01*
X279492301Y-116525766D01*
X278996440Y-116731158D01*
X278895818Y-116999673D01*
X275784822Y-116999673D01*
X275684200Y-116731158D01*
X275068678Y-116501964D01*
X274412301Y-116525766D01*
X273916440Y-116731158D01*
X273815818Y-116999673D01*
X270704822Y-116999673D01*
X270604200Y-116731158D01*
X269988678Y-116501964D01*
X269332301Y-116525766D01*
X268836440Y-116731158D01*
X268735818Y-116999673D01*
X265624822Y-116999673D01*
X265524200Y-116731158D01*
X264908678Y-116501964D01*
X264252301Y-116525766D01*
X264005319Y-116628069D01*
X264005319Y-96182073D01*
X264831604Y-95355787D01*
X264831607Y-95355785D01*
X265094505Y-95092887D01*
X265276543Y-95093046D01*
X265858349Y-94852649D01*
X265858349Y-109958494D01*
X264926173Y-110890671D01*
X264926170Y-110890673D01*
X264888209Y-110928634D01*
X264567272Y-111061243D01*
X264272278Y-111355722D01*
X264112432Y-111740675D01*
X264112068Y-112157496D01*
X264271243Y-112542728D01*
X264473108Y-112744946D01*
X264442278Y-112775722D01*
X264282432Y-113160675D01*
X264282068Y-113577496D01*
X264441243Y-113962728D01*
X264735722Y-114257722D01*
X265120675Y-114417568D01*
X265537496Y-114417932D01*
X265922728Y-114258757D01*
X266217722Y-113964278D01*
X266351818Y-113641338D01*
X268326579Y-111666578D01*
X268478540Y-111439151D01*
X268524795Y-111369926D01*
X268594400Y-111020000D01*
X268594400Y-94291741D01*
X268629114Y-94375755D01*
X269093143Y-94840594D01*
X269699735Y-95092473D01*
X270356543Y-95093046D01*
X270963575Y-94842226D01*
X271428414Y-94378197D01*
X271680293Y-93771605D01*
X271680295Y-93768723D01*
X273458294Y-93768723D01*
X273709114Y-94375755D01*
X274173143Y-94840594D01*
X274779735Y-95092473D01*
X275436543Y-95093046D01*
X276043575Y-94842226D01*
X276508414Y-94378197D01*
X276760293Y-93771605D01*
X276760295Y-93768723D01*
X278538294Y-93768723D01*
X278789114Y-94375755D01*
X279253143Y-94840594D01*
X279859735Y-95092473D01*
X280516543Y-95093046D01*
X281123575Y-94842226D01*
X281588414Y-94378197D01*
X281840293Y-93771605D01*
X281840295Y-93768723D01*
X283618294Y-93768723D01*
X283869114Y-94375755D01*
X284333143Y-94840594D01*
X284939735Y-95092473D01*
X285596543Y-95093046D01*
X286203575Y-94842226D01*
X286668414Y-94378197D01*
X286920293Y-93771605D01*
X286920866Y-93114797D01*
X286670046Y-92507765D01*
X286206017Y-92042926D01*
X285599425Y-91791047D01*
X284942617Y-91790474D01*
X284335585Y-92041294D01*
X283870746Y-92505323D01*
X283618867Y-93111915D01*
X283618294Y-93768723D01*
X281840295Y-93768723D01*
X281840866Y-93114797D01*
X281590046Y-92507765D01*
X281126017Y-92042926D01*
X280519425Y-91791047D01*
X279862617Y-91790474D01*
X279255585Y-92041294D01*
X278790746Y-92505323D01*
X278538867Y-93111915D01*
X278538294Y-93768723D01*
X276760295Y-93768723D01*
X276760866Y-93114797D01*
X276510046Y-92507765D01*
X276046017Y-92042926D01*
X275439425Y-91791047D01*
X274782617Y-91790474D01*
X274175585Y-92041294D01*
X273710746Y-92505323D01*
X273458867Y-93111915D01*
X273458294Y-93768723D01*
X271680295Y-93768723D01*
X271680866Y-93114797D01*
X271430046Y-92507765D01*
X270966017Y-92042926D01*
X270359425Y-91791047D01*
X269702617Y-91790474D01*
X269095585Y-92041294D01*
X268630746Y-92505323D01*
X268594400Y-92592854D01*
X268594400Y-90270030D01*
X268727568Y-89949325D01*
X268727932Y-89532504D01*
X268568757Y-89147272D01*
X268274278Y-88852278D01*
X267889325Y-88692432D01*
X267472504Y-88692068D01*
X267087272Y-88851243D01*
X266955141Y-88983143D01*
X266954278Y-88982278D01*
X266569325Y-88822432D01*
X266152504Y-88822068D01*
X265767272Y-88981243D01*
X265472278Y-89275722D01*
X265312432Y-89660675D01*
X265312068Y-90077496D01*
X265471243Y-90462728D01*
X265765722Y-90757722D01*
X265858349Y-90796184D01*
X265858349Y-92031437D01*
X265279425Y-91791047D01*
X264622617Y-91790474D01*
X264015585Y-92041294D01*
X263550746Y-92505323D01*
X263298867Y-93111915D01*
X263298706Y-93296582D01*
X263035555Y-93559733D01*
X263035553Y-93559736D01*
X261837293Y-94757995D01*
X261561992Y-95170013D01*
X261465318Y-95656021D01*
X261465319Y-95656026D01*
X261465319Y-122573405D01*
X260097501Y-123941223D01*
X260097501Y-87450000D01*
X274999995Y-87450000D01*
X275000000Y-87450001D01*
X275486008Y-87353327D01*
X275898026Y-87078026D01*
X278998026Y-83978026D01*
X279273327Y-83566008D01*
X279370001Y-83080000D01*
X279370000Y-83079995D01*
X279370000Y-80033672D01*
X285664144Y-73739527D01*
X285846183Y-73739686D01*
X286453215Y-73488866D01*
X286918054Y-73024837D01*
X287169933Y-72418245D01*
X287170506Y-71761437D01*
X286919686Y-71154405D01*
X286455657Y-70689566D01*
X285849065Y-70437687D01*
X285192257Y-70437114D01*
X284585225Y-70687934D01*
X284120386Y-71151963D01*
X283868507Y-71758555D01*
X283868346Y-71943223D01*
X277201974Y-78609594D01*
X276926673Y-79021612D01*
X276829999Y-79507620D01*
X276830000Y-79507625D01*
X276830000Y-82553948D01*
X274473948Y-84910000D01*
X260481327Y-84910000D01*
X256052145Y-80480818D01*
X256414380Y-80331146D01*
X256789827Y-79956353D01*
X256896208Y-79700159D01*
X256988854Y-79924380D01*
X257363647Y-80299827D01*
X257853587Y-80503268D01*
X258384086Y-80503731D01*
X258874380Y-80301146D01*
X259249827Y-79926353D01*
X259453268Y-79436413D01*
X259453731Y-78905914D01*
X259251146Y-78415620D01*
X259191640Y-78356010D01*
X275441605Y-78356010D01*
X275441610Y-78356011D01*
X275927618Y-78259337D01*
X276339636Y-77984036D01*
X280584144Y-73739527D01*
X280766183Y-73739686D01*
X281373215Y-73488866D01*
X281838054Y-73024837D01*
X282089933Y-72418245D01*
X282090506Y-71761437D01*
X281839686Y-71154405D01*
X281375657Y-70689566D01*
X280769065Y-70437687D01*
X280112257Y-70437114D01*
X279505225Y-70687934D01*
X279040386Y-71151963D01*
X278788507Y-71758555D01*
X278788346Y-71943223D01*
X274915558Y-75816010D01*
X273427662Y-75816010D01*
X275504144Y-73739527D01*
X275686183Y-73739686D01*
X276293215Y-73488866D01*
X276758054Y-73024837D01*
X277009933Y-72418245D01*
X277010506Y-71761437D01*
X276759686Y-71154405D01*
X276295657Y-70689566D01*
X275689065Y-70437687D01*
X275032257Y-70437114D01*
X274425225Y-70687934D01*
X273960386Y-71151963D01*
X273708507Y-71758555D01*
X273708346Y-71943223D01*
X271359569Y-74291999D01*
X263354833Y-74291999D01*
X264211235Y-73435596D01*
X264262783Y-73487234D01*
X264869375Y-73739113D01*
X265526183Y-73739686D01*
X266133215Y-73488866D01*
X266598054Y-73024837D01*
X266849933Y-72418245D01*
X266850506Y-71761437D01*
X266599686Y-71154405D01*
X266135657Y-70689566D01*
X265529065Y-70437687D01*
X264872257Y-70437114D01*
X264265225Y-70687934D01*
X264134531Y-70818400D01*
X263762380Y-70818400D01*
X263276372Y-70915073D01*
X262864354Y-71190374D01*
X262864352Y-71190377D01*
X261286739Y-72767989D01*
X258664204Y-72767989D01*
X258874380Y-72681146D01*
X259249827Y-72306353D01*
X259453268Y-71816413D01*
X259453731Y-71285914D01*
X259251146Y-70795620D01*
X258876353Y-70420173D01*
X258386413Y-70216732D01*
X257855914Y-70216269D01*
X257365620Y-70418854D01*
X256990173Y-70793647D01*
X256883792Y-71049841D01*
X256791146Y-70825620D01*
X256416353Y-70450173D01*
X255926413Y-70246732D01*
X255395914Y-70246269D01*
X254905620Y-70448854D01*
X254688496Y-70665600D01*
X254517892Y-70665600D01*
X254398757Y-70377272D01*
X254104278Y-70082278D01*
X254103606Y-70081999D01*
X266476767Y-70081999D01*
X268365193Y-71970424D01*
X268365195Y-71970427D01*
X268628093Y-72233325D01*
X268627934Y-72415363D01*
X268878754Y-73022395D01*
X269342783Y-73487234D01*
X269949375Y-73739113D01*
X270606183Y-73739686D01*
X271213215Y-73488866D01*
X271678054Y-73024837D01*
X271929933Y-72418245D01*
X271930506Y-71761437D01*
X271679686Y-71154405D01*
X271215657Y-70689566D01*
X270609065Y-70437687D01*
X270424398Y-70437526D01*
X270161247Y-70174375D01*
X270161244Y-70174373D01*
X268234083Y-68247211D01*
X285284567Y-68247211D01*
X290602789Y-73565434D01*
G36*
X178664770Y-61249923D02*
X178935380Y-61521006D01*
X178935380Y-62482394D01*
X178562504Y-62482068D01*
X178177272Y-62641243D01*
X177882278Y-62935722D01*
X177748182Y-63258662D01*
X175371244Y-65635600D01*
X157085451Y-65635603D01*
X156735525Y-65705208D01*
X156654749Y-65759181D01*
X156438872Y-65903425D01*
X142318259Y-80024039D01*
X141553387Y-80024039D01*
X141203461Y-80093644D01*
X141131726Y-80141576D01*
X140906809Y-80291860D01*
X140101121Y-81097549D01*
X139902904Y-81394201D01*
X139833299Y-81744127D01*
X139833299Y-91098439D01*
X139902904Y-91448365D01*
X140090295Y-91728815D01*
X140101121Y-91745017D01*
X140634522Y-92278419D01*
X140634525Y-92278421D01*
X140654518Y-92298414D01*
X140646387Y-92317995D01*
X140645814Y-92974803D01*
X140896634Y-93581835D01*
X141360663Y-94046674D01*
X141967255Y-94298553D01*
X142624063Y-94299126D01*
X143231095Y-94048306D01*
X143695934Y-93584277D01*
X143947813Y-92977685D01*
X143948386Y-92320877D01*
X143697566Y-91713845D01*
X143233537Y-91249006D01*
X142626945Y-90997127D01*
X141970137Y-90996554D01*
X141948083Y-91005667D01*
X141927681Y-90985265D01*
X141927679Y-90985262D01*
X141662099Y-90719682D01*
X141662099Y-89091841D01*
X141967255Y-89218553D01*
X142624063Y-89219126D01*
X143231095Y-88968306D01*
X143695934Y-88504277D01*
X143947813Y-87897685D01*
X143948386Y-87240877D01*
X143697566Y-86633845D01*
X143233537Y-86169006D01*
X142626945Y-85917127D01*
X141970137Y-85916554D01*
X141662099Y-86043832D01*
X141662099Y-84011841D01*
X141967255Y-84138553D01*
X142624063Y-84139126D01*
X143231095Y-83888306D01*
X143695934Y-83424277D01*
X143947813Y-82817685D01*
X143948386Y-82160877D01*
X143939274Y-82138823D01*
X143959678Y-82118419D01*
X143959680Y-82118416D01*
X153134073Y-72944023D01*
X163576934Y-72944023D01*
X163827754Y-73551055D01*
X164291783Y-74015894D01*
X164898375Y-74267773D01*
X165555183Y-74268346D01*
X166162215Y-74017526D01*
X166627054Y-73553497D01*
X166878933Y-72946905D01*
X166879506Y-72290097D01*
X166628686Y-71683065D01*
X166164657Y-71218226D01*
X165558065Y-70966347D01*
X164901257Y-70965774D01*
X164294225Y-71216594D01*
X163829386Y-71680623D01*
X163577507Y-72287215D01*
X163576934Y-72944023D01*
X153134073Y-72944023D01*
X157800886Y-68277211D01*
X175959632Y-68277211D01*
X166875775Y-77361068D01*
X166628686Y-76763065D01*
X166164657Y-76298226D01*
X165558065Y-76046347D01*
X164901257Y-76045774D01*
X164294225Y-76296594D01*
X163829386Y-76760623D01*
X163577507Y-77367215D01*
X163576934Y-78024023D01*
X163827754Y-78631055D01*
X164291783Y-79095894D01*
X164891801Y-79345043D01*
X163032241Y-81204603D01*
X162834024Y-81501255D01*
X162764419Y-81851181D01*
X162764419Y-91387659D01*
X162834024Y-91737585D01*
X163012569Y-92004796D01*
X163032241Y-92034237D01*
X163565642Y-92567639D01*
X163565645Y-92567641D01*
X163585638Y-92587634D01*
X163577507Y-92607215D01*
X163576934Y-93264023D01*
X163827754Y-93871055D01*
X164291783Y-94335894D01*
X164898375Y-94587773D01*
X165555183Y-94588346D01*
X166162215Y-94337526D01*
X166627054Y-93873497D01*
X166878933Y-93266905D01*
X166879506Y-92610097D01*
X166628686Y-92003065D01*
X166164657Y-91538226D01*
X165558065Y-91286347D01*
X164901257Y-91285774D01*
X164879203Y-91294887D01*
X164858801Y-91274485D01*
X164858799Y-91274482D01*
X164593219Y-91008902D01*
X164593219Y-89381061D01*
X164898375Y-89507773D01*
X165555183Y-89508346D01*
X166162215Y-89257526D01*
X166627054Y-88793497D01*
X166878933Y-88186905D01*
X166879506Y-87530097D01*
X166628686Y-86923065D01*
X166164657Y-86458226D01*
X165558065Y-86206347D01*
X164901257Y-86205774D01*
X164593219Y-86333052D01*
X164593219Y-84301061D01*
X164898375Y-84427773D01*
X165555183Y-84428346D01*
X166162215Y-84177526D01*
X166627054Y-83713497D01*
X166878933Y-83106905D01*
X166879506Y-82450097D01*
X166870393Y-82428043D01*
X181748665Y-67549772D01*
X181748590Y-67635844D01*
X181907765Y-68021076D01*
X182202244Y-68316070D01*
X182587197Y-68475916D01*
X182828283Y-68476127D01*
X182828283Y-68970731D01*
X182897888Y-69320657D01*
X183086178Y-69602452D01*
X183096105Y-69617309D01*
X183634381Y-70155586D01*
X183634381Y-78321501D01*
X183703986Y-78671427D01*
X183879156Y-78933587D01*
X183902203Y-78968079D01*
X187162422Y-82228299D01*
X187162425Y-82228301D01*
X187182418Y-82248294D01*
X187174287Y-82267875D01*
X187173714Y-82924683D01*
X187424534Y-83531715D01*
X187888563Y-83996554D01*
X188495155Y-84248433D01*
X189151963Y-84249006D01*
X189460001Y-84121728D01*
X189460001Y-86153719D01*
X189154845Y-86027007D01*
X188498037Y-86026434D01*
X187891005Y-86277254D01*
X187426166Y-86741283D01*
X187174287Y-87347875D01*
X187173714Y-88004683D01*
X187424534Y-88611715D01*
X187888563Y-89076554D01*
X188495155Y-89328433D01*
X189151963Y-89329006D01*
X189460001Y-89201728D01*
X189460001Y-90829563D01*
X189194424Y-91095140D01*
X189194421Y-91095142D01*
X189174425Y-91115138D01*
X189154845Y-91107007D01*
X188498037Y-91106434D01*
X187891005Y-91357254D01*
X187426166Y-91821283D01*
X187174287Y-92427875D01*
X187173714Y-93084683D01*
X187424534Y-93691715D01*
X187888563Y-94156554D01*
X188495155Y-94408433D01*
X189151963Y-94409006D01*
X189758995Y-94158186D01*
X190223834Y-93694157D01*
X190475713Y-93087565D01*
X190476286Y-92430757D01*
X190467174Y-92408703D01*
X190487578Y-92388299D01*
X190487580Y-92388296D01*
X191020979Y-91854898D01*
X191146847Y-91666523D01*
X191219196Y-91558245D01*
X191288801Y-91208319D01*
X191288801Y-81854007D01*
X191219196Y-81504081D01*
X191129230Y-81369438D01*
X191020980Y-81207429D01*
X188982409Y-79168858D01*
X189151963Y-79169006D01*
X189758995Y-78918186D01*
X190223834Y-78454157D01*
X190475713Y-77847565D01*
X190476286Y-77190757D01*
X190225466Y-76583725D01*
X189761437Y-76118886D01*
X189154845Y-75867007D01*
X188498037Y-75866434D01*
X187891005Y-76117254D01*
X187426166Y-76581283D01*
X187174287Y-77187875D01*
X187174136Y-77360586D01*
X186354400Y-76540850D01*
X186354400Y-69486546D01*
X186284795Y-69136620D01*
X186256518Y-69094300D01*
X187162164Y-69094300D01*
X188854609Y-70786745D01*
X188498037Y-70786434D01*
X187891005Y-71037254D01*
X187426166Y-71501283D01*
X187174287Y-72107875D01*
X187173714Y-72764683D01*
X187424534Y-73371715D01*
X187888563Y-73836554D01*
X188495155Y-74088433D01*
X189151963Y-74089006D01*
X189174017Y-74079893D01*
X196935600Y-81841477D01*
X196935600Y-122619970D01*
X196802432Y-122940675D01*
X196802068Y-123357496D01*
X196961243Y-123742728D01*
X197255722Y-124037722D01*
X197640675Y-124197568D01*
X198057496Y-124197932D01*
X198442728Y-124038757D01*
X198737722Y-123744278D01*
X198897568Y-123359325D01*
X198897932Y-122942504D01*
X198764400Y-122619333D01*
X198764400Y-114024533D01*
X209705818Y-114024533D01*
X210690320Y-115009035D01*
X211674822Y-114024533D01*
X211574200Y-113756018D01*
X210958678Y-113526824D01*
X210302301Y-113550626D01*
X209806440Y-113756018D01*
X209705818Y-114024533D01*
X198764400Y-114024533D01*
X198764400Y-110435603D01*
X209039034Y-110435603D01*
X209289854Y-111042635D01*
X209753883Y-111507474D01*
X210360475Y-111759353D01*
X211017283Y-111759926D01*
X211624315Y-111509106D01*
X212089154Y-111045077D01*
X212341033Y-110438485D01*
X212341606Y-109781677D01*
X212090786Y-109174645D01*
X211626757Y-108709806D01*
X211020165Y-108457927D01*
X210363357Y-108457354D01*
X209756325Y-108708174D01*
X209291486Y-109172203D01*
X209039607Y-109778795D01*
X209039034Y-110435603D01*
X198764400Y-110435603D01*
X198764400Y-105355603D01*
X209039034Y-105355603D01*
X209289854Y-105962635D01*
X209753883Y-106427474D01*
X210360475Y-106679353D01*
X211017283Y-106679926D01*
X211624315Y-106429106D01*
X212089154Y-105965077D01*
X212341033Y-105358485D01*
X212341606Y-104701677D01*
X212090786Y-104094645D01*
X211626757Y-103629806D01*
X211020165Y-103377927D01*
X210363357Y-103377354D01*
X209756325Y-103628174D01*
X209291486Y-104092203D01*
X209039607Y-104698795D01*
X209039034Y-105355603D01*
X198764400Y-105355603D01*
X198764400Y-100275603D01*
X209039034Y-100275603D01*
X209289854Y-100882635D01*
X209753883Y-101347474D01*
X210360475Y-101599353D01*
X211017283Y-101599926D01*
X211624315Y-101349106D01*
X212089154Y-100885077D01*
X212341033Y-100278485D01*
X212341606Y-99621677D01*
X212090786Y-99014645D01*
X211626757Y-98549806D01*
X211020165Y-98297927D01*
X210363357Y-98297354D01*
X209756325Y-98548174D01*
X209291486Y-99012203D01*
X209039607Y-99618795D01*
X209039034Y-100275603D01*
X198764400Y-100275603D01*
X198764400Y-81462720D01*
X198694795Y-81112794D01*
X198677810Y-81087374D01*
X198496578Y-80816141D01*
X190467582Y-72787146D01*
X190475713Y-72767565D01*
X190476027Y-72408163D01*
X203215600Y-85147736D01*
X203215600Y-88229486D01*
X203285205Y-88579412D01*
X203447343Y-88822068D01*
X203483422Y-88876064D01*
X206203052Y-91595695D01*
X206215719Y-91659374D01*
X206390573Y-91921061D01*
X206413936Y-91956026D01*
X209334487Y-94876578D01*
X209435043Y-94943767D01*
X209631140Y-95074795D01*
X209981066Y-95144400D01*
X211313214Y-95144400D01*
X211663140Y-95074795D01*
X211959792Y-94876578D01*
X213384360Y-93452011D01*
X213384360Y-115291757D01*
X212840004Y-115836114D01*
X212210969Y-115836114D01*
X212352136Y-115456998D01*
X212328334Y-114800621D01*
X212122942Y-114304760D01*
X211854427Y-114204138D01*
X210869925Y-115188640D01*
X210884068Y-115202783D01*
X210704463Y-115382388D01*
X210690320Y-115368245D01*
X210676178Y-115382388D01*
X210496573Y-115202783D01*
X210510715Y-115188640D01*
X209526213Y-114204138D01*
X209257698Y-114304760D01*
X209028504Y-114920282D01*
X209052306Y-115576659D01*
X209159776Y-115836114D01*
X207601046Y-115836114D01*
X207251121Y-115905718D01*
X206954468Y-116103935D01*
X194442704Y-128615700D01*
X194442701Y-128615702D01*
X194422705Y-128635698D01*
X194403125Y-128627567D01*
X193746317Y-128626994D01*
X193139285Y-128877814D01*
X192674446Y-129341843D01*
X192422567Y-129948435D01*
X192421994Y-130605243D01*
X192672814Y-131212275D01*
X193136843Y-131677114D01*
X193254790Y-131726090D01*
X189812694Y-131726090D01*
X189927275Y-131678746D01*
X190392114Y-131214717D01*
X190643993Y-130608125D01*
X190644566Y-129951317D01*
X190393746Y-129344285D01*
X189929717Y-128879446D01*
X189907680Y-128870295D01*
X189907680Y-123625476D01*
X195561791Y-117971366D01*
X195882728Y-117838757D01*
X196177722Y-117544278D01*
X196337568Y-117159325D01*
X196337932Y-116742504D01*
X196178757Y-116357272D01*
X195884278Y-116062278D01*
X195499325Y-115902432D01*
X195082504Y-115902068D01*
X194697272Y-116061243D01*
X194402278Y-116355722D01*
X194268183Y-116678660D01*
X190484929Y-120461915D01*
X190463014Y-119857581D01*
X190257622Y-119361720D01*
X189989107Y-119261098D01*
X189004605Y-120245600D01*
X189018748Y-120259743D01*
X188839143Y-120439348D01*
X188825000Y-120425205D01*
X187840498Y-121409707D01*
X187941120Y-121678222D01*
X188556642Y-121907416D01*
X189057594Y-121889250D01*
X188346702Y-122600142D01*
X188148485Y-122896794D01*
X188078880Y-123246720D01*
X188078880Y-128869718D01*
X188059285Y-128877814D01*
X187594446Y-129341843D01*
X187342567Y-129948435D01*
X187341994Y-130605243D01*
X187592814Y-131212275D01*
X188056843Y-131677114D01*
X188174790Y-131726090D01*
X174269127Y-131726090D01*
X173994102Y-131451066D01*
X174002233Y-131431485D01*
X174002806Y-130774677D01*
X173751986Y-130167645D01*
X173287957Y-129702806D01*
X172681365Y-129450927D01*
X172024557Y-129450354D01*
X171417525Y-129701174D01*
X170952686Y-130165203D01*
X170700807Y-130771795D01*
X170700234Y-131428603D01*
X170951054Y-132035635D01*
X171415083Y-132500474D01*
X171507625Y-132538901D01*
X170001938Y-132538901D01*
X168914102Y-131451066D01*
X168922233Y-131431485D01*
X168922806Y-130774677D01*
X168671986Y-130167645D01*
X168207957Y-129702806D01*
X167601365Y-129450927D01*
X166944557Y-129450354D01*
X166337525Y-129701174D01*
X165872686Y-130165203D01*
X165620807Y-130771795D01*
X165620234Y-131428603D01*
X165871054Y-132035635D01*
X166335083Y-132500474D01*
X166941675Y-132752353D01*
X167598483Y-132752926D01*
X167620537Y-132743813D01*
X168352323Y-133475600D01*
X160778637Y-133475600D01*
X158754102Y-131451066D01*
X158762233Y-131431485D01*
X158762806Y-130774677D01*
X158635528Y-130466639D01*
X160263363Y-130466639D01*
X160548938Y-130752214D01*
X160540807Y-130771795D01*
X160540234Y-131428603D01*
X160791054Y-132035635D01*
X161255083Y-132500474D01*
X161861675Y-132752353D01*
X162518483Y-132752926D01*
X163125515Y-132502106D01*
X163590354Y-132038077D01*
X163842233Y-131431485D01*
X163842806Y-130774677D01*
X163591986Y-130167645D01*
X163127957Y-129702806D01*
X162521365Y-129450927D01*
X161864557Y-129450354D01*
X161842503Y-129459467D01*
X161288697Y-128905661D01*
X161258856Y-128885722D01*
X160992045Y-128707444D01*
X160642119Y-128637839D01*
X156367807Y-128637839D01*
X156017881Y-128707444D01*
X155921165Y-128772068D01*
X155721229Y-128905660D01*
X154915541Y-129711349D01*
X154717324Y-130008001D01*
X154647719Y-130357927D01*
X154647719Y-131845353D01*
X154717324Y-132195279D01*
X154835165Y-132371640D01*
X154915541Y-132491931D01*
X158272997Y-135849388D01*
X158421324Y-135948496D01*
X158569650Y-136047605D01*
X158919576Y-136117210D01*
X210417190Y-136117210D01*
X210767116Y-136047605D01*
X211063768Y-135849388D01*
X216355788Y-130557368D01*
X216595722Y-130797722D01*
X216980675Y-130957568D01*
X217397496Y-130957932D01*
X217782728Y-130798757D01*
X218077722Y-130504278D01*
X218168620Y-130285371D01*
X218195600Y-130350667D01*
X218195600Y-142568433D01*
X212779834Y-147984200D01*
X209507042Y-147984200D01*
X209498946Y-147964605D01*
X209034917Y-147499766D01*
X208428325Y-147247887D01*
X207771517Y-147247314D01*
X207749463Y-147256427D01*
X207729061Y-147236025D01*
X207729059Y-147236022D01*
X204757227Y-144264191D01*
X204683301Y-144214795D01*
X204460575Y-144065974D01*
X204110649Y-143996369D01*
X186024739Y-143996369D01*
X185674813Y-144065974D01*
X185578914Y-144130052D01*
X185378160Y-144264191D01*
X183144071Y-146498281D01*
X182945854Y-146794933D01*
X182876249Y-147144859D01*
X182876249Y-150213092D01*
X173686578Y-141023422D01*
X173686577Y-141023421D01*
X173389926Y-140825205D01*
X173040000Y-140755600D01*
X164700000Y-140755600D01*
X164350074Y-140825205D01*
X164231252Y-140904599D01*
X164053422Y-141023421D01*
X157671389Y-147405455D01*
X157663085Y-147402007D01*
X157006277Y-147401434D01*
X156399245Y-147652254D01*
X155934406Y-148116283D01*
X155682527Y-148722875D01*
X155681954Y-149379683D01*
X155932774Y-149986715D01*
X156357612Y-150412295D01*
X156281569Y-150397169D01*
X153243350Y-150397169D01*
X153652074Y-149989157D01*
X153903953Y-149382565D01*
X153904526Y-148725757D01*
X153653706Y-148118725D01*
X153523240Y-147988031D01*
X153523240Y-137427496D01*
X205202068Y-137427496D01*
X205361243Y-137812728D01*
X205655722Y-138107722D01*
X206040675Y-138267568D01*
X206457496Y-138267932D01*
X206780667Y-138134400D01*
X215902493Y-138134400D01*
X215955722Y-138187722D01*
X216340675Y-138347568D01*
X216757496Y-138347932D01*
X217142728Y-138188757D01*
X217437722Y-137894278D01*
X217597568Y-137509325D01*
X217597932Y-137092504D01*
X217438757Y-136707272D01*
X217144278Y-136412278D01*
X216759325Y-136252432D01*
X216342504Y-136252068D01*
X216212947Y-136305600D01*
X206780030Y-136305600D01*
X206459325Y-136172432D01*
X206042504Y-136172068D01*
X205657272Y-136331243D01*
X205362278Y-136625722D01*
X205202432Y-137010675D01*
X205202068Y-137427496D01*
X153523240Y-137427496D01*
X153523240Y-131814383D01*
X153682233Y-131431485D01*
X153682806Y-130774677D01*
X153431986Y-130167645D01*
X153301520Y-130036951D01*
X153301520Y-121667787D01*
X164243718Y-121667787D01*
X164344340Y-121936302D01*
X164959862Y-122165496D01*
X165616239Y-122141694D01*
X166112100Y-121936302D01*
X166212722Y-121667787D01*
X165228220Y-120683285D01*
X164243718Y-121667787D01*
X153301520Y-121667787D01*
X153301520Y-120235322D01*
X163566404Y-120235322D01*
X163590206Y-120891699D01*
X163795598Y-121387560D01*
X164064113Y-121488182D01*
X165048615Y-120503680D01*
X165407825Y-120503680D01*
X166392327Y-121488182D01*
X166660842Y-121387560D01*
X166890036Y-120772038D01*
X166866234Y-120115661D01*
X166808900Y-119977242D01*
X187163184Y-119977242D01*
X187186986Y-120633619D01*
X187392378Y-121129480D01*
X187660893Y-121230102D01*
X188645395Y-120245600D01*
X187660893Y-119261098D01*
X187392378Y-119361720D01*
X187163184Y-119977242D01*
X166808900Y-119977242D01*
X166660842Y-119619800D01*
X166392327Y-119519178D01*
X165407825Y-120503680D01*
X165048615Y-120503680D01*
X164064113Y-119519178D01*
X163795598Y-119619800D01*
X163566404Y-120235322D01*
X153301520Y-120235322D01*
X153301520Y-119339573D01*
X164243718Y-119339573D01*
X165228220Y-120324075D01*
X166212722Y-119339573D01*
X166116011Y-119081493D01*
X187840498Y-119081493D01*
X188825000Y-120065995D01*
X189809502Y-119081493D01*
X189708880Y-118812978D01*
X189093358Y-118583784D01*
X188436981Y-118607586D01*
X187941120Y-118812978D01*
X187840498Y-119081493D01*
X166116011Y-119081493D01*
X166112100Y-119071058D01*
X165496578Y-118841864D01*
X164840201Y-118865666D01*
X164344340Y-119071058D01*
X164243718Y-119339573D01*
X153301520Y-119339573D01*
X153301520Y-116587787D01*
X164243718Y-116587787D01*
X164344340Y-116856302D01*
X164959862Y-117085496D01*
X165616239Y-117061694D01*
X166112100Y-116856302D01*
X166212722Y-116587787D01*
X165228220Y-115603285D01*
X164243718Y-116587787D01*
X153301520Y-116587787D01*
X153301520Y-115155322D01*
X163566404Y-115155322D01*
X163590206Y-115811699D01*
X163795598Y-116307560D01*
X164064113Y-116408182D01*
X165048615Y-115423680D01*
X165407825Y-115423680D01*
X166392327Y-116408182D01*
X166601741Y-116329707D01*
X187840498Y-116329707D01*
X187941120Y-116598222D01*
X188556642Y-116827416D01*
X189213019Y-116803614D01*
X189708880Y-116598222D01*
X189809502Y-116329707D01*
X188825000Y-115345205D01*
X187840498Y-116329707D01*
X166601741Y-116329707D01*
X166660842Y-116307560D01*
X166890036Y-115692038D01*
X166866234Y-115035661D01*
X166808900Y-114897242D01*
X187163184Y-114897242D01*
X187186986Y-115553619D01*
X187392378Y-116049480D01*
X187660893Y-116150102D01*
X188645395Y-115165600D01*
X189004605Y-115165600D01*
X189989107Y-116150102D01*
X190257622Y-116049480D01*
X190486816Y-115433958D01*
X190463014Y-114777581D01*
X190257622Y-114281720D01*
X189989107Y-114181098D01*
X189004605Y-115165600D01*
X188645395Y-115165600D01*
X187660893Y-114181098D01*
X187392378Y-114281720D01*
X187163184Y-114897242D01*
X166808900Y-114897242D01*
X166660842Y-114539800D01*
X166392327Y-114439178D01*
X165407825Y-115423680D01*
X165048615Y-115423680D01*
X164064113Y-114439178D01*
X163795598Y-114539800D01*
X163566404Y-115155322D01*
X153301520Y-115155322D01*
X153301520Y-114259573D01*
X164243718Y-114259573D01*
X165228220Y-115244075D01*
X166212722Y-114259573D01*
X166116011Y-114001493D01*
X187840498Y-114001493D01*
X188825000Y-114985995D01*
X189809502Y-114001493D01*
X189708880Y-113732978D01*
X189093358Y-113503784D01*
X188436981Y-113527586D01*
X187941120Y-113732978D01*
X187840498Y-114001493D01*
X166116011Y-114001493D01*
X166112100Y-113991058D01*
X165496578Y-113761864D01*
X164840201Y-113785666D01*
X164344340Y-113991058D01*
X164243718Y-114259573D01*
X153301520Y-114259573D01*
X153301520Y-110670643D01*
X163576934Y-110670643D01*
X163827754Y-111277675D01*
X164291783Y-111742514D01*
X164898375Y-111994393D01*
X165555183Y-111994966D01*
X166162215Y-111744146D01*
X166627054Y-111280117D01*
X166878933Y-110673525D01*
X166879160Y-110412563D01*
X187173714Y-110412563D01*
X187424534Y-111019595D01*
X187888563Y-111484434D01*
X188495155Y-111736313D01*
X189151963Y-111736886D01*
X189758995Y-111486066D01*
X190223834Y-111022037D01*
X190475713Y-110415445D01*
X190476286Y-109758637D01*
X190225466Y-109151605D01*
X189761437Y-108686766D01*
X189154845Y-108434887D01*
X188498037Y-108434314D01*
X187891005Y-108685134D01*
X187426166Y-109149163D01*
X187174287Y-109755755D01*
X187173714Y-110412563D01*
X166879160Y-110412563D01*
X166879506Y-110016717D01*
X166628686Y-109409685D01*
X166164657Y-108944846D01*
X165558065Y-108692967D01*
X164901257Y-108692394D01*
X164294225Y-108943214D01*
X163829386Y-109407243D01*
X163577507Y-110013835D01*
X163576934Y-110670643D01*
X153301520Y-110670643D01*
X153301520Y-109636500D01*
X153204847Y-109150492D01*
X152929546Y-108738474D01*
X152929543Y-108738472D01*
X149781715Y-105590643D01*
X163576934Y-105590643D01*
X163827754Y-106197675D01*
X164291783Y-106662514D01*
X164898375Y-106914393D01*
X165555183Y-106914966D01*
X166162215Y-106664146D01*
X166627054Y-106200117D01*
X166878933Y-105593525D01*
X166879160Y-105332563D01*
X187173714Y-105332563D01*
X187424534Y-105939595D01*
X187888563Y-106404434D01*
X188495155Y-106656313D01*
X189151963Y-106656886D01*
X189758995Y-106406066D01*
X190223834Y-105942037D01*
X190475713Y-105335445D01*
X190476286Y-104678637D01*
X190225466Y-104071605D01*
X189761437Y-103606766D01*
X189154845Y-103354887D01*
X188498037Y-103354314D01*
X187891005Y-103605134D01*
X187426166Y-104069163D01*
X187174287Y-104675755D01*
X187173714Y-105332563D01*
X166879160Y-105332563D01*
X166879506Y-104936717D01*
X166628686Y-104329685D01*
X166164657Y-103864846D01*
X165558065Y-103612967D01*
X164901257Y-103612394D01*
X164294225Y-103863214D01*
X163829386Y-104327243D01*
X163577507Y-104933835D01*
X163576934Y-105590643D01*
X149781715Y-105590643D01*
X144701715Y-100510643D01*
X163576934Y-100510643D01*
X163827754Y-101117675D01*
X164291783Y-101582514D01*
X164898375Y-101834393D01*
X165555183Y-101834966D01*
X166162215Y-101584146D01*
X166627054Y-101120117D01*
X166878933Y-100513525D01*
X166879160Y-100252563D01*
X187173714Y-100252563D01*
X187424534Y-100859595D01*
X187888563Y-101324434D01*
X188495155Y-101576313D01*
X189151963Y-101576886D01*
X189758995Y-101326066D01*
X190223834Y-100862037D01*
X190475713Y-100255445D01*
X190476286Y-99598637D01*
X190225466Y-98991605D01*
X189761437Y-98526766D01*
X189154845Y-98274887D01*
X188498037Y-98274314D01*
X187891005Y-98525134D01*
X187426166Y-98989163D01*
X187174287Y-99595755D01*
X187173714Y-100252563D01*
X166879160Y-100252563D01*
X166879506Y-99856717D01*
X166628686Y-99249685D01*
X166164657Y-98784846D01*
X165558065Y-98532967D01*
X164901257Y-98532394D01*
X164294225Y-98783214D01*
X163829386Y-99247243D01*
X163577507Y-99853835D01*
X163576934Y-100510643D01*
X144701715Y-100510643D01*
X143839007Y-99647935D01*
X143839166Y-99465897D01*
X143588346Y-98858865D01*
X143124317Y-98394026D01*
X142517725Y-98142147D01*
X141860917Y-98141574D01*
X141253885Y-98392394D01*
X140789046Y-98856423D01*
X140537167Y-99463015D01*
X140536594Y-100119823D01*
X140787414Y-100726855D01*
X141251443Y-101191694D01*
X141858035Y-101443573D01*
X142042702Y-101443734D01*
X150761520Y-110162551D01*
X150761520Y-130036593D01*
X150632686Y-130165203D01*
X150380807Y-130771795D01*
X150380234Y-131428603D01*
X150631054Y-132035635D01*
X150983240Y-132388436D01*
X150983240Y-147987673D01*
X150854406Y-148116283D01*
X150602527Y-148722875D01*
X150601954Y-149379683D01*
X150852774Y-149986715D01*
X151262513Y-150397169D01*
X137802833Y-150397169D01*
X137802833Y-147221500D01*
X139294060Y-147221500D01*
X139294060Y-148618500D01*
X139338338Y-148853817D01*
X139477410Y-149069941D01*
X139689610Y-149214931D01*
X139941500Y-149265940D01*
X141338500Y-149265940D01*
X141573817Y-149221662D01*
X141789941Y-149082590D01*
X141934931Y-148870390D01*
X141985940Y-148618500D01*
X141985940Y-147221500D01*
X141941662Y-146986183D01*
X141802590Y-146770059D01*
X141590390Y-146625069D01*
X141338500Y-146574060D01*
X141242116Y-146574060D01*
X141394380Y-146511146D01*
X141769827Y-146136353D01*
X141973268Y-145646413D01*
X141973731Y-145115914D01*
X141771146Y-144625620D01*
X141396353Y-144250173D01*
X141058554Y-144109906D01*
X141394380Y-143971146D01*
X141769827Y-143596353D01*
X141973268Y-143106413D01*
X141973731Y-142575914D01*
X141771146Y-142085620D01*
X141396353Y-141710173D01*
X140906413Y-141506732D01*
X140375914Y-141506269D01*
X139885620Y-141708854D01*
X139510173Y-142083647D01*
X139306732Y-142573587D01*
X139306269Y-143104086D01*
X139508854Y-143594380D01*
X139883647Y-143969827D01*
X140221446Y-144110094D01*
X139885620Y-144248854D01*
X139510173Y-144623647D01*
X139306732Y-145113587D01*
X139306269Y-145644086D01*
X139508854Y-146134380D01*
X139883647Y-146509827D01*
X140038337Y-146574060D01*
X139941500Y-146574060D01*
X139706183Y-146618338D01*
X139490059Y-146757410D01*
X139345069Y-146969610D01*
X139294060Y-147221500D01*
X137802833Y-147221500D01*
X137802833Y-121276967D01*
X141203378Y-121276967D01*
X141304000Y-121545482D01*
X141919522Y-121774676D01*
X142575899Y-121750874D01*
X143071760Y-121545482D01*
X143172382Y-121276967D01*
X142187880Y-120292465D01*
X141203378Y-121276967D01*
X137802833Y-121276967D01*
X137802833Y-119844502D01*
X140526064Y-119844502D01*
X140549866Y-120500879D01*
X140755258Y-120996740D01*
X141023773Y-121097362D01*
X142008275Y-120112860D01*
X142367485Y-120112860D01*
X143351987Y-121097362D01*
X143620502Y-120996740D01*
X143849696Y-120381218D01*
X143825894Y-119724841D01*
X143620502Y-119228980D01*
X143351987Y-119128358D01*
X142367485Y-120112860D01*
X142008275Y-120112860D01*
X141023773Y-119128358D01*
X140755258Y-119228980D01*
X140526064Y-119844502D01*
X137802833Y-119844502D01*
X137802833Y-118948753D01*
X141203378Y-118948753D01*
X142187880Y-119933255D01*
X143172382Y-118948753D01*
X143071760Y-118680238D01*
X142456238Y-118451044D01*
X141799861Y-118474846D01*
X141304000Y-118680238D01*
X141203378Y-118948753D01*
X137802833Y-118948753D01*
X137802833Y-116196967D01*
X141203378Y-116196967D01*
X141304000Y-116465482D01*
X141919522Y-116694676D01*
X142575899Y-116670874D01*
X143071760Y-116465482D01*
X143172382Y-116196967D01*
X142187880Y-115212465D01*
X141203378Y-116196967D01*
X137802833Y-116196967D01*
X137802833Y-114764502D01*
X140526064Y-114764502D01*
X140549866Y-115420879D01*
X140755258Y-115916740D01*
X141023773Y-116017362D01*
X142008275Y-115032860D01*
X142367485Y-115032860D01*
X143351987Y-116017362D01*
X143620502Y-115916740D01*
X143849696Y-115301218D01*
X143825894Y-114644841D01*
X143620502Y-114148980D01*
X143351987Y-114048358D01*
X142367485Y-115032860D01*
X142008275Y-115032860D01*
X141023773Y-114048358D01*
X140755258Y-114148980D01*
X140526064Y-114764502D01*
X137802833Y-114764502D01*
X137802833Y-113868753D01*
X141203378Y-113868753D01*
X142187880Y-114853255D01*
X143172382Y-113868753D01*
X143071760Y-113600238D01*
X142456238Y-113371044D01*
X141799861Y-113394846D01*
X141304000Y-113600238D01*
X141203378Y-113868753D01*
X137802833Y-113868753D01*
X137802833Y-110279823D01*
X140536594Y-110279823D01*
X140787414Y-110886855D01*
X141251443Y-111351694D01*
X141858035Y-111603573D01*
X142514843Y-111604146D01*
X143121875Y-111353326D01*
X143586714Y-110889297D01*
X143838593Y-110282705D01*
X143839166Y-109625897D01*
X143588346Y-109018865D01*
X143124317Y-108554026D01*
X142517725Y-108302147D01*
X141860917Y-108301574D01*
X141253885Y-108552394D01*
X140789046Y-109016423D01*
X140537167Y-109623015D01*
X140536594Y-110279823D01*
X137802833Y-110279823D01*
X137802833Y-105199823D01*
X140536594Y-105199823D01*
X140787414Y-105806855D01*
X141251443Y-106271694D01*
X141858035Y-106523573D01*
X142514843Y-106524146D01*
X143121875Y-106273326D01*
X143586714Y-105809297D01*
X143838593Y-105202705D01*
X143839166Y-104545897D01*
X143588346Y-103938865D01*
X143124317Y-103474026D01*
X142517725Y-103222147D01*
X141860917Y-103221574D01*
X141253885Y-103472394D01*
X140789046Y-103936423D01*
X140537167Y-104543015D01*
X140536594Y-105199823D01*
X137802833Y-105199823D01*
X137802833Y-77734803D01*
X140645814Y-77734803D01*
X140896634Y-78341835D01*
X141360663Y-78806674D01*
X141967255Y-79058553D01*
X142624063Y-79059126D01*
X143231095Y-78808306D01*
X143695934Y-78344277D01*
X143947813Y-77737685D01*
X143948386Y-77080877D01*
X143697566Y-76473845D01*
X143233537Y-76009006D01*
X142626945Y-75757127D01*
X141970137Y-75756554D01*
X141363105Y-76007374D01*
X140898266Y-76471403D01*
X140646387Y-77077995D01*
X140645814Y-77734803D01*
X137802833Y-77734803D01*
X137802833Y-72654803D01*
X140645814Y-72654803D01*
X140896634Y-73261835D01*
X141360663Y-73726674D01*
X141967255Y-73978553D01*
X142624063Y-73979126D01*
X143231095Y-73728306D01*
X143695934Y-73264277D01*
X143947813Y-72657685D01*
X143948386Y-72000877D01*
X143697566Y-71393845D01*
X143233537Y-70929006D01*
X142626945Y-70677127D01*
X141970137Y-70676554D01*
X141363105Y-70927374D01*
X140898266Y-71391403D01*
X140646387Y-71997995D01*
X140645814Y-72654803D01*
X137802833Y-72654803D01*
X137802833Y-69288787D01*
X142328788Y-64762832D01*
X170872968Y-64762832D01*
X171222894Y-64693227D01*
X171519546Y-64495010D01*
X174158027Y-61856530D01*
X174538441Y-61856862D01*
X175052083Y-61644630D01*
X175445409Y-61251990D01*
X175513707Y-61087510D01*
X175532396Y-61106199D01*
X175829049Y-61304416D01*
X175948982Y-61328272D01*
X176263410Y-61643249D01*
X176776680Y-61856377D01*
X177332441Y-61856862D01*
X177846083Y-61644630D01*
X178239409Y-61251990D01*
X178452537Y-60738720D01*
X178452539Y-60736284D01*
X178664770Y-61249923D01*
X178664770Y-61249923D01*
G37*
X178664770Y-61249923D02*
X178935380Y-61521006D01*
X178935380Y-62482394D01*
X178562504Y-62482068D01*
X178177272Y-62641243D01*
X177882278Y-62935722D01*
X177748182Y-63258662D01*
X175371244Y-65635600D01*
X157085451Y-65635603D01*
X156735525Y-65705208D01*
X156654749Y-65759181D01*
X156438872Y-65903425D01*
X142318259Y-80024039D01*
X141553387Y-80024039D01*
X141203461Y-80093644D01*
X141131726Y-80141576D01*
X140906809Y-80291860D01*
X140101121Y-81097549D01*
X139902904Y-81394201D01*
X139833299Y-81744127D01*
X139833299Y-91098439D01*
X139902904Y-91448365D01*
X140090295Y-91728815D01*
X140101121Y-91745017D01*
X140634522Y-92278419D01*
X140634525Y-92278421D01*
X140654518Y-92298414D01*
X140646387Y-92317995D01*
X140645814Y-92974803D01*
X140896634Y-93581835D01*
X141360663Y-94046674D01*
X141967255Y-94298553D01*
X142624063Y-94299126D01*
X143231095Y-94048306D01*
X143695934Y-93584277D01*
X143947813Y-92977685D01*
X143948386Y-92320877D01*
X143697566Y-91713845D01*
X143233537Y-91249006D01*
X142626945Y-90997127D01*
X141970137Y-90996554D01*
X141948083Y-91005667D01*
X141927681Y-90985265D01*
X141927679Y-90985262D01*
X141662099Y-90719682D01*
X141662099Y-89091841D01*
X141967255Y-89218553D01*
X142624063Y-89219126D01*
X143231095Y-88968306D01*
X143695934Y-88504277D01*
X143947813Y-87897685D01*
X143948386Y-87240877D01*
X143697566Y-86633845D01*
X143233537Y-86169006D01*
X142626945Y-85917127D01*
X141970137Y-85916554D01*
X141662099Y-86043832D01*
X141662099Y-84011841D01*
X141967255Y-84138553D01*
X142624063Y-84139126D01*
X143231095Y-83888306D01*
X143695934Y-83424277D01*
X143947813Y-82817685D01*
X143948386Y-82160877D01*
X143939274Y-82138823D01*
X143959678Y-82118419D01*
X143959680Y-82118416D01*
X153134073Y-72944023D01*
X163576934Y-72944023D01*
X163827754Y-73551055D01*
X164291783Y-74015894D01*
X164898375Y-74267773D01*
X165555183Y-74268346D01*
X166162215Y-74017526D01*
X166627054Y-73553497D01*
X166878933Y-72946905D01*
X166879506Y-72290097D01*
X166628686Y-71683065D01*
X166164657Y-71218226D01*
X165558065Y-70966347D01*
X164901257Y-70965774D01*
X164294225Y-71216594D01*
X163829386Y-71680623D01*
X163577507Y-72287215D01*
X163576934Y-72944023D01*
X153134073Y-72944023D01*
X157800886Y-68277211D01*
X175959632Y-68277211D01*
X166875775Y-77361068D01*
X166628686Y-76763065D01*
X166164657Y-76298226D01*
X165558065Y-76046347D01*
X164901257Y-76045774D01*
X164294225Y-76296594D01*
X163829386Y-76760623D01*
X163577507Y-77367215D01*
X163576934Y-78024023D01*
X163827754Y-78631055D01*
X164291783Y-79095894D01*
X164891801Y-79345043D01*
X163032241Y-81204603D01*
X162834024Y-81501255D01*
X162764419Y-81851181D01*
X162764419Y-91387659D01*
X162834024Y-91737585D01*
X163012569Y-92004796D01*
X163032241Y-92034237D01*
X163565642Y-92567639D01*
X163565645Y-92567641D01*
X163585638Y-92587634D01*
X163577507Y-92607215D01*
X163576934Y-93264023D01*
X163827754Y-93871055D01*
X164291783Y-94335894D01*
X164898375Y-94587773D01*
X165555183Y-94588346D01*
X166162215Y-94337526D01*
X166627054Y-93873497D01*
X166878933Y-93266905D01*
X166879506Y-92610097D01*
X166628686Y-92003065D01*
X166164657Y-91538226D01*
X165558065Y-91286347D01*
X164901257Y-91285774D01*
X164879203Y-91294887D01*
X164858801Y-91274485D01*
X164858799Y-91274482D01*
X164593219Y-91008902D01*
X164593219Y-89381061D01*
X164898375Y-89507773D01*
X165555183Y-89508346D01*
X166162215Y-89257526D01*
X166627054Y-88793497D01*
X166878933Y-88186905D01*
X166879506Y-87530097D01*
X166628686Y-86923065D01*
X166164657Y-86458226D01*
X165558065Y-86206347D01*
X164901257Y-86205774D01*
X164593219Y-86333052D01*
X164593219Y-84301061D01*
X164898375Y-84427773D01*
X165555183Y-84428346D01*
X166162215Y-84177526D01*
X166627054Y-83713497D01*
X166878933Y-83106905D01*
X166879506Y-82450097D01*
X166870393Y-82428043D01*
X181748665Y-67549772D01*
X181748590Y-67635844D01*
X181907765Y-68021076D01*
X182202244Y-68316070D01*
X182587197Y-68475916D01*
X182828283Y-68476127D01*
X182828283Y-68970731D01*
X182897888Y-69320657D01*
X183086178Y-69602452D01*
X183096105Y-69617309D01*
X183634381Y-70155586D01*
X183634381Y-78321501D01*
X183703986Y-78671427D01*
X183879156Y-78933587D01*
X183902203Y-78968079D01*
X187162422Y-82228299D01*
X187162425Y-82228301D01*
X187182418Y-82248294D01*
X187174287Y-82267875D01*
X187173714Y-82924683D01*
X187424534Y-83531715D01*
X187888563Y-83996554D01*
X188495155Y-84248433D01*
X189151963Y-84249006D01*
X189460001Y-84121728D01*
X189460001Y-86153719D01*
X189154845Y-86027007D01*
X188498037Y-86026434D01*
X187891005Y-86277254D01*
X187426166Y-86741283D01*
X187174287Y-87347875D01*
X187173714Y-88004683D01*
X187424534Y-88611715D01*
X187888563Y-89076554D01*
X188495155Y-89328433D01*
X189151963Y-89329006D01*
X189460001Y-89201728D01*
X189460001Y-90829563D01*
X189194424Y-91095140D01*
X189194421Y-91095142D01*
X189174425Y-91115138D01*
X189154845Y-91107007D01*
X188498037Y-91106434D01*
X187891005Y-91357254D01*
X187426166Y-91821283D01*
X187174287Y-92427875D01*
X187173714Y-93084683D01*
X187424534Y-93691715D01*
X187888563Y-94156554D01*
X188495155Y-94408433D01*
X189151963Y-94409006D01*
X189758995Y-94158186D01*
X190223834Y-93694157D01*
X190475713Y-93087565D01*
X190476286Y-92430757D01*
X190467174Y-92408703D01*
X190487578Y-92388299D01*
X190487580Y-92388296D01*
X191020979Y-91854898D01*
X191146847Y-91666523D01*
X191219196Y-91558245D01*
X191288801Y-91208319D01*
X191288801Y-81854007D01*
X191219196Y-81504081D01*
X191129230Y-81369438D01*
X191020980Y-81207429D01*
X188982409Y-79168858D01*
X189151963Y-79169006D01*
X189758995Y-78918186D01*
X190223834Y-78454157D01*
X190475713Y-77847565D01*
X190476286Y-77190757D01*
X190225466Y-76583725D01*
X189761437Y-76118886D01*
X189154845Y-75867007D01*
X188498037Y-75866434D01*
X187891005Y-76117254D01*
X187426166Y-76581283D01*
X187174287Y-77187875D01*
X187174136Y-77360586D01*
X186354400Y-76540850D01*
X186354400Y-69486546D01*
X186284795Y-69136620D01*
X186256518Y-69094300D01*
X187162164Y-69094300D01*
X188854609Y-70786745D01*
X188498037Y-70786434D01*
X187891005Y-71037254D01*
X187426166Y-71501283D01*
X187174287Y-72107875D01*
X187173714Y-72764683D01*
X187424534Y-73371715D01*
X187888563Y-73836554D01*
X188495155Y-74088433D01*
X189151963Y-74089006D01*
X189174017Y-74079893D01*
X196935600Y-81841477D01*
X196935600Y-122619970D01*
X196802432Y-122940675D01*
X196802068Y-123357496D01*
X196961243Y-123742728D01*
X197255722Y-124037722D01*
X197640675Y-124197568D01*
X198057496Y-124197932D01*
X198442728Y-124038757D01*
X198737722Y-123744278D01*
X198897568Y-123359325D01*
X198897932Y-122942504D01*
X198764400Y-122619333D01*
X198764400Y-114024533D01*
X209705818Y-114024533D01*
X210690320Y-115009035D01*
X211674822Y-114024533D01*
X211574200Y-113756018D01*
X210958678Y-113526824D01*
X210302301Y-113550626D01*
X209806440Y-113756018D01*
X209705818Y-114024533D01*
X198764400Y-114024533D01*
X198764400Y-110435603D01*
X209039034Y-110435603D01*
X209289854Y-111042635D01*
X209753883Y-111507474D01*
X210360475Y-111759353D01*
X211017283Y-111759926D01*
X211624315Y-111509106D01*
X212089154Y-111045077D01*
X212341033Y-110438485D01*
X212341606Y-109781677D01*
X212090786Y-109174645D01*
X211626757Y-108709806D01*
X211020165Y-108457927D01*
X210363357Y-108457354D01*
X209756325Y-108708174D01*
X209291486Y-109172203D01*
X209039607Y-109778795D01*
X209039034Y-110435603D01*
X198764400Y-110435603D01*
X198764400Y-105355603D01*
X209039034Y-105355603D01*
X209289854Y-105962635D01*
X209753883Y-106427474D01*
X210360475Y-106679353D01*
X211017283Y-106679926D01*
X211624315Y-106429106D01*
X212089154Y-105965077D01*
X212341033Y-105358485D01*
X212341606Y-104701677D01*
X212090786Y-104094645D01*
X211626757Y-103629806D01*
X211020165Y-103377927D01*
X210363357Y-103377354D01*
X209756325Y-103628174D01*
X209291486Y-104092203D01*
X209039607Y-104698795D01*
X209039034Y-105355603D01*
X198764400Y-105355603D01*
X198764400Y-100275603D01*
X209039034Y-100275603D01*
X209289854Y-100882635D01*
X209753883Y-101347474D01*
X210360475Y-101599353D01*
X211017283Y-101599926D01*
X211624315Y-101349106D01*
X212089154Y-100885077D01*
X212341033Y-100278485D01*
X212341606Y-99621677D01*
X212090786Y-99014645D01*
X211626757Y-98549806D01*
X211020165Y-98297927D01*
X210363357Y-98297354D01*
X209756325Y-98548174D01*
X209291486Y-99012203D01*
X209039607Y-99618795D01*
X209039034Y-100275603D01*
X198764400Y-100275603D01*
X198764400Y-81462720D01*
X198694795Y-81112794D01*
X198677810Y-81087374D01*
X198496578Y-80816141D01*
X190467582Y-72787146D01*
X190475713Y-72767565D01*
X190476027Y-72408163D01*
X203215600Y-85147736D01*
X203215600Y-88229486D01*
X203285205Y-88579412D01*
X203447343Y-88822068D01*
X203483422Y-88876064D01*
X206203052Y-91595695D01*
X206215719Y-91659374D01*
X206390573Y-91921061D01*
X206413936Y-91956026D01*
X209334487Y-94876578D01*
X209435043Y-94943767D01*
X209631140Y-95074795D01*
X209981066Y-95144400D01*
X211313214Y-95144400D01*
X211663140Y-95074795D01*
X211959792Y-94876578D01*
X213384360Y-93452011D01*
X213384360Y-115291757D01*
X212840004Y-115836114D01*
X212210969Y-115836114D01*
X212352136Y-115456998D01*
X212328334Y-114800621D01*
X212122942Y-114304760D01*
X211854427Y-114204138D01*
X210869925Y-115188640D01*
X210884068Y-115202783D01*
X210704463Y-115382388D01*
X210690320Y-115368245D01*
X210676178Y-115382388D01*
X210496573Y-115202783D01*
X210510715Y-115188640D01*
X209526213Y-114204138D01*
X209257698Y-114304760D01*
X209028504Y-114920282D01*
X209052306Y-115576659D01*
X209159776Y-115836114D01*
X207601046Y-115836114D01*
X207251121Y-115905718D01*
X206954468Y-116103935D01*
X194442704Y-128615700D01*
X194442701Y-128615702D01*
X194422705Y-128635698D01*
X194403125Y-128627567D01*
X193746317Y-128626994D01*
X193139285Y-128877814D01*
X192674446Y-129341843D01*
X192422567Y-129948435D01*
X192421994Y-130605243D01*
X192672814Y-131212275D01*
X193136843Y-131677114D01*
X193254790Y-131726090D01*
X189812694Y-131726090D01*
X189927275Y-131678746D01*
X190392114Y-131214717D01*
X190643993Y-130608125D01*
X190644566Y-129951317D01*
X190393746Y-129344285D01*
X189929717Y-128879446D01*
X189907680Y-128870295D01*
X189907680Y-123625476D01*
X195561791Y-117971366D01*
X195882728Y-117838757D01*
X196177722Y-117544278D01*
X196337568Y-117159325D01*
X196337932Y-116742504D01*
X196178757Y-116357272D01*
X195884278Y-116062278D01*
X195499325Y-115902432D01*
X195082504Y-115902068D01*
X194697272Y-116061243D01*
X194402278Y-116355722D01*
X194268183Y-116678660D01*
X190484929Y-120461915D01*
X190463014Y-119857581D01*
X190257622Y-119361720D01*
X189989107Y-119261098D01*
X189004605Y-120245600D01*
X189018748Y-120259743D01*
X188839143Y-120439348D01*
X188825000Y-120425205D01*
X187840498Y-121409707D01*
X187941120Y-121678222D01*
X188556642Y-121907416D01*
X189057594Y-121889250D01*
X188346702Y-122600142D01*
X188148485Y-122896794D01*
X188078880Y-123246720D01*
X188078880Y-128869718D01*
X188059285Y-128877814D01*
X187594446Y-129341843D01*
X187342567Y-129948435D01*
X187341994Y-130605243D01*
X187592814Y-131212275D01*
X188056843Y-131677114D01*
X188174790Y-131726090D01*
X174269127Y-131726090D01*
X173994102Y-131451066D01*
X174002233Y-131431485D01*
X174002806Y-130774677D01*
X173751986Y-130167645D01*
X173287957Y-129702806D01*
X172681365Y-129450927D01*
X172024557Y-129450354D01*
X171417525Y-129701174D01*
X170952686Y-130165203D01*
X170700807Y-130771795D01*
X170700234Y-131428603D01*
X170951054Y-132035635D01*
X171415083Y-132500474D01*
X171507625Y-132538901D01*
X170001938Y-132538901D01*
X168914102Y-131451066D01*
X168922233Y-131431485D01*
X168922806Y-130774677D01*
X168671986Y-130167645D01*
X168207957Y-129702806D01*
X167601365Y-129450927D01*
X166944557Y-129450354D01*
X166337525Y-129701174D01*
X165872686Y-130165203D01*
X165620807Y-130771795D01*
X165620234Y-131428603D01*
X165871054Y-132035635D01*
X166335083Y-132500474D01*
X166941675Y-132752353D01*
X167598483Y-132752926D01*
X167620537Y-132743813D01*
X168352323Y-133475600D01*
X160778637Y-133475600D01*
X158754102Y-131451066D01*
X158762233Y-131431485D01*
X158762806Y-130774677D01*
X158635528Y-130466639D01*
X160263363Y-130466639D01*
X160548938Y-130752214D01*
X160540807Y-130771795D01*
X160540234Y-131428603D01*
X160791054Y-132035635D01*
X161255083Y-132500474D01*
X161861675Y-132752353D01*
X162518483Y-132752926D01*
X163125515Y-132502106D01*
X163590354Y-132038077D01*
X163842233Y-131431485D01*
X163842806Y-130774677D01*
X163591986Y-130167645D01*
X163127957Y-129702806D01*
X162521365Y-129450927D01*
X161864557Y-129450354D01*
X161842503Y-129459467D01*
X161288697Y-128905661D01*
X161258856Y-128885722D01*
X160992045Y-128707444D01*
X160642119Y-128637839D01*
X156367807Y-128637839D01*
X156017881Y-128707444D01*
X155921165Y-128772068D01*
X155721229Y-128905660D01*
X154915541Y-129711349D01*
X154717324Y-130008001D01*
X154647719Y-130357927D01*
X154647719Y-131845353D01*
X154717324Y-132195279D01*
X154835165Y-132371640D01*
X154915541Y-132491931D01*
X158272997Y-135849388D01*
X158421324Y-135948496D01*
X158569650Y-136047605D01*
X158919576Y-136117210D01*
X210417190Y-136117210D01*
X210767116Y-136047605D01*
X211063768Y-135849388D01*
X216355788Y-130557368D01*
X216595722Y-130797722D01*
X216980675Y-130957568D01*
X217397496Y-130957932D01*
X217782728Y-130798757D01*
X218077722Y-130504278D01*
X218168620Y-130285371D01*
X218195600Y-130350667D01*
X218195600Y-142568433D01*
X212779834Y-147984200D01*
X209507042Y-147984200D01*
X209498946Y-147964605D01*
X209034917Y-147499766D01*
X208428325Y-147247887D01*
X207771517Y-147247314D01*
X207749463Y-147256427D01*
X207729061Y-147236025D01*
X207729059Y-147236022D01*
X204757227Y-144264191D01*
X204683301Y-144214795D01*
X204460575Y-144065974D01*
X204110649Y-143996369D01*
X186024739Y-143996369D01*
X185674813Y-144065974D01*
X185578914Y-144130052D01*
X185378160Y-144264191D01*
X183144071Y-146498281D01*
X182945854Y-146794933D01*
X182876249Y-147144859D01*
X182876249Y-150213092D01*
X173686578Y-141023422D01*
X173686577Y-141023421D01*
X173389926Y-140825205D01*
X173040000Y-140755600D01*
X164700000Y-140755600D01*
X164350074Y-140825205D01*
X164231252Y-140904599D01*
X164053422Y-141023421D01*
X157671389Y-147405455D01*
X157663085Y-147402007D01*
X157006277Y-147401434D01*
X156399245Y-147652254D01*
X155934406Y-148116283D01*
X155682527Y-148722875D01*
X155681954Y-149379683D01*
X155932774Y-149986715D01*
X156357612Y-150412295D01*
X156281569Y-150397169D01*
X153243350Y-150397169D01*
X153652074Y-149989157D01*
X153903953Y-149382565D01*
X153904526Y-148725757D01*
X153653706Y-148118725D01*
X153523240Y-147988031D01*
X153523240Y-137427496D01*
X205202068Y-137427496D01*
X205361243Y-137812728D01*
X205655722Y-138107722D01*
X206040675Y-138267568D01*
X206457496Y-138267932D01*
X206780667Y-138134400D01*
X215902493Y-138134400D01*
X215955722Y-138187722D01*
X216340675Y-138347568D01*
X216757496Y-138347932D01*
X217142728Y-138188757D01*
X217437722Y-137894278D01*
X217597568Y-137509325D01*
X217597932Y-137092504D01*
X217438757Y-136707272D01*
X217144278Y-136412278D01*
X216759325Y-136252432D01*
X216342504Y-136252068D01*
X216212947Y-136305600D01*
X206780030Y-136305600D01*
X206459325Y-136172432D01*
X206042504Y-136172068D01*
X205657272Y-136331243D01*
X205362278Y-136625722D01*
X205202432Y-137010675D01*
X205202068Y-137427496D01*
X153523240Y-137427496D01*
X153523240Y-131814383D01*
X153682233Y-131431485D01*
X153682806Y-130774677D01*
X153431986Y-130167645D01*
X153301520Y-130036951D01*
X153301520Y-121667787D01*
X164243718Y-121667787D01*
X164344340Y-121936302D01*
X164959862Y-122165496D01*
X165616239Y-122141694D01*
X166112100Y-121936302D01*
X166212722Y-121667787D01*
X165228220Y-120683285D01*
X164243718Y-121667787D01*
X153301520Y-121667787D01*
X153301520Y-120235322D01*
X163566404Y-120235322D01*
X163590206Y-120891699D01*
X163795598Y-121387560D01*
X164064113Y-121488182D01*
X165048615Y-120503680D01*
X165407825Y-120503680D01*
X166392327Y-121488182D01*
X166660842Y-121387560D01*
X166890036Y-120772038D01*
X166866234Y-120115661D01*
X166808900Y-119977242D01*
X187163184Y-119977242D01*
X187186986Y-120633619D01*
X187392378Y-121129480D01*
X187660893Y-121230102D01*
X188645395Y-120245600D01*
X187660893Y-119261098D01*
X187392378Y-119361720D01*
X187163184Y-119977242D01*
X166808900Y-119977242D01*
X166660842Y-119619800D01*
X166392327Y-119519178D01*
X165407825Y-120503680D01*
X165048615Y-120503680D01*
X164064113Y-119519178D01*
X163795598Y-119619800D01*
X163566404Y-120235322D01*
X153301520Y-120235322D01*
X153301520Y-119339573D01*
X164243718Y-119339573D01*
X165228220Y-120324075D01*
X166212722Y-119339573D01*
X166116011Y-119081493D01*
X187840498Y-119081493D01*
X188825000Y-120065995D01*
X189809502Y-119081493D01*
X189708880Y-118812978D01*
X189093358Y-118583784D01*
X188436981Y-118607586D01*
X187941120Y-118812978D01*
X187840498Y-119081493D01*
X166116011Y-119081493D01*
X166112100Y-119071058D01*
X165496578Y-118841864D01*
X164840201Y-118865666D01*
X164344340Y-119071058D01*
X164243718Y-119339573D01*
X153301520Y-119339573D01*
X153301520Y-116587787D01*
X164243718Y-116587787D01*
X164344340Y-116856302D01*
X164959862Y-117085496D01*
X165616239Y-117061694D01*
X166112100Y-116856302D01*
X166212722Y-116587787D01*
X165228220Y-115603285D01*
X164243718Y-116587787D01*
X153301520Y-116587787D01*
X153301520Y-115155322D01*
X163566404Y-115155322D01*
X163590206Y-115811699D01*
X163795598Y-116307560D01*
X164064113Y-116408182D01*
X165048615Y-115423680D01*
X165407825Y-115423680D01*
X166392327Y-116408182D01*
X166601741Y-116329707D01*
X187840498Y-116329707D01*
X187941120Y-116598222D01*
X188556642Y-116827416D01*
X189213019Y-116803614D01*
X189708880Y-116598222D01*
X189809502Y-116329707D01*
X188825000Y-115345205D01*
X187840498Y-116329707D01*
X166601741Y-116329707D01*
X166660842Y-116307560D01*
X166890036Y-115692038D01*
X166866234Y-115035661D01*
X166808900Y-114897242D01*
X187163184Y-114897242D01*
X187186986Y-115553619D01*
X187392378Y-116049480D01*
X187660893Y-116150102D01*
X188645395Y-115165600D01*
X189004605Y-115165600D01*
X189989107Y-116150102D01*
X190257622Y-116049480D01*
X190486816Y-115433958D01*
X190463014Y-114777581D01*
X190257622Y-114281720D01*
X189989107Y-114181098D01*
X189004605Y-115165600D01*
X188645395Y-115165600D01*
X187660893Y-114181098D01*
X187392378Y-114281720D01*
X187163184Y-114897242D01*
X166808900Y-114897242D01*
X166660842Y-114539800D01*
X166392327Y-114439178D01*
X165407825Y-115423680D01*
X165048615Y-115423680D01*
X164064113Y-114439178D01*
X163795598Y-114539800D01*
X163566404Y-115155322D01*
X153301520Y-115155322D01*
X153301520Y-114259573D01*
X164243718Y-114259573D01*
X165228220Y-115244075D01*
X166212722Y-114259573D01*
X166116011Y-114001493D01*
X187840498Y-114001493D01*
X188825000Y-114985995D01*
X189809502Y-114001493D01*
X189708880Y-113732978D01*
X189093358Y-113503784D01*
X188436981Y-113527586D01*
X187941120Y-113732978D01*
X187840498Y-114001493D01*
X166116011Y-114001493D01*
X166112100Y-113991058D01*
X165496578Y-113761864D01*
X164840201Y-113785666D01*
X164344340Y-113991058D01*
X164243718Y-114259573D01*
X153301520Y-114259573D01*
X153301520Y-110670643D01*
X163576934Y-110670643D01*
X163827754Y-111277675D01*
X164291783Y-111742514D01*
X164898375Y-111994393D01*
X165555183Y-111994966D01*
X166162215Y-111744146D01*
X166627054Y-111280117D01*
X166878933Y-110673525D01*
X166879160Y-110412563D01*
X187173714Y-110412563D01*
X187424534Y-111019595D01*
X187888563Y-111484434D01*
X188495155Y-111736313D01*
X189151963Y-111736886D01*
X189758995Y-111486066D01*
X190223834Y-111022037D01*
X190475713Y-110415445D01*
X190476286Y-109758637D01*
X190225466Y-109151605D01*
X189761437Y-108686766D01*
X189154845Y-108434887D01*
X188498037Y-108434314D01*
X187891005Y-108685134D01*
X187426166Y-109149163D01*
X187174287Y-109755755D01*
X187173714Y-110412563D01*
X166879160Y-110412563D01*
X166879506Y-110016717D01*
X166628686Y-109409685D01*
X166164657Y-108944846D01*
X165558065Y-108692967D01*
X164901257Y-108692394D01*
X164294225Y-108943214D01*
X163829386Y-109407243D01*
X163577507Y-110013835D01*
X163576934Y-110670643D01*
X153301520Y-110670643D01*
X153301520Y-109636500D01*
X153204847Y-109150492D01*
X152929546Y-108738474D01*
X152929543Y-108738472D01*
X149781715Y-105590643D01*
X163576934Y-105590643D01*
X163827754Y-106197675D01*
X164291783Y-106662514D01*
X164898375Y-106914393D01*
X165555183Y-106914966D01*
X166162215Y-106664146D01*
X166627054Y-106200117D01*
X166878933Y-105593525D01*
X166879160Y-105332563D01*
X187173714Y-105332563D01*
X187424534Y-105939595D01*
X187888563Y-106404434D01*
X188495155Y-106656313D01*
X189151963Y-106656886D01*
X189758995Y-106406066D01*
X190223834Y-105942037D01*
X190475713Y-105335445D01*
X190476286Y-104678637D01*
X190225466Y-104071605D01*
X189761437Y-103606766D01*
X189154845Y-103354887D01*
X188498037Y-103354314D01*
X187891005Y-103605134D01*
X187426166Y-104069163D01*
X187174287Y-104675755D01*
X187173714Y-105332563D01*
X166879160Y-105332563D01*
X166879506Y-104936717D01*
X166628686Y-104329685D01*
X166164657Y-103864846D01*
X165558065Y-103612967D01*
X164901257Y-103612394D01*
X164294225Y-103863214D01*
X163829386Y-104327243D01*
X163577507Y-104933835D01*
X163576934Y-105590643D01*
X149781715Y-105590643D01*
X144701715Y-100510643D01*
X163576934Y-100510643D01*
X163827754Y-101117675D01*
X164291783Y-101582514D01*
X164898375Y-101834393D01*
X165555183Y-101834966D01*
X166162215Y-101584146D01*
X166627054Y-101120117D01*
X166878933Y-100513525D01*
X166879160Y-100252563D01*
X187173714Y-100252563D01*
X187424534Y-100859595D01*
X187888563Y-101324434D01*
X188495155Y-101576313D01*
X189151963Y-101576886D01*
X189758995Y-101326066D01*
X190223834Y-100862037D01*
X190475713Y-100255445D01*
X190476286Y-99598637D01*
X190225466Y-98991605D01*
X189761437Y-98526766D01*
X189154845Y-98274887D01*
X188498037Y-98274314D01*
X187891005Y-98525134D01*
X187426166Y-98989163D01*
X187174287Y-99595755D01*
X187173714Y-100252563D01*
X166879160Y-100252563D01*
X166879506Y-99856717D01*
X166628686Y-99249685D01*
X166164657Y-98784846D01*
X165558065Y-98532967D01*
X164901257Y-98532394D01*
X164294225Y-98783214D01*
X163829386Y-99247243D01*
X163577507Y-99853835D01*
X163576934Y-100510643D01*
X144701715Y-100510643D01*
X143839007Y-99647935D01*
X143839166Y-99465897D01*
X143588346Y-98858865D01*
X143124317Y-98394026D01*
X142517725Y-98142147D01*
X141860917Y-98141574D01*
X141253885Y-98392394D01*
X140789046Y-98856423D01*
X140537167Y-99463015D01*
X140536594Y-100119823D01*
X140787414Y-100726855D01*
X141251443Y-101191694D01*
X141858035Y-101443573D01*
X142042702Y-101443734D01*
X150761520Y-110162551D01*
X150761520Y-130036593D01*
X150632686Y-130165203D01*
X150380807Y-130771795D01*
X150380234Y-131428603D01*
X150631054Y-132035635D01*
X150983240Y-132388436D01*
X150983240Y-147987673D01*
X150854406Y-148116283D01*
X150602527Y-148722875D01*
X150601954Y-149379683D01*
X150852774Y-149986715D01*
X151262513Y-150397169D01*
X137802833Y-150397169D01*
X137802833Y-147221500D01*
X139294060Y-147221500D01*
X139294060Y-148618500D01*
X139338338Y-148853817D01*
X139477410Y-149069941D01*
X139689610Y-149214931D01*
X139941500Y-149265940D01*
X141338500Y-149265940D01*
X141573817Y-149221662D01*
X141789941Y-149082590D01*
X141934931Y-148870390D01*
X141985940Y-148618500D01*
X141985940Y-147221500D01*
X141941662Y-146986183D01*
X141802590Y-146770059D01*
X141590390Y-146625069D01*
X141338500Y-146574060D01*
X141242116Y-146574060D01*
X141394380Y-146511146D01*
X141769827Y-146136353D01*
X141973268Y-145646413D01*
X141973731Y-145115914D01*
X141771146Y-144625620D01*
X141396353Y-144250173D01*
X141058554Y-144109906D01*
X141394380Y-143971146D01*
X141769827Y-143596353D01*
X141973268Y-143106413D01*
X141973731Y-142575914D01*
X141771146Y-142085620D01*
X141396353Y-141710173D01*
X140906413Y-141506732D01*
X140375914Y-141506269D01*
X139885620Y-141708854D01*
X139510173Y-142083647D01*
X139306732Y-142573587D01*
X139306269Y-143104086D01*
X139508854Y-143594380D01*
X139883647Y-143969827D01*
X140221446Y-144110094D01*
X139885620Y-144248854D01*
X139510173Y-144623647D01*
X139306732Y-145113587D01*
X139306269Y-145644086D01*
X139508854Y-146134380D01*
X139883647Y-146509827D01*
X140038337Y-146574060D01*
X139941500Y-146574060D01*
X139706183Y-146618338D01*
X139490059Y-146757410D01*
X139345069Y-146969610D01*
X139294060Y-147221500D01*
X137802833Y-147221500D01*
X137802833Y-121276967D01*
X141203378Y-121276967D01*
X141304000Y-121545482D01*
X141919522Y-121774676D01*
X142575899Y-121750874D01*
X143071760Y-121545482D01*
X143172382Y-121276967D01*
X142187880Y-120292465D01*
X141203378Y-121276967D01*
X137802833Y-121276967D01*
X137802833Y-119844502D01*
X140526064Y-119844502D01*
X140549866Y-120500879D01*
X140755258Y-120996740D01*
X141023773Y-121097362D01*
X142008275Y-120112860D01*
X142367485Y-120112860D01*
X143351987Y-121097362D01*
X143620502Y-120996740D01*
X143849696Y-120381218D01*
X143825894Y-119724841D01*
X143620502Y-119228980D01*
X143351987Y-119128358D01*
X142367485Y-120112860D01*
X142008275Y-120112860D01*
X141023773Y-119128358D01*
X140755258Y-119228980D01*
X140526064Y-119844502D01*
X137802833Y-119844502D01*
X137802833Y-118948753D01*
X141203378Y-118948753D01*
X142187880Y-119933255D01*
X143172382Y-118948753D01*
X143071760Y-118680238D01*
X142456238Y-118451044D01*
X141799861Y-118474846D01*
X141304000Y-118680238D01*
X141203378Y-118948753D01*
X137802833Y-118948753D01*
X137802833Y-116196967D01*
X141203378Y-116196967D01*
X141304000Y-116465482D01*
X141919522Y-116694676D01*
X142575899Y-116670874D01*
X143071760Y-116465482D01*
X143172382Y-116196967D01*
X142187880Y-115212465D01*
X141203378Y-116196967D01*
X137802833Y-116196967D01*
X137802833Y-114764502D01*
X140526064Y-114764502D01*
X140549866Y-115420879D01*
X140755258Y-115916740D01*
X141023773Y-116017362D01*
X142008275Y-115032860D01*
X142367485Y-115032860D01*
X143351987Y-116017362D01*
X143620502Y-115916740D01*
X143849696Y-115301218D01*
X143825894Y-114644841D01*
X143620502Y-114148980D01*
X143351987Y-114048358D01*
X142367485Y-115032860D01*
X142008275Y-115032860D01*
X141023773Y-114048358D01*
X140755258Y-114148980D01*
X140526064Y-114764502D01*
X137802833Y-114764502D01*
X137802833Y-113868753D01*
X141203378Y-113868753D01*
X142187880Y-114853255D01*
X143172382Y-113868753D01*
X143071760Y-113600238D01*
X142456238Y-113371044D01*
X141799861Y-113394846D01*
X141304000Y-113600238D01*
X141203378Y-113868753D01*
X137802833Y-113868753D01*
X137802833Y-110279823D01*
X140536594Y-110279823D01*
X140787414Y-110886855D01*
X141251443Y-111351694D01*
X141858035Y-111603573D01*
X142514843Y-111604146D01*
X143121875Y-111353326D01*
X143586714Y-110889297D01*
X143838593Y-110282705D01*
X143839166Y-109625897D01*
X143588346Y-109018865D01*
X143124317Y-108554026D01*
X142517725Y-108302147D01*
X141860917Y-108301574D01*
X141253885Y-108552394D01*
X140789046Y-109016423D01*
X140537167Y-109623015D01*
X140536594Y-110279823D01*
X137802833Y-110279823D01*
X137802833Y-105199823D01*
X140536594Y-105199823D01*
X140787414Y-105806855D01*
X141251443Y-106271694D01*
X141858035Y-106523573D01*
X142514843Y-106524146D01*
X143121875Y-106273326D01*
X143586714Y-105809297D01*
X143838593Y-105202705D01*
X143839166Y-104545897D01*
X143588346Y-103938865D01*
X143124317Y-103474026D01*
X142517725Y-103222147D01*
X141860917Y-103221574D01*
X141253885Y-103472394D01*
X140789046Y-103936423D01*
X140537167Y-104543015D01*
X140536594Y-105199823D01*
X137802833Y-105199823D01*
X137802833Y-77734803D01*
X140645814Y-77734803D01*
X140896634Y-78341835D01*
X141360663Y-78806674D01*
X141967255Y-79058553D01*
X142624063Y-79059126D01*
X143231095Y-78808306D01*
X143695934Y-78344277D01*
X143947813Y-77737685D01*
X143948386Y-77080877D01*
X143697566Y-76473845D01*
X143233537Y-76009006D01*
X142626945Y-75757127D01*
X141970137Y-75756554D01*
X141363105Y-76007374D01*
X140898266Y-76471403D01*
X140646387Y-77077995D01*
X140645814Y-77734803D01*
X137802833Y-77734803D01*
X137802833Y-72654803D01*
X140645814Y-72654803D01*
X140896634Y-73261835D01*
X141360663Y-73726674D01*
X141967255Y-73978553D01*
X142624063Y-73979126D01*
X143231095Y-73728306D01*
X143695934Y-73264277D01*
X143947813Y-72657685D01*
X143948386Y-72000877D01*
X143697566Y-71393845D01*
X143233537Y-70929006D01*
X142626945Y-70677127D01*
X141970137Y-70676554D01*
X141363105Y-70927374D01*
X140898266Y-71391403D01*
X140646387Y-71997995D01*
X140645814Y-72654803D01*
X137802833Y-72654803D01*
X137802833Y-69288787D01*
X142328788Y-64762832D01*
X170872968Y-64762832D01*
X171222894Y-64693227D01*
X171519546Y-64495010D01*
X174158027Y-61856530D01*
X174538441Y-61856862D01*
X175052083Y-61644630D01*
X175445409Y-61251990D01*
X175513707Y-61087510D01*
X175532396Y-61106199D01*
X175829049Y-61304416D01*
X175948982Y-61328272D01*
X176263410Y-61643249D01*
X176776680Y-61856377D01*
X177332441Y-61856862D01*
X177846083Y-61644630D01*
X178239409Y-61251990D01*
X178452537Y-60738720D01*
X178452539Y-60736284D01*
X178664770Y-61249923D01*
G36*
X214197169Y-119021234D02*
X212156793Y-121061610D01*
X212352136Y-120536998D01*
X212328334Y-119880621D01*
X212122942Y-119384760D01*
X211854427Y-119284138D01*
X210869925Y-120268640D01*
X210884068Y-120282783D01*
X210704463Y-120462388D01*
X210690320Y-120448245D01*
X209705818Y-121432747D01*
X209806440Y-121701262D01*
X210421962Y-121930456D01*
X211078339Y-121906654D01*
X211476795Y-121741608D01*
X204602704Y-128615700D01*
X204602701Y-128615702D01*
X204582705Y-128635698D01*
X204563125Y-128627567D01*
X203906317Y-128626994D01*
X203299285Y-128877814D01*
X202834446Y-129341843D01*
X202582567Y-129948435D01*
X202581994Y-130605243D01*
X202709272Y-130913281D01*
X201081437Y-130913281D01*
X200815860Y-130647704D01*
X200815858Y-130647701D01*
X200795862Y-130627705D01*
X200803993Y-130608125D01*
X200804566Y-129951317D01*
X200553746Y-129344285D01*
X200089717Y-128879446D01*
X199483125Y-128627567D01*
X198826317Y-128626994D01*
X198219285Y-128877814D01*
X197754446Y-129341843D01*
X197502567Y-129948435D01*
X197501994Y-130605243D01*
X197752814Y-131212275D01*
X198216843Y-131677114D01*
X198334790Y-131726090D01*
X194892694Y-131726090D01*
X195007275Y-131678746D01*
X195472114Y-131214717D01*
X195723993Y-130608125D01*
X195724566Y-129951317D01*
X195715454Y-129929263D01*
X195735858Y-129908859D01*
X195735860Y-129908856D01*
X205644434Y-120000282D01*
X209028504Y-120000282D01*
X209052306Y-120656659D01*
X209257698Y-121152520D01*
X209526213Y-121253142D01*
X210510715Y-120268640D01*
X209526213Y-119284138D01*
X209257698Y-119384760D01*
X209028504Y-120000282D01*
X205644434Y-120000282D01*
X206540183Y-119104533D01*
X209705818Y-119104533D01*
X210690320Y-120089035D01*
X211674822Y-119104533D01*
X211574200Y-118836018D01*
X210958678Y-118606824D01*
X210302301Y-118630626D01*
X209806440Y-118836018D01*
X209705818Y-119104533D01*
X206540183Y-119104533D01*
X207979803Y-117664914D01*
X213218760Y-117664914D01*
X213568686Y-117595309D01*
X213865338Y-117397092D01*
X214197169Y-117065261D01*
X214197169Y-119021234D01*
X214197169Y-119021234D01*
G37*
X214197169Y-119021234D02*
X212156793Y-121061610D01*
X212352136Y-120536998D01*
X212328334Y-119880621D01*
X212122942Y-119384760D01*
X211854427Y-119284138D01*
X210869925Y-120268640D01*
X210884068Y-120282783D01*
X210704463Y-120462388D01*
X210690320Y-120448245D01*
X209705818Y-121432747D01*
X209806440Y-121701262D01*
X210421962Y-121930456D01*
X211078339Y-121906654D01*
X211476795Y-121741608D01*
X204602704Y-128615700D01*
X204602701Y-128615702D01*
X204582705Y-128635698D01*
X204563125Y-128627567D01*
X203906317Y-128626994D01*
X203299285Y-128877814D01*
X202834446Y-129341843D01*
X202582567Y-129948435D01*
X202581994Y-130605243D01*
X202709272Y-130913281D01*
X201081437Y-130913281D01*
X200815860Y-130647704D01*
X200815858Y-130647701D01*
X200795862Y-130627705D01*
X200803993Y-130608125D01*
X200804566Y-129951317D01*
X200553746Y-129344285D01*
X200089717Y-128879446D01*
X199483125Y-128627567D01*
X198826317Y-128626994D01*
X198219285Y-128877814D01*
X197754446Y-129341843D01*
X197502567Y-129948435D01*
X197501994Y-130605243D01*
X197752814Y-131212275D01*
X198216843Y-131677114D01*
X198334790Y-131726090D01*
X194892694Y-131726090D01*
X195007275Y-131678746D01*
X195472114Y-131214717D01*
X195723993Y-130608125D01*
X195724566Y-129951317D01*
X195715454Y-129929263D01*
X195735858Y-129908859D01*
X195735860Y-129908856D01*
X205644434Y-120000282D01*
X209028504Y-120000282D01*
X209052306Y-120656659D01*
X209257698Y-121152520D01*
X209526213Y-121253142D01*
X210510715Y-120268640D01*
X209526213Y-119284138D01*
X209257698Y-119384760D01*
X209028504Y-120000282D01*
X205644434Y-120000282D01*
X206540183Y-119104533D01*
X209705818Y-119104533D01*
X210690320Y-120089035D01*
X211674822Y-119104533D01*
X211574200Y-118836018D01*
X210958678Y-118606824D01*
X210302301Y-118630626D01*
X209806440Y-118836018D01*
X209705818Y-119104533D01*
X206540183Y-119104533D01*
X207979803Y-117664914D01*
X213218760Y-117664914D01*
X213568686Y-117595309D01*
X213865338Y-117397092D01*
X214197169Y-117065261D01*
X214197169Y-119021234D01*
M02*
