G04 #@! TF.FileFunction,Legend,Top*
%FSLAX46Y46*%
G04 Gerber Fmt 4.6, Leading zero omitted, Abs format (unit mm)*
G04 Created by KiCad (PCBNEW 4.0.4-stable) date 11/11/17 12:43:10*
%MOMM*%
%LPD*%
G01*
G04 APERTURE LIST*
%ADD10C,0.100000*%
%ADD11C,0.200000*%
%ADD12C,0.190500*%
%ADD13C,0.300000*%
%ADD14C,0.150000*%
%ADD15C,0.304800*%
%ADD16C,0.203200*%
%ADD17C,0.120000*%
%ADD18C,0.269240*%
G04 APERTURE END LIST*
D10*
D11*
X137760000Y-164300000D02*
X145620000Y-166060000D01*
X139610000Y-166270000D02*
X137760000Y-164300000D01*
D12*
X170669333Y-75212285D02*
X170669333Y-74728476D01*
X170959619Y-75309047D02*
X169943619Y-74970380D01*
X170959619Y-74631714D01*
X170959619Y-74293047D02*
X169943619Y-74293047D01*
X170669333Y-73954381D01*
X169943619Y-73615714D01*
X170959619Y-73615714D01*
X170959619Y-73131904D02*
X169943619Y-73131904D01*
X169943619Y-72744857D01*
X169992000Y-72648095D01*
X170040381Y-72599714D01*
X170137143Y-72551333D01*
X170282286Y-72551333D01*
X170379048Y-72599714D01*
X170427429Y-72648095D01*
X170475810Y-72744857D01*
X170475810Y-73131904D01*
X170427429Y-72115904D02*
X170427429Y-71777238D01*
X170959619Y-71632095D02*
X170959619Y-72115904D01*
X169943619Y-72115904D01*
X169943619Y-71632095D01*
X170959619Y-71196666D02*
X169943619Y-71196666D01*
X170959619Y-70616095D01*
X169943619Y-70616095D01*
D13*
X152274286Y-57618571D02*
X152274286Y-56118571D01*
X152774286Y-57190000D01*
X153274286Y-56118571D01*
X153274286Y-57618571D01*
X153988572Y-56832857D02*
X154488572Y-56832857D01*
X154702858Y-57618571D02*
X153988572Y-57618571D01*
X153988572Y-56118571D01*
X154702858Y-56118571D01*
X155274286Y-57547143D02*
X155488572Y-57618571D01*
X155845715Y-57618571D01*
X155988572Y-57547143D01*
X156060001Y-57475714D01*
X156131429Y-57332857D01*
X156131429Y-57190000D01*
X156060001Y-57047143D01*
X155988572Y-56975714D01*
X155845715Y-56904286D01*
X155560001Y-56832857D01*
X155417143Y-56761429D01*
X155345715Y-56690000D01*
X155274286Y-56547143D01*
X155274286Y-56404286D01*
X155345715Y-56261429D01*
X155417143Y-56190000D01*
X155560001Y-56118571D01*
X155917143Y-56118571D01*
X156131429Y-56190000D01*
X156702857Y-57190000D02*
X157417143Y-57190000D01*
X156560000Y-57618571D02*
X157060000Y-56118571D01*
X157560000Y-57618571D01*
D12*
X187536286Y-163043619D02*
X188116857Y-163043619D01*
X187826572Y-164059619D02*
X187826572Y-163043619D01*
X189036095Y-163962857D02*
X188987714Y-164011238D01*
X188842571Y-164059619D01*
X188745809Y-164059619D01*
X188600667Y-164011238D01*
X188503905Y-163914476D01*
X188455524Y-163817714D01*
X188407143Y-163624190D01*
X188407143Y-163479048D01*
X188455524Y-163285524D01*
X188503905Y-163188762D01*
X188600667Y-163092000D01*
X188745809Y-163043619D01*
X188842571Y-163043619D01*
X188987714Y-163092000D01*
X189036095Y-163140381D01*
X189423143Y-163769333D02*
X189906952Y-163769333D01*
X189326381Y-164059619D02*
X189665048Y-163043619D01*
X190003714Y-164059619D01*
D11*
X186400000Y-163800000D02*
X186400000Y-171600000D01*
X176400000Y-163800000D02*
X176400000Y-171600000D01*
D12*
X167183715Y-162703619D02*
X167522382Y-163719619D01*
X167861048Y-162703619D01*
X168151334Y-163671238D02*
X168296477Y-163719619D01*
X168538381Y-163719619D01*
X168635143Y-163671238D01*
X168683524Y-163622857D01*
X168731905Y-163526095D01*
X168731905Y-163429333D01*
X168683524Y-163332571D01*
X168635143Y-163284190D01*
X168538381Y-163235810D01*
X168344858Y-163187429D01*
X168248096Y-163139048D01*
X168199715Y-163090667D01*
X168151334Y-162993905D01*
X168151334Y-162897143D01*
X168199715Y-162800381D01*
X168248096Y-162752000D01*
X168344858Y-162703619D01*
X168586762Y-162703619D01*
X168731905Y-162752000D01*
X169118953Y-163671238D02*
X169264096Y-163719619D01*
X169506000Y-163719619D01*
X169602762Y-163671238D01*
X169651143Y-163622857D01*
X169699524Y-163526095D01*
X169699524Y-163429333D01*
X169651143Y-163332571D01*
X169602762Y-163284190D01*
X169506000Y-163235810D01*
X169312477Y-163187429D01*
X169215715Y-163139048D01*
X169167334Y-163090667D01*
X169118953Y-162993905D01*
X169118953Y-162897143D01*
X169167334Y-162800381D01*
X169215715Y-162752000D01*
X169312477Y-162703619D01*
X169554381Y-162703619D01*
X169699524Y-162752000D01*
D11*
X171400000Y-171600000D02*
X171400000Y-163800000D01*
D12*
X172319905Y-163871238D02*
X172465048Y-163919619D01*
X172706952Y-163919619D01*
X172803714Y-163871238D01*
X172852095Y-163822857D01*
X172900476Y-163726095D01*
X172900476Y-163629333D01*
X172852095Y-163532571D01*
X172803714Y-163484190D01*
X172706952Y-163435810D01*
X172513429Y-163387429D01*
X172416667Y-163339048D01*
X172368286Y-163290667D01*
X172319905Y-163193905D01*
X172319905Y-163097143D01*
X172368286Y-163000381D01*
X172416667Y-162952000D01*
X172513429Y-162903619D01*
X172755333Y-162903619D01*
X172900476Y-162952000D01*
X173287524Y-163629333D02*
X173771333Y-163629333D01*
X173190762Y-163919619D02*
X173529429Y-162903619D01*
X173868095Y-163919619D01*
X174061619Y-162903619D02*
X174400286Y-163919619D01*
X174738952Y-162903619D01*
X175077619Y-163532571D02*
X175851714Y-163532571D01*
D11*
X158000000Y-163800000D02*
X158000000Y-171600000D01*
D12*
X154193715Y-162673619D02*
X154532382Y-163689619D01*
X154871048Y-162673619D01*
X155161334Y-163641238D02*
X155306477Y-163689619D01*
X155548381Y-163689619D01*
X155645143Y-163641238D01*
X155693524Y-163592857D01*
X155741905Y-163496095D01*
X155741905Y-163399333D01*
X155693524Y-163302571D01*
X155645143Y-163254190D01*
X155548381Y-163205810D01*
X155354858Y-163157429D01*
X155258096Y-163109048D01*
X155209715Y-163060667D01*
X155161334Y-162963905D01*
X155161334Y-162867143D01*
X155209715Y-162770381D01*
X155258096Y-162722000D01*
X155354858Y-162673619D01*
X155596762Y-162673619D01*
X155741905Y-162722000D01*
X156128953Y-163641238D02*
X156274096Y-163689619D01*
X156516000Y-163689619D01*
X156612762Y-163641238D01*
X156661143Y-163592857D01*
X156709524Y-163496095D01*
X156709524Y-163399333D01*
X156661143Y-163302571D01*
X156612762Y-163254190D01*
X156516000Y-163205810D01*
X156322477Y-163157429D01*
X156225715Y-163109048D01*
X156177334Y-163060667D01*
X156128953Y-162963905D01*
X156128953Y-162867143D01*
X156177334Y-162770381D01*
X156225715Y-162722000D01*
X156322477Y-162673619D01*
X156564381Y-162673619D01*
X156709524Y-162722000D01*
X159197905Y-163609333D02*
X159681714Y-163609333D01*
X159101143Y-163899619D02*
X159439810Y-162883619D01*
X159778476Y-163899619D01*
X160310667Y-162883619D02*
X160504190Y-162883619D01*
X160600952Y-162932000D01*
X160697714Y-163028762D01*
X160746095Y-163222286D01*
X160746095Y-163560952D01*
X160697714Y-163754476D01*
X160600952Y-163851238D01*
X160504190Y-163899619D01*
X160310667Y-163899619D01*
X160213905Y-163851238D01*
X160117143Y-163754476D01*
X160068762Y-163560952D01*
X160068762Y-163222286D01*
X160117143Y-163028762D01*
X160213905Y-162932000D01*
X160310667Y-162883619D01*
X161181524Y-163899619D02*
X161181524Y-162883619D01*
X161762095Y-163899619D02*
X161326667Y-163319048D01*
X161762095Y-162883619D02*
X161181524Y-163464190D01*
D13*
X152331526Y-159969238D02*
X152331526Y-157937238D01*
X153105621Y-157937238D01*
X153299145Y-158034000D01*
X153395906Y-158130762D01*
X153492668Y-158324286D01*
X153492668Y-158614571D01*
X153395906Y-158808095D01*
X153299145Y-158904857D01*
X153105621Y-159001619D01*
X152331526Y-159001619D01*
X154653811Y-159969238D02*
X154460287Y-159872476D01*
X154363526Y-159678952D01*
X154363526Y-157937238D01*
X156298764Y-159969238D02*
X156298764Y-158904857D01*
X156202002Y-158711333D01*
X156008478Y-158614571D01*
X155621430Y-158614571D01*
X155427907Y-158711333D01*
X156298764Y-159872476D02*
X156105240Y-159969238D01*
X155621430Y-159969238D01*
X155427907Y-159872476D01*
X155331145Y-159678952D01*
X155331145Y-159485429D01*
X155427907Y-159291905D01*
X155621430Y-159195143D01*
X156105240Y-159195143D01*
X156298764Y-159098381D01*
X157169621Y-159872476D02*
X157363144Y-159969238D01*
X157750192Y-159969238D01*
X157943716Y-159872476D01*
X158040478Y-159678952D01*
X158040478Y-159582190D01*
X157943716Y-159388667D01*
X157750192Y-159291905D01*
X157459906Y-159291905D01*
X157266383Y-159195143D01*
X157169621Y-159001619D01*
X157169621Y-158904857D01*
X157266383Y-158711333D01*
X157459906Y-158614571D01*
X157750192Y-158614571D01*
X157943716Y-158711333D01*
X158911335Y-159969238D02*
X158911335Y-158614571D01*
X158911335Y-158808095D02*
X159008096Y-158711333D01*
X159201620Y-158614571D01*
X159491906Y-158614571D01*
X159685430Y-158711333D01*
X159782192Y-158904857D01*
X159782192Y-159969238D01*
X159782192Y-158904857D02*
X159878954Y-158711333D01*
X160072477Y-158614571D01*
X160362763Y-158614571D01*
X160556287Y-158711333D01*
X160653049Y-158904857D01*
X160653049Y-159969238D01*
X162491525Y-159969238D02*
X162491525Y-158904857D01*
X162394763Y-158711333D01*
X162201239Y-158614571D01*
X161814191Y-158614571D01*
X161620668Y-158711333D01*
X162491525Y-159872476D02*
X162298001Y-159969238D01*
X161814191Y-159969238D01*
X161620668Y-159872476D01*
X161523906Y-159678952D01*
X161523906Y-159485429D01*
X161620668Y-159291905D01*
X161814191Y-159195143D01*
X162298001Y-159195143D01*
X162491525Y-159098381D01*
X165007334Y-159969238D02*
X165007334Y-157937238D01*
X165684667Y-159388667D01*
X166362000Y-157937238D01*
X166362000Y-159969238D01*
X168200477Y-159969238D02*
X168200477Y-158904857D01*
X168103715Y-158711333D01*
X167910191Y-158614571D01*
X167523143Y-158614571D01*
X167329620Y-158711333D01*
X168200477Y-159872476D02*
X168006953Y-159969238D01*
X167523143Y-159969238D01*
X167329620Y-159872476D01*
X167232858Y-159678952D01*
X167232858Y-159485429D01*
X167329620Y-159291905D01*
X167523143Y-159195143D01*
X168006953Y-159195143D01*
X168200477Y-159098381D01*
X170038953Y-159872476D02*
X169845429Y-159969238D01*
X169458381Y-159969238D01*
X169264857Y-159872476D01*
X169168096Y-159775714D01*
X169071334Y-159582190D01*
X169071334Y-159001619D01*
X169168096Y-158808095D01*
X169264857Y-158711333D01*
X169458381Y-158614571D01*
X169845429Y-158614571D01*
X170038953Y-158711333D01*
X170909810Y-159969238D02*
X170909810Y-157937238D01*
X171780667Y-159969238D02*
X171780667Y-158904857D01*
X171683905Y-158711333D01*
X171490381Y-158614571D01*
X171200095Y-158614571D01*
X171006571Y-158711333D01*
X170909810Y-158808095D01*
X172748286Y-159969238D02*
X172748286Y-158614571D01*
X172748286Y-157937238D02*
X172651524Y-158034000D01*
X172748286Y-158130762D01*
X172845047Y-158034000D01*
X172748286Y-157937238D01*
X172748286Y-158130762D01*
X173715905Y-158614571D02*
X173715905Y-159969238D01*
X173715905Y-158808095D02*
X173812666Y-158711333D01*
X174006190Y-158614571D01*
X174296476Y-158614571D01*
X174490000Y-158711333D01*
X174586762Y-158904857D01*
X174586762Y-159969238D01*
X176328476Y-159872476D02*
X176134952Y-159969238D01*
X175747904Y-159969238D01*
X175554381Y-159872476D01*
X175457619Y-159678952D01*
X175457619Y-158904857D01*
X175554381Y-158711333D01*
X175747904Y-158614571D01*
X176134952Y-158614571D01*
X176328476Y-158711333D01*
X176425238Y-158904857D01*
X176425238Y-159098381D01*
X175457619Y-159291905D01*
D12*
X177119905Y-163981238D02*
X177265048Y-164029619D01*
X177506952Y-164029619D01*
X177603714Y-163981238D01*
X177652095Y-163932857D01*
X177700476Y-163836095D01*
X177700476Y-163739333D01*
X177652095Y-163642571D01*
X177603714Y-163594190D01*
X177506952Y-163545810D01*
X177313429Y-163497429D01*
X177216667Y-163449048D01*
X177168286Y-163400667D01*
X177119905Y-163303905D01*
X177119905Y-163207143D01*
X177168286Y-163110381D01*
X177216667Y-163062000D01*
X177313429Y-163013619D01*
X177555333Y-163013619D01*
X177700476Y-163062000D01*
X178087524Y-163739333D02*
X178571333Y-163739333D01*
X177990762Y-164029619D02*
X178329429Y-163013619D01*
X178668095Y-164029619D01*
X178861619Y-163013619D02*
X179200286Y-164029619D01*
X179538952Y-163013619D01*
X179877619Y-163642571D02*
X180651714Y-163642571D01*
X180264666Y-164029619D02*
X180264666Y-163255524D01*
D11*
X181400000Y-163800000D02*
X181400000Y-171600000D01*
D12*
X182493715Y-163043619D02*
X183074286Y-163043619D01*
X182784001Y-164059619D02*
X182784001Y-163043619D01*
X183993524Y-163962857D02*
X183945143Y-164011238D01*
X183800000Y-164059619D01*
X183703238Y-164059619D01*
X183558096Y-164011238D01*
X183461334Y-163914476D01*
X183412953Y-163817714D01*
X183364572Y-163624190D01*
X183364572Y-163479048D01*
X183412953Y-163285524D01*
X183461334Y-163188762D01*
X183558096Y-163092000D01*
X183703238Y-163043619D01*
X183800000Y-163043619D01*
X183945143Y-163092000D01*
X183993524Y-163140381D01*
X184767619Y-163527429D02*
X184912762Y-163575810D01*
X184961143Y-163624190D01*
X185009524Y-163720952D01*
X185009524Y-163866095D01*
X184961143Y-163962857D01*
X184912762Y-164011238D01*
X184816000Y-164059619D01*
X184428953Y-164059619D01*
X184428953Y-163043619D01*
X184767619Y-163043619D01*
X184864381Y-163092000D01*
X184912762Y-163140381D01*
X184961143Y-163237143D01*
X184961143Y-163333905D01*
X184912762Y-163430667D01*
X184864381Y-163479048D01*
X184767619Y-163527429D01*
X184428953Y-163527429D01*
D11*
X190250000Y-154200000D02*
X190250000Y-146400000D01*
D12*
X193143524Y-154092286D02*
X193143524Y-154769619D01*
X192901620Y-153705238D02*
X192659715Y-154430952D01*
X193288667Y-154430952D01*
X188151905Y-153663619D02*
X187668096Y-153663619D01*
X187619715Y-154147429D01*
X187668096Y-154099048D01*
X187764858Y-154050667D01*
X188006762Y-154050667D01*
X188103524Y-154099048D01*
X188151905Y-154147429D01*
X188200286Y-154244190D01*
X188200286Y-154486095D01*
X188151905Y-154582857D01*
X188103524Y-154631238D01*
X188006762Y-154679619D01*
X187764858Y-154679619D01*
X187668096Y-154631238D01*
X187619715Y-154582857D01*
D11*
X205250000Y-146400000D02*
X205250000Y-154200000D01*
D12*
X206663715Y-162733619D02*
X207002382Y-163749619D01*
X207341048Y-162733619D01*
X207631334Y-163701238D02*
X207776477Y-163749619D01*
X208018381Y-163749619D01*
X208115143Y-163701238D01*
X208163524Y-163652857D01*
X208211905Y-163556095D01*
X208211905Y-163459333D01*
X208163524Y-163362571D01*
X208115143Y-163314190D01*
X208018381Y-163265810D01*
X207824858Y-163217429D01*
X207728096Y-163169048D01*
X207679715Y-163120667D01*
X207631334Y-163023905D01*
X207631334Y-162927143D01*
X207679715Y-162830381D01*
X207728096Y-162782000D01*
X207824858Y-162733619D01*
X208066762Y-162733619D01*
X208211905Y-162782000D01*
X208598953Y-163701238D02*
X208744096Y-163749619D01*
X208986000Y-163749619D01*
X209082762Y-163701238D01*
X209131143Y-163652857D01*
X209179524Y-163556095D01*
X209179524Y-163459333D01*
X209131143Y-163362571D01*
X209082762Y-163314190D01*
X208986000Y-163265810D01*
X208792477Y-163217429D01*
X208695715Y-163169048D01*
X208647334Y-163120667D01*
X208598953Y-163023905D01*
X208598953Y-162927143D01*
X208647334Y-162830381D01*
X208695715Y-162782000D01*
X208792477Y-162733619D01*
X209034381Y-162733619D01*
X209179524Y-162782000D01*
D11*
X210650000Y-163675000D02*
X210650000Y-171475000D01*
X200250000Y-154200000D02*
X200250000Y-146400000D01*
D13*
X188944382Y-142618667D02*
X189912001Y-142618667D01*
X188750858Y-143199238D02*
X189428191Y-141167238D01*
X190105524Y-143199238D01*
X190782858Y-141167238D02*
X190782858Y-142812190D01*
X190879619Y-143005714D01*
X190976381Y-143102476D01*
X191169905Y-143199238D01*
X191556953Y-143199238D01*
X191750477Y-143102476D01*
X191847238Y-143005714D01*
X191944000Y-142812190D01*
X191944000Y-141167238D01*
X192718096Y-141167238D02*
X194072762Y-143199238D01*
X194072762Y-141167238D02*
X192718096Y-143199238D01*
X196782095Y-141167238D02*
X197169143Y-141167238D01*
X197362667Y-141264000D01*
X197556190Y-141457524D01*
X197652952Y-141844571D01*
X197652952Y-142521905D01*
X197556190Y-142908952D01*
X197362667Y-143102476D01*
X197169143Y-143199238D01*
X196782095Y-143199238D01*
X196588571Y-143102476D01*
X196395048Y-142908952D01*
X196298286Y-142521905D01*
X196298286Y-141844571D01*
X196395048Y-141457524D01*
X196588571Y-141264000D01*
X196782095Y-141167238D01*
X199394667Y-141844571D02*
X199394667Y-143199238D01*
X198523810Y-141844571D02*
X198523810Y-142908952D01*
X198620571Y-143102476D01*
X198814095Y-143199238D01*
X199104381Y-143199238D01*
X199297905Y-143102476D01*
X199394667Y-143005714D01*
X200072000Y-141844571D02*
X200846095Y-141844571D01*
X200362286Y-141167238D02*
X200362286Y-142908952D01*
X200459047Y-143102476D01*
X200652571Y-143199238D01*
X200846095Y-143199238D01*
X201523429Y-141844571D02*
X201523429Y-143876571D01*
X201523429Y-141941333D02*
X201716952Y-141844571D01*
X202104000Y-141844571D01*
X202297524Y-141941333D01*
X202394286Y-142038095D01*
X202491048Y-142231619D01*
X202491048Y-142812190D01*
X202394286Y-143005714D01*
X202297524Y-143102476D01*
X202104000Y-143199238D01*
X201716952Y-143199238D01*
X201523429Y-143102476D01*
X204232762Y-141844571D02*
X204232762Y-143199238D01*
X203361905Y-141844571D02*
X203361905Y-142908952D01*
X203458666Y-143102476D01*
X203652190Y-143199238D01*
X203942476Y-143199238D01*
X204136000Y-143102476D01*
X204232762Y-143005714D01*
X204910095Y-141844571D02*
X205684190Y-141844571D01*
X205200381Y-141167238D02*
X205200381Y-142908952D01*
X205297142Y-143102476D01*
X205490666Y-143199238D01*
X205684190Y-143199238D01*
X206264762Y-143102476D02*
X206458285Y-143199238D01*
X206845333Y-143199238D01*
X207038857Y-143102476D01*
X207135619Y-142908952D01*
X207135619Y-142812190D01*
X207038857Y-142618667D01*
X206845333Y-142521905D01*
X206555047Y-142521905D01*
X206361524Y-142425143D01*
X206264762Y-142231619D01*
X206264762Y-142134857D01*
X206361524Y-141941333D01*
X206555047Y-141844571D01*
X206845333Y-141844571D01*
X207038857Y-141941333D01*
D11*
X195250000Y-154200000D02*
X195250000Y-146400000D01*
X205650000Y-163675000D02*
X205650000Y-171475000D01*
X200650000Y-171475000D02*
X200650000Y-163675000D01*
D12*
X197085905Y-162732000D02*
X196989143Y-162683619D01*
X196844000Y-162683619D01*
X196698858Y-162732000D01*
X196602096Y-162828762D01*
X196553715Y-162925524D01*
X196505334Y-163119048D01*
X196505334Y-163264190D01*
X196553715Y-163457714D01*
X196602096Y-163554476D01*
X196698858Y-163651238D01*
X196844000Y-163699619D01*
X196940762Y-163699619D01*
X197085905Y-163651238D01*
X197134286Y-163602857D01*
X197134286Y-163264190D01*
X196940762Y-163264190D01*
X197569715Y-163699619D02*
X197569715Y-162683619D01*
X198150286Y-163699619D01*
X198150286Y-162683619D01*
X198634096Y-163699619D02*
X198634096Y-162683619D01*
X198876001Y-162683619D01*
X199021143Y-162732000D01*
X199117905Y-162828762D01*
X199166286Y-162925524D01*
X199214667Y-163119048D01*
X199214667Y-163264190D01*
X199166286Y-163457714D01*
X199117905Y-163554476D01*
X199021143Y-163651238D01*
X198876001Y-163699619D01*
X198634096Y-163699619D01*
X208470286Y-154599619D02*
X207889715Y-154599619D01*
X208180001Y-154599619D02*
X208180001Y-153583619D01*
X208083239Y-153728762D01*
X207986477Y-153825524D01*
X207889715Y-153873905D01*
X201259905Y-163262571D02*
X202034000Y-163262571D01*
X201646952Y-163649619D02*
X201646952Y-162875524D01*
X203050000Y-163649619D02*
X202469429Y-163649619D01*
X202759715Y-163649619D02*
X202759715Y-162633619D01*
X202662953Y-162778762D01*
X202566191Y-162875524D01*
X202469429Y-162923905D01*
X203437048Y-162730381D02*
X203485429Y-162682000D01*
X203582191Y-162633619D01*
X203824095Y-162633619D01*
X203920857Y-162682000D01*
X203969238Y-162730381D01*
X204017619Y-162827143D01*
X204017619Y-162923905D01*
X203969238Y-163069048D01*
X203388667Y-163649619D01*
X204017619Y-163649619D01*
X204307905Y-162633619D02*
X204646572Y-163649619D01*
X204985238Y-162633619D01*
X202619715Y-153760381D02*
X202668096Y-153712000D01*
X202764858Y-153663619D01*
X203006762Y-153663619D01*
X203103524Y-153712000D01*
X203151905Y-153760381D01*
X203200286Y-153857143D01*
X203200286Y-153953905D01*
X203151905Y-154099048D01*
X202571334Y-154679619D01*
X203200286Y-154679619D01*
X197651334Y-153733619D02*
X198280286Y-153733619D01*
X197941620Y-154120667D01*
X198086762Y-154120667D01*
X198183524Y-154169048D01*
X198231905Y-154217429D01*
X198280286Y-154314190D01*
X198280286Y-154556095D01*
X198231905Y-154652857D01*
X198183524Y-154701238D01*
X198086762Y-154749619D01*
X197796477Y-154749619D01*
X197699715Y-154701238D01*
X197651334Y-154652857D01*
X211398286Y-163559333D02*
X211882095Y-163559333D01*
X211301524Y-163849619D02*
X211640191Y-162833619D01*
X211978857Y-163849619D01*
X212317524Y-163172286D02*
X212317524Y-163849619D01*
X212317524Y-163269048D02*
X212365905Y-163220667D01*
X212462667Y-163172286D01*
X212607809Y-163172286D01*
X212704571Y-163220667D01*
X212752952Y-163317429D01*
X212752952Y-163849619D01*
X213091619Y-163172286D02*
X213478667Y-163172286D01*
X213236762Y-162833619D02*
X213236762Y-163704476D01*
X213285143Y-163801238D01*
X213381905Y-163849619D01*
X213478667Y-163849619D01*
X213817333Y-163849619D02*
X213817333Y-163172286D01*
X213817333Y-162833619D02*
X213768952Y-162882000D01*
X213817333Y-162930381D01*
X213865714Y-162882000D01*
X213817333Y-162833619D01*
X213817333Y-162930381D01*
X214301143Y-163849619D02*
X214301143Y-162833619D01*
X214543048Y-162833619D01*
X214688190Y-162882000D01*
X214784952Y-162978762D01*
X214833333Y-163075524D01*
X214881714Y-163269048D01*
X214881714Y-163414190D01*
X214833333Y-163607714D01*
X214784952Y-163704476D01*
X214688190Y-163801238D01*
X214543048Y-163849619D01*
X214301143Y-163849619D01*
D11*
X215650000Y-163675000D02*
X215650000Y-171475000D01*
D12*
X216613715Y-162773619D02*
X216952382Y-163789619D01*
X217291048Y-162773619D01*
X217581334Y-163741238D02*
X217726477Y-163789619D01*
X217968381Y-163789619D01*
X218065143Y-163741238D01*
X218113524Y-163692857D01*
X218161905Y-163596095D01*
X218161905Y-163499333D01*
X218113524Y-163402571D01*
X218065143Y-163354190D01*
X217968381Y-163305810D01*
X217774858Y-163257429D01*
X217678096Y-163209048D01*
X217629715Y-163160667D01*
X217581334Y-163063905D01*
X217581334Y-162967143D01*
X217629715Y-162870381D01*
X217678096Y-162822000D01*
X217774858Y-162773619D01*
X218016762Y-162773619D01*
X218161905Y-162822000D01*
X218548953Y-163741238D02*
X218694096Y-163789619D01*
X218936000Y-163789619D01*
X219032762Y-163741238D01*
X219081143Y-163692857D01*
X219129524Y-163596095D01*
X219129524Y-163499333D01*
X219081143Y-163402571D01*
X219032762Y-163354190D01*
X218936000Y-163305810D01*
X218742477Y-163257429D01*
X218645715Y-163209048D01*
X218597334Y-163160667D01*
X218548953Y-163063905D01*
X218548953Y-162967143D01*
X218597334Y-162870381D01*
X218645715Y-162822000D01*
X218742477Y-162773619D01*
X218984381Y-162773619D01*
X219129524Y-162822000D01*
X155943715Y-136023619D02*
X156282382Y-137039619D01*
X156621048Y-136023619D01*
X156911334Y-136991238D02*
X157056477Y-137039619D01*
X157298381Y-137039619D01*
X157395143Y-136991238D01*
X157443524Y-136942857D01*
X157491905Y-136846095D01*
X157491905Y-136749333D01*
X157443524Y-136652571D01*
X157395143Y-136604190D01*
X157298381Y-136555810D01*
X157104858Y-136507429D01*
X157008096Y-136459048D01*
X156959715Y-136410667D01*
X156911334Y-136313905D01*
X156911334Y-136217143D01*
X156959715Y-136120381D01*
X157008096Y-136072000D01*
X157104858Y-136023619D01*
X157346762Y-136023619D01*
X157491905Y-136072000D01*
X157878953Y-136991238D02*
X158024096Y-137039619D01*
X158266000Y-137039619D01*
X158362762Y-136991238D01*
X158411143Y-136942857D01*
X158459524Y-136846095D01*
X158459524Y-136749333D01*
X158411143Y-136652571D01*
X158362762Y-136604190D01*
X158266000Y-136555810D01*
X158072477Y-136507429D01*
X157975715Y-136459048D01*
X157927334Y-136410667D01*
X157878953Y-136313905D01*
X157878953Y-136217143D01*
X157927334Y-136120381D01*
X157975715Y-136072000D01*
X158072477Y-136023619D01*
X158314381Y-136023619D01*
X158459524Y-136072000D01*
X151123715Y-136043619D02*
X151462382Y-137059619D01*
X151801048Y-136043619D01*
X152091334Y-137011238D02*
X152236477Y-137059619D01*
X152478381Y-137059619D01*
X152575143Y-137011238D01*
X152623524Y-136962857D01*
X152671905Y-136866095D01*
X152671905Y-136769333D01*
X152623524Y-136672571D01*
X152575143Y-136624190D01*
X152478381Y-136575810D01*
X152284858Y-136527429D01*
X152188096Y-136479048D01*
X152139715Y-136430667D01*
X152091334Y-136333905D01*
X152091334Y-136237143D01*
X152139715Y-136140381D01*
X152188096Y-136092000D01*
X152284858Y-136043619D01*
X152526762Y-136043619D01*
X152671905Y-136092000D01*
X153058953Y-137011238D02*
X153204096Y-137059619D01*
X153446000Y-137059619D01*
X153542762Y-137011238D01*
X153591143Y-136962857D01*
X153639524Y-136866095D01*
X153639524Y-136769333D01*
X153591143Y-136672571D01*
X153542762Y-136624190D01*
X153446000Y-136575810D01*
X153252477Y-136527429D01*
X153155715Y-136479048D01*
X153107334Y-136430667D01*
X153058953Y-136333905D01*
X153058953Y-136237143D01*
X153107334Y-136140381D01*
X153155715Y-136092000D01*
X153252477Y-136043619D01*
X153494381Y-136043619D01*
X153639524Y-136092000D01*
D11*
X154550000Y-136450000D02*
X154550000Y-128650000D01*
D13*
X154595525Y-142618667D02*
X155563144Y-142618667D01*
X154402001Y-143199238D02*
X155079334Y-141167238D01*
X155756667Y-143199238D01*
X156434001Y-141167238D02*
X156434001Y-142812190D01*
X156530762Y-143005714D01*
X156627524Y-143102476D01*
X156821048Y-143199238D01*
X157208096Y-143199238D01*
X157401620Y-143102476D01*
X157498381Y-143005714D01*
X157595143Y-142812190D01*
X157595143Y-141167238D01*
X158369239Y-141167238D02*
X159723905Y-143199238D01*
X159723905Y-141167238D02*
X158369239Y-143199238D01*
X162046191Y-143199238D02*
X162046191Y-141167238D01*
X163013810Y-141844571D02*
X163013810Y-143199238D01*
X163013810Y-142038095D02*
X163110571Y-141941333D01*
X163304095Y-141844571D01*
X163594381Y-141844571D01*
X163787905Y-141941333D01*
X163884667Y-142134857D01*
X163884667Y-143199238D01*
X164852286Y-141844571D02*
X164852286Y-143876571D01*
X164852286Y-141941333D02*
X165045809Y-141844571D01*
X165432857Y-141844571D01*
X165626381Y-141941333D01*
X165723143Y-142038095D01*
X165819905Y-142231619D01*
X165819905Y-142812190D01*
X165723143Y-143005714D01*
X165626381Y-143102476D01*
X165432857Y-143199238D01*
X165045809Y-143199238D01*
X164852286Y-143102476D01*
X167561619Y-141844571D02*
X167561619Y-143199238D01*
X166690762Y-141844571D02*
X166690762Y-142908952D01*
X166787523Y-143102476D01*
X166981047Y-143199238D01*
X167271333Y-143199238D01*
X167464857Y-143102476D01*
X167561619Y-143005714D01*
X168238952Y-141844571D02*
X169013047Y-141844571D01*
X168529238Y-141167238D02*
X168529238Y-142908952D01*
X168625999Y-143102476D01*
X168819523Y-143199238D01*
X169013047Y-143199238D01*
X169593619Y-143102476D02*
X169787142Y-143199238D01*
X170174190Y-143199238D01*
X170367714Y-143102476D01*
X170464476Y-142908952D01*
X170464476Y-142812190D01*
X170367714Y-142618667D01*
X170174190Y-142521905D01*
X169883904Y-142521905D01*
X169690381Y-142425143D01*
X169593619Y-142231619D01*
X169593619Y-142134857D01*
X169690381Y-141941333D01*
X169883904Y-141844571D01*
X170174190Y-141844571D01*
X170367714Y-141941333D01*
D11*
X175100000Y-151575000D02*
X175100000Y-154375000D01*
D12*
X167129715Y-154000381D02*
X167178096Y-153952000D01*
X167274858Y-153903619D01*
X167516762Y-153903619D01*
X167613524Y-153952000D01*
X167661905Y-154000381D01*
X167710286Y-154097143D01*
X167710286Y-154193905D01*
X167661905Y-154339048D01*
X167081334Y-154919619D01*
X167710286Y-154919619D01*
D11*
X169700000Y-146575000D02*
X169700000Y-154375000D01*
D12*
X172880286Y-154919619D02*
X172299715Y-154919619D01*
X172590001Y-154919619D02*
X172590001Y-153903619D01*
X172493239Y-154048762D01*
X172396477Y-154145524D01*
X172299715Y-154193905D01*
D11*
X164700000Y-154375000D02*
X164700000Y-146575000D01*
X170590000Y-118055000D02*
X162790000Y-118055000D01*
D13*
X153146002Y-125729238D02*
X153146002Y-123697238D01*
X153146002Y-124664857D02*
X154307144Y-124664857D01*
X154307144Y-125729238D02*
X154307144Y-123697238D01*
X155565049Y-125729238D02*
X155371525Y-125632476D01*
X155274764Y-125535714D01*
X155178002Y-125342190D01*
X155178002Y-124761619D01*
X155274764Y-124568095D01*
X155371525Y-124471333D01*
X155565049Y-124374571D01*
X155855335Y-124374571D01*
X156048859Y-124471333D01*
X156145621Y-124568095D01*
X156242383Y-124761619D01*
X156242383Y-125342190D01*
X156145621Y-125535714D01*
X156048859Y-125632476D01*
X155855335Y-125729238D01*
X155565049Y-125729238D01*
X157113240Y-125729238D02*
X157113240Y-124374571D01*
X157113240Y-124568095D02*
X157210001Y-124471333D01*
X157403525Y-124374571D01*
X157693811Y-124374571D01*
X157887335Y-124471333D01*
X157984097Y-124664857D01*
X157984097Y-125729238D01*
X157984097Y-124664857D02*
X158080859Y-124471333D01*
X158274382Y-124374571D01*
X158564668Y-124374571D01*
X158758192Y-124471333D01*
X158854954Y-124664857D01*
X158854954Y-125729238D01*
X160596668Y-125632476D02*
X160403144Y-125729238D01*
X160016096Y-125729238D01*
X159822573Y-125632476D01*
X159725811Y-125438952D01*
X159725811Y-124664857D01*
X159822573Y-124471333D01*
X160016096Y-124374571D01*
X160403144Y-124374571D01*
X160596668Y-124471333D01*
X160693430Y-124664857D01*
X160693430Y-124858381D01*
X159725811Y-125051905D01*
X163112477Y-125729238D02*
X163112477Y-123697238D01*
X164080096Y-124374571D02*
X164080096Y-125729238D01*
X164080096Y-124568095D02*
X164176857Y-124471333D01*
X164370381Y-124374571D01*
X164660667Y-124374571D01*
X164854191Y-124471333D01*
X164950953Y-124664857D01*
X164950953Y-125729238D01*
X165918572Y-124374571D02*
X165918572Y-126406571D01*
X165918572Y-124471333D02*
X166112095Y-124374571D01*
X166499143Y-124374571D01*
X166692667Y-124471333D01*
X166789429Y-124568095D01*
X166886191Y-124761619D01*
X166886191Y-125342190D01*
X166789429Y-125535714D01*
X166692667Y-125632476D01*
X166499143Y-125729238D01*
X166112095Y-125729238D01*
X165918572Y-125632476D01*
X168627905Y-124374571D02*
X168627905Y-125729238D01*
X167757048Y-124374571D02*
X167757048Y-125438952D01*
X167853809Y-125632476D01*
X168047333Y-125729238D01*
X168337619Y-125729238D01*
X168531143Y-125632476D01*
X168627905Y-125535714D01*
X169305238Y-124374571D02*
X170079333Y-124374571D01*
X169595524Y-123697238D02*
X169595524Y-125438952D01*
X169692285Y-125632476D01*
X169885809Y-125729238D01*
X170079333Y-125729238D01*
X170659905Y-125632476D02*
X170853428Y-125729238D01*
X171240476Y-125729238D01*
X171434000Y-125632476D01*
X171530762Y-125438952D01*
X171530762Y-125342190D01*
X171434000Y-125148667D01*
X171240476Y-125051905D01*
X170950190Y-125051905D01*
X170756667Y-124955143D01*
X170659905Y-124761619D01*
X170659905Y-124664857D01*
X170756667Y-124471333D01*
X170950190Y-124374571D01*
X171240476Y-124374571D01*
X171434000Y-124471333D01*
D12*
X170613619Y-121674666D02*
X171629619Y-121335999D01*
X170613619Y-120997333D01*
X171629619Y-120658666D02*
X170613619Y-120658666D01*
X170613619Y-120416761D01*
X170662000Y-120271619D01*
X170758762Y-120174857D01*
X170855524Y-120126476D01*
X171049048Y-120078095D01*
X171194190Y-120078095D01*
X171387714Y-120126476D01*
X171484476Y-120174857D01*
X171581238Y-120271619D01*
X171629619Y-120416761D01*
X171629619Y-120658666D01*
X171629619Y-119642666D02*
X170613619Y-119642666D01*
X170613619Y-119400761D01*
X170662000Y-119255619D01*
X170758762Y-119158857D01*
X170855524Y-119110476D01*
X171049048Y-119062095D01*
X171194190Y-119062095D01*
X171387714Y-119110476D01*
X171484476Y-119158857D01*
X171581238Y-119255619D01*
X171629619Y-119400761D01*
X171629619Y-119642666D01*
D11*
X159550000Y-136450000D02*
X159550000Y-128650000D01*
X169550000Y-128650000D02*
X169550000Y-136450000D01*
D12*
X167340001Y-136625810D02*
X167340001Y-137109619D01*
X167001334Y-136093619D02*
X167340001Y-136625810D01*
X167678667Y-136093619D01*
D11*
X164550000Y-136450000D02*
X164550000Y-128650000D01*
D12*
X161821334Y-136153619D02*
X162498667Y-136153619D01*
X161821334Y-137169619D01*
X162498667Y-137169619D01*
X172191334Y-136153619D02*
X172868667Y-137169619D01*
X172868667Y-136153619D02*
X172191334Y-137169619D01*
X147472000Y-105734095D02*
X147423619Y-105830857D01*
X147423619Y-105976000D01*
X147472000Y-106121142D01*
X147568762Y-106217904D01*
X147665524Y-106266285D01*
X147859048Y-106314666D01*
X148004190Y-106314666D01*
X148197714Y-106266285D01*
X148294476Y-106217904D01*
X148391238Y-106121142D01*
X148439619Y-105976000D01*
X148439619Y-105879238D01*
X148391238Y-105734095D01*
X148342857Y-105685714D01*
X148004190Y-105685714D01*
X148004190Y-105879238D01*
X148439619Y-105250285D02*
X147423619Y-105250285D01*
X148439619Y-104669714D01*
X147423619Y-104669714D01*
X148439619Y-104185904D02*
X147423619Y-104185904D01*
X147423619Y-103943999D01*
X147472000Y-103798857D01*
X147568762Y-103702095D01*
X147665524Y-103653714D01*
X147859048Y-103605333D01*
X148004190Y-103605333D01*
X148197714Y-103653714D01*
X148294476Y-103702095D01*
X148391238Y-103798857D01*
X148439619Y-103943999D01*
X148439619Y-104185904D01*
D11*
X139790000Y-102625000D02*
X147590000Y-102625000D01*
D12*
X147353619Y-100986285D02*
X148369619Y-100647618D01*
X147353619Y-100308952D01*
X148321238Y-100018666D02*
X148369619Y-99873523D01*
X148369619Y-99631619D01*
X148321238Y-99534857D01*
X148272857Y-99486476D01*
X148176095Y-99438095D01*
X148079333Y-99438095D01*
X147982571Y-99486476D01*
X147934190Y-99534857D01*
X147885810Y-99631619D01*
X147837429Y-99825142D01*
X147789048Y-99921904D01*
X147740667Y-99970285D01*
X147643905Y-100018666D01*
X147547143Y-100018666D01*
X147450381Y-99970285D01*
X147402000Y-99921904D01*
X147353619Y-99825142D01*
X147353619Y-99583238D01*
X147402000Y-99438095D01*
X148321238Y-99051047D02*
X148369619Y-98905904D01*
X148369619Y-98664000D01*
X148321238Y-98567238D01*
X148272857Y-98518857D01*
X148176095Y-98470476D01*
X148079333Y-98470476D01*
X147982571Y-98518857D01*
X147934190Y-98567238D01*
X147885810Y-98664000D01*
X147837429Y-98857523D01*
X147789048Y-98954285D01*
X147740667Y-99002666D01*
X147643905Y-99051047D01*
X147547143Y-99051047D01*
X147450381Y-99002666D01*
X147402000Y-98954285D01*
X147353619Y-98857523D01*
X147353619Y-98615619D01*
X147402000Y-98470476D01*
D11*
X147590000Y-107625000D02*
X139790000Y-107625000D01*
D12*
X147612000Y-110724095D02*
X147563619Y-110820857D01*
X147563619Y-110966000D01*
X147612000Y-111111142D01*
X147708762Y-111207904D01*
X147805524Y-111256285D01*
X147999048Y-111304666D01*
X148144190Y-111304666D01*
X148337714Y-111256285D01*
X148434476Y-111207904D01*
X148531238Y-111111142D01*
X148579619Y-110966000D01*
X148579619Y-110869238D01*
X148531238Y-110724095D01*
X148482857Y-110675714D01*
X148144190Y-110675714D01*
X148144190Y-110869238D01*
X148579619Y-110240285D02*
X147563619Y-110240285D01*
X148579619Y-109659714D01*
X147563619Y-109659714D01*
X148579619Y-109175904D02*
X147563619Y-109175904D01*
X147563619Y-108933999D01*
X147612000Y-108788857D01*
X147708762Y-108692095D01*
X147805524Y-108643714D01*
X147999048Y-108595333D01*
X148144190Y-108595333D01*
X148337714Y-108643714D01*
X148434476Y-108692095D01*
X148531238Y-108788857D01*
X148579619Y-108933999D01*
X148579619Y-109175904D01*
X147633619Y-116164666D02*
X148649619Y-115825999D01*
X147633619Y-115487333D01*
X148649619Y-115148666D02*
X147633619Y-115148666D01*
X147633619Y-114906761D01*
X147682000Y-114761619D01*
X147778762Y-114664857D01*
X147875524Y-114616476D01*
X148069048Y-114568095D01*
X148214190Y-114568095D01*
X148407714Y-114616476D01*
X148504476Y-114664857D01*
X148601238Y-114761619D01*
X148649619Y-114906761D01*
X148649619Y-115148666D01*
X148649619Y-114132666D02*
X147633619Y-114132666D01*
X147633619Y-113890761D01*
X147682000Y-113745619D01*
X147778762Y-113648857D01*
X147875524Y-113600476D01*
X148069048Y-113552095D01*
X148214190Y-113552095D01*
X148407714Y-113600476D01*
X148504476Y-113648857D01*
X148601238Y-113745619D01*
X148649619Y-113890761D01*
X148649619Y-114132666D01*
D11*
X147590000Y-112625000D02*
X139790000Y-112625000D01*
X147590000Y-117625000D02*
X139790000Y-117625000D01*
D12*
X147493619Y-121374666D02*
X148509619Y-121035999D01*
X147493619Y-120697333D01*
X148509619Y-120358666D02*
X147493619Y-120358666D01*
X147493619Y-120116761D01*
X147542000Y-119971619D01*
X147638762Y-119874857D01*
X147735524Y-119826476D01*
X147929048Y-119778095D01*
X148074190Y-119778095D01*
X148267714Y-119826476D01*
X148364476Y-119874857D01*
X148461238Y-119971619D01*
X148509619Y-120116761D01*
X148509619Y-120358666D01*
X148509619Y-119342666D02*
X147493619Y-119342666D01*
X147493619Y-119100761D01*
X147542000Y-118955619D01*
X147638762Y-118858857D01*
X147735524Y-118810476D01*
X147929048Y-118762095D01*
X148074190Y-118762095D01*
X148267714Y-118810476D01*
X148364476Y-118858857D01*
X148461238Y-118955619D01*
X148509619Y-119100761D01*
X148509619Y-119342666D01*
D11*
X170590000Y-113055000D02*
X162790000Y-113055000D01*
D12*
X170422000Y-111184095D02*
X170373619Y-111280857D01*
X170373619Y-111426000D01*
X170422000Y-111571142D01*
X170518762Y-111667904D01*
X170615524Y-111716285D01*
X170809048Y-111764666D01*
X170954190Y-111764666D01*
X171147714Y-111716285D01*
X171244476Y-111667904D01*
X171341238Y-111571142D01*
X171389619Y-111426000D01*
X171389619Y-111329238D01*
X171341238Y-111184095D01*
X171292857Y-111135714D01*
X170954190Y-111135714D01*
X170954190Y-111329238D01*
X171389619Y-110700285D02*
X170373619Y-110700285D01*
X171389619Y-110119714D01*
X170373619Y-110119714D01*
X171389619Y-109635904D02*
X170373619Y-109635904D01*
X170373619Y-109393999D01*
X170422000Y-109248857D01*
X170518762Y-109152095D01*
X170615524Y-109103714D01*
X170809048Y-109055333D01*
X170954190Y-109055333D01*
X171147714Y-109103714D01*
X171244476Y-109152095D01*
X171341238Y-109248857D01*
X171389619Y-109393999D01*
X171389619Y-109635904D01*
X170443619Y-116834666D02*
X171459619Y-116495999D01*
X170443619Y-116157333D01*
X171459619Y-115818666D02*
X170443619Y-115818666D01*
X170443619Y-115576761D01*
X170492000Y-115431619D01*
X170588762Y-115334857D01*
X170685524Y-115286476D01*
X170879048Y-115238095D01*
X171024190Y-115238095D01*
X171217714Y-115286476D01*
X171314476Y-115334857D01*
X171411238Y-115431619D01*
X171459619Y-115576761D01*
X171459619Y-115818666D01*
X171459619Y-114802666D02*
X170443619Y-114802666D01*
X170443619Y-114560761D01*
X170492000Y-114415619D01*
X170588762Y-114318857D01*
X170685524Y-114270476D01*
X170879048Y-114222095D01*
X171024190Y-114222095D01*
X171217714Y-114270476D01*
X171314476Y-114318857D01*
X171411238Y-114415619D01*
X171459619Y-114560761D01*
X171459619Y-114802666D01*
D11*
X162790000Y-103055000D02*
X170590000Y-103055000D01*
D12*
X170442000Y-106234095D02*
X170393619Y-106330857D01*
X170393619Y-106476000D01*
X170442000Y-106621142D01*
X170538762Y-106717904D01*
X170635524Y-106766285D01*
X170829048Y-106814666D01*
X170974190Y-106814666D01*
X171167714Y-106766285D01*
X171264476Y-106717904D01*
X171361238Y-106621142D01*
X171409619Y-106476000D01*
X171409619Y-106379238D01*
X171361238Y-106234095D01*
X171312857Y-106185714D01*
X170974190Y-106185714D01*
X170974190Y-106379238D01*
X171409619Y-105750285D02*
X170393619Y-105750285D01*
X171409619Y-105169714D01*
X170393619Y-105169714D01*
X171409619Y-104685904D02*
X170393619Y-104685904D01*
X170393619Y-104443999D01*
X170442000Y-104298857D01*
X170538762Y-104202095D01*
X170635524Y-104153714D01*
X170829048Y-104105333D01*
X170974190Y-104105333D01*
X171167714Y-104153714D01*
X171264476Y-104202095D01*
X171361238Y-104298857D01*
X171409619Y-104443999D01*
X171409619Y-104685904D01*
D11*
X170590000Y-108055000D02*
X162790000Y-108055000D01*
D12*
X207037715Y-135839333D02*
X207521524Y-135839333D01*
X206940953Y-136129619D02*
X207279620Y-135113619D01*
X207618286Y-136129619D01*
X207956953Y-136129619D02*
X207956953Y-135113619D01*
X208295619Y-135839333D01*
X208634286Y-135113619D01*
X208634286Y-136129619D01*
X209118096Y-136129619D02*
X209118096Y-135113619D01*
X209505143Y-135113619D01*
X209601905Y-135162000D01*
X209650286Y-135210381D01*
X209698667Y-135307143D01*
X209698667Y-135452286D01*
X209650286Y-135549048D01*
X209601905Y-135597429D01*
X209505143Y-135645810D01*
X209118096Y-135645810D01*
X210134096Y-135597429D02*
X210472762Y-135597429D01*
X210617905Y-136129619D02*
X210134096Y-136129619D01*
X210134096Y-135113619D01*
X210617905Y-135113619D01*
X211053334Y-136129619D02*
X211053334Y-135113619D01*
X211633905Y-136129619D01*
X211633905Y-135113619D01*
D11*
X206435000Y-127820000D02*
X206435000Y-135620000D01*
D12*
X203693905Y-136162857D02*
X203645524Y-136211238D01*
X203500381Y-136259619D01*
X203403619Y-136259619D01*
X203258477Y-136211238D01*
X203161715Y-136114476D01*
X203113334Y-136017714D01*
X203064953Y-135824190D01*
X203064953Y-135679048D01*
X203113334Y-135485524D01*
X203161715Y-135388762D01*
X203258477Y-135292000D01*
X203403619Y-135243619D01*
X203500381Y-135243619D01*
X203645524Y-135292000D01*
X203693905Y-135340381D01*
X204032572Y-135243619D02*
X204274477Y-136259619D01*
X204468000Y-135533905D01*
X204661524Y-136259619D01*
X204903429Y-135243619D01*
D11*
X191435000Y-135620000D02*
X191435000Y-127820000D01*
D12*
X191724477Y-136211238D02*
X191869620Y-136259619D01*
X192111524Y-136259619D01*
X192208286Y-136211238D01*
X192256667Y-136162857D01*
X192305048Y-136066095D01*
X192305048Y-135969333D01*
X192256667Y-135872571D01*
X192208286Y-135824190D01*
X192111524Y-135775810D01*
X191918001Y-135727429D01*
X191821239Y-135679048D01*
X191772858Y-135630667D01*
X191724477Y-135533905D01*
X191724477Y-135437143D01*
X191772858Y-135340381D01*
X191821239Y-135292000D01*
X191918001Y-135243619D01*
X192159905Y-135243619D01*
X192305048Y-135292000D01*
X192740477Y-136259619D02*
X192740477Y-135243619D01*
X193127524Y-135243619D01*
X193224286Y-135292000D01*
X193272667Y-135340381D01*
X193321048Y-135437143D01*
X193321048Y-135582286D01*
X193272667Y-135679048D01*
X193224286Y-135727429D01*
X193127524Y-135775810D01*
X192740477Y-135775810D01*
X193756477Y-135727429D02*
X194095143Y-135727429D01*
X194240286Y-136259619D02*
X193756477Y-136259619D01*
X193756477Y-135243619D01*
X194240286Y-135243619D01*
X194675715Y-135727429D02*
X195014381Y-135727429D01*
X195159524Y-136259619D02*
X194675715Y-136259619D01*
X194675715Y-135243619D01*
X195159524Y-135243619D01*
X195594953Y-136259619D02*
X195594953Y-135243619D01*
X195836858Y-135243619D01*
X195982000Y-135292000D01*
X196078762Y-135388762D01*
X196127143Y-135485524D01*
X196175524Y-135679048D01*
X196175524Y-135824190D01*
X196127143Y-136017714D01*
X196078762Y-136114476D01*
X195982000Y-136211238D01*
X195836858Y-136259619D01*
X195594953Y-136259619D01*
D11*
X201435000Y-135620000D02*
X201435000Y-127820000D01*
D12*
X198115905Y-136092857D02*
X198067524Y-136141238D01*
X197922381Y-136189619D01*
X197825619Y-136189619D01*
X197680477Y-136141238D01*
X197583715Y-136044476D01*
X197535334Y-135947714D01*
X197486953Y-135754190D01*
X197486953Y-135609048D01*
X197535334Y-135415524D01*
X197583715Y-135318762D01*
X197680477Y-135222000D01*
X197825619Y-135173619D01*
X197922381Y-135173619D01*
X198067524Y-135222000D01*
X198115905Y-135270381D01*
X199131905Y-136092857D02*
X199083524Y-136141238D01*
X198938381Y-136189619D01*
X198841619Y-136189619D01*
X198696477Y-136141238D01*
X198599715Y-136044476D01*
X198551334Y-135947714D01*
X198502953Y-135754190D01*
X198502953Y-135609048D01*
X198551334Y-135415524D01*
X198599715Y-135318762D01*
X198696477Y-135222000D01*
X198841619Y-135173619D01*
X198938381Y-135173619D01*
X199083524Y-135222000D01*
X199131905Y-135270381D01*
X199470572Y-135173619D02*
X199712477Y-136189619D01*
X199906000Y-135463905D01*
X200099524Y-136189619D01*
X200341429Y-135173619D01*
D11*
X196435000Y-135620000D02*
X196435000Y-127820000D01*
D13*
X186955049Y-125232476D02*
X187245334Y-125329238D01*
X187729144Y-125329238D01*
X187922668Y-125232476D01*
X188019430Y-125135714D01*
X188116191Y-124942190D01*
X188116191Y-124748667D01*
X188019430Y-124555143D01*
X187922668Y-124458381D01*
X187729144Y-124361619D01*
X187342096Y-124264857D01*
X187148572Y-124168095D01*
X187051811Y-124071333D01*
X186955049Y-123877810D01*
X186955049Y-123684286D01*
X187051811Y-123490762D01*
X187148572Y-123394000D01*
X187342096Y-123297238D01*
X187825906Y-123297238D01*
X188116191Y-123394000D01*
X188987049Y-123974571D02*
X188987049Y-126006571D01*
X188987049Y-124071333D02*
X189180572Y-123974571D01*
X189567620Y-123974571D01*
X189761144Y-124071333D01*
X189857906Y-124168095D01*
X189954668Y-124361619D01*
X189954668Y-124942190D01*
X189857906Y-125135714D01*
X189761144Y-125232476D01*
X189567620Y-125329238D01*
X189180572Y-125329238D01*
X188987049Y-125232476D01*
X190825525Y-125329238D02*
X190825525Y-123974571D01*
X190825525Y-123297238D02*
X190728763Y-123394000D01*
X190825525Y-123490762D01*
X190922286Y-123394000D01*
X190825525Y-123297238D01*
X190825525Y-123490762D01*
X191793144Y-123974571D02*
X191793144Y-125329238D01*
X191793144Y-124168095D02*
X191889905Y-124071333D01*
X192083429Y-123974571D01*
X192373715Y-123974571D01*
X192567239Y-124071333D01*
X192664001Y-124264857D01*
X192664001Y-125329238D01*
X194502477Y-125329238D02*
X194502477Y-123297238D01*
X194502477Y-125232476D02*
X194308953Y-125329238D01*
X193921905Y-125329238D01*
X193728381Y-125232476D01*
X193631620Y-125135714D01*
X193534858Y-124942190D01*
X193534858Y-124361619D01*
X193631620Y-124168095D01*
X193728381Y-124071333D01*
X193921905Y-123974571D01*
X194308953Y-123974571D01*
X194502477Y-124071333D01*
X195760381Y-125329238D02*
X195566857Y-125232476D01*
X195470096Y-125038952D01*
X195470096Y-123297238D01*
X197308572Y-125232476D02*
X197115048Y-125329238D01*
X196728000Y-125329238D01*
X196534477Y-125232476D01*
X196437715Y-125038952D01*
X196437715Y-124264857D01*
X196534477Y-124071333D01*
X196728000Y-123974571D01*
X197115048Y-123974571D01*
X197308572Y-124071333D01*
X197405334Y-124264857D01*
X197405334Y-124458381D01*
X196437715Y-124651905D01*
X200211428Y-123297238D02*
X200598476Y-123297238D01*
X200792000Y-123394000D01*
X200985523Y-123587524D01*
X201082285Y-123974571D01*
X201082285Y-124651905D01*
X200985523Y-125038952D01*
X200792000Y-125232476D01*
X200598476Y-125329238D01*
X200211428Y-125329238D01*
X200017904Y-125232476D01*
X199824381Y-125038952D01*
X199727619Y-124651905D01*
X199727619Y-123974571D01*
X199824381Y-123587524D01*
X200017904Y-123394000D01*
X200211428Y-123297238D01*
X202824000Y-123974571D02*
X202824000Y-125329238D01*
X201953143Y-123974571D02*
X201953143Y-125038952D01*
X202049904Y-125232476D01*
X202243428Y-125329238D01*
X202533714Y-125329238D01*
X202727238Y-125232476D01*
X202824000Y-125135714D01*
X203501333Y-123974571D02*
X204275428Y-123974571D01*
X203791619Y-123297238D02*
X203791619Y-125038952D01*
X203888380Y-125232476D01*
X204081904Y-125329238D01*
X204275428Y-125329238D01*
X204952762Y-123974571D02*
X204952762Y-126006571D01*
X204952762Y-124071333D02*
X205146285Y-123974571D01*
X205533333Y-123974571D01*
X205726857Y-124071333D01*
X205823619Y-124168095D01*
X205920381Y-124361619D01*
X205920381Y-124942190D01*
X205823619Y-125135714D01*
X205726857Y-125232476D01*
X205533333Y-125329238D01*
X205146285Y-125329238D01*
X204952762Y-125232476D01*
X207662095Y-123974571D02*
X207662095Y-125329238D01*
X206791238Y-123974571D02*
X206791238Y-125038952D01*
X206887999Y-125232476D01*
X207081523Y-125329238D01*
X207371809Y-125329238D01*
X207565333Y-125232476D01*
X207662095Y-125135714D01*
X208339428Y-123974571D02*
X209113523Y-123974571D01*
X208629714Y-123297238D02*
X208629714Y-125038952D01*
X208726475Y-125232476D01*
X208919999Y-125329238D01*
X209113523Y-125329238D01*
X209694095Y-125232476D02*
X209887618Y-125329238D01*
X210274666Y-125329238D01*
X210468190Y-125232476D01*
X210564952Y-125038952D01*
X210564952Y-124942190D01*
X210468190Y-124748667D01*
X210274666Y-124651905D01*
X209984380Y-124651905D01*
X209790857Y-124555143D01*
X209694095Y-124361619D01*
X209694095Y-124264857D01*
X209790857Y-124071333D01*
X209984380Y-123974571D01*
X210274666Y-123974571D01*
X210468190Y-124071333D01*
D12*
X187643715Y-135113619D02*
X187982382Y-136129619D01*
X188321048Y-135113619D01*
X188611334Y-136081238D02*
X188756477Y-136129619D01*
X188998381Y-136129619D01*
X189095143Y-136081238D01*
X189143524Y-136032857D01*
X189191905Y-135936095D01*
X189191905Y-135839333D01*
X189143524Y-135742571D01*
X189095143Y-135694190D01*
X188998381Y-135645810D01*
X188804858Y-135597429D01*
X188708096Y-135549048D01*
X188659715Y-135500667D01*
X188611334Y-135403905D01*
X188611334Y-135307143D01*
X188659715Y-135210381D01*
X188708096Y-135162000D01*
X188804858Y-135113619D01*
X189046762Y-135113619D01*
X189191905Y-135162000D01*
X189578953Y-136081238D02*
X189724096Y-136129619D01*
X189966000Y-136129619D01*
X190062762Y-136081238D01*
X190111143Y-136032857D01*
X190159524Y-135936095D01*
X190159524Y-135839333D01*
X190111143Y-135742571D01*
X190062762Y-135694190D01*
X189966000Y-135645810D01*
X189772477Y-135597429D01*
X189675715Y-135549048D01*
X189627334Y-135500667D01*
X189578953Y-135403905D01*
X189578953Y-135307143D01*
X189627334Y-135210381D01*
X189675715Y-135162000D01*
X189772477Y-135113619D01*
X190014381Y-135113619D01*
X190159524Y-135162000D01*
X193752000Y-106164095D02*
X193703619Y-106260857D01*
X193703619Y-106406000D01*
X193752000Y-106551142D01*
X193848762Y-106647904D01*
X193945524Y-106696285D01*
X194139048Y-106744666D01*
X194284190Y-106744666D01*
X194477714Y-106696285D01*
X194574476Y-106647904D01*
X194671238Y-106551142D01*
X194719619Y-106406000D01*
X194719619Y-106309238D01*
X194671238Y-106164095D01*
X194622857Y-106115714D01*
X194284190Y-106115714D01*
X194284190Y-106309238D01*
X194719619Y-105680285D02*
X193703619Y-105680285D01*
X194719619Y-105099714D01*
X193703619Y-105099714D01*
X194719619Y-104615904D02*
X193703619Y-104615904D01*
X193703619Y-104373999D01*
X193752000Y-104228857D01*
X193848762Y-104132095D01*
X193945524Y-104083714D01*
X194139048Y-104035333D01*
X194284190Y-104035333D01*
X194477714Y-104083714D01*
X194574476Y-104132095D01*
X194671238Y-104228857D01*
X194719619Y-104373999D01*
X194719619Y-104615904D01*
D11*
X194250000Y-107835000D02*
X186450000Y-107835000D01*
X186450000Y-102835000D02*
X194250000Y-102835000D01*
D12*
X193973619Y-121554666D02*
X194989619Y-121215999D01*
X193973619Y-120877333D01*
X194989619Y-120538666D02*
X193973619Y-120538666D01*
X193973619Y-120296761D01*
X194022000Y-120151619D01*
X194118762Y-120054857D01*
X194215524Y-120006476D01*
X194409048Y-119958095D01*
X194554190Y-119958095D01*
X194747714Y-120006476D01*
X194844476Y-120054857D01*
X194941238Y-120151619D01*
X194989619Y-120296761D01*
X194989619Y-120538666D01*
X194989619Y-119522666D02*
X193973619Y-119522666D01*
X193973619Y-119280761D01*
X194022000Y-119135619D01*
X194118762Y-119038857D01*
X194215524Y-118990476D01*
X194409048Y-118942095D01*
X194554190Y-118942095D01*
X194747714Y-118990476D01*
X194844476Y-119038857D01*
X194941238Y-119135619D01*
X194989619Y-119280761D01*
X194989619Y-119522666D01*
X193833619Y-116424666D02*
X194849619Y-116085999D01*
X193833619Y-115747333D01*
X194849619Y-115408666D02*
X193833619Y-115408666D01*
X193833619Y-115166761D01*
X193882000Y-115021619D01*
X193978762Y-114924857D01*
X194075524Y-114876476D01*
X194269048Y-114828095D01*
X194414190Y-114828095D01*
X194607714Y-114876476D01*
X194704476Y-114924857D01*
X194801238Y-115021619D01*
X194849619Y-115166761D01*
X194849619Y-115408666D01*
X194849619Y-114392666D02*
X193833619Y-114392666D01*
X193833619Y-114150761D01*
X193882000Y-114005619D01*
X193978762Y-113908857D01*
X194075524Y-113860476D01*
X194269048Y-113812095D01*
X194414190Y-113812095D01*
X194607714Y-113860476D01*
X194704476Y-113908857D01*
X194801238Y-114005619D01*
X194849619Y-114150761D01*
X194849619Y-114392666D01*
D11*
X194250000Y-112835000D02*
X186450000Y-112835000D01*
X194250000Y-117835000D02*
X186450000Y-117835000D01*
D12*
X193822000Y-111014095D02*
X193773619Y-111110857D01*
X193773619Y-111256000D01*
X193822000Y-111401142D01*
X193918762Y-111497904D01*
X194015524Y-111546285D01*
X194209048Y-111594666D01*
X194354190Y-111594666D01*
X194547714Y-111546285D01*
X194644476Y-111497904D01*
X194741238Y-111401142D01*
X194789619Y-111256000D01*
X194789619Y-111159238D01*
X194741238Y-111014095D01*
X194692857Y-110965714D01*
X194354190Y-110965714D01*
X194354190Y-111159238D01*
X194789619Y-110530285D02*
X193773619Y-110530285D01*
X194789619Y-109949714D01*
X193773619Y-109949714D01*
X194789619Y-109465904D02*
X193773619Y-109465904D01*
X193773619Y-109223999D01*
X193822000Y-109078857D01*
X193918762Y-108982095D01*
X194015524Y-108933714D01*
X194209048Y-108885333D01*
X194354190Y-108885333D01*
X194547714Y-108933714D01*
X194644476Y-108982095D01*
X194741238Y-109078857D01*
X194789619Y-109223999D01*
X194789619Y-109465904D01*
X161971334Y-154113619D02*
X162600286Y-154113619D01*
X162261620Y-154500667D01*
X162406762Y-154500667D01*
X162503524Y-154549048D01*
X162551905Y-154597429D01*
X162600286Y-154694190D01*
X162600286Y-154936095D01*
X162551905Y-155032857D01*
X162503524Y-155081238D01*
X162406762Y-155129619D01*
X162116477Y-155129619D01*
X162019715Y-155081238D01*
X161971334Y-155032857D01*
X157503524Y-154402286D02*
X157503524Y-155079619D01*
X157261620Y-154015238D02*
X157019715Y-154740952D01*
X157648667Y-154740952D01*
D11*
X159700000Y-154375000D02*
X159700000Y-146575000D01*
X148000000Y-163800000D02*
X148000000Y-171600000D01*
D12*
X149223715Y-162743619D02*
X149562382Y-163759619D01*
X149901048Y-162743619D01*
X150191334Y-163711238D02*
X150336477Y-163759619D01*
X150578381Y-163759619D01*
X150675143Y-163711238D01*
X150723524Y-163662857D01*
X150771905Y-163566095D01*
X150771905Y-163469333D01*
X150723524Y-163372571D01*
X150675143Y-163324190D01*
X150578381Y-163275810D01*
X150384858Y-163227429D01*
X150288096Y-163179048D01*
X150239715Y-163130667D01*
X150191334Y-163033905D01*
X150191334Y-162937143D01*
X150239715Y-162840381D01*
X150288096Y-162792000D01*
X150384858Y-162743619D01*
X150626762Y-162743619D01*
X150771905Y-162792000D01*
X151158953Y-163711238D02*
X151304096Y-163759619D01*
X151546000Y-163759619D01*
X151642762Y-163711238D01*
X151691143Y-163662857D01*
X151739524Y-163566095D01*
X151739524Y-163469333D01*
X151691143Y-163372571D01*
X151642762Y-163324190D01*
X151546000Y-163275810D01*
X151352477Y-163227429D01*
X151255715Y-163179048D01*
X151207334Y-163130667D01*
X151158953Y-163033905D01*
X151158953Y-162937143D01*
X151207334Y-162840381D01*
X151255715Y-162792000D01*
X151352477Y-162743619D01*
X151594381Y-162743619D01*
X151739524Y-162792000D01*
D11*
X153000000Y-163800000D02*
X153000000Y-171600000D01*
X143000000Y-171600000D02*
X143000000Y-163800000D01*
D12*
X135943715Y-162733619D02*
X136282382Y-163749619D01*
X136621048Y-162733619D01*
X136911334Y-163701238D02*
X137056477Y-163749619D01*
X137298381Y-163749619D01*
X137395143Y-163701238D01*
X137443524Y-163652857D01*
X137491905Y-163556095D01*
X137491905Y-163459333D01*
X137443524Y-163362571D01*
X137395143Y-163314190D01*
X137298381Y-163265810D01*
X137104858Y-163217429D01*
X137008096Y-163169048D01*
X136959715Y-163120667D01*
X136911334Y-163023905D01*
X136911334Y-162927143D01*
X136959715Y-162830381D01*
X137008096Y-162782000D01*
X137104858Y-162733619D01*
X137346762Y-162733619D01*
X137491905Y-162782000D01*
X137878953Y-163701238D02*
X138024096Y-163749619D01*
X138266000Y-163749619D01*
X138362762Y-163701238D01*
X138411143Y-163652857D01*
X138459524Y-163556095D01*
X138459524Y-163459333D01*
X138411143Y-163362571D01*
X138362762Y-163314190D01*
X138266000Y-163265810D01*
X138072477Y-163217429D01*
X137975715Y-163169048D01*
X137927334Y-163120667D01*
X137878953Y-163023905D01*
X137878953Y-162927143D01*
X137927334Y-162830381D01*
X137975715Y-162782000D01*
X138072477Y-162733619D01*
X138314381Y-162733619D01*
X138459524Y-162782000D01*
D11*
X154700000Y-154375000D02*
X154700000Y-146575000D01*
X149700000Y-154375000D02*
X149700000Y-151575000D01*
D12*
X150963715Y-154043619D02*
X151302382Y-155059619D01*
X151641048Y-154043619D01*
X151931334Y-155011238D02*
X152076477Y-155059619D01*
X152318381Y-155059619D01*
X152415143Y-155011238D01*
X152463524Y-154962857D01*
X152511905Y-154866095D01*
X152511905Y-154769333D01*
X152463524Y-154672571D01*
X152415143Y-154624190D01*
X152318381Y-154575810D01*
X152124858Y-154527429D01*
X152028096Y-154479048D01*
X151979715Y-154430667D01*
X151931334Y-154333905D01*
X151931334Y-154237143D01*
X151979715Y-154140381D01*
X152028096Y-154092000D01*
X152124858Y-154043619D01*
X152366762Y-154043619D01*
X152511905Y-154092000D01*
X152898953Y-155011238D02*
X153044096Y-155059619D01*
X153286000Y-155059619D01*
X153382762Y-155011238D01*
X153431143Y-154962857D01*
X153479524Y-154866095D01*
X153479524Y-154769333D01*
X153431143Y-154672571D01*
X153382762Y-154624190D01*
X153286000Y-154575810D01*
X153092477Y-154527429D01*
X152995715Y-154479048D01*
X152947334Y-154430667D01*
X152898953Y-154333905D01*
X152898953Y-154237143D01*
X152947334Y-154140381D01*
X152995715Y-154092000D01*
X153092477Y-154043619D01*
X153334381Y-154043619D01*
X153479524Y-154092000D01*
D13*
X297549238Y-149227523D02*
X297549238Y-150388665D01*
X297549238Y-149808094D02*
X295517238Y-149808094D01*
X295807524Y-150001618D01*
X296001048Y-150195142D01*
X296097810Y-150388665D01*
X295710762Y-148453427D02*
X295614000Y-148356665D01*
X295517238Y-148163142D01*
X295517238Y-147679332D01*
X295614000Y-147485808D01*
X295710762Y-147389046D01*
X295904286Y-147292285D01*
X296097810Y-147292285D01*
X296388095Y-147389046D01*
X297549238Y-148550189D01*
X297549238Y-147292285D01*
X295517238Y-146711713D02*
X297549238Y-146034380D01*
X295517238Y-145357047D01*
X297549238Y-141970381D02*
X296581619Y-142647714D01*
X297549238Y-143131523D02*
X295517238Y-143131523D01*
X295517238Y-142357428D01*
X295614000Y-142163904D01*
X295710762Y-142067143D01*
X295904286Y-141970381D01*
X296194571Y-141970381D01*
X296388095Y-142067143D01*
X296484857Y-142163904D01*
X296581619Y-142357428D01*
X296581619Y-143131523D01*
X297452476Y-140325428D02*
X297549238Y-140518952D01*
X297549238Y-140906000D01*
X297452476Y-141099523D01*
X297258952Y-141196285D01*
X296484857Y-141196285D01*
X296291333Y-141099523D01*
X296194571Y-140906000D01*
X296194571Y-140518952D01*
X296291333Y-140325428D01*
X296484857Y-140228666D01*
X296678381Y-140228666D01*
X296871905Y-141196285D01*
X296194571Y-138486952D02*
X297839524Y-138486952D01*
X298033048Y-138583714D01*
X298129810Y-138680476D01*
X298226571Y-138874000D01*
X298226571Y-139164286D01*
X298129810Y-139357809D01*
X297452476Y-138486952D02*
X297549238Y-138680476D01*
X297549238Y-139067524D01*
X297452476Y-139261048D01*
X297355714Y-139357809D01*
X297162190Y-139454571D01*
X296581619Y-139454571D01*
X296388095Y-139357809D01*
X296291333Y-139261048D01*
X296194571Y-139067524D01*
X296194571Y-138680476D01*
X296291333Y-138486952D01*
X296194571Y-136648476D02*
X297549238Y-136648476D01*
X296194571Y-137519333D02*
X297258952Y-137519333D01*
X297452476Y-137422572D01*
X297549238Y-137229048D01*
X297549238Y-136938762D01*
X297452476Y-136745238D01*
X297355714Y-136648476D01*
X297549238Y-135390572D02*
X297452476Y-135584096D01*
X297258952Y-135680857D01*
X295517238Y-135680857D01*
X297549238Y-133745619D02*
X296484857Y-133745619D01*
X296291333Y-133842381D01*
X296194571Y-134035905D01*
X296194571Y-134422953D01*
X296291333Y-134616476D01*
X297452476Y-133745619D02*
X297549238Y-133939143D01*
X297549238Y-134422953D01*
X297452476Y-134616476D01*
X297258952Y-134713238D01*
X297065429Y-134713238D01*
X296871905Y-134616476D01*
X296775143Y-134422953D01*
X296775143Y-133939143D01*
X296678381Y-133745619D01*
X296194571Y-133068286D02*
X296194571Y-132294191D01*
X295517238Y-132778000D02*
X297258952Y-132778000D01*
X297452476Y-132681239D01*
X297549238Y-132487715D01*
X297549238Y-132294191D01*
X297549238Y-131326572D02*
X297452476Y-131520096D01*
X297355714Y-131616857D01*
X297162190Y-131713619D01*
X296581619Y-131713619D01*
X296388095Y-131616857D01*
X296291333Y-131520096D01*
X296194571Y-131326572D01*
X296194571Y-131036286D01*
X296291333Y-130842762D01*
X296388095Y-130746000D01*
X296581619Y-130649238D01*
X297162190Y-130649238D01*
X297355714Y-130746000D01*
X297452476Y-130842762D01*
X297549238Y-131036286D01*
X297549238Y-131326572D01*
X297549238Y-129778381D02*
X296194571Y-129778381D01*
X296581619Y-129778381D02*
X296388095Y-129681620D01*
X296291333Y-129584858D01*
X296194571Y-129391334D01*
X296194571Y-129197810D01*
X265428763Y-160982476D02*
X265719048Y-161079238D01*
X266202858Y-161079238D01*
X266396382Y-160982476D01*
X266493144Y-160885714D01*
X266589905Y-160692190D01*
X266589905Y-160498667D01*
X266493144Y-160305143D01*
X266396382Y-160208381D01*
X266202858Y-160111619D01*
X265815810Y-160014857D01*
X265622286Y-159918095D01*
X265525525Y-159821333D01*
X265428763Y-159627810D01*
X265428763Y-159434286D01*
X265525525Y-159240762D01*
X265622286Y-159144000D01*
X265815810Y-159047238D01*
X266299620Y-159047238D01*
X266589905Y-159144000D01*
X267460763Y-161079238D02*
X267460763Y-159047238D01*
X268331620Y-161079238D02*
X268331620Y-160014857D01*
X268234858Y-159821333D01*
X268041334Y-159724571D01*
X267751048Y-159724571D01*
X267557524Y-159821333D01*
X267460763Y-159918095D01*
X269299239Y-161079238D02*
X269299239Y-159724571D01*
X269299239Y-159047238D02*
X269202477Y-159144000D01*
X269299239Y-159240762D01*
X269396000Y-159144000D01*
X269299239Y-159047238D01*
X269299239Y-159240762D01*
X271040953Y-160982476D02*
X270847429Y-161079238D01*
X270460381Y-161079238D01*
X270266858Y-160982476D01*
X270170096Y-160788952D01*
X270170096Y-160014857D01*
X270266858Y-159821333D01*
X270460381Y-159724571D01*
X270847429Y-159724571D01*
X271040953Y-159821333D01*
X271137715Y-160014857D01*
X271137715Y-160208381D01*
X270170096Y-160401905D01*
X272298857Y-161079238D02*
X272105333Y-160982476D01*
X272008572Y-160788952D01*
X272008572Y-159047238D01*
X273943810Y-161079238D02*
X273943810Y-159047238D01*
X273943810Y-160982476D02*
X273750286Y-161079238D01*
X273363238Y-161079238D01*
X273169714Y-160982476D01*
X273072953Y-160885714D01*
X272976191Y-160692190D01*
X272976191Y-160111619D01*
X273072953Y-159918095D01*
X273169714Y-159821333D01*
X273363238Y-159724571D01*
X273750286Y-159724571D01*
X273943810Y-159821333D01*
X277620761Y-161079238D02*
X276943428Y-160111619D01*
X276459619Y-161079238D02*
X276459619Y-159047238D01*
X277233714Y-159047238D01*
X277427238Y-159144000D01*
X277523999Y-159240762D01*
X277620761Y-159434286D01*
X277620761Y-159724571D01*
X277523999Y-159918095D01*
X277427238Y-160014857D01*
X277233714Y-160111619D01*
X276459619Y-160111619D01*
X279362476Y-161079238D02*
X279362476Y-160014857D01*
X279265714Y-159821333D01*
X279072190Y-159724571D01*
X278685142Y-159724571D01*
X278491619Y-159821333D01*
X279362476Y-160982476D02*
X279168952Y-161079238D01*
X278685142Y-161079238D01*
X278491619Y-160982476D01*
X278394857Y-160788952D01*
X278394857Y-160595429D01*
X278491619Y-160401905D01*
X278685142Y-160305143D01*
X279168952Y-160305143D01*
X279362476Y-160208381D01*
X280330095Y-161079238D02*
X280330095Y-159724571D01*
X280330095Y-159047238D02*
X280233333Y-159144000D01*
X280330095Y-159240762D01*
X280426856Y-159144000D01*
X280330095Y-159047238D01*
X280330095Y-159240762D01*
X281587999Y-161079238D02*
X281394475Y-160982476D01*
X281297714Y-160788952D01*
X281297714Y-159047238D01*
X268966476Y-133524000D02*
X268772953Y-133427238D01*
X268482667Y-133427238D01*
X268192381Y-133524000D01*
X267998857Y-133717524D01*
X267902096Y-133911048D01*
X267805334Y-134298095D01*
X267805334Y-134588381D01*
X267902096Y-134975429D01*
X267998857Y-135168952D01*
X268192381Y-135362476D01*
X268482667Y-135459238D01*
X268676191Y-135459238D01*
X268966476Y-135362476D01*
X269063238Y-135265714D01*
X269063238Y-134588381D01*
X268676191Y-134588381D01*
X269934096Y-135459238D02*
X269934096Y-133427238D01*
X271095238Y-135459238D01*
X271095238Y-133427238D01*
X272062858Y-135459238D02*
X272062858Y-133427238D01*
X272546667Y-133427238D01*
X272836953Y-133524000D01*
X273030477Y-133717524D01*
X273127238Y-133911048D01*
X273224000Y-134298095D01*
X273224000Y-134588381D01*
X273127238Y-134975429D01*
X273030477Y-135168952D01*
X272836953Y-135362476D01*
X272546667Y-135459238D01*
X272062858Y-135459238D01*
X276804190Y-135459238D02*
X276126857Y-134491619D01*
X275643048Y-135459238D02*
X275643048Y-133427238D01*
X276417143Y-133427238D01*
X276610667Y-133524000D01*
X276707428Y-133620762D01*
X276804190Y-133814286D01*
X276804190Y-134104571D01*
X276707428Y-134298095D01*
X276610667Y-134394857D01*
X276417143Y-134491619D01*
X275643048Y-134491619D01*
X278545905Y-135459238D02*
X278545905Y-134394857D01*
X278449143Y-134201333D01*
X278255619Y-134104571D01*
X277868571Y-134104571D01*
X277675048Y-134201333D01*
X278545905Y-135362476D02*
X278352381Y-135459238D01*
X277868571Y-135459238D01*
X277675048Y-135362476D01*
X277578286Y-135168952D01*
X277578286Y-134975429D01*
X277675048Y-134781905D01*
X277868571Y-134685143D01*
X278352381Y-134685143D01*
X278545905Y-134588381D01*
X279513524Y-135459238D02*
X279513524Y-134104571D01*
X279513524Y-133427238D02*
X279416762Y-133524000D01*
X279513524Y-133620762D01*
X279610285Y-133524000D01*
X279513524Y-133427238D01*
X279513524Y-133620762D01*
X280771428Y-135459238D02*
X280577904Y-135362476D01*
X280481143Y-135168952D01*
X280481143Y-133427238D01*
D11*
X230200000Y-151600000D02*
X230200000Y-143800000D01*
D12*
X225669905Y-151922571D02*
X226444000Y-151922571D01*
X226056952Y-152309619D02*
X226056952Y-151535524D01*
X227460000Y-152309619D02*
X226879429Y-152309619D01*
X227169715Y-152309619D02*
X227169715Y-151293619D01*
X227072953Y-151438762D01*
X226976191Y-151535524D01*
X226879429Y-151583905D01*
X227847048Y-151390381D02*
X227895429Y-151342000D01*
X227992191Y-151293619D01*
X228234095Y-151293619D01*
X228330857Y-151342000D01*
X228379238Y-151390381D01*
X228427619Y-151487143D01*
X228427619Y-151583905D01*
X228379238Y-151729048D01*
X227798667Y-152309619D01*
X228427619Y-152309619D01*
X228717905Y-151293619D02*
X229056572Y-152309619D01*
X229395238Y-151293619D01*
X231590476Y-152212857D02*
X231542095Y-152261238D01*
X231396952Y-152309619D01*
X231300190Y-152309619D01*
X231155048Y-152261238D01*
X231058286Y-152164476D01*
X231009905Y-152067714D01*
X230961524Y-151874190D01*
X230961524Y-151729048D01*
X231009905Y-151535524D01*
X231058286Y-151438762D01*
X231155048Y-151342000D01*
X231300190Y-151293619D01*
X231396952Y-151293619D01*
X231542095Y-151342000D01*
X231590476Y-151390381D01*
X231977524Y-152261238D02*
X232122667Y-152309619D01*
X232364571Y-152309619D01*
X232461333Y-152261238D01*
X232509714Y-152212857D01*
X232558095Y-152116095D01*
X232558095Y-152019333D01*
X232509714Y-151922571D01*
X232461333Y-151874190D01*
X232364571Y-151825810D01*
X232171048Y-151777429D01*
X232074286Y-151729048D01*
X232025905Y-151680667D01*
X231977524Y-151583905D01*
X231977524Y-151487143D01*
X232025905Y-151390381D01*
X232074286Y-151342000D01*
X232171048Y-151293619D01*
X232412952Y-151293619D01*
X232558095Y-151342000D01*
X232993524Y-152309619D02*
X232993524Y-151293619D01*
X233574095Y-152309619D01*
X233574095Y-151293619D01*
X234057905Y-152309619D02*
X234057905Y-151293619D01*
X234638476Y-152309619D02*
X234203048Y-151729048D01*
X234638476Y-151293619D02*
X234057905Y-151874190D01*
X236594667Y-152162857D02*
X236546286Y-152211238D01*
X236401143Y-152259619D01*
X236304381Y-152259619D01*
X236159239Y-152211238D01*
X236062477Y-152114476D01*
X236014096Y-152017714D01*
X235965715Y-151824190D01*
X235965715Y-151679048D01*
X236014096Y-151485524D01*
X236062477Y-151388762D01*
X236159239Y-151292000D01*
X236304381Y-151243619D01*
X236401143Y-151243619D01*
X236546286Y-151292000D01*
X236594667Y-151340381D01*
X237223620Y-151243619D02*
X237417143Y-151243619D01*
X237513905Y-151292000D01*
X237610667Y-151388762D01*
X237659048Y-151582286D01*
X237659048Y-151920952D01*
X237610667Y-152114476D01*
X237513905Y-152211238D01*
X237417143Y-152259619D01*
X237223620Y-152259619D01*
X237126858Y-152211238D01*
X237030096Y-152114476D01*
X236981715Y-151920952D01*
X236981715Y-151582286D01*
X237030096Y-151388762D01*
X237126858Y-151292000D01*
X237223620Y-151243619D01*
X238094477Y-152259619D02*
X238094477Y-151243619D01*
X238675048Y-152259619D01*
X238675048Y-151243619D01*
X239110477Y-151969333D02*
X239594286Y-151969333D01*
X239013715Y-152259619D02*
X239352382Y-151243619D01*
X239691048Y-152259619D01*
D11*
X240200000Y-151600000D02*
X240200000Y-143800000D01*
X235200000Y-151600000D02*
X235200000Y-143800000D01*
D13*
X229244668Y-138207238D02*
X230405811Y-138207238D01*
X229825239Y-140239238D02*
X229825239Y-138207238D01*
X231373429Y-140239238D02*
X231179905Y-140142476D01*
X231083144Y-140045714D01*
X230986382Y-139852190D01*
X230986382Y-139271619D01*
X231083144Y-139078095D01*
X231179905Y-138981333D01*
X231373429Y-138884571D01*
X231663715Y-138884571D01*
X231857239Y-138981333D01*
X231954001Y-139078095D01*
X232050763Y-139271619D01*
X232050763Y-139852190D01*
X231954001Y-140045714D01*
X231857239Y-140142476D01*
X231663715Y-140239238D01*
X231373429Y-140239238D01*
X232921620Y-140239238D02*
X232921620Y-138884571D01*
X232921620Y-139271619D02*
X233018381Y-139078095D01*
X233115143Y-138981333D01*
X233308667Y-138884571D01*
X233502191Y-138884571D01*
X235050382Y-140142476D02*
X234856858Y-140239238D01*
X234469810Y-140239238D01*
X234276286Y-140142476D01*
X234179525Y-140045714D01*
X234082763Y-139852190D01*
X234082763Y-139271619D01*
X234179525Y-139078095D01*
X234276286Y-138981333D01*
X234469810Y-138884571D01*
X234856858Y-138884571D01*
X235050382Y-138981333D01*
X235921239Y-140239238D02*
X235921239Y-138207238D01*
X236792096Y-140239238D02*
X236792096Y-139174857D01*
X236695334Y-138981333D01*
X236501810Y-138884571D01*
X236211524Y-138884571D01*
X236018000Y-138981333D01*
X235921239Y-139078095D01*
X240469047Y-140239238D02*
X239791714Y-139271619D01*
X239307905Y-140239238D02*
X239307905Y-138207238D01*
X240082000Y-138207238D01*
X240275524Y-138304000D01*
X240372285Y-138400762D01*
X240469047Y-138594286D01*
X240469047Y-138884571D01*
X240372285Y-139078095D01*
X240275524Y-139174857D01*
X240082000Y-139271619D01*
X239307905Y-139271619D01*
X242114000Y-140142476D02*
X241920476Y-140239238D01*
X241533428Y-140239238D01*
X241339905Y-140142476D01*
X241243143Y-139948952D01*
X241243143Y-139174857D01*
X241339905Y-138981333D01*
X241533428Y-138884571D01*
X241920476Y-138884571D01*
X242114000Y-138981333D01*
X242210762Y-139174857D01*
X242210762Y-139368381D01*
X241243143Y-139561905D01*
X243371904Y-140239238D02*
X243178380Y-140142476D01*
X243081619Y-139948952D01*
X243081619Y-138207238D01*
X245016857Y-140239238D02*
X245016857Y-139174857D01*
X244920095Y-138981333D01*
X244726571Y-138884571D01*
X244339523Y-138884571D01*
X244146000Y-138981333D01*
X245016857Y-140142476D02*
X244823333Y-140239238D01*
X244339523Y-140239238D01*
X244146000Y-140142476D01*
X244049238Y-139948952D01*
X244049238Y-139755429D01*
X244146000Y-139561905D01*
X244339523Y-139465143D01*
X244823333Y-139465143D01*
X245016857Y-139368381D01*
X245790952Y-138884571D02*
X246274761Y-140239238D01*
X246758571Y-138884571D02*
X246274761Y-140239238D01*
X246081237Y-140723048D01*
X245984476Y-140819810D01*
X245790952Y-140916571D01*
D12*
X224588953Y-163669619D02*
X224588953Y-162653619D01*
X224830858Y-162653619D01*
X224976000Y-162702000D01*
X225072762Y-162798762D01*
X225121143Y-162895524D01*
X225169524Y-163089048D01*
X225169524Y-163234190D01*
X225121143Y-163427714D01*
X225072762Y-163524476D01*
X224976000Y-163621238D01*
X224830858Y-163669619D01*
X224588953Y-163669619D01*
X225798477Y-162653619D02*
X225992000Y-162653619D01*
X226088762Y-162702000D01*
X226185524Y-162798762D01*
X226233905Y-162992286D01*
X226233905Y-163330952D01*
X226185524Y-163524476D01*
X226088762Y-163621238D01*
X225992000Y-163669619D01*
X225798477Y-163669619D01*
X225701715Y-163621238D01*
X225604953Y-163524476D01*
X225556572Y-163330952D01*
X225556572Y-162992286D01*
X225604953Y-162798762D01*
X225701715Y-162702000D01*
X225798477Y-162653619D01*
X226572572Y-162653619D02*
X226814477Y-163669619D01*
X227008000Y-162943905D01*
X227201524Y-163669619D01*
X227443429Y-162653619D01*
X227830477Y-163669619D02*
X227830477Y-162653619D01*
X228411048Y-163669619D01*
X228411048Y-162653619D01*
D11*
X234250000Y-163700000D02*
X234250000Y-171500000D01*
D12*
X230473715Y-162723619D02*
X230812382Y-163739619D01*
X231151048Y-162723619D01*
X231441334Y-163691238D02*
X231586477Y-163739619D01*
X231828381Y-163739619D01*
X231925143Y-163691238D01*
X231973524Y-163642857D01*
X232021905Y-163546095D01*
X232021905Y-163449333D01*
X231973524Y-163352571D01*
X231925143Y-163304190D01*
X231828381Y-163255810D01*
X231634858Y-163207429D01*
X231538096Y-163159048D01*
X231489715Y-163110667D01*
X231441334Y-163013905D01*
X231441334Y-162917143D01*
X231489715Y-162820381D01*
X231538096Y-162772000D01*
X231634858Y-162723619D01*
X231876762Y-162723619D01*
X232021905Y-162772000D01*
X232408953Y-163691238D02*
X232554096Y-163739619D01*
X232796000Y-163739619D01*
X232892762Y-163691238D01*
X232941143Y-163642857D01*
X232989524Y-163546095D01*
X232989524Y-163449333D01*
X232941143Y-163352571D01*
X232892762Y-163304190D01*
X232796000Y-163255810D01*
X232602477Y-163207429D01*
X232505715Y-163159048D01*
X232457334Y-163110667D01*
X232408953Y-163013905D01*
X232408953Y-162917143D01*
X232457334Y-162820381D01*
X232505715Y-162772000D01*
X232602477Y-162723619D01*
X232844381Y-162723619D01*
X232989524Y-162772000D01*
X240149905Y-163821238D02*
X240295048Y-163869619D01*
X240536952Y-163869619D01*
X240633714Y-163821238D01*
X240682095Y-163772857D01*
X240730476Y-163676095D01*
X240730476Y-163579333D01*
X240682095Y-163482571D01*
X240633714Y-163434190D01*
X240536952Y-163385810D01*
X240343429Y-163337429D01*
X240246667Y-163289048D01*
X240198286Y-163240667D01*
X240149905Y-163143905D01*
X240149905Y-163047143D01*
X240198286Y-162950381D01*
X240246667Y-162902000D01*
X240343429Y-162853619D01*
X240585333Y-162853619D01*
X240730476Y-162902000D01*
X241117524Y-163579333D02*
X241601333Y-163579333D01*
X241020762Y-163869619D02*
X241359429Y-162853619D01*
X241698095Y-163869619D01*
X241891619Y-162853619D02*
X242230286Y-163869619D01*
X242568952Y-162853619D01*
X242907619Y-163482571D02*
X243681714Y-163482571D01*
D11*
X239250000Y-163700000D02*
X239250000Y-171500000D01*
X244250000Y-163700000D02*
X244250000Y-171500000D01*
D12*
X244899905Y-163861238D02*
X245045048Y-163909619D01*
X245286952Y-163909619D01*
X245383714Y-163861238D01*
X245432095Y-163812857D01*
X245480476Y-163716095D01*
X245480476Y-163619333D01*
X245432095Y-163522571D01*
X245383714Y-163474190D01*
X245286952Y-163425810D01*
X245093429Y-163377429D01*
X244996667Y-163329048D01*
X244948286Y-163280667D01*
X244899905Y-163183905D01*
X244899905Y-163087143D01*
X244948286Y-162990381D01*
X244996667Y-162942000D01*
X245093429Y-162893619D01*
X245335333Y-162893619D01*
X245480476Y-162942000D01*
X245867524Y-163619333D02*
X246351333Y-163619333D01*
X245770762Y-163909619D02*
X246109429Y-162893619D01*
X246448095Y-163909619D01*
X246641619Y-162893619D02*
X246980286Y-163909619D01*
X247318952Y-162893619D01*
X247657619Y-163522571D02*
X248431714Y-163522571D01*
X248044666Y-163909619D02*
X248044666Y-163135524D01*
X235891715Y-162923619D02*
X235891715Y-163746095D01*
X235940096Y-163842857D01*
X235988477Y-163891238D01*
X236085239Y-163939619D01*
X236278762Y-163939619D01*
X236375524Y-163891238D01*
X236423905Y-163842857D01*
X236472286Y-163746095D01*
X236472286Y-162923619D01*
X236956096Y-163939619D02*
X236956096Y-162923619D01*
X237343143Y-162923619D01*
X237439905Y-162972000D01*
X237488286Y-163020381D01*
X237536667Y-163117143D01*
X237536667Y-163262286D01*
X237488286Y-163359048D01*
X237439905Y-163407429D01*
X237343143Y-163455810D01*
X236956096Y-163455810D01*
D11*
X245200000Y-143800000D02*
X245200000Y-151600000D01*
D12*
X247335905Y-151222000D02*
X247239143Y-151173619D01*
X247094000Y-151173619D01*
X246948858Y-151222000D01*
X246852096Y-151318762D01*
X246803715Y-151415524D01*
X246755334Y-151609048D01*
X246755334Y-151754190D01*
X246803715Y-151947714D01*
X246852096Y-152044476D01*
X246948858Y-152141238D01*
X247094000Y-152189619D01*
X247190762Y-152189619D01*
X247335905Y-152141238D01*
X247384286Y-152092857D01*
X247384286Y-151754190D01*
X247190762Y-151754190D01*
X247819715Y-152189619D02*
X247819715Y-151173619D01*
X248400286Y-152189619D01*
X248400286Y-151173619D01*
X248884096Y-152189619D02*
X248884096Y-151173619D01*
X249126001Y-151173619D01*
X249271143Y-151222000D01*
X249367905Y-151318762D01*
X249416286Y-151415524D01*
X249464667Y-151609048D01*
X249464667Y-151754190D01*
X249416286Y-151947714D01*
X249367905Y-152044476D01*
X249271143Y-152141238D01*
X249126001Y-152189619D01*
X248884096Y-152189619D01*
D11*
X229250000Y-171500000D02*
X229250000Y-163700000D01*
D13*
X206399430Y-156077238D02*
X207560573Y-156077238D01*
X206980001Y-158109238D02*
X206980001Y-156077238D01*
X208528191Y-158109238D02*
X208334667Y-158012476D01*
X208237906Y-157915714D01*
X208141144Y-157722190D01*
X208141144Y-157141619D01*
X208237906Y-156948095D01*
X208334667Y-156851333D01*
X208528191Y-156754571D01*
X208818477Y-156754571D01*
X209012001Y-156851333D01*
X209108763Y-156948095D01*
X209205525Y-157141619D01*
X209205525Y-157722190D01*
X209108763Y-157915714D01*
X209012001Y-158012476D01*
X208818477Y-158109238D01*
X208528191Y-158109238D01*
X210076382Y-158109238D02*
X210076382Y-156754571D01*
X210076382Y-157141619D02*
X210173143Y-156948095D01*
X210269905Y-156851333D01*
X210463429Y-156754571D01*
X210656953Y-156754571D01*
X212205144Y-158012476D02*
X212011620Y-158109238D01*
X211624572Y-158109238D01*
X211431048Y-158012476D01*
X211334287Y-157915714D01*
X211237525Y-157722190D01*
X211237525Y-157141619D01*
X211334287Y-156948095D01*
X211431048Y-156851333D01*
X211624572Y-156754571D01*
X212011620Y-156754571D01*
X212205144Y-156851333D01*
X213076001Y-158109238D02*
X213076001Y-156077238D01*
X213946858Y-158109238D02*
X213946858Y-157044857D01*
X213850096Y-156851333D01*
X213656572Y-156754571D01*
X213366286Y-156754571D01*
X213172762Y-156851333D01*
X213076001Y-156948095D01*
X216462667Y-158109238D02*
X216462667Y-156077238D01*
X216462667Y-157044857D02*
X217623809Y-157044857D01*
X217623809Y-158109238D02*
X217623809Y-156077238D01*
X219365524Y-158012476D02*
X219172000Y-158109238D01*
X218784952Y-158109238D01*
X218591429Y-158012476D01*
X218494667Y-157818952D01*
X218494667Y-157044857D01*
X218591429Y-156851333D01*
X218784952Y-156754571D01*
X219172000Y-156754571D01*
X219365524Y-156851333D01*
X219462286Y-157044857D01*
X219462286Y-157238381D01*
X218494667Y-157431905D01*
X220333143Y-158109238D02*
X220333143Y-156754571D01*
X220333143Y-156077238D02*
X220236381Y-156174000D01*
X220333143Y-156270762D01*
X220429904Y-156174000D01*
X220333143Y-156077238D01*
X220333143Y-156270762D01*
X222171619Y-156754571D02*
X222171619Y-158399524D01*
X222074857Y-158593048D01*
X221978095Y-158689810D01*
X221784571Y-158786571D01*
X221494285Y-158786571D01*
X221300762Y-158689810D01*
X222171619Y-158012476D02*
X221978095Y-158109238D01*
X221591047Y-158109238D01*
X221397523Y-158012476D01*
X221300762Y-157915714D01*
X221204000Y-157722190D01*
X221204000Y-157141619D01*
X221300762Y-156948095D01*
X221397523Y-156851333D01*
X221591047Y-156754571D01*
X221978095Y-156754571D01*
X222171619Y-156851333D01*
X223139238Y-158109238D02*
X223139238Y-156077238D01*
X224010095Y-158109238D02*
X224010095Y-157044857D01*
X223913333Y-156851333D01*
X223719809Y-156754571D01*
X223429523Y-156754571D01*
X223235999Y-156851333D01*
X223139238Y-156948095D01*
X224687428Y-156754571D02*
X225461523Y-156754571D01*
X224977714Y-156077238D02*
X224977714Y-157818952D01*
X225074475Y-158012476D01*
X225267999Y-158109238D01*
X225461523Y-158109238D01*
X228848189Y-157915714D02*
X228751427Y-158012476D01*
X228461142Y-158109238D01*
X228267618Y-158109238D01*
X227977332Y-158012476D01*
X227783808Y-157818952D01*
X227687047Y-157625429D01*
X227590285Y-157238381D01*
X227590285Y-156948095D01*
X227687047Y-156561048D01*
X227783808Y-156367524D01*
X227977332Y-156174000D01*
X228267618Y-156077238D01*
X228461142Y-156077238D01*
X228751427Y-156174000D01*
X228848189Y-156270762D01*
X230009332Y-158109238D02*
X229815808Y-158012476D01*
X229719047Y-157915714D01*
X229622285Y-157722190D01*
X229622285Y-157141619D01*
X229719047Y-156948095D01*
X229815808Y-156851333D01*
X230009332Y-156754571D01*
X230299618Y-156754571D01*
X230493142Y-156851333D01*
X230589904Y-156948095D01*
X230686666Y-157141619D01*
X230686666Y-157722190D01*
X230589904Y-157915714D01*
X230493142Y-158012476D01*
X230299618Y-158109238D01*
X230009332Y-158109238D01*
X231557523Y-156754571D02*
X231557523Y-158109238D01*
X231557523Y-156948095D02*
X231654284Y-156851333D01*
X231847808Y-156754571D01*
X232138094Y-156754571D01*
X232331618Y-156851333D01*
X232428380Y-157044857D01*
X232428380Y-158109238D01*
X233105713Y-156754571D02*
X233879808Y-156754571D01*
X233395999Y-156077238D02*
X233395999Y-157818952D01*
X233492760Y-158012476D01*
X233686284Y-158109238D01*
X233879808Y-158109238D01*
X234557142Y-158109238D02*
X234557142Y-156754571D01*
X234557142Y-157141619D02*
X234653903Y-156948095D01*
X234750665Y-156851333D01*
X234944189Y-156754571D01*
X235137713Y-156754571D01*
X236105332Y-158109238D02*
X235911808Y-158012476D01*
X235815047Y-157915714D01*
X235718285Y-157722190D01*
X235718285Y-157141619D01*
X235815047Y-156948095D01*
X235911808Y-156851333D01*
X236105332Y-156754571D01*
X236395618Y-156754571D01*
X236589142Y-156851333D01*
X236685904Y-156948095D01*
X236782666Y-157141619D01*
X236782666Y-157722190D01*
X236685904Y-157915714D01*
X236589142Y-158012476D01*
X236395618Y-158109238D01*
X236105332Y-158109238D01*
X237943808Y-158109238D02*
X237750284Y-158012476D01*
X237653523Y-157818952D01*
X237653523Y-156077238D01*
D12*
X241472095Y-152102857D02*
X241423714Y-152151238D01*
X241278571Y-152199619D01*
X241181809Y-152199619D01*
X241036667Y-152151238D01*
X240939905Y-152054476D01*
X240891524Y-151957714D01*
X240843143Y-151764190D01*
X240843143Y-151619048D01*
X240891524Y-151425524D01*
X240939905Y-151328762D01*
X241036667Y-151232000D01*
X241181809Y-151183619D01*
X241278571Y-151183619D01*
X241423714Y-151232000D01*
X241472095Y-151280381D01*
X242101048Y-151183619D02*
X242294571Y-151183619D01*
X242391333Y-151232000D01*
X242488095Y-151328762D01*
X242536476Y-151522286D01*
X242536476Y-151860952D01*
X242488095Y-152054476D01*
X242391333Y-152151238D01*
X242294571Y-152199619D01*
X242101048Y-152199619D01*
X242004286Y-152151238D01*
X241907524Y-152054476D01*
X241859143Y-151860952D01*
X241859143Y-151522286D01*
X241907524Y-151328762D01*
X242004286Y-151232000D01*
X242101048Y-151183619D01*
X242971905Y-152199619D02*
X242971905Y-151183619D01*
X243552476Y-152199619D01*
X243552476Y-151183619D01*
X244374952Y-151667429D02*
X244520095Y-151715810D01*
X244568476Y-151764190D01*
X244616857Y-151860952D01*
X244616857Y-152006095D01*
X244568476Y-152102857D01*
X244520095Y-152151238D01*
X244423333Y-152199619D01*
X244036286Y-152199619D01*
X244036286Y-151183619D01*
X244374952Y-151183619D01*
X244471714Y-151232000D01*
X244520095Y-151280381D01*
X244568476Y-151377143D01*
X244568476Y-151473905D01*
X244520095Y-151570667D01*
X244471714Y-151619048D01*
X244374952Y-151667429D01*
X244036286Y-151667429D01*
X170293619Y-101306285D02*
X171309619Y-100967618D01*
X170293619Y-100628952D01*
X171261238Y-100338666D02*
X171309619Y-100193523D01*
X171309619Y-99951619D01*
X171261238Y-99854857D01*
X171212857Y-99806476D01*
X171116095Y-99758095D01*
X171019333Y-99758095D01*
X170922571Y-99806476D01*
X170874190Y-99854857D01*
X170825810Y-99951619D01*
X170777429Y-100145142D01*
X170729048Y-100241904D01*
X170680667Y-100290285D01*
X170583905Y-100338666D01*
X170487143Y-100338666D01*
X170390381Y-100290285D01*
X170342000Y-100241904D01*
X170293619Y-100145142D01*
X170293619Y-99903238D01*
X170342000Y-99758095D01*
X171261238Y-99371047D02*
X171309619Y-99225904D01*
X171309619Y-98984000D01*
X171261238Y-98887238D01*
X171212857Y-98838857D01*
X171116095Y-98790476D01*
X171019333Y-98790476D01*
X170922571Y-98838857D01*
X170874190Y-98887238D01*
X170825810Y-98984000D01*
X170777429Y-99177523D01*
X170729048Y-99274285D01*
X170680667Y-99322666D01*
X170583905Y-99371047D01*
X170487143Y-99371047D01*
X170390381Y-99322666D01*
X170342000Y-99274285D01*
X170293619Y-99177523D01*
X170293619Y-98935619D01*
X170342000Y-98790476D01*
D11*
X162830000Y-75525000D02*
X170630000Y-75525000D01*
D13*
X162116287Y-65981619D02*
X162116287Y-66949238D01*
X161438954Y-64917238D02*
X162116287Y-65981619D01*
X162793620Y-64917238D01*
X164922382Y-66368667D02*
X165890001Y-66368667D01*
X164728858Y-66949238D02*
X165406191Y-64917238D01*
X166083524Y-66949238D01*
X166567334Y-66949238D02*
X167631715Y-65594571D01*
X166567334Y-65594571D02*
X167631715Y-66949238D01*
X168405810Y-66949238D02*
X168405810Y-65594571D01*
X168405810Y-64917238D02*
X168309048Y-65014000D01*
X168405810Y-65110762D01*
X168502571Y-65014000D01*
X168405810Y-64917238D01*
X168405810Y-65110762D01*
X169276667Y-66852476D02*
X169470190Y-66949238D01*
X169857238Y-66949238D01*
X170050762Y-66852476D01*
X170147524Y-66658952D01*
X170147524Y-66562190D01*
X170050762Y-66368667D01*
X169857238Y-66271905D01*
X169566952Y-66271905D01*
X169373429Y-66175143D01*
X169276667Y-65981619D01*
X169276667Y-65884857D01*
X169373429Y-65691333D01*
X169566952Y-65594571D01*
X169857238Y-65594571D01*
X170050762Y-65691333D01*
D11*
X170630000Y-90525000D02*
X162830000Y-90525000D01*
D12*
X171111238Y-94714952D02*
X171159619Y-94569809D01*
X171159619Y-94327905D01*
X171111238Y-94231143D01*
X171062857Y-94182762D01*
X170966095Y-94134381D01*
X170869333Y-94134381D01*
X170772571Y-94182762D01*
X170724190Y-94231143D01*
X170675810Y-94327905D01*
X170627429Y-94521428D01*
X170579048Y-94618190D01*
X170530667Y-94666571D01*
X170433905Y-94714952D01*
X170337143Y-94714952D01*
X170240381Y-94666571D01*
X170192000Y-94618190D01*
X170143619Y-94521428D01*
X170143619Y-94279524D01*
X170192000Y-94134381D01*
X170143619Y-93844095D02*
X170143619Y-93263524D01*
X171159619Y-93553809D02*
X170143619Y-93553809D01*
X170627429Y-92924857D02*
X170627429Y-92586191D01*
X171159619Y-92441048D02*
X171159619Y-92924857D01*
X170143619Y-92924857D01*
X170143619Y-92441048D01*
X171159619Y-92005619D02*
X170143619Y-92005619D01*
X170143619Y-91618572D01*
X170192000Y-91521810D01*
X170240381Y-91473429D01*
X170337143Y-91425048D01*
X170482286Y-91425048D01*
X170579048Y-91473429D01*
X170627429Y-91521810D01*
X170675810Y-91618572D01*
X170675810Y-92005619D01*
D11*
X170630000Y-80525000D02*
X162830000Y-80525000D01*
D12*
X170043619Y-79096285D02*
X171059619Y-78757618D01*
X170043619Y-78418952D01*
X171011238Y-78128666D02*
X171059619Y-77983523D01*
X171059619Y-77741619D01*
X171011238Y-77644857D01*
X170962857Y-77596476D01*
X170866095Y-77548095D01*
X170769333Y-77548095D01*
X170672571Y-77596476D01*
X170624190Y-77644857D01*
X170575810Y-77741619D01*
X170527429Y-77935142D01*
X170479048Y-78031904D01*
X170430667Y-78080285D01*
X170333905Y-78128666D01*
X170237143Y-78128666D01*
X170140381Y-78080285D01*
X170092000Y-78031904D01*
X170043619Y-77935142D01*
X170043619Y-77693238D01*
X170092000Y-77548095D01*
X171011238Y-77161047D02*
X171059619Y-77015904D01*
X171059619Y-76774000D01*
X171011238Y-76677238D01*
X170962857Y-76628857D01*
X170866095Y-76580476D01*
X170769333Y-76580476D01*
X170672571Y-76628857D01*
X170624190Y-76677238D01*
X170575810Y-76774000D01*
X170527429Y-76967523D01*
X170479048Y-77064285D01*
X170430667Y-77112666D01*
X170333905Y-77161047D01*
X170237143Y-77161047D01*
X170140381Y-77112666D01*
X170092000Y-77064285D01*
X170043619Y-76967523D01*
X170043619Y-76725619D01*
X170092000Y-76580476D01*
D11*
X170630000Y-85525000D02*
X162830000Y-85525000D01*
D12*
X171059619Y-83806000D02*
X170043619Y-83806000D01*
X170043619Y-83564095D01*
X170092000Y-83418953D01*
X170188762Y-83322191D01*
X170285524Y-83273810D01*
X170479048Y-83225429D01*
X170624190Y-83225429D01*
X170817714Y-83273810D01*
X170914476Y-83322191D01*
X171011238Y-83418953D01*
X171059619Y-83564095D01*
X171059619Y-83806000D01*
X171059619Y-82790000D02*
X170043619Y-82790000D01*
X171059619Y-81725619D02*
X170575810Y-82064285D01*
X171059619Y-82306190D02*
X170043619Y-82306190D01*
X170043619Y-81919143D01*
X170092000Y-81822381D01*
X170140381Y-81774000D01*
X170237143Y-81725619D01*
X170382286Y-81725619D01*
X170479048Y-81774000D01*
X170527429Y-81822381D01*
X170575810Y-81919143D01*
X170575810Y-82306190D01*
X170043619Y-89376285D02*
X171059619Y-89037618D01*
X170043619Y-88698952D01*
X171011238Y-88408666D02*
X171059619Y-88263523D01*
X171059619Y-88021619D01*
X171011238Y-87924857D01*
X170962857Y-87876476D01*
X170866095Y-87828095D01*
X170769333Y-87828095D01*
X170672571Y-87876476D01*
X170624190Y-87924857D01*
X170575810Y-88021619D01*
X170527429Y-88215142D01*
X170479048Y-88311904D01*
X170430667Y-88360285D01*
X170333905Y-88408666D01*
X170237143Y-88408666D01*
X170140381Y-88360285D01*
X170092000Y-88311904D01*
X170043619Y-88215142D01*
X170043619Y-87973238D01*
X170092000Y-87828095D01*
X171011238Y-87441047D02*
X171059619Y-87295904D01*
X171059619Y-87054000D01*
X171011238Y-86957238D01*
X170962857Y-86908857D01*
X170866095Y-86860476D01*
X170769333Y-86860476D01*
X170672571Y-86908857D01*
X170624190Y-86957238D01*
X170575810Y-87054000D01*
X170527429Y-87247523D01*
X170479048Y-87344285D01*
X170430667Y-87392666D01*
X170333905Y-87441047D01*
X170237143Y-87441047D01*
X170140381Y-87392666D01*
X170092000Y-87344285D01*
X170043619Y-87247523D01*
X170043619Y-87005619D01*
X170092000Y-86860476D01*
X147593619Y-88796285D02*
X148609619Y-88457618D01*
X147593619Y-88118952D01*
X148561238Y-87828666D02*
X148609619Y-87683523D01*
X148609619Y-87441619D01*
X148561238Y-87344857D01*
X148512857Y-87296476D01*
X148416095Y-87248095D01*
X148319333Y-87248095D01*
X148222571Y-87296476D01*
X148174190Y-87344857D01*
X148125810Y-87441619D01*
X148077429Y-87635142D01*
X148029048Y-87731904D01*
X147980667Y-87780285D01*
X147883905Y-87828666D01*
X147787143Y-87828666D01*
X147690381Y-87780285D01*
X147642000Y-87731904D01*
X147593619Y-87635142D01*
X147593619Y-87393238D01*
X147642000Y-87248095D01*
X148561238Y-86861047D02*
X148609619Y-86715904D01*
X148609619Y-86474000D01*
X148561238Y-86377238D01*
X148512857Y-86328857D01*
X148416095Y-86280476D01*
X148319333Y-86280476D01*
X148222571Y-86328857D01*
X148174190Y-86377238D01*
X148125810Y-86474000D01*
X148077429Y-86667523D01*
X148029048Y-86764285D01*
X147980667Y-86812666D01*
X147883905Y-86861047D01*
X147787143Y-86861047D01*
X147690381Y-86812666D01*
X147642000Y-86764285D01*
X147593619Y-86667523D01*
X147593619Y-86425619D01*
X147642000Y-86280476D01*
X148561238Y-94364952D02*
X148609619Y-94219809D01*
X148609619Y-93977905D01*
X148561238Y-93881143D01*
X148512857Y-93832762D01*
X148416095Y-93784381D01*
X148319333Y-93784381D01*
X148222571Y-93832762D01*
X148174190Y-93881143D01*
X148125810Y-93977905D01*
X148077429Y-94171428D01*
X148029048Y-94268190D01*
X147980667Y-94316571D01*
X147883905Y-94364952D01*
X147787143Y-94364952D01*
X147690381Y-94316571D01*
X147642000Y-94268190D01*
X147593619Y-94171428D01*
X147593619Y-93929524D01*
X147642000Y-93784381D01*
X147593619Y-93494095D02*
X147593619Y-92913524D01*
X148609619Y-93203809D02*
X147593619Y-93203809D01*
X148077429Y-92574857D02*
X148077429Y-92236191D01*
X148609619Y-92091048D02*
X148609619Y-92574857D01*
X147593619Y-92574857D01*
X147593619Y-92091048D01*
X148609619Y-91655619D02*
X147593619Y-91655619D01*
X147593619Y-91268572D01*
X147642000Y-91171810D01*
X147690381Y-91123429D01*
X147787143Y-91075048D01*
X147932286Y-91075048D01*
X148029048Y-91123429D01*
X148077429Y-91171810D01*
X148125810Y-91268572D01*
X148125810Y-91655619D01*
D11*
X147730000Y-90225000D02*
X139930000Y-90225000D01*
X147730000Y-85225000D02*
X139930000Y-85225000D01*
D12*
X147849333Y-74492285D02*
X147849333Y-74008476D01*
X148139619Y-74589047D02*
X147123619Y-74250380D01*
X148139619Y-73911714D01*
X148139619Y-73573047D02*
X147123619Y-73573047D01*
X147849333Y-73234381D01*
X147123619Y-72895714D01*
X148139619Y-72895714D01*
X148139619Y-72411904D02*
X147123619Y-72411904D01*
X147123619Y-72024857D01*
X147172000Y-71928095D01*
X147220381Y-71879714D01*
X147317143Y-71831333D01*
X147462286Y-71831333D01*
X147559048Y-71879714D01*
X147607429Y-71928095D01*
X147655810Y-72024857D01*
X147655810Y-72411904D01*
X147607429Y-71395904D02*
X147607429Y-71057238D01*
X148139619Y-70912095D02*
X148139619Y-71395904D01*
X147123619Y-71395904D01*
X147123619Y-70912095D01*
X148139619Y-70476666D02*
X147123619Y-70476666D01*
X148139619Y-69896095D01*
X147123619Y-69896095D01*
D11*
X139930000Y-75225000D02*
X147730000Y-75225000D01*
D12*
X147423619Y-78806285D02*
X148439619Y-78467618D01*
X147423619Y-78128952D01*
X148391238Y-77838666D02*
X148439619Y-77693523D01*
X148439619Y-77451619D01*
X148391238Y-77354857D01*
X148342857Y-77306476D01*
X148246095Y-77258095D01*
X148149333Y-77258095D01*
X148052571Y-77306476D01*
X148004190Y-77354857D01*
X147955810Y-77451619D01*
X147907429Y-77645142D01*
X147859048Y-77741904D01*
X147810667Y-77790285D01*
X147713905Y-77838666D01*
X147617143Y-77838666D01*
X147520381Y-77790285D01*
X147472000Y-77741904D01*
X147423619Y-77645142D01*
X147423619Y-77403238D01*
X147472000Y-77258095D01*
X148391238Y-76871047D02*
X148439619Y-76725904D01*
X148439619Y-76484000D01*
X148391238Y-76387238D01*
X148342857Y-76338857D01*
X148246095Y-76290476D01*
X148149333Y-76290476D01*
X148052571Y-76338857D01*
X148004190Y-76387238D01*
X147955810Y-76484000D01*
X147907429Y-76677523D01*
X147859048Y-76774285D01*
X147810667Y-76822666D01*
X147713905Y-76871047D01*
X147617143Y-76871047D01*
X147520381Y-76822666D01*
X147472000Y-76774285D01*
X147423619Y-76677523D01*
X147423619Y-76435619D01*
X147472000Y-76290476D01*
D11*
X147730000Y-80225000D02*
X139930000Y-80225000D01*
D13*
X138948954Y-65047238D02*
X140303620Y-67079238D01*
X140303620Y-65047238D02*
X138948954Y-67079238D01*
X142529144Y-66498667D02*
X143496763Y-66498667D01*
X142335620Y-67079238D02*
X143012953Y-65047238D01*
X143690286Y-67079238D01*
X144174096Y-67079238D02*
X145238477Y-65724571D01*
X144174096Y-65724571D02*
X145238477Y-67079238D01*
X146012572Y-67079238D02*
X146012572Y-65724571D01*
X146012572Y-65047238D02*
X145915810Y-65144000D01*
X146012572Y-65240762D01*
X146109333Y-65144000D01*
X146012572Y-65047238D01*
X146012572Y-65240762D01*
X146883429Y-66982476D02*
X147076952Y-67079238D01*
X147464000Y-67079238D01*
X147657524Y-66982476D01*
X147754286Y-66788952D01*
X147754286Y-66692190D01*
X147657524Y-66498667D01*
X147464000Y-66401905D01*
X147173714Y-66401905D01*
X146980191Y-66305143D01*
X146883429Y-66111619D01*
X146883429Y-66014857D01*
X146980191Y-65821333D01*
X147173714Y-65724571D01*
X147464000Y-65724571D01*
X147657524Y-65821333D01*
D12*
X148499619Y-83506000D02*
X147483619Y-83506000D01*
X147483619Y-83264095D01*
X147532000Y-83118953D01*
X147628762Y-83022191D01*
X147725524Y-82973810D01*
X147919048Y-82925429D01*
X148064190Y-82925429D01*
X148257714Y-82973810D01*
X148354476Y-83022191D01*
X148451238Y-83118953D01*
X148499619Y-83264095D01*
X148499619Y-83506000D01*
X148499619Y-82490000D02*
X147483619Y-82490000D01*
X148499619Y-81425619D02*
X148015810Y-81764285D01*
X148499619Y-82006190D02*
X147483619Y-82006190D01*
X147483619Y-81619143D01*
X147532000Y-81522381D01*
X147580381Y-81474000D01*
X147677143Y-81425619D01*
X147822286Y-81425619D01*
X147919048Y-81474000D01*
X147967429Y-81522381D01*
X148015810Y-81619143D01*
X148015810Y-82006190D01*
X193673619Y-101196285D02*
X194689619Y-100857618D01*
X193673619Y-100518952D01*
X194641238Y-100228666D02*
X194689619Y-100083523D01*
X194689619Y-99841619D01*
X194641238Y-99744857D01*
X194592857Y-99696476D01*
X194496095Y-99648095D01*
X194399333Y-99648095D01*
X194302571Y-99696476D01*
X194254190Y-99744857D01*
X194205810Y-99841619D01*
X194157429Y-100035142D01*
X194109048Y-100131904D01*
X194060667Y-100180285D01*
X193963905Y-100228666D01*
X193867143Y-100228666D01*
X193770381Y-100180285D01*
X193722000Y-100131904D01*
X193673619Y-100035142D01*
X193673619Y-99793238D01*
X193722000Y-99648095D01*
X194641238Y-99261047D02*
X194689619Y-99115904D01*
X194689619Y-98874000D01*
X194641238Y-98777238D01*
X194592857Y-98728857D01*
X194496095Y-98680476D01*
X194399333Y-98680476D01*
X194302571Y-98728857D01*
X194254190Y-98777238D01*
X194205810Y-98874000D01*
X194157429Y-99067523D01*
X194109048Y-99164285D01*
X194060667Y-99212666D01*
X193963905Y-99261047D01*
X193867143Y-99261047D01*
X193770381Y-99212666D01*
X193722000Y-99164285D01*
X193673619Y-99067523D01*
X193673619Y-98825619D01*
X193722000Y-98680476D01*
X193823619Y-89076285D02*
X194839619Y-88737618D01*
X193823619Y-88398952D01*
X194791238Y-88108666D02*
X194839619Y-87963523D01*
X194839619Y-87721619D01*
X194791238Y-87624857D01*
X194742857Y-87576476D01*
X194646095Y-87528095D01*
X194549333Y-87528095D01*
X194452571Y-87576476D01*
X194404190Y-87624857D01*
X194355810Y-87721619D01*
X194307429Y-87915142D01*
X194259048Y-88011904D01*
X194210667Y-88060285D01*
X194113905Y-88108666D01*
X194017143Y-88108666D01*
X193920381Y-88060285D01*
X193872000Y-88011904D01*
X193823619Y-87915142D01*
X193823619Y-87673238D01*
X193872000Y-87528095D01*
X194791238Y-87141047D02*
X194839619Y-86995904D01*
X194839619Y-86754000D01*
X194791238Y-86657238D01*
X194742857Y-86608857D01*
X194646095Y-86560476D01*
X194549333Y-86560476D01*
X194452571Y-86608857D01*
X194404190Y-86657238D01*
X194355810Y-86754000D01*
X194307429Y-86947523D01*
X194259048Y-87044285D01*
X194210667Y-87092666D01*
X194113905Y-87141047D01*
X194017143Y-87141047D01*
X193920381Y-87092666D01*
X193872000Y-87044285D01*
X193823619Y-86947523D01*
X193823619Y-86705619D01*
X193872000Y-86560476D01*
D11*
X194190000Y-90225000D02*
X186390000Y-90225000D01*
D12*
X194721238Y-94304952D02*
X194769619Y-94159809D01*
X194769619Y-93917905D01*
X194721238Y-93821143D01*
X194672857Y-93772762D01*
X194576095Y-93724381D01*
X194479333Y-93724381D01*
X194382571Y-93772762D01*
X194334190Y-93821143D01*
X194285810Y-93917905D01*
X194237429Y-94111428D01*
X194189048Y-94208190D01*
X194140667Y-94256571D01*
X194043905Y-94304952D01*
X193947143Y-94304952D01*
X193850381Y-94256571D01*
X193802000Y-94208190D01*
X193753619Y-94111428D01*
X193753619Y-93869524D01*
X193802000Y-93724381D01*
X193753619Y-93434095D02*
X193753619Y-92853524D01*
X194769619Y-93143809D02*
X193753619Y-93143809D01*
X194237429Y-92514857D02*
X194237429Y-92176191D01*
X194769619Y-92031048D02*
X194769619Y-92514857D01*
X193753619Y-92514857D01*
X193753619Y-92031048D01*
X194769619Y-91595619D02*
X193753619Y-91595619D01*
X193753619Y-91208572D01*
X193802000Y-91111810D01*
X193850381Y-91063429D01*
X193947143Y-91015048D01*
X194092286Y-91015048D01*
X194189048Y-91063429D01*
X194237429Y-91111810D01*
X194285810Y-91208572D01*
X194285810Y-91595619D01*
X193883619Y-79036285D02*
X194899619Y-78697618D01*
X193883619Y-78358952D01*
X194851238Y-78068666D02*
X194899619Y-77923523D01*
X194899619Y-77681619D01*
X194851238Y-77584857D01*
X194802857Y-77536476D01*
X194706095Y-77488095D01*
X194609333Y-77488095D01*
X194512571Y-77536476D01*
X194464190Y-77584857D01*
X194415810Y-77681619D01*
X194367429Y-77875142D01*
X194319048Y-77971904D01*
X194270667Y-78020285D01*
X194173905Y-78068666D01*
X194077143Y-78068666D01*
X193980381Y-78020285D01*
X193932000Y-77971904D01*
X193883619Y-77875142D01*
X193883619Y-77633238D01*
X193932000Y-77488095D01*
X194851238Y-77101047D02*
X194899619Y-76955904D01*
X194899619Y-76714000D01*
X194851238Y-76617238D01*
X194802857Y-76568857D01*
X194706095Y-76520476D01*
X194609333Y-76520476D01*
X194512571Y-76568857D01*
X194464190Y-76617238D01*
X194415810Y-76714000D01*
X194367429Y-76907523D01*
X194319048Y-77004285D01*
X194270667Y-77052666D01*
X194173905Y-77101047D01*
X194077143Y-77101047D01*
X193980381Y-77052666D01*
X193932000Y-77004285D01*
X193883619Y-76907523D01*
X193883619Y-76665619D01*
X193932000Y-76520476D01*
X194669333Y-74842285D02*
X194669333Y-74358476D01*
X194959619Y-74939047D02*
X193943619Y-74600380D01*
X194959619Y-74261714D01*
X194959619Y-73923047D02*
X193943619Y-73923047D01*
X194669333Y-73584381D01*
X193943619Y-73245714D01*
X194959619Y-73245714D01*
X194959619Y-72761904D02*
X193943619Y-72761904D01*
X193943619Y-72374857D01*
X193992000Y-72278095D01*
X194040381Y-72229714D01*
X194137143Y-72181333D01*
X194282286Y-72181333D01*
X194379048Y-72229714D01*
X194427429Y-72278095D01*
X194475810Y-72374857D01*
X194475810Y-72761904D01*
X194427429Y-71745904D02*
X194427429Y-71407238D01*
X194959619Y-71262095D02*
X194959619Y-71745904D01*
X193943619Y-71745904D01*
X193943619Y-71262095D01*
X194959619Y-70826666D02*
X193943619Y-70826666D01*
X194959619Y-70246095D01*
X193943619Y-70246095D01*
D13*
X185568954Y-65117238D02*
X186923620Y-65117238D01*
X185568954Y-67149238D01*
X186923620Y-67149238D01*
X189149144Y-66568667D02*
X190116763Y-66568667D01*
X188955620Y-67149238D02*
X189632953Y-65117238D01*
X190310286Y-67149238D01*
X190794096Y-67149238D02*
X191858477Y-65794571D01*
X190794096Y-65794571D02*
X191858477Y-67149238D01*
X192632572Y-67149238D02*
X192632572Y-65794571D01*
X192632572Y-65117238D02*
X192535810Y-65214000D01*
X192632572Y-65310762D01*
X192729333Y-65214000D01*
X192632572Y-65117238D01*
X192632572Y-65310762D01*
X193503429Y-67052476D02*
X193696952Y-67149238D01*
X194084000Y-67149238D01*
X194277524Y-67052476D01*
X194374286Y-66858952D01*
X194374286Y-66762190D01*
X194277524Y-66568667D01*
X194084000Y-66471905D01*
X193793714Y-66471905D01*
X193600191Y-66375143D01*
X193503429Y-66181619D01*
X193503429Y-66084857D01*
X193600191Y-65891333D01*
X193793714Y-65794571D01*
X194084000Y-65794571D01*
X194277524Y-65891333D01*
D11*
X186390000Y-75225000D02*
X194190000Y-75225000D01*
X194190000Y-85225000D02*
X186390000Y-85225000D01*
D12*
X194959619Y-83576000D02*
X193943619Y-83576000D01*
X193943619Y-83334095D01*
X193992000Y-83188953D01*
X194088762Y-83092191D01*
X194185524Y-83043810D01*
X194379048Y-82995429D01*
X194524190Y-82995429D01*
X194717714Y-83043810D01*
X194814476Y-83092191D01*
X194911238Y-83188953D01*
X194959619Y-83334095D01*
X194959619Y-83576000D01*
X194959619Y-82560000D02*
X193943619Y-82560000D01*
X194959619Y-81495619D02*
X194475810Y-81834285D01*
X194959619Y-82076190D02*
X193943619Y-82076190D01*
X193943619Y-81689143D01*
X193992000Y-81592381D01*
X194040381Y-81544000D01*
X194137143Y-81495619D01*
X194282286Y-81495619D01*
X194379048Y-81544000D01*
X194427429Y-81592381D01*
X194475810Y-81689143D01*
X194475810Y-82076190D01*
D11*
X194190000Y-80225000D02*
X186390000Y-80225000D01*
X216020000Y-80165000D02*
X208220000Y-80165000D01*
X208220000Y-75165000D02*
X216020000Y-75165000D01*
D12*
X216679619Y-83636000D02*
X215663619Y-83636000D01*
X215663619Y-83394095D01*
X215712000Y-83248953D01*
X215808762Y-83152191D01*
X215905524Y-83103810D01*
X216099048Y-83055429D01*
X216244190Y-83055429D01*
X216437714Y-83103810D01*
X216534476Y-83152191D01*
X216631238Y-83248953D01*
X216679619Y-83394095D01*
X216679619Y-83636000D01*
X216679619Y-82620000D02*
X215663619Y-82620000D01*
X216679619Y-81555619D02*
X216195810Y-81894285D01*
X216679619Y-82136190D02*
X215663619Y-82136190D01*
X215663619Y-81749143D01*
X215712000Y-81652381D01*
X215760381Y-81604000D01*
X215857143Y-81555619D01*
X216002286Y-81555619D01*
X216099048Y-81604000D01*
X216147429Y-81652381D01*
X216195810Y-81749143D01*
X216195810Y-82136190D01*
X215563619Y-78806285D02*
X216579619Y-78467618D01*
X215563619Y-78128952D01*
X216531238Y-77838666D02*
X216579619Y-77693523D01*
X216579619Y-77451619D01*
X216531238Y-77354857D01*
X216482857Y-77306476D01*
X216386095Y-77258095D01*
X216289333Y-77258095D01*
X216192571Y-77306476D01*
X216144190Y-77354857D01*
X216095810Y-77451619D01*
X216047429Y-77645142D01*
X215999048Y-77741904D01*
X215950667Y-77790285D01*
X215853905Y-77838666D01*
X215757143Y-77838666D01*
X215660381Y-77790285D01*
X215612000Y-77741904D01*
X215563619Y-77645142D01*
X215563619Y-77403238D01*
X215612000Y-77258095D01*
X216531238Y-76871047D02*
X216579619Y-76725904D01*
X216579619Y-76484000D01*
X216531238Y-76387238D01*
X216482857Y-76338857D01*
X216386095Y-76290476D01*
X216289333Y-76290476D01*
X216192571Y-76338857D01*
X216144190Y-76387238D01*
X216095810Y-76484000D01*
X216047429Y-76677523D01*
X215999048Y-76774285D01*
X215950667Y-76822666D01*
X215853905Y-76871047D01*
X215757143Y-76871047D01*
X215660381Y-76822666D01*
X215612000Y-76774285D01*
X215563619Y-76677523D01*
X215563619Y-76435619D01*
X215612000Y-76290476D01*
D11*
X216020000Y-90165000D02*
X208220000Y-90165000D01*
D12*
X216931238Y-94304952D02*
X216979619Y-94159809D01*
X216979619Y-93917905D01*
X216931238Y-93821143D01*
X216882857Y-93772762D01*
X216786095Y-93724381D01*
X216689333Y-93724381D01*
X216592571Y-93772762D01*
X216544190Y-93821143D01*
X216495810Y-93917905D01*
X216447429Y-94111428D01*
X216399048Y-94208190D01*
X216350667Y-94256571D01*
X216253905Y-94304952D01*
X216157143Y-94304952D01*
X216060381Y-94256571D01*
X216012000Y-94208190D01*
X215963619Y-94111428D01*
X215963619Y-93869524D01*
X216012000Y-93724381D01*
X215963619Y-93434095D02*
X215963619Y-92853524D01*
X216979619Y-93143809D02*
X215963619Y-93143809D01*
X216447429Y-92514857D02*
X216447429Y-92176191D01*
X216979619Y-92031048D02*
X216979619Y-92514857D01*
X215963619Y-92514857D01*
X215963619Y-92031048D01*
X216979619Y-91595619D02*
X215963619Y-91595619D01*
X215963619Y-91208572D01*
X216012000Y-91111810D01*
X216060381Y-91063429D01*
X216157143Y-91015048D01*
X216302286Y-91015048D01*
X216399048Y-91063429D01*
X216447429Y-91111810D01*
X216495810Y-91208572D01*
X216495810Y-91595619D01*
X215783619Y-88956285D02*
X216799619Y-88617618D01*
X215783619Y-88278952D01*
X216751238Y-87988666D02*
X216799619Y-87843523D01*
X216799619Y-87601619D01*
X216751238Y-87504857D01*
X216702857Y-87456476D01*
X216606095Y-87408095D01*
X216509333Y-87408095D01*
X216412571Y-87456476D01*
X216364190Y-87504857D01*
X216315810Y-87601619D01*
X216267429Y-87795142D01*
X216219048Y-87891904D01*
X216170667Y-87940285D01*
X216073905Y-87988666D01*
X215977143Y-87988666D01*
X215880381Y-87940285D01*
X215832000Y-87891904D01*
X215783619Y-87795142D01*
X215783619Y-87553238D01*
X215832000Y-87408095D01*
X216751238Y-87021047D02*
X216799619Y-86875904D01*
X216799619Y-86634000D01*
X216751238Y-86537238D01*
X216702857Y-86488857D01*
X216606095Y-86440476D01*
X216509333Y-86440476D01*
X216412571Y-86488857D01*
X216364190Y-86537238D01*
X216315810Y-86634000D01*
X216267429Y-86827523D01*
X216219048Y-86924285D01*
X216170667Y-86972666D01*
X216073905Y-87021047D01*
X215977143Y-87021047D01*
X215880381Y-86972666D01*
X215832000Y-86924285D01*
X215783619Y-86827523D01*
X215783619Y-86585619D01*
X215832000Y-86440476D01*
D11*
X216020000Y-85165000D02*
X208220000Y-85165000D01*
D12*
X215393619Y-101276285D02*
X216409619Y-100937618D01*
X215393619Y-100598952D01*
X216361238Y-100308666D02*
X216409619Y-100163523D01*
X216409619Y-99921619D01*
X216361238Y-99824857D01*
X216312857Y-99776476D01*
X216216095Y-99728095D01*
X216119333Y-99728095D01*
X216022571Y-99776476D01*
X215974190Y-99824857D01*
X215925810Y-99921619D01*
X215877429Y-100115142D01*
X215829048Y-100211904D01*
X215780667Y-100260285D01*
X215683905Y-100308666D01*
X215587143Y-100308666D01*
X215490381Y-100260285D01*
X215442000Y-100211904D01*
X215393619Y-100115142D01*
X215393619Y-99873238D01*
X215442000Y-99728095D01*
X216361238Y-99341047D02*
X216409619Y-99195904D01*
X216409619Y-98954000D01*
X216361238Y-98857238D01*
X216312857Y-98808857D01*
X216216095Y-98760476D01*
X216119333Y-98760476D01*
X216022571Y-98808857D01*
X215974190Y-98857238D01*
X215925810Y-98954000D01*
X215877429Y-99147523D01*
X215829048Y-99244285D01*
X215780667Y-99292666D01*
X215683905Y-99341047D01*
X215587143Y-99341047D01*
X215490381Y-99292666D01*
X215442000Y-99244285D01*
X215393619Y-99147523D01*
X215393619Y-98905619D01*
X215442000Y-98760476D01*
D11*
X208220000Y-102795000D02*
X216020000Y-102795000D01*
D12*
X215592000Y-106014095D02*
X215543619Y-106110857D01*
X215543619Y-106256000D01*
X215592000Y-106401142D01*
X215688762Y-106497904D01*
X215785524Y-106546285D01*
X215979048Y-106594666D01*
X216124190Y-106594666D01*
X216317714Y-106546285D01*
X216414476Y-106497904D01*
X216511238Y-106401142D01*
X216559619Y-106256000D01*
X216559619Y-106159238D01*
X216511238Y-106014095D01*
X216462857Y-105965714D01*
X216124190Y-105965714D01*
X216124190Y-106159238D01*
X216559619Y-105530285D02*
X215543619Y-105530285D01*
X216559619Y-104949714D01*
X215543619Y-104949714D01*
X216559619Y-104465904D02*
X215543619Y-104465904D01*
X215543619Y-104223999D01*
X215592000Y-104078857D01*
X215688762Y-103982095D01*
X215785524Y-103933714D01*
X215979048Y-103885333D01*
X216124190Y-103885333D01*
X216317714Y-103933714D01*
X216414476Y-103982095D01*
X216511238Y-104078857D01*
X216559619Y-104223999D01*
X216559619Y-104465904D01*
D11*
X216020000Y-107795000D02*
X208220000Y-107795000D01*
X216020000Y-112795000D02*
X208220000Y-112795000D01*
D12*
X215723619Y-116444666D02*
X216739619Y-116105999D01*
X215723619Y-115767333D01*
X216739619Y-115428666D02*
X215723619Y-115428666D01*
X215723619Y-115186761D01*
X215772000Y-115041619D01*
X215868762Y-114944857D01*
X215965524Y-114896476D01*
X216159048Y-114848095D01*
X216304190Y-114848095D01*
X216497714Y-114896476D01*
X216594476Y-114944857D01*
X216691238Y-115041619D01*
X216739619Y-115186761D01*
X216739619Y-115428666D01*
X216739619Y-114412666D02*
X215723619Y-114412666D01*
X215723619Y-114170761D01*
X215772000Y-114025619D01*
X215868762Y-113928857D01*
X215965524Y-113880476D01*
X216159048Y-113832095D01*
X216304190Y-113832095D01*
X216497714Y-113880476D01*
X216594476Y-113928857D01*
X216691238Y-114025619D01*
X216739619Y-114170761D01*
X216739619Y-114412666D01*
X215622000Y-110844095D02*
X215573619Y-110940857D01*
X215573619Y-111086000D01*
X215622000Y-111231142D01*
X215718762Y-111327904D01*
X215815524Y-111376285D01*
X216009048Y-111424666D01*
X216154190Y-111424666D01*
X216347714Y-111376285D01*
X216444476Y-111327904D01*
X216541238Y-111231142D01*
X216589619Y-111086000D01*
X216589619Y-110989238D01*
X216541238Y-110844095D01*
X216492857Y-110795714D01*
X216154190Y-110795714D01*
X216154190Y-110989238D01*
X216589619Y-110360285D02*
X215573619Y-110360285D01*
X216589619Y-109779714D01*
X215573619Y-109779714D01*
X216589619Y-109295904D02*
X215573619Y-109295904D01*
X215573619Y-109053999D01*
X215622000Y-108908857D01*
X215718762Y-108812095D01*
X215815524Y-108763714D01*
X216009048Y-108715333D01*
X216154190Y-108715333D01*
X216347714Y-108763714D01*
X216444476Y-108812095D01*
X216541238Y-108908857D01*
X216589619Y-109053999D01*
X216589619Y-109295904D01*
D11*
X216020000Y-117795000D02*
X208220000Y-117795000D01*
D12*
X215873619Y-121534666D02*
X216889619Y-121195999D01*
X215873619Y-120857333D01*
X216889619Y-120518666D02*
X215873619Y-120518666D01*
X215873619Y-120276761D01*
X215922000Y-120131619D01*
X216018762Y-120034857D01*
X216115524Y-119986476D01*
X216309048Y-119938095D01*
X216454190Y-119938095D01*
X216647714Y-119986476D01*
X216744476Y-120034857D01*
X216841238Y-120131619D01*
X216889619Y-120276761D01*
X216889619Y-120518666D01*
X216889619Y-119502666D02*
X215873619Y-119502666D01*
X215873619Y-119260761D01*
X215922000Y-119115619D01*
X216018762Y-119018857D01*
X216115524Y-118970476D01*
X216309048Y-118922095D01*
X216454190Y-118922095D01*
X216647714Y-118970476D01*
X216744476Y-119018857D01*
X216841238Y-119115619D01*
X216889619Y-119260761D01*
X216889619Y-119502666D01*
X216129333Y-74562285D02*
X216129333Y-74078476D01*
X216419619Y-74659047D02*
X215403619Y-74320380D01*
X216419619Y-73981714D01*
X216419619Y-73643047D02*
X215403619Y-73643047D01*
X216129333Y-73304381D01*
X215403619Y-72965714D01*
X216419619Y-72965714D01*
X216419619Y-72481904D02*
X215403619Y-72481904D01*
X215403619Y-72094857D01*
X215452000Y-71998095D01*
X215500381Y-71949714D01*
X215597143Y-71901333D01*
X215742286Y-71901333D01*
X215839048Y-71949714D01*
X215887429Y-71998095D01*
X215935810Y-72094857D01*
X215935810Y-72481904D01*
X215887429Y-71465904D02*
X215887429Y-71127238D01*
X216419619Y-70982095D02*
X216419619Y-71465904D01*
X215403619Y-71465904D01*
X215403619Y-70982095D01*
X216419619Y-70546666D02*
X215403619Y-70546666D01*
X216419619Y-69966095D01*
X215403619Y-69966095D01*
D13*
X206902478Y-66598667D02*
X207870097Y-66598667D01*
X206708954Y-67179238D02*
X207386287Y-65147238D01*
X208063620Y-67179238D01*
X210192382Y-66598667D02*
X211160001Y-66598667D01*
X209998858Y-67179238D02*
X210676191Y-65147238D01*
X211353524Y-67179238D01*
X211837334Y-67179238D02*
X212901715Y-65824571D01*
X211837334Y-65824571D02*
X212901715Y-67179238D01*
X213675810Y-67179238D02*
X213675810Y-65824571D01*
X213675810Y-65147238D02*
X213579048Y-65244000D01*
X213675810Y-65340762D01*
X213772571Y-65244000D01*
X213675810Y-65147238D01*
X213675810Y-65340762D01*
X214546667Y-67082476D02*
X214740190Y-67179238D01*
X215127238Y-67179238D01*
X215320762Y-67082476D01*
X215417524Y-66888952D01*
X215417524Y-66792190D01*
X215320762Y-66598667D01*
X215127238Y-66501905D01*
X214836952Y-66501905D01*
X214643429Y-66405143D01*
X214546667Y-66211619D01*
X214546667Y-66114857D01*
X214643429Y-65921333D01*
X214836952Y-65824571D01*
X215127238Y-65824571D01*
X215320762Y-65921333D01*
D11*
X277675000Y-77400000D02*
X277675000Y-69600000D01*
X272675000Y-77400000D02*
X272675000Y-69600000D01*
D12*
X273418286Y-78009333D02*
X273902095Y-78009333D01*
X273321524Y-78299619D02*
X273660191Y-77283619D01*
X273998857Y-78299619D01*
X274337524Y-77283619D02*
X274337524Y-78106095D01*
X274385905Y-78202857D01*
X274434286Y-78251238D01*
X274531048Y-78299619D01*
X274724571Y-78299619D01*
X274821333Y-78251238D01*
X274869714Y-78202857D01*
X274918095Y-78106095D01*
X274918095Y-77283619D01*
X275305143Y-77283619D02*
X275982476Y-78299619D01*
X275982476Y-77283619D02*
X275305143Y-78299619D01*
X276321143Y-77380381D02*
X276369524Y-77332000D01*
X276466286Y-77283619D01*
X276708190Y-77283619D01*
X276804952Y-77332000D01*
X276853333Y-77380381D01*
X276901714Y-77477143D01*
X276901714Y-77573905D01*
X276853333Y-77719048D01*
X276272762Y-78299619D01*
X276901714Y-78299619D01*
X268438286Y-78009333D02*
X268922095Y-78009333D01*
X268341524Y-78299619D02*
X268680191Y-77283619D01*
X269018857Y-78299619D01*
X269357524Y-77283619D02*
X269357524Y-78106095D01*
X269405905Y-78202857D01*
X269454286Y-78251238D01*
X269551048Y-78299619D01*
X269744571Y-78299619D01*
X269841333Y-78251238D01*
X269889714Y-78202857D01*
X269938095Y-78106095D01*
X269938095Y-77283619D01*
X270325143Y-77283619D02*
X271002476Y-78299619D01*
X271002476Y-77283619D02*
X270325143Y-78299619D01*
X271292762Y-77283619D02*
X271921714Y-77283619D01*
X271583048Y-77670667D01*
X271728190Y-77670667D01*
X271824952Y-77719048D01*
X271873333Y-77767429D01*
X271921714Y-77864190D01*
X271921714Y-78106095D01*
X271873333Y-78202857D01*
X271824952Y-78251238D01*
X271728190Y-78299619D01*
X271437905Y-78299619D01*
X271341143Y-78251238D01*
X271292762Y-78202857D01*
D13*
X268085334Y-109417238D02*
X268762667Y-111449238D01*
X269440000Y-109417238D01*
X270117334Y-111449238D02*
X270117334Y-109417238D01*
X270601143Y-109417238D01*
X270891429Y-109514000D01*
X271084953Y-109707524D01*
X271181714Y-109901048D01*
X271278476Y-110288095D01*
X271278476Y-110578381D01*
X271181714Y-110965429D01*
X271084953Y-111158952D01*
X270891429Y-111352476D01*
X270601143Y-111449238D01*
X270117334Y-111449238D01*
X272149334Y-111449238D02*
X272149334Y-109417238D01*
X272633143Y-109417238D01*
X272923429Y-109514000D01*
X273116953Y-109707524D01*
X273213714Y-109901048D01*
X273310476Y-110288095D01*
X273310476Y-110578381D01*
X273213714Y-110965429D01*
X273116953Y-111158952D01*
X272923429Y-111352476D01*
X272633143Y-111449238D01*
X272149334Y-111449238D01*
X276890666Y-111449238D02*
X276213333Y-110481619D01*
X275729524Y-111449238D02*
X275729524Y-109417238D01*
X276503619Y-109417238D01*
X276697143Y-109514000D01*
X276793904Y-109610762D01*
X276890666Y-109804286D01*
X276890666Y-110094571D01*
X276793904Y-110288095D01*
X276697143Y-110384857D01*
X276503619Y-110481619D01*
X275729524Y-110481619D01*
X278632381Y-111449238D02*
X278632381Y-110384857D01*
X278535619Y-110191333D01*
X278342095Y-110094571D01*
X277955047Y-110094571D01*
X277761524Y-110191333D01*
X278632381Y-111352476D02*
X278438857Y-111449238D01*
X277955047Y-111449238D01*
X277761524Y-111352476D01*
X277664762Y-111158952D01*
X277664762Y-110965429D01*
X277761524Y-110771905D01*
X277955047Y-110675143D01*
X278438857Y-110675143D01*
X278632381Y-110578381D01*
X279600000Y-111449238D02*
X279600000Y-110094571D01*
X279600000Y-109417238D02*
X279503238Y-109514000D01*
X279600000Y-109610762D01*
X279696761Y-109514000D01*
X279600000Y-109417238D01*
X279600000Y-109610762D01*
X280857904Y-111449238D02*
X280664380Y-111352476D01*
X280567619Y-111158952D01*
X280567619Y-109417238D01*
X269636762Y-86899238D02*
X268475620Y-86899238D01*
X269056191Y-86899238D02*
X269056191Y-84867238D01*
X268862667Y-85157524D01*
X268669143Y-85351048D01*
X268475620Y-85447810D01*
X270410858Y-85060762D02*
X270507620Y-84964000D01*
X270701143Y-84867238D01*
X271184953Y-84867238D01*
X271378477Y-84964000D01*
X271475239Y-85060762D01*
X271572000Y-85254286D01*
X271572000Y-85447810D01*
X271475239Y-85738095D01*
X270314096Y-86899238D01*
X271572000Y-86899238D01*
X272152572Y-84867238D02*
X272829905Y-86899238D01*
X273507238Y-84867238D01*
X276893904Y-86899238D02*
X276216571Y-85931619D01*
X275732762Y-86899238D02*
X275732762Y-84867238D01*
X276506857Y-84867238D01*
X276700381Y-84964000D01*
X276797142Y-85060762D01*
X276893904Y-85254286D01*
X276893904Y-85544571D01*
X276797142Y-85738095D01*
X276700381Y-85834857D01*
X276506857Y-85931619D01*
X275732762Y-85931619D01*
X278635619Y-86899238D02*
X278635619Y-85834857D01*
X278538857Y-85641333D01*
X278345333Y-85544571D01*
X277958285Y-85544571D01*
X277764762Y-85641333D01*
X278635619Y-86802476D02*
X278442095Y-86899238D01*
X277958285Y-86899238D01*
X277764762Y-86802476D01*
X277668000Y-86608952D01*
X277668000Y-86415429D01*
X277764762Y-86221905D01*
X277958285Y-86125143D01*
X278442095Y-86125143D01*
X278635619Y-86028381D01*
X279603238Y-86899238D02*
X279603238Y-85544571D01*
X279603238Y-84867238D02*
X279506476Y-84964000D01*
X279603238Y-85060762D01*
X279699999Y-84964000D01*
X279603238Y-84867238D01*
X279603238Y-85060762D01*
X280861142Y-86899238D02*
X280667618Y-86802476D01*
X280570857Y-86608952D01*
X280570857Y-84867238D01*
X295347238Y-114445046D02*
X297379238Y-113767713D01*
X295347238Y-113090380D01*
X297379238Y-112413046D02*
X295347238Y-112413046D01*
X295347238Y-111929237D01*
X295444000Y-111638951D01*
X295637524Y-111445427D01*
X295831048Y-111348666D01*
X296218095Y-111251904D01*
X296508381Y-111251904D01*
X296895429Y-111348666D01*
X297088952Y-111445427D01*
X297282476Y-111638951D01*
X297379238Y-111929237D01*
X297379238Y-112413046D01*
X297379238Y-110381046D02*
X295347238Y-110381046D01*
X295347238Y-109897237D01*
X295444000Y-109606951D01*
X295637524Y-109413427D01*
X295831048Y-109316666D01*
X296218095Y-109219904D01*
X296508381Y-109219904D01*
X296895429Y-109316666D01*
X297088952Y-109413427D01*
X297282476Y-109606951D01*
X297379238Y-109897237D01*
X297379238Y-110381046D01*
X297282476Y-106897618D02*
X297379238Y-106607333D01*
X297379238Y-106123523D01*
X297282476Y-105929999D01*
X297185714Y-105833237D01*
X296992190Y-105736476D01*
X296798667Y-105736476D01*
X296605143Y-105833237D01*
X296508381Y-105929999D01*
X296411619Y-106123523D01*
X296314857Y-106510571D01*
X296218095Y-106704095D01*
X296121333Y-106800856D01*
X295927810Y-106897618D01*
X295734286Y-106897618D01*
X295540762Y-106800856D01*
X295444000Y-106704095D01*
X295347238Y-106510571D01*
X295347238Y-106026761D01*
X295444000Y-105736476D01*
X296024571Y-103994761D02*
X297379238Y-103994761D01*
X296024571Y-104865618D02*
X297088952Y-104865618D01*
X297282476Y-104768857D01*
X297379238Y-104575333D01*
X297379238Y-104285047D01*
X297282476Y-104091523D01*
X297185714Y-103994761D01*
X296024571Y-103027142D02*
X298056571Y-103027142D01*
X296121333Y-103027142D02*
X296024571Y-102833619D01*
X296024571Y-102446571D01*
X296121333Y-102253047D01*
X296218095Y-102156285D01*
X296411619Y-102059523D01*
X296992190Y-102059523D01*
X297185714Y-102156285D01*
X297282476Y-102253047D01*
X297379238Y-102446571D01*
X297379238Y-102833619D01*
X297282476Y-103027142D01*
X296024571Y-101188666D02*
X298056571Y-101188666D01*
X296121333Y-101188666D02*
X296024571Y-100995143D01*
X296024571Y-100608095D01*
X296121333Y-100414571D01*
X296218095Y-100317809D01*
X296411619Y-100221047D01*
X296992190Y-100221047D01*
X297185714Y-100317809D01*
X297282476Y-100414571D01*
X297379238Y-100608095D01*
X297379238Y-100995143D01*
X297282476Y-101188666D01*
X297379238Y-99059905D02*
X297282476Y-99253429D01*
X297088952Y-99350190D01*
X295347238Y-99350190D01*
X296024571Y-98479333D02*
X297379238Y-97995524D01*
X296024571Y-97511714D02*
X297379238Y-97995524D01*
X297863048Y-98189048D01*
X297959810Y-98285809D01*
X298056571Y-98479333D01*
X295594000Y-83723904D02*
X295497238Y-83917427D01*
X295497238Y-84207713D01*
X295594000Y-84497999D01*
X295787524Y-84691523D01*
X295981048Y-84788284D01*
X296368095Y-84885046D01*
X296658381Y-84885046D01*
X297045429Y-84788284D01*
X297238952Y-84691523D01*
X297432476Y-84497999D01*
X297529238Y-84207713D01*
X297529238Y-84014189D01*
X297432476Y-83723904D01*
X297335714Y-83627142D01*
X296658381Y-83627142D01*
X296658381Y-84014189D01*
X297529238Y-82756284D02*
X295497238Y-82756284D01*
X297529238Y-81595142D01*
X295497238Y-81595142D01*
X297529238Y-80627522D02*
X295497238Y-80627522D01*
X295497238Y-80143713D01*
X295594000Y-79853427D01*
X295787524Y-79659903D01*
X295981048Y-79563142D01*
X296368095Y-79466380D01*
X296658381Y-79466380D01*
X297045429Y-79563142D01*
X297238952Y-79659903D01*
X297432476Y-79853427D01*
X297529238Y-80143713D01*
X297529238Y-80627522D01*
X297432476Y-77144094D02*
X297529238Y-76853809D01*
X297529238Y-76369999D01*
X297432476Y-76176475D01*
X297335714Y-76079713D01*
X297142190Y-75982952D01*
X296948667Y-75982952D01*
X296755143Y-76079713D01*
X296658381Y-76176475D01*
X296561619Y-76369999D01*
X296464857Y-76757047D01*
X296368095Y-76950571D01*
X296271333Y-77047332D01*
X296077810Y-77144094D01*
X295884286Y-77144094D01*
X295690762Y-77047332D01*
X295594000Y-76950571D01*
X295497238Y-76757047D01*
X295497238Y-76273237D01*
X295594000Y-75982952D01*
X296174571Y-74241237D02*
X297529238Y-74241237D01*
X296174571Y-75112094D02*
X297238952Y-75112094D01*
X297432476Y-75015333D01*
X297529238Y-74821809D01*
X297529238Y-74531523D01*
X297432476Y-74337999D01*
X297335714Y-74241237D01*
X296174571Y-73273618D02*
X298206571Y-73273618D01*
X296271333Y-73273618D02*
X296174571Y-73080095D01*
X296174571Y-72693047D01*
X296271333Y-72499523D01*
X296368095Y-72402761D01*
X296561619Y-72305999D01*
X297142190Y-72305999D01*
X297335714Y-72402761D01*
X297432476Y-72499523D01*
X297529238Y-72693047D01*
X297529238Y-73080095D01*
X297432476Y-73273618D01*
X296174571Y-71435142D02*
X298206571Y-71435142D01*
X296271333Y-71435142D02*
X296174571Y-71241619D01*
X296174571Y-70854571D01*
X296271333Y-70661047D01*
X296368095Y-70564285D01*
X296561619Y-70467523D01*
X297142190Y-70467523D01*
X297335714Y-70564285D01*
X297432476Y-70661047D01*
X297529238Y-70854571D01*
X297529238Y-71241619D01*
X297432476Y-71435142D01*
X297529238Y-69306381D02*
X297432476Y-69499905D01*
X297238952Y-69596666D01*
X295497238Y-69596666D01*
X296174571Y-68725809D02*
X297529238Y-68242000D01*
X296174571Y-67758190D02*
X297529238Y-68242000D01*
X298013048Y-68435524D01*
X298109810Y-68532285D01*
X298206571Y-68725809D01*
D12*
X278518286Y-77929333D02*
X279002095Y-77929333D01*
X278421524Y-78219619D02*
X278760191Y-77203619D01*
X279098857Y-78219619D01*
X279437524Y-77203619D02*
X279437524Y-78026095D01*
X279485905Y-78122857D01*
X279534286Y-78171238D01*
X279631048Y-78219619D01*
X279824571Y-78219619D01*
X279921333Y-78171238D01*
X279969714Y-78122857D01*
X280018095Y-78026095D01*
X280018095Y-77203619D01*
X280405143Y-77203619D02*
X281082476Y-78219619D01*
X281082476Y-77203619D02*
X280405143Y-78219619D01*
X282001714Y-78219619D02*
X281421143Y-78219619D01*
X281711429Y-78219619D02*
X281711429Y-77203619D01*
X281614667Y-77348762D01*
X281517905Y-77445524D01*
X281421143Y-77493905D01*
D11*
X282675000Y-69600000D02*
X282675000Y-77400000D01*
D12*
X283327715Y-77839333D02*
X283811524Y-77839333D01*
X283230953Y-78129619D02*
X283569620Y-77113619D01*
X283908286Y-78129619D01*
X284246953Y-78129619D02*
X284246953Y-77113619D01*
X284585619Y-77839333D01*
X284924286Y-77113619D01*
X284924286Y-78129619D01*
X285408096Y-78129619D02*
X285408096Y-77113619D01*
X285795143Y-77113619D01*
X285891905Y-77162000D01*
X285940286Y-77210381D01*
X285988667Y-77307143D01*
X285988667Y-77452286D01*
X285940286Y-77549048D01*
X285891905Y-77597429D01*
X285795143Y-77645810D01*
X285408096Y-77645810D01*
X286424096Y-77597429D02*
X286762762Y-77597429D01*
X286907905Y-78129619D02*
X286424096Y-78129619D01*
X286424096Y-77113619D01*
X286907905Y-77113619D01*
X287343334Y-78129619D02*
X287343334Y-77113619D01*
X287923905Y-78129619D01*
X287923905Y-77113619D01*
X263508286Y-77929333D02*
X263992095Y-77929333D01*
X263411524Y-78219619D02*
X263750191Y-77203619D01*
X264088857Y-78219619D01*
X264427524Y-77203619D02*
X264427524Y-78026095D01*
X264475905Y-78122857D01*
X264524286Y-78171238D01*
X264621048Y-78219619D01*
X264814571Y-78219619D01*
X264911333Y-78171238D01*
X264959714Y-78122857D01*
X265008095Y-78026095D01*
X265008095Y-77203619D01*
X265395143Y-77203619D02*
X266072476Y-78219619D01*
X266072476Y-77203619D02*
X265395143Y-78219619D01*
X266894952Y-77542286D02*
X266894952Y-78219619D01*
X266653048Y-77155238D02*
X266411143Y-77880952D01*
X267040095Y-77880952D01*
D11*
X267675000Y-77400000D02*
X267675000Y-69600000D01*
D13*
X267545526Y-63958667D02*
X268513145Y-63958667D01*
X267352002Y-64539238D02*
X268029335Y-62507238D01*
X268706668Y-64539238D01*
X270254859Y-63184571D02*
X270254859Y-64539238D01*
X269384002Y-63184571D02*
X269384002Y-64248952D01*
X269480763Y-64442476D01*
X269674287Y-64539238D01*
X269964573Y-64539238D01*
X270158097Y-64442476D01*
X270254859Y-64345714D01*
X271028954Y-64539238D02*
X272093335Y-63184571D01*
X271028954Y-63184571D02*
X272093335Y-64539238D01*
X275576762Y-64539238D02*
X274899429Y-63571619D01*
X274415620Y-64539238D02*
X274415620Y-62507238D01*
X275189715Y-62507238D01*
X275383239Y-62604000D01*
X275480000Y-62700762D01*
X275576762Y-62894286D01*
X275576762Y-63184571D01*
X275480000Y-63378095D01*
X275383239Y-63474857D01*
X275189715Y-63571619D01*
X274415620Y-63571619D01*
X277221715Y-64442476D02*
X277028191Y-64539238D01*
X276641143Y-64539238D01*
X276447620Y-64442476D01*
X276350858Y-64248952D01*
X276350858Y-63474857D01*
X276447620Y-63281333D01*
X276641143Y-63184571D01*
X277028191Y-63184571D01*
X277221715Y-63281333D01*
X277318477Y-63474857D01*
X277318477Y-63668381D01*
X276350858Y-63861905D01*
X278479619Y-64539238D02*
X278286095Y-64442476D01*
X278189334Y-64248952D01*
X278189334Y-62507238D01*
X280124572Y-64539238D02*
X280124572Y-63474857D01*
X280027810Y-63281333D01*
X279834286Y-63184571D01*
X279447238Y-63184571D01*
X279253715Y-63281333D01*
X280124572Y-64442476D02*
X279931048Y-64539238D01*
X279447238Y-64539238D01*
X279253715Y-64442476D01*
X279156953Y-64248952D01*
X279156953Y-64055429D01*
X279253715Y-63861905D01*
X279447238Y-63765143D01*
X279931048Y-63765143D01*
X280124572Y-63668381D01*
X280898667Y-63184571D02*
X281382476Y-64539238D01*
X281866286Y-63184571D02*
X281382476Y-64539238D01*
X281188952Y-65023048D01*
X281092191Y-65119810D01*
X280898667Y-65216571D01*
X282543619Y-64442476D02*
X282737142Y-64539238D01*
X283124190Y-64539238D01*
X283317714Y-64442476D01*
X283414476Y-64248952D01*
X283414476Y-64152190D01*
X283317714Y-63958667D01*
X283124190Y-63861905D01*
X282833904Y-63861905D01*
X282640381Y-63765143D01*
X282543619Y-63571619D01*
X282543619Y-63474857D01*
X282640381Y-63281333D01*
X282833904Y-63184571D01*
X283124190Y-63184571D01*
X283317714Y-63281333D01*
D14*
X191365000Y-122785600D02*
X186285000Y-122785600D01*
X191365000Y-97385600D02*
X191365000Y-122785600D01*
X186285000Y-97385600D02*
X191365000Y-97385600D01*
X186285000Y-122785600D02*
X186285000Y-97385600D01*
X287500320Y-115623780D02*
X287500320Y-120703780D01*
X262100320Y-115623780D02*
X287500320Y-115623780D01*
X262100320Y-120703780D02*
X262100320Y-115623780D01*
X287500320Y-120703780D02*
X262100320Y-120703780D01*
X301574200Y-64597280D02*
X306654200Y-64597280D01*
X301574200Y-89997280D02*
X301574200Y-64597280D01*
X306654200Y-89997280D02*
X301574200Y-89997280D01*
X306654200Y-64597280D02*
X306654200Y-89997280D01*
X288059220Y-69548400D02*
X288059220Y-74628400D01*
X262659220Y-69548400D02*
X288059220Y-69548400D01*
X262659220Y-74628400D02*
X262659220Y-69548400D01*
X288059220Y-74628400D02*
X262659220Y-74628400D01*
X301830740Y-93858080D02*
X306910740Y-93858080D01*
X301830740Y-119258080D02*
X301830740Y-93858080D01*
X306910740Y-119258080D02*
X301830740Y-119258080D01*
X306910740Y-93858080D02*
X306910740Y-119258080D01*
D15*
X298221400Y-56789320D02*
X298221400Y-59329320D01*
X298221400Y-59329320D02*
X290601400Y-59329320D01*
X290601400Y-59329320D02*
X290601400Y-56789320D01*
X290601400Y-56789320D02*
X298221400Y-56789320D01*
X295681400Y-59329320D02*
X295681400Y-56789320D01*
D14*
X287809580Y-90901760D02*
X287809580Y-95981760D01*
X262409580Y-90901760D02*
X287809580Y-90901760D01*
X262409580Y-95981760D02*
X262409580Y-90901760D01*
X287809580Y-95981760D02*
X262409580Y-95981760D01*
D15*
X275556980Y-47785020D02*
X275556980Y-61755020D01*
X267936980Y-52865020D02*
X267936980Y-61755020D01*
X269841980Y-47785020D02*
X269841980Y-52865020D01*
X227931980Y-47785020D02*
X227931980Y-52865020D01*
X229836980Y-52865020D02*
X229836980Y-61755020D01*
X222216980Y-61755020D02*
X222216980Y-47785020D01*
X275556980Y-52865020D02*
X267936980Y-52865020D01*
X222216980Y-52865020D02*
X229836980Y-52865020D01*
X269206980Y-50960020D02*
X269206980Y-47785020D01*
X228566980Y-50960020D02*
X228566980Y-47785020D01*
X269206980Y-40800020D02*
X269206980Y-46515020D01*
X228566980Y-40800020D02*
X228566980Y-46515020D01*
X275556980Y-47785020D02*
X275556980Y-46515020D01*
X275556980Y-46515020D02*
X222216980Y-46515020D01*
X222216980Y-46515020D02*
X222216980Y-47785020D01*
X222216980Y-47785020D02*
X275556980Y-47785020D01*
X267936980Y-61755020D02*
X275556980Y-61755020D01*
X228566980Y-50960020D02*
X269206980Y-50960020D01*
X228566980Y-40800020D02*
X269206980Y-40800020D01*
X222216980Y-61755020D02*
X229836980Y-61755020D01*
D14*
X286588900Y-166298660D02*
X286588900Y-171378660D01*
X261188900Y-166298660D02*
X286588900Y-166298660D01*
X261188900Y-171378660D02*
X261188900Y-166298660D01*
X286588900Y-171378660D02*
X261188900Y-171378660D01*
X302015740Y-127635800D02*
X307095740Y-127635800D01*
X302015740Y-153035800D02*
X302015740Y-127635800D01*
X307095740Y-153035800D02*
X302015740Y-153035800D01*
X307095740Y-127635800D02*
X307095740Y-153035800D01*
X286964800Y-141131720D02*
X286964800Y-146211720D01*
X261564800Y-141131720D02*
X286964800Y-141131720D01*
X261564800Y-146211720D02*
X261564800Y-141131720D01*
X286964800Y-146211720D02*
X261564800Y-146211720D01*
D15*
X297880000Y-171910000D02*
X297880000Y-169370000D01*
X297880000Y-169370000D02*
X305500000Y-169370000D01*
X305500000Y-169370000D02*
X305500000Y-171910000D01*
X305500000Y-171910000D02*
X297880000Y-171910000D01*
X300420000Y-169370000D02*
X300420000Y-171910000D01*
D14*
X223812780Y-171558400D02*
X223812780Y-166478400D01*
X249212780Y-171558400D02*
X223812780Y-171558400D01*
X249212780Y-166478400D02*
X249212780Y-171558400D01*
X223812780Y-166478400D02*
X249212780Y-166478400D01*
X250604420Y-143718920D02*
X250604420Y-148798920D01*
X225204420Y-143718920D02*
X250604420Y-143718920D01*
X225204420Y-148798920D02*
X225204420Y-143718920D01*
X250604420Y-148798920D02*
X225204420Y-148798920D01*
D15*
X211980780Y-47759620D02*
X211980780Y-61729620D01*
X204360780Y-52839620D02*
X204360780Y-61729620D01*
X206265780Y-47759620D02*
X206265780Y-52839620D01*
X164355780Y-47759620D02*
X164355780Y-52839620D01*
X166260780Y-52839620D02*
X166260780Y-61729620D01*
X158640780Y-61729620D02*
X158640780Y-47759620D01*
X211980780Y-52839620D02*
X204360780Y-52839620D01*
X158640780Y-52839620D02*
X166260780Y-52839620D01*
X205630780Y-50934620D02*
X205630780Y-47759620D01*
X164990780Y-50934620D02*
X164990780Y-47759620D01*
X205630780Y-40774620D02*
X205630780Y-46489620D01*
X164990780Y-40774620D02*
X164990780Y-46489620D01*
X211980780Y-47759620D02*
X211980780Y-46489620D01*
X211980780Y-46489620D02*
X158640780Y-46489620D01*
X158640780Y-46489620D02*
X158640780Y-47759620D01*
X158640780Y-47759620D02*
X211980780Y-47759620D01*
X204360780Y-61729620D02*
X211980780Y-61729620D01*
X164990780Y-50934620D02*
X205630780Y-50934620D01*
X164990780Y-40774620D02*
X205630780Y-40774620D01*
X158640780Y-61729620D02*
X166260780Y-61729620D01*
D14*
X144837100Y-95187840D02*
X139757100Y-95187840D01*
X144837100Y-69787840D02*
X144837100Y-95187840D01*
X139757100Y-69787840D02*
X144837100Y-69787840D01*
X139757100Y-95187840D02*
X139757100Y-69787840D01*
X167768220Y-95477060D02*
X162688220Y-95477060D01*
X167768220Y-70077060D02*
X167768220Y-95477060D01*
X162688220Y-70077060D02*
X167768220Y-70077060D01*
X162688220Y-95477060D02*
X162688220Y-70077060D01*
X213187140Y-95142960D02*
X208107140Y-95142960D01*
X213187140Y-69742960D02*
X213187140Y-95142960D01*
X208107140Y-69742960D02*
X213187140Y-69742960D01*
X208107140Y-95142960D02*
X208107140Y-69742960D01*
X191365000Y-95297720D02*
X186285000Y-95297720D01*
X191365000Y-69897720D02*
X191365000Y-95297720D01*
X186285000Y-69897720D02*
X191365000Y-69897720D01*
X186285000Y-95297720D02*
X186285000Y-69897720D01*
D15*
X136480000Y-58330000D02*
X136480000Y-55790000D01*
X136480000Y-55790000D02*
X144100000Y-55790000D01*
X144100000Y-55790000D02*
X144100000Y-58330000D01*
X144100000Y-58330000D02*
X136480000Y-58330000D01*
X139020000Y-55790000D02*
X139020000Y-58330000D01*
D14*
X149713240Y-151592720D02*
X149713240Y-146512720D01*
X175113240Y-151592720D02*
X149713240Y-151592720D01*
X175113240Y-146512720D02*
X175113240Y-151592720D01*
X149713240Y-146512720D02*
X175113240Y-146512720D01*
X137629000Y-171642540D02*
X137629000Y-166562540D01*
X163029000Y-171642540D02*
X137629000Y-171642540D01*
X163029000Y-166562540D02*
X163029000Y-171642540D01*
X137629000Y-166562540D02*
X163029000Y-166562540D01*
X165988100Y-171629840D02*
X165988100Y-166549840D01*
X191388100Y-171629840D02*
X165988100Y-171629840D01*
X191388100Y-166549840D02*
X191388100Y-171629840D01*
X165988100Y-166549840D02*
X191388100Y-166549840D01*
X195311440Y-171573640D02*
X195311440Y-166493640D01*
X220711440Y-171573640D02*
X195311440Y-171573640D01*
X220711440Y-166493640D02*
X220711440Y-171573640D01*
X195311440Y-166493640D02*
X220711440Y-166493640D01*
X186453280Y-132818280D02*
X186453280Y-127738280D01*
X211853280Y-132818280D02*
X186453280Y-132818280D01*
X211853280Y-127738280D02*
X211853280Y-132818280D01*
X186453280Y-127738280D02*
X211853280Y-127738280D01*
X149491520Y-133641640D02*
X149491520Y-128561640D01*
X174891520Y-133641640D02*
X149491520Y-133641640D01*
X174891520Y-128561640D02*
X174891520Y-133641640D01*
X149491520Y-128561640D02*
X174891520Y-128561640D01*
X185238480Y-151438600D02*
X185238480Y-146358600D01*
X210638480Y-151438600D02*
X185238480Y-151438600D01*
X210638480Y-146358600D02*
X210638480Y-151438600D01*
X185238480Y-146358600D02*
X210638480Y-146358600D01*
D15*
X141910000Y-149190000D02*
X139370000Y-149190000D01*
X139370000Y-149190000D02*
X139370000Y-141570000D01*
X139370000Y-141570000D02*
X141910000Y-141570000D01*
X141910000Y-141570000D02*
X141910000Y-149190000D01*
X139370000Y-146650000D02*
X141910000Y-146650000D01*
D14*
X144727880Y-122652860D02*
X139647880Y-122652860D01*
X144727880Y-97252860D02*
X144727880Y-122652860D01*
X139647880Y-97252860D02*
X144727880Y-97252860D01*
X139647880Y-122652860D02*
X139647880Y-97252860D01*
X167768220Y-123043680D02*
X162688220Y-123043680D01*
X167768220Y-97643680D02*
X167768220Y-123043680D01*
X162688220Y-97643680D02*
X167768220Y-97643680D01*
X162688220Y-123043680D02*
X162688220Y-97643680D01*
X213230320Y-122808640D02*
X208150320Y-122808640D01*
X213230320Y-97408640D02*
X213230320Y-122808640D01*
X208150320Y-97408640D02*
X213230320Y-97408640D01*
X208150320Y-122808640D02*
X208150320Y-97408640D01*
D16*
X224240000Y-73150000D02*
X224240000Y-73658000D01*
X224240000Y-80770000D02*
X224240000Y-80262000D01*
X224240000Y-80262000D02*
X225256000Y-80262000D01*
X225256000Y-80262000D02*
X225256000Y-73658000D01*
X225256000Y-73658000D02*
X223224000Y-73658000D01*
X223224000Y-73658000D02*
X223224000Y-80262000D01*
X223224000Y-80262000D02*
X224240000Y-80262000D01*
X224748000Y-73658000D02*
X225256000Y-74166000D01*
X226760000Y-73150000D02*
X226760000Y-73658000D01*
X226760000Y-80770000D02*
X226760000Y-80262000D01*
X226760000Y-80262000D02*
X227776000Y-80262000D01*
X227776000Y-80262000D02*
X227776000Y-73658000D01*
X227776000Y-73658000D02*
X225744000Y-73658000D01*
X225744000Y-73658000D02*
X225744000Y-80262000D01*
X225744000Y-80262000D02*
X226760000Y-80262000D01*
X227268000Y-73658000D02*
X227776000Y-74166000D01*
X239980000Y-73580000D02*
X239980000Y-74088000D01*
X239980000Y-81200000D02*
X239980000Y-80692000D01*
X239980000Y-80692000D02*
X240996000Y-80692000D01*
X240996000Y-80692000D02*
X240996000Y-74088000D01*
X240996000Y-74088000D02*
X238964000Y-74088000D01*
X238964000Y-74088000D02*
X238964000Y-80692000D01*
X238964000Y-80692000D02*
X239980000Y-80692000D01*
X240488000Y-74088000D02*
X240996000Y-74596000D01*
X242370000Y-73570000D02*
X242370000Y-74078000D01*
X242370000Y-81190000D02*
X242370000Y-80682000D01*
X242370000Y-80682000D02*
X243386000Y-80682000D01*
X243386000Y-80682000D02*
X243386000Y-74078000D01*
X243386000Y-74078000D02*
X241354000Y-74078000D01*
X241354000Y-74078000D02*
X241354000Y-80682000D01*
X241354000Y-80682000D02*
X242370000Y-80682000D01*
X242878000Y-74078000D02*
X243386000Y-74586000D01*
X258120000Y-71550000D02*
X258120000Y-72058000D01*
X258120000Y-79170000D02*
X258120000Y-78662000D01*
X258120000Y-78662000D02*
X259136000Y-78662000D01*
X259136000Y-78662000D02*
X259136000Y-72058000D01*
X259136000Y-72058000D02*
X257104000Y-72058000D01*
X257104000Y-72058000D02*
X257104000Y-78662000D01*
X257104000Y-78662000D02*
X258120000Y-78662000D01*
X258628000Y-72058000D02*
X259136000Y-72566000D01*
X255660000Y-71580000D02*
X255660000Y-72088000D01*
X255660000Y-79200000D02*
X255660000Y-78692000D01*
X255660000Y-78692000D02*
X256676000Y-78692000D01*
X256676000Y-78692000D02*
X256676000Y-72088000D01*
X256676000Y-72088000D02*
X254644000Y-72088000D01*
X254644000Y-72088000D02*
X254644000Y-78692000D01*
X254644000Y-78692000D02*
X255660000Y-78692000D01*
X256168000Y-72088000D02*
X256676000Y-72596000D01*
D17*
X234530000Y-88390000D02*
G75*
G02X232530000Y-88390000I-1000000J0D01*
G01*
X232530000Y-88390000D02*
X230295000Y-88390000D01*
X230295000Y-88390000D02*
X230295000Y-96130000D01*
X230295000Y-96130000D02*
X236765000Y-96130000D01*
X236765000Y-96130000D02*
X236765000Y-88390000D01*
X236765000Y-88390000D02*
X234530000Y-88390000D01*
X249510000Y-88250000D02*
G75*
G02X247510000Y-88250000I-1000000J0D01*
G01*
X247510000Y-88250000D02*
X245275000Y-88250000D01*
X245275000Y-88250000D02*
X245275000Y-95990000D01*
X245275000Y-95990000D02*
X251745000Y-95990000D01*
X251745000Y-95990000D02*
X251745000Y-88250000D01*
X251745000Y-88250000D02*
X249510000Y-88250000D01*
X234440000Y-99100000D02*
G75*
G02X232440000Y-99100000I-1000000J0D01*
G01*
X232440000Y-99100000D02*
X230205000Y-99100000D01*
X230205000Y-99100000D02*
X230205000Y-106840000D01*
X230205000Y-106840000D02*
X236675000Y-106840000D01*
X236675000Y-106840000D02*
X236675000Y-99100000D01*
X236675000Y-99100000D02*
X234440000Y-99100000D01*
X249580000Y-99190000D02*
G75*
G02X247580000Y-99190000I-1000000J0D01*
G01*
X247580000Y-99190000D02*
X245345000Y-99190000D01*
X245345000Y-99190000D02*
X245345000Y-106930000D01*
X245345000Y-106930000D02*
X251815000Y-106930000D01*
X251815000Y-106930000D02*
X251815000Y-99190000D01*
X251815000Y-99190000D02*
X249580000Y-99190000D01*
X234540000Y-109660000D02*
G75*
G02X232540000Y-109660000I-1000000J0D01*
G01*
X232540000Y-109660000D02*
X230305000Y-109660000D01*
X230305000Y-109660000D02*
X230305000Y-117400000D01*
X230305000Y-117400000D02*
X236775000Y-117400000D01*
X236775000Y-117400000D02*
X236775000Y-109660000D01*
X236775000Y-109660000D02*
X234540000Y-109660000D01*
X249830000Y-109560000D02*
G75*
G02X247830000Y-109560000I-1000000J0D01*
G01*
X247830000Y-109560000D02*
X245595000Y-109560000D01*
X245595000Y-109560000D02*
X245595000Y-117300000D01*
X245595000Y-117300000D02*
X252065000Y-117300000D01*
X252065000Y-117300000D02*
X252065000Y-109560000D01*
X252065000Y-109560000D02*
X249830000Y-109560000D01*
D16*
X224130000Y-96480000D02*
X224130000Y-95972000D01*
X224130000Y-88860000D02*
X224130000Y-89368000D01*
X224130000Y-89368000D02*
X223114000Y-89368000D01*
X223114000Y-89368000D02*
X223114000Y-95972000D01*
X223114000Y-95972000D02*
X225146000Y-95972000D01*
X225146000Y-95972000D02*
X225146000Y-89368000D01*
X225146000Y-89368000D02*
X224130000Y-89368000D01*
X223622000Y-95972000D02*
X223114000Y-95464000D01*
X257130000Y-88050000D02*
X257130000Y-88558000D01*
X257130000Y-95670000D02*
X257130000Y-95162000D01*
X257130000Y-95162000D02*
X258146000Y-95162000D01*
X258146000Y-95162000D02*
X258146000Y-88558000D01*
X258146000Y-88558000D02*
X256114000Y-88558000D01*
X256114000Y-88558000D02*
X256114000Y-95162000D01*
X256114000Y-95162000D02*
X257130000Y-95162000D01*
X257638000Y-88558000D02*
X258146000Y-89066000D01*
X224060000Y-107010000D02*
X224060000Y-106502000D01*
X224060000Y-99390000D02*
X224060000Y-99898000D01*
X224060000Y-99898000D02*
X223044000Y-99898000D01*
X223044000Y-99898000D02*
X223044000Y-106502000D01*
X223044000Y-106502000D02*
X225076000Y-106502000D01*
X225076000Y-106502000D02*
X225076000Y-99898000D01*
X225076000Y-99898000D02*
X224060000Y-99898000D01*
X223552000Y-106502000D02*
X223044000Y-105994000D01*
X257210000Y-99330000D02*
X257210000Y-99838000D01*
X257210000Y-106950000D02*
X257210000Y-106442000D01*
X257210000Y-106442000D02*
X258226000Y-106442000D01*
X258226000Y-106442000D02*
X258226000Y-99838000D01*
X258226000Y-99838000D02*
X256194000Y-99838000D01*
X256194000Y-99838000D02*
X256194000Y-106442000D01*
X256194000Y-106442000D02*
X257210000Y-106442000D01*
X257718000Y-99838000D02*
X258226000Y-100346000D01*
X224090000Y-117120000D02*
X224090000Y-116612000D01*
X224090000Y-109500000D02*
X224090000Y-110008000D01*
X224090000Y-110008000D02*
X223074000Y-110008000D01*
X223074000Y-110008000D02*
X223074000Y-116612000D01*
X223074000Y-116612000D02*
X225106000Y-116612000D01*
X225106000Y-116612000D02*
X225106000Y-110008000D01*
X225106000Y-110008000D02*
X224090000Y-110008000D01*
X223582000Y-116612000D02*
X223074000Y-116104000D01*
X257240000Y-109590000D02*
X257240000Y-110098000D01*
X257240000Y-117210000D02*
X257240000Y-116702000D01*
X257240000Y-116702000D02*
X258256000Y-116702000D01*
X258256000Y-116702000D02*
X258256000Y-110098000D01*
X258256000Y-110098000D02*
X256224000Y-110098000D01*
X256224000Y-110098000D02*
X256224000Y-116702000D01*
X256224000Y-116702000D02*
X257240000Y-116702000D01*
X257748000Y-110098000D02*
X258256000Y-110606000D01*
D14*
X185922381Y-122484286D02*
X184922381Y-122484286D01*
X184922381Y-122103333D01*
X184970000Y-122008095D01*
X185017619Y-121960476D01*
X185112857Y-121912857D01*
X185255714Y-121912857D01*
X185350952Y-121960476D01*
X185398571Y-122008095D01*
X185446190Y-122103333D01*
X185446190Y-122484286D01*
X185922381Y-120960476D02*
X185922381Y-121531905D01*
X185922381Y-121246191D02*
X184922381Y-121246191D01*
X185065238Y-121341429D01*
X185160476Y-121436667D01*
X185208095Y-121531905D01*
X185255714Y-120103333D02*
X185922381Y-120103333D01*
X184874762Y-120341429D02*
X185589048Y-120579524D01*
X185589048Y-119960476D01*
X261574801Y-118736775D02*
X260574801Y-118736775D01*
X260574801Y-118355822D01*
X260622420Y-118260584D01*
X260670039Y-118212965D01*
X260765277Y-118165346D01*
X260908134Y-118165346D01*
X261003372Y-118212965D01*
X261050991Y-118260584D01*
X261098610Y-118355822D01*
X261098610Y-118736775D01*
X260670039Y-117784394D02*
X260622420Y-117736775D01*
X260574801Y-117641537D01*
X260574801Y-117403441D01*
X260622420Y-117308203D01*
X260670039Y-117260584D01*
X260765277Y-117212965D01*
X260860515Y-117212965D01*
X261003372Y-117260584D01*
X261574801Y-117832013D01*
X261574801Y-117212965D01*
X302574794Y-91282781D02*
X302574794Y-90282781D01*
X302955747Y-90282781D01*
X303050985Y-90330400D01*
X303098604Y-90378019D01*
X303146223Y-90473257D01*
X303146223Y-90616114D01*
X303098604Y-90711352D01*
X303050985Y-90758971D01*
X302955747Y-90806590D01*
X302574794Y-90806590D01*
X303527175Y-90378019D02*
X303574794Y-90330400D01*
X303670032Y-90282781D01*
X303908128Y-90282781D01*
X304003366Y-90330400D01*
X304050985Y-90378019D01*
X304098604Y-90473257D01*
X304098604Y-90568495D01*
X304050985Y-90711352D01*
X303479556Y-91282781D01*
X304098604Y-91282781D01*
X304955747Y-90616114D02*
X304955747Y-91282781D01*
X304717651Y-90235162D02*
X304479556Y-90949448D01*
X305098604Y-90949448D01*
X262062581Y-73262046D02*
X261062581Y-73262046D01*
X261062581Y-72881093D01*
X261110200Y-72785855D01*
X261157819Y-72738236D01*
X261253057Y-72690617D01*
X261395914Y-72690617D01*
X261491152Y-72738236D01*
X261538771Y-72785855D01*
X261586390Y-72881093D01*
X261586390Y-73262046D01*
X261157819Y-72309665D02*
X261110200Y-72262046D01*
X261062581Y-72166808D01*
X261062581Y-71928712D01*
X261110200Y-71833474D01*
X261157819Y-71785855D01*
X261253057Y-71738236D01*
X261348295Y-71738236D01*
X261491152Y-71785855D01*
X262062581Y-72357284D01*
X262062581Y-71738236D01*
X261157819Y-71357284D02*
X261110200Y-71309665D01*
X261062581Y-71214427D01*
X261062581Y-70976331D01*
X261110200Y-70881093D01*
X261157819Y-70833474D01*
X261253057Y-70785855D01*
X261348295Y-70785855D01*
X261491152Y-70833474D01*
X262062581Y-71404903D01*
X262062581Y-70785855D01*
X303052314Y-120695981D02*
X303052314Y-119695981D01*
X303433267Y-119695981D01*
X303528505Y-119743600D01*
X303576124Y-119791219D01*
X303623743Y-119886457D01*
X303623743Y-120029314D01*
X303576124Y-120124552D01*
X303528505Y-120172171D01*
X303433267Y-120219790D01*
X303052314Y-120219790D01*
X304004695Y-119791219D02*
X304052314Y-119743600D01*
X304147552Y-119695981D01*
X304385648Y-119695981D01*
X304480886Y-119743600D01*
X304528505Y-119791219D01*
X304576124Y-119886457D01*
X304576124Y-119981695D01*
X304528505Y-120124552D01*
X303957076Y-120695981D01*
X304576124Y-120695981D01*
X304909457Y-119695981D02*
X305528505Y-119695981D01*
X305195171Y-120076933D01*
X305338029Y-120076933D01*
X305433267Y-120124552D01*
X305480886Y-120172171D01*
X305528505Y-120267410D01*
X305528505Y-120505505D01*
X305480886Y-120600743D01*
X305433267Y-120648362D01*
X305338029Y-120695981D01*
X305052314Y-120695981D01*
X304957076Y-120648362D01*
X304909457Y-120600743D01*
D18*
X293616501Y-61409399D02*
X293616501Y-59618699D01*
X294231907Y-61409399D02*
X293770352Y-60386141D01*
X294231907Y-59618699D02*
X293616501Y-60641956D01*
X294642177Y-59789241D02*
X294693461Y-59703970D01*
X294796029Y-59618699D01*
X295052448Y-59618699D01*
X295155015Y-59703970D01*
X295206299Y-59789241D01*
X295257583Y-59959784D01*
X295257583Y-60130327D01*
X295206299Y-60386141D01*
X294590893Y-61409399D01*
X295257583Y-61409399D01*
D15*
D14*
X261993281Y-93928395D02*
X260993281Y-93928395D01*
X260993281Y-93547442D01*
X261040900Y-93452204D01*
X261088519Y-93404585D01*
X261183757Y-93356966D01*
X261326614Y-93356966D01*
X261421852Y-93404585D01*
X261469471Y-93452204D01*
X261517090Y-93547442D01*
X261517090Y-93928395D01*
X261993281Y-92404585D02*
X261993281Y-92976014D01*
X261993281Y-92690300D02*
X260993281Y-92690300D01*
X261136138Y-92785538D01*
X261231376Y-92880776D01*
X261278995Y-92976014D01*
D15*
X248378980Y-43140449D02*
X248378980Y-44229020D01*
X248306408Y-44446734D01*
X248161265Y-44591877D01*
X247943551Y-44664449D01*
X247798408Y-44664449D01*
X249032123Y-43285591D02*
X249104694Y-43213020D01*
X249249837Y-43140449D01*
X249612694Y-43140449D01*
X249757837Y-43213020D01*
X249830408Y-43285591D01*
X249902980Y-43430734D01*
X249902980Y-43575877D01*
X249830408Y-43793591D01*
X248959551Y-44664449D01*
X249902980Y-44664449D01*
X246274408Y-53554449D02*
X246274408Y-52030449D01*
X246637265Y-52030449D01*
X246854980Y-52103020D01*
X247000122Y-52248163D01*
X247072694Y-52393306D01*
X247145265Y-52683591D01*
X247145265Y-52901306D01*
X247072694Y-53191591D01*
X247000122Y-53336734D01*
X246854980Y-53481877D01*
X246637265Y-53554449D01*
X246274408Y-53554449D01*
X248306408Y-52756163D02*
X248524122Y-52828734D01*
X248596694Y-52901306D01*
X248669265Y-53046449D01*
X248669265Y-53264163D01*
X248596694Y-53409306D01*
X248524122Y-53481877D01*
X248378980Y-53554449D01*
X247798408Y-53554449D01*
X247798408Y-52030449D01*
X248306408Y-52030449D01*
X248451551Y-52103020D01*
X248524122Y-52175591D01*
X248596694Y-52320734D01*
X248596694Y-52465877D01*
X248524122Y-52611020D01*
X248451551Y-52683591D01*
X248306408Y-52756163D01*
X247798408Y-52756163D01*
X249249837Y-52175591D02*
X249322408Y-52103020D01*
X249467551Y-52030449D01*
X249830408Y-52030449D01*
X249975551Y-52103020D01*
X250048122Y-52175591D01*
X250120694Y-52320734D01*
X250120694Y-52465877D01*
X250048122Y-52683591D01*
X249177265Y-53554449D01*
X250120694Y-53554449D01*
X251499551Y-52030449D02*
X250773837Y-52030449D01*
X250701266Y-52756163D01*
X250773837Y-52683591D01*
X250918980Y-52611020D01*
X251281837Y-52611020D01*
X251426980Y-52683591D01*
X251499551Y-52756163D01*
X251572123Y-52901306D01*
X251572123Y-53264163D01*
X251499551Y-53409306D01*
X251426980Y-53481877D01*
X251281837Y-53554449D01*
X250918980Y-53554449D01*
X250773837Y-53481877D01*
X250701266Y-53409306D01*
D14*
X260630361Y-169533575D02*
X259630361Y-169533575D01*
X259630361Y-169152622D01*
X259677980Y-169057384D01*
X259725599Y-169009765D01*
X259820837Y-168962146D01*
X259963694Y-168962146D01*
X260058932Y-169009765D01*
X260106551Y-169057384D01*
X260154170Y-169152622D01*
X260154170Y-169533575D01*
X259963694Y-168105003D02*
X260630361Y-168105003D01*
X259582742Y-168343099D02*
X260297028Y-168581194D01*
X260297028Y-167962146D01*
X302884254Y-154709921D02*
X302884254Y-153709921D01*
X303265207Y-153709921D01*
X303360445Y-153757540D01*
X303408064Y-153805159D01*
X303455683Y-153900397D01*
X303455683Y-154043254D01*
X303408064Y-154138492D01*
X303360445Y-154186111D01*
X303265207Y-154233730D01*
X302884254Y-154233730D01*
X303836635Y-153805159D02*
X303884254Y-153757540D01*
X303979492Y-153709921D01*
X304217588Y-153709921D01*
X304312826Y-153757540D01*
X304360445Y-153805159D01*
X304408064Y-153900397D01*
X304408064Y-153995635D01*
X304360445Y-154138492D01*
X303789016Y-154709921D01*
X304408064Y-154709921D01*
X305312826Y-153709921D02*
X304836635Y-153709921D01*
X304789016Y-154186111D01*
X304836635Y-154138492D01*
X304931873Y-154090873D01*
X305169969Y-154090873D01*
X305265207Y-154138492D01*
X305312826Y-154186111D01*
X305360445Y-154281350D01*
X305360445Y-154519445D01*
X305312826Y-154614683D01*
X305265207Y-154662302D01*
X305169969Y-154709921D01*
X304931873Y-154709921D01*
X304836635Y-154662302D01*
X304789016Y-154614683D01*
X261041821Y-144074535D02*
X260041821Y-144074535D01*
X260041821Y-143693582D01*
X260089440Y-143598344D01*
X260137059Y-143550725D01*
X260232297Y-143503106D01*
X260375154Y-143503106D01*
X260470392Y-143550725D01*
X260518011Y-143598344D01*
X260565630Y-143693582D01*
X260565630Y-144074535D01*
X260041821Y-143169773D02*
X260041821Y-142550725D01*
X260422773Y-142884059D01*
X260422773Y-142741201D01*
X260470392Y-142645963D01*
X260518011Y-142598344D01*
X260613250Y-142550725D01*
X260851345Y-142550725D01*
X260946583Y-142598344D01*
X260994202Y-142645963D01*
X261041821Y-142741201D01*
X261041821Y-143026916D01*
X260994202Y-143122154D01*
X260946583Y-143169773D01*
D18*
X300895101Y-168910079D02*
X300895101Y-167119379D01*
X301510507Y-168910079D02*
X301048952Y-167886821D01*
X301510507Y-167119379D02*
X300895101Y-168142636D01*
X302433615Y-167716279D02*
X302433615Y-168910079D01*
X302177196Y-167034107D02*
X301920777Y-168313179D01*
X302587467Y-168313179D01*
D15*
D14*
X250792381Y-169964286D02*
X249792381Y-169964286D01*
X249792381Y-169583333D01*
X249840000Y-169488095D01*
X249887619Y-169440476D01*
X249982857Y-169392857D01*
X250125714Y-169392857D01*
X250220952Y-169440476D01*
X250268571Y-169488095D01*
X250316190Y-169583333D01*
X250316190Y-169964286D01*
X250792381Y-168440476D02*
X250792381Y-169011905D01*
X250792381Y-168726191D02*
X249792381Y-168726191D01*
X249935238Y-168821429D01*
X250030476Y-168916667D01*
X250078095Y-169011905D01*
X250792381Y-167488095D02*
X250792381Y-168059524D01*
X250792381Y-167773810D02*
X249792381Y-167773810D01*
X249935238Y-167869048D01*
X250030476Y-167964286D01*
X250078095Y-168059524D01*
X224363941Y-147188726D02*
X223363941Y-147188726D01*
X223363941Y-146807773D01*
X223411560Y-146712535D01*
X223459179Y-146664916D01*
X223554417Y-146617297D01*
X223697274Y-146617297D01*
X223792512Y-146664916D01*
X223840131Y-146712535D01*
X223887750Y-146807773D01*
X223887750Y-147188726D01*
X223459179Y-146236345D02*
X223411560Y-146188726D01*
X223363941Y-146093488D01*
X223363941Y-145855392D01*
X223411560Y-145760154D01*
X223459179Y-145712535D01*
X223554417Y-145664916D01*
X223649655Y-145664916D01*
X223792512Y-145712535D01*
X224363941Y-146283964D01*
X224363941Y-145664916D01*
X224363941Y-144712535D02*
X224363941Y-145283964D01*
X224363941Y-144998250D02*
X223363941Y-144998250D01*
X223506798Y-145093488D01*
X223602036Y-145188726D01*
X223649655Y-145283964D01*
D15*
X184802780Y-43115049D02*
X184802780Y-44203620D01*
X184730208Y-44421334D01*
X184585065Y-44566477D01*
X184367351Y-44639049D01*
X184222208Y-44639049D01*
X186326780Y-44639049D02*
X185455923Y-44639049D01*
X185891351Y-44639049D02*
X185891351Y-43115049D01*
X185746208Y-43332763D01*
X185601066Y-43477906D01*
X185455923Y-43550477D01*
X182698208Y-53529049D02*
X182698208Y-52005049D01*
X183061065Y-52005049D01*
X183278780Y-52077620D01*
X183423922Y-52222763D01*
X183496494Y-52367906D01*
X183569065Y-52658191D01*
X183569065Y-52875906D01*
X183496494Y-53166191D01*
X183423922Y-53311334D01*
X183278780Y-53456477D01*
X183061065Y-53529049D01*
X182698208Y-53529049D01*
X184730208Y-52730763D02*
X184947922Y-52803334D01*
X185020494Y-52875906D01*
X185093065Y-53021049D01*
X185093065Y-53238763D01*
X185020494Y-53383906D01*
X184947922Y-53456477D01*
X184802780Y-53529049D01*
X184222208Y-53529049D01*
X184222208Y-52005049D01*
X184730208Y-52005049D01*
X184875351Y-52077620D01*
X184947922Y-52150191D01*
X185020494Y-52295334D01*
X185020494Y-52440477D01*
X184947922Y-52585620D01*
X184875351Y-52658191D01*
X184730208Y-52730763D01*
X184222208Y-52730763D01*
X185673637Y-52150191D02*
X185746208Y-52077620D01*
X185891351Y-52005049D01*
X186254208Y-52005049D01*
X186399351Y-52077620D01*
X186471922Y-52150191D01*
X186544494Y-52295334D01*
X186544494Y-52440477D01*
X186471922Y-52658191D01*
X185601065Y-53529049D01*
X186544494Y-53529049D01*
X187923351Y-52005049D02*
X187197637Y-52005049D01*
X187125066Y-52730763D01*
X187197637Y-52658191D01*
X187342780Y-52585620D01*
X187705637Y-52585620D01*
X187850780Y-52658191D01*
X187923351Y-52730763D01*
X187995923Y-52875906D01*
X187995923Y-53238763D01*
X187923351Y-53383906D01*
X187850780Y-53456477D01*
X187705637Y-53529049D01*
X187342780Y-53529049D01*
X187197637Y-53456477D01*
X187125066Y-53383906D01*
D14*
X139382381Y-94788095D02*
X138382381Y-94788095D01*
X138382381Y-94407142D01*
X138430000Y-94311904D01*
X138477619Y-94264285D01*
X138572857Y-94216666D01*
X138715714Y-94216666D01*
X138810952Y-94264285D01*
X138858571Y-94311904D01*
X138906190Y-94407142D01*
X138906190Y-94788095D01*
X138810952Y-93645238D02*
X138763333Y-93740476D01*
X138715714Y-93788095D01*
X138620476Y-93835714D01*
X138572857Y-93835714D01*
X138477619Y-93788095D01*
X138430000Y-93740476D01*
X138382381Y-93645238D01*
X138382381Y-93454761D01*
X138430000Y-93359523D01*
X138477619Y-93311904D01*
X138572857Y-93264285D01*
X138620476Y-93264285D01*
X138715714Y-93311904D01*
X138763333Y-93359523D01*
X138810952Y-93454761D01*
X138810952Y-93645238D01*
X138858571Y-93740476D01*
X138906190Y-93788095D01*
X139001429Y-93835714D01*
X139191905Y-93835714D01*
X139287143Y-93788095D01*
X139334762Y-93740476D01*
X139382381Y-93645238D01*
X139382381Y-93454761D01*
X139334762Y-93359523D01*
X139287143Y-93311904D01*
X139191905Y-93264285D01*
X139001429Y-93264285D01*
X138906190Y-93311904D01*
X138858571Y-93359523D01*
X138810952Y-93454761D01*
X162192381Y-95394286D02*
X161192381Y-95394286D01*
X161192381Y-95013333D01*
X161240000Y-94918095D01*
X161287619Y-94870476D01*
X161382857Y-94822857D01*
X161525714Y-94822857D01*
X161620952Y-94870476D01*
X161668571Y-94918095D01*
X161716190Y-95013333D01*
X161716190Y-95394286D01*
X162192381Y-93870476D02*
X162192381Y-94441905D01*
X162192381Y-94156191D02*
X161192381Y-94156191D01*
X161335238Y-94251429D01*
X161430476Y-94346667D01*
X161478095Y-94441905D01*
X161287619Y-93489524D02*
X161240000Y-93441905D01*
X161192381Y-93346667D01*
X161192381Y-93108571D01*
X161240000Y-93013333D01*
X161287619Y-92965714D01*
X161382857Y-92918095D01*
X161478095Y-92918095D01*
X161620952Y-92965714D01*
X162192381Y-93537143D01*
X162192381Y-92918095D01*
X207612381Y-94694286D02*
X206612381Y-94694286D01*
X206612381Y-94313333D01*
X206660000Y-94218095D01*
X206707619Y-94170476D01*
X206802857Y-94122857D01*
X206945714Y-94122857D01*
X207040952Y-94170476D01*
X207088571Y-94218095D01*
X207136190Y-94313333D01*
X207136190Y-94694286D01*
X206707619Y-93741905D02*
X206660000Y-93694286D01*
X206612381Y-93599048D01*
X206612381Y-93360952D01*
X206660000Y-93265714D01*
X206707619Y-93218095D01*
X206802857Y-93170476D01*
X206898095Y-93170476D01*
X207040952Y-93218095D01*
X207612381Y-93789524D01*
X207612381Y-93170476D01*
X206612381Y-92551429D02*
X206612381Y-92456190D01*
X206660000Y-92360952D01*
X206707619Y-92313333D01*
X206802857Y-92265714D01*
X206993333Y-92218095D01*
X207231429Y-92218095D01*
X207421905Y-92265714D01*
X207517143Y-92313333D01*
X207564762Y-92360952D01*
X207612381Y-92456190D01*
X207612381Y-92551429D01*
X207564762Y-92646667D01*
X207517143Y-92694286D01*
X207421905Y-92741905D01*
X207231429Y-92789524D01*
X206993333Y-92789524D01*
X206802857Y-92741905D01*
X206707619Y-92694286D01*
X206660000Y-92646667D01*
X206612381Y-92551429D01*
X185762381Y-95074286D02*
X184762381Y-95074286D01*
X184762381Y-94693333D01*
X184810000Y-94598095D01*
X184857619Y-94550476D01*
X184952857Y-94502857D01*
X185095714Y-94502857D01*
X185190952Y-94550476D01*
X185238571Y-94598095D01*
X185286190Y-94693333D01*
X185286190Y-95074286D01*
X185762381Y-93550476D02*
X185762381Y-94121905D01*
X185762381Y-93836191D02*
X184762381Y-93836191D01*
X184905238Y-93931429D01*
X185000476Y-94026667D01*
X185048095Y-94121905D01*
X184762381Y-92693333D02*
X184762381Y-92883810D01*
X184810000Y-92979048D01*
X184857619Y-93026667D01*
X185000476Y-93121905D01*
X185190952Y-93169524D01*
X185571905Y-93169524D01*
X185667143Y-93121905D01*
X185714762Y-93074286D01*
X185762381Y-92979048D01*
X185762381Y-92788571D01*
X185714762Y-92693333D01*
X185667143Y-92645714D01*
X185571905Y-92598095D01*
X185333810Y-92598095D01*
X185238571Y-92645714D01*
X185190952Y-92693333D01*
X185143333Y-92788571D01*
X185143333Y-92979048D01*
X185190952Y-93074286D01*
X185238571Y-93121905D01*
X185333810Y-93169524D01*
D18*
X139495101Y-55330079D02*
X139495101Y-53539379D01*
X140110507Y-55330079D02*
X139648952Y-54306821D01*
X140110507Y-53539379D02*
X139495101Y-54562636D01*
X141136183Y-55330079D02*
X140520777Y-55330079D01*
X140828480Y-55330079D02*
X140828480Y-53539379D01*
X140725912Y-53795193D01*
X140623345Y-53965736D01*
X140520777Y-54051007D01*
D15*
D14*
X149477381Y-151189286D02*
X148477381Y-151189286D01*
X148477381Y-150808333D01*
X148525000Y-150713095D01*
X148572619Y-150665476D01*
X148667857Y-150617857D01*
X148810714Y-150617857D01*
X148905952Y-150665476D01*
X148953571Y-150713095D01*
X149001190Y-150808333D01*
X149001190Y-151189286D01*
X149477381Y-149665476D02*
X149477381Y-150236905D01*
X149477381Y-149951191D02*
X148477381Y-149951191D01*
X148620238Y-150046429D01*
X148715476Y-150141667D01*
X148763095Y-150236905D01*
X148905952Y-149094048D02*
X148858333Y-149189286D01*
X148810714Y-149236905D01*
X148715476Y-149284524D01*
X148667857Y-149284524D01*
X148572619Y-149236905D01*
X148525000Y-149189286D01*
X148477381Y-149094048D01*
X148477381Y-148903571D01*
X148525000Y-148808333D01*
X148572619Y-148760714D01*
X148667857Y-148713095D01*
X148715476Y-148713095D01*
X148810714Y-148760714D01*
X148858333Y-148808333D01*
X148905952Y-148903571D01*
X148905952Y-149094048D01*
X148953571Y-149189286D01*
X149001190Y-149236905D01*
X149096429Y-149284524D01*
X149286905Y-149284524D01*
X149382143Y-149236905D01*
X149429762Y-149189286D01*
X149477381Y-149094048D01*
X149477381Y-148903571D01*
X149429762Y-148808333D01*
X149382143Y-148760714D01*
X149286905Y-148713095D01*
X149096429Y-148713095D01*
X149001190Y-148760714D01*
X148953571Y-148808333D01*
X148905952Y-148903571D01*
X164342381Y-169698095D02*
X163342381Y-169698095D01*
X163342381Y-169317142D01*
X163390000Y-169221904D01*
X163437619Y-169174285D01*
X163532857Y-169126666D01*
X163675714Y-169126666D01*
X163770952Y-169174285D01*
X163818571Y-169221904D01*
X163866190Y-169317142D01*
X163866190Y-169698095D01*
X163342381Y-168221904D02*
X163342381Y-168698095D01*
X163818571Y-168745714D01*
X163770952Y-168698095D01*
X163723333Y-168602857D01*
X163723333Y-168364761D01*
X163770952Y-168269523D01*
X163818571Y-168221904D01*
X163913810Y-168174285D01*
X164151905Y-168174285D01*
X164247143Y-168221904D01*
X164294762Y-168269523D01*
X164342381Y-168364761D01*
X164342381Y-168602857D01*
X164294762Y-168698095D01*
X164247143Y-168745714D01*
X192922381Y-169968095D02*
X191922381Y-169968095D01*
X191922381Y-169587142D01*
X191970000Y-169491904D01*
X192017619Y-169444285D01*
X192112857Y-169396666D01*
X192255714Y-169396666D01*
X192350952Y-169444285D01*
X192398571Y-169491904D01*
X192446190Y-169587142D01*
X192446190Y-169968095D01*
X191922381Y-169063333D02*
X191922381Y-168396666D01*
X192922381Y-168825238D01*
X222262381Y-169968095D02*
X221262381Y-169968095D01*
X221262381Y-169587142D01*
X221310000Y-169491904D01*
X221357619Y-169444285D01*
X221452857Y-169396666D01*
X221595714Y-169396666D01*
X221690952Y-169444285D01*
X221738571Y-169491904D01*
X221786190Y-169587142D01*
X221786190Y-169968095D01*
X222262381Y-168920476D02*
X222262381Y-168730000D01*
X222214762Y-168634761D01*
X222167143Y-168587142D01*
X222024286Y-168491904D01*
X221833810Y-168444285D01*
X221452857Y-168444285D01*
X221357619Y-168491904D01*
X221310000Y-168539523D01*
X221262381Y-168634761D01*
X221262381Y-168825238D01*
X221310000Y-168920476D01*
X221357619Y-168968095D01*
X221452857Y-169015714D01*
X221690952Y-169015714D01*
X221786190Y-168968095D01*
X221833810Y-168920476D01*
X221881429Y-168825238D01*
X221881429Y-168634761D01*
X221833810Y-168539523D01*
X221786190Y-168491904D01*
X221690952Y-168444285D01*
X186187381Y-131834286D02*
X185187381Y-131834286D01*
X185187381Y-131453333D01*
X185235000Y-131358095D01*
X185282619Y-131310476D01*
X185377857Y-131262857D01*
X185520714Y-131262857D01*
X185615952Y-131310476D01*
X185663571Y-131358095D01*
X185711190Y-131453333D01*
X185711190Y-131834286D01*
X186187381Y-130310476D02*
X186187381Y-130881905D01*
X186187381Y-130596191D02*
X185187381Y-130596191D01*
X185330238Y-130691429D01*
X185425476Y-130786667D01*
X185473095Y-130881905D01*
X185187381Y-129977143D02*
X185187381Y-129358095D01*
X185568333Y-129691429D01*
X185568333Y-129548571D01*
X185615952Y-129453333D01*
X185663571Y-129405714D01*
X185758810Y-129358095D01*
X185996905Y-129358095D01*
X186092143Y-129405714D01*
X186139762Y-129453333D01*
X186187381Y-129548571D01*
X186187381Y-129834286D01*
X186139762Y-129929524D01*
X186092143Y-129977143D01*
X149227381Y-132389286D02*
X148227381Y-132389286D01*
X148227381Y-132008333D01*
X148275000Y-131913095D01*
X148322619Y-131865476D01*
X148417857Y-131817857D01*
X148560714Y-131817857D01*
X148655952Y-131865476D01*
X148703571Y-131913095D01*
X148751190Y-132008333D01*
X148751190Y-132389286D01*
X149227381Y-130865476D02*
X149227381Y-131436905D01*
X149227381Y-131151191D02*
X148227381Y-131151191D01*
X148370238Y-131246429D01*
X148465476Y-131341667D01*
X148513095Y-131436905D01*
X148227381Y-129960714D02*
X148227381Y-130436905D01*
X148703571Y-130484524D01*
X148655952Y-130436905D01*
X148608333Y-130341667D01*
X148608333Y-130103571D01*
X148655952Y-130008333D01*
X148703571Y-129960714D01*
X148798810Y-129913095D01*
X149036905Y-129913095D01*
X149132143Y-129960714D01*
X149179762Y-130008333D01*
X149227381Y-130103571D01*
X149227381Y-130341667D01*
X149179762Y-130436905D01*
X149132143Y-130484524D01*
X185002381Y-151164286D02*
X184002381Y-151164286D01*
X184002381Y-150783333D01*
X184050000Y-150688095D01*
X184097619Y-150640476D01*
X184192857Y-150592857D01*
X184335714Y-150592857D01*
X184430952Y-150640476D01*
X184478571Y-150688095D01*
X184526190Y-150783333D01*
X184526190Y-151164286D01*
X185002381Y-149640476D02*
X185002381Y-150211905D01*
X185002381Y-149926191D02*
X184002381Y-149926191D01*
X184145238Y-150021429D01*
X184240476Y-150116667D01*
X184288095Y-150211905D01*
X184002381Y-149307143D02*
X184002381Y-148640476D01*
X185002381Y-149069048D01*
D18*
X138910079Y-146174899D02*
X137119379Y-146174899D01*
X138910079Y-145559493D02*
X137886821Y-146021048D01*
X137119379Y-145559493D02*
X138142636Y-146174899D01*
X137119379Y-145200507D02*
X137119379Y-144533817D01*
X137801550Y-144892804D01*
X137801550Y-144738952D01*
X137886821Y-144636385D01*
X137972093Y-144585101D01*
X138142636Y-144533817D01*
X138568993Y-144533817D01*
X138739536Y-144585101D01*
X138824807Y-144636385D01*
X138910079Y-144738952D01*
X138910079Y-145046655D01*
X138824807Y-145149223D01*
X138739536Y-145200507D01*
D15*
D14*
X139192381Y-122248095D02*
X138192381Y-122248095D01*
X138192381Y-121867142D01*
X138240000Y-121771904D01*
X138287619Y-121724285D01*
X138382857Y-121676666D01*
X138525714Y-121676666D01*
X138620952Y-121724285D01*
X138668571Y-121771904D01*
X138716190Y-121867142D01*
X138716190Y-122248095D01*
X138192381Y-120819523D02*
X138192381Y-121010000D01*
X138240000Y-121105238D01*
X138287619Y-121152857D01*
X138430476Y-121248095D01*
X138620952Y-121295714D01*
X139001905Y-121295714D01*
X139097143Y-121248095D01*
X139144762Y-121200476D01*
X139192381Y-121105238D01*
X139192381Y-120914761D01*
X139144762Y-120819523D01*
X139097143Y-120771904D01*
X139001905Y-120724285D01*
X138763810Y-120724285D01*
X138668571Y-120771904D01*
X138620952Y-120819523D01*
X138573333Y-120914761D01*
X138573333Y-121105238D01*
X138620952Y-121200476D01*
X138668571Y-121248095D01*
X138763810Y-121295714D01*
X162242381Y-122754286D02*
X161242381Y-122754286D01*
X161242381Y-122373333D01*
X161290000Y-122278095D01*
X161337619Y-122230476D01*
X161432857Y-122182857D01*
X161575714Y-122182857D01*
X161670952Y-122230476D01*
X161718571Y-122278095D01*
X161766190Y-122373333D01*
X161766190Y-122754286D01*
X162242381Y-121230476D02*
X162242381Y-121801905D01*
X162242381Y-121516191D02*
X161242381Y-121516191D01*
X161385238Y-121611429D01*
X161480476Y-121706667D01*
X161528095Y-121801905D01*
X161242381Y-120611429D02*
X161242381Y-120516190D01*
X161290000Y-120420952D01*
X161337619Y-120373333D01*
X161432857Y-120325714D01*
X161623333Y-120278095D01*
X161861429Y-120278095D01*
X162051905Y-120325714D01*
X162147143Y-120373333D01*
X162194762Y-120420952D01*
X162242381Y-120516190D01*
X162242381Y-120611429D01*
X162194762Y-120706667D01*
X162147143Y-120754286D01*
X162051905Y-120801905D01*
X161861429Y-120849524D01*
X161623333Y-120849524D01*
X161432857Y-120801905D01*
X161337619Y-120754286D01*
X161290000Y-120706667D01*
X161242381Y-120611429D01*
X207582381Y-122654286D02*
X206582381Y-122654286D01*
X206582381Y-122273333D01*
X206630000Y-122178095D01*
X206677619Y-122130476D01*
X206772857Y-122082857D01*
X206915714Y-122082857D01*
X207010952Y-122130476D01*
X207058571Y-122178095D01*
X207106190Y-122273333D01*
X207106190Y-122654286D01*
X207582381Y-121130476D02*
X207582381Y-121701905D01*
X207582381Y-121416191D02*
X206582381Y-121416191D01*
X206725238Y-121511429D01*
X206820476Y-121606667D01*
X206868095Y-121701905D01*
X207582381Y-120654286D02*
X207582381Y-120463810D01*
X207534762Y-120368571D01*
X207487143Y-120320952D01*
X207344286Y-120225714D01*
X207153810Y-120178095D01*
X206772857Y-120178095D01*
X206677619Y-120225714D01*
X206630000Y-120273333D01*
X206582381Y-120368571D01*
X206582381Y-120559048D01*
X206630000Y-120654286D01*
X206677619Y-120701905D01*
X206772857Y-120749524D01*
X207010952Y-120749524D01*
X207106190Y-120701905D01*
X207153810Y-120654286D01*
X207201429Y-120559048D01*
X207201429Y-120368571D01*
X207153810Y-120273333D01*
X207106190Y-120225714D01*
X207010952Y-120178095D01*
D16*
X224941976Y-71142143D02*
X224941976Y-71867857D01*
X224941976Y-71505000D02*
X223544976Y-71505000D01*
X223744548Y-71625952D01*
X223877595Y-71746905D01*
X223944119Y-71867857D01*
X224941976Y-70597857D02*
X223544976Y-70597857D01*
X224941976Y-69872143D02*
X224143690Y-70416428D01*
X223544976Y-69872143D02*
X224343262Y-70597857D01*
X227431976Y-71102143D02*
X227431976Y-71827857D01*
X227431976Y-71465000D02*
X226034976Y-71465000D01*
X226234548Y-71585952D01*
X226367595Y-71706905D01*
X226434119Y-71827857D01*
X227431976Y-70557857D02*
X226034976Y-70557857D01*
X227431976Y-69832143D02*
X226633690Y-70376428D01*
X226034976Y-69832143D02*
X226833262Y-70557857D01*
X240461976Y-71522143D02*
X240461976Y-72247857D01*
X240461976Y-71885000D02*
X239064976Y-71885000D01*
X239264548Y-72005952D01*
X239397595Y-72126905D01*
X239464119Y-72247857D01*
X240461976Y-70977857D02*
X239064976Y-70977857D01*
X240461976Y-70252143D02*
X239663690Y-70796428D01*
X239064976Y-70252143D02*
X239863262Y-70977857D01*
X242871976Y-71782143D02*
X242871976Y-72507857D01*
X242871976Y-72145000D02*
X241474976Y-72145000D01*
X241674548Y-72265952D01*
X241807595Y-72386905D01*
X241874119Y-72507857D01*
X242871976Y-71237857D02*
X241474976Y-71237857D01*
X242871976Y-70512143D02*
X242073690Y-71056428D01*
X241474976Y-70512143D02*
X242273262Y-71237857D01*
X258601976Y-69512143D02*
X258601976Y-70237857D01*
X258601976Y-69875000D02*
X257204976Y-69875000D01*
X257404548Y-69995952D01*
X257537595Y-70116905D01*
X257604119Y-70237857D01*
X258601976Y-68967857D02*
X257204976Y-68967857D01*
X258601976Y-68242143D02*
X257803690Y-68786428D01*
X257204976Y-68242143D02*
X258003262Y-68967857D01*
X256321976Y-69582143D02*
X256321976Y-70307857D01*
X256321976Y-69945000D02*
X254924976Y-69945000D01*
X255124548Y-70065952D01*
X255257595Y-70186905D01*
X255324119Y-70307857D01*
X256321976Y-69037857D02*
X254924976Y-69037857D01*
X256321976Y-68312143D02*
X255523690Y-68856428D01*
X254924976Y-68312143D02*
X255723262Y-69037857D01*
D14*
X232888095Y-96612381D02*
X232888095Y-97421905D01*
X232935714Y-97517143D01*
X232983333Y-97564762D01*
X233078571Y-97612381D01*
X233269048Y-97612381D01*
X233364286Y-97564762D01*
X233411905Y-97517143D01*
X233459524Y-97421905D01*
X233459524Y-96612381D01*
X234459524Y-97612381D02*
X233888095Y-97612381D01*
X234173809Y-97612381D02*
X234173809Y-96612381D01*
X234078571Y-96755238D01*
X233983333Y-96850476D01*
X233888095Y-96898095D01*
X247718095Y-96422381D02*
X247718095Y-97231905D01*
X247765714Y-97327143D01*
X247813333Y-97374762D01*
X247908571Y-97422381D01*
X248099048Y-97422381D01*
X248194286Y-97374762D01*
X248241905Y-97327143D01*
X248289524Y-97231905D01*
X248289524Y-96422381D01*
X248718095Y-96517619D02*
X248765714Y-96470000D01*
X248860952Y-96422381D01*
X249099048Y-96422381D01*
X249194286Y-96470000D01*
X249241905Y-96517619D01*
X249289524Y-96612857D01*
X249289524Y-96708095D01*
X249241905Y-96850952D01*
X248670476Y-97422381D01*
X249289524Y-97422381D01*
X232868095Y-107522381D02*
X232868095Y-108331905D01*
X232915714Y-108427143D01*
X232963333Y-108474762D01*
X233058571Y-108522381D01*
X233249048Y-108522381D01*
X233344286Y-108474762D01*
X233391905Y-108427143D01*
X233439524Y-108331905D01*
X233439524Y-107522381D01*
X233820476Y-107522381D02*
X234439524Y-107522381D01*
X234106190Y-107903333D01*
X234249048Y-107903333D01*
X234344286Y-107950952D01*
X234391905Y-107998571D01*
X234439524Y-108093810D01*
X234439524Y-108331905D01*
X234391905Y-108427143D01*
X234344286Y-108474762D01*
X234249048Y-108522381D01*
X233963333Y-108522381D01*
X233868095Y-108474762D01*
X233820476Y-108427143D01*
X248118095Y-107422381D02*
X248118095Y-108231905D01*
X248165714Y-108327143D01*
X248213333Y-108374762D01*
X248308571Y-108422381D01*
X248499048Y-108422381D01*
X248594286Y-108374762D01*
X248641905Y-108327143D01*
X248689524Y-108231905D01*
X248689524Y-107422381D01*
X249594286Y-107755714D02*
X249594286Y-108422381D01*
X249356190Y-107374762D02*
X249118095Y-108089048D01*
X249737143Y-108089048D01*
X232648095Y-117852381D02*
X232648095Y-118661905D01*
X232695714Y-118757143D01*
X232743333Y-118804762D01*
X232838571Y-118852381D01*
X233029048Y-118852381D01*
X233124286Y-118804762D01*
X233171905Y-118757143D01*
X233219524Y-118661905D01*
X233219524Y-117852381D01*
X234171905Y-117852381D02*
X233695714Y-117852381D01*
X233648095Y-118328571D01*
X233695714Y-118280952D01*
X233790952Y-118233333D01*
X234029048Y-118233333D01*
X234124286Y-118280952D01*
X234171905Y-118328571D01*
X234219524Y-118423810D01*
X234219524Y-118661905D01*
X234171905Y-118757143D01*
X234124286Y-118804762D01*
X234029048Y-118852381D01*
X233790952Y-118852381D01*
X233695714Y-118804762D01*
X233648095Y-118757143D01*
X248328095Y-118062381D02*
X248328095Y-118871905D01*
X248375714Y-118967143D01*
X248423333Y-119014762D01*
X248518571Y-119062381D01*
X248709048Y-119062381D01*
X248804286Y-119014762D01*
X248851905Y-118967143D01*
X248899524Y-118871905D01*
X248899524Y-118062381D01*
X249804286Y-118062381D02*
X249613809Y-118062381D01*
X249518571Y-118110000D01*
X249470952Y-118157619D01*
X249375714Y-118300476D01*
X249328095Y-118490952D01*
X249328095Y-118871905D01*
X249375714Y-118967143D01*
X249423333Y-119014762D01*
X249518571Y-119062381D01*
X249709048Y-119062381D01*
X249804286Y-119014762D01*
X249851905Y-118967143D01*
X249899524Y-118871905D01*
X249899524Y-118633810D01*
X249851905Y-118538571D01*
X249804286Y-118490952D01*
X249709048Y-118443333D01*
X249518571Y-118443333D01*
X249423333Y-118490952D01*
X249375714Y-118538571D01*
X249328095Y-118633810D01*
D16*
X233123238Y-68276381D02*
X233026476Y-68228000D01*
X232929714Y-68131238D01*
X232784571Y-67986095D01*
X232687810Y-67937714D01*
X232591048Y-67937714D01*
X232639429Y-68179619D02*
X232542667Y-68131238D01*
X232445905Y-68034476D01*
X232397524Y-67840952D01*
X232397524Y-67502286D01*
X232445905Y-67308762D01*
X232542667Y-67212000D01*
X232639429Y-67163619D01*
X232832952Y-67163619D01*
X232929714Y-67212000D01*
X233026476Y-67308762D01*
X233074857Y-67502286D01*
X233074857Y-67840952D01*
X233026476Y-68034476D01*
X232929714Y-68131238D01*
X232832952Y-68179619D01*
X232639429Y-68179619D01*
X234042476Y-68179619D02*
X233461905Y-68179619D01*
X233752191Y-68179619D02*
X233752191Y-67163619D01*
X233655429Y-67308762D01*
X233558667Y-67405524D01*
X233461905Y-67453905D01*
X230728381Y-65893619D02*
X231308952Y-65893619D01*
X231018667Y-66909619D02*
X231018667Y-65893619D01*
X231647619Y-66909619D02*
X231647619Y-65893619D01*
X232131429Y-66909619D02*
X232131429Y-65893619D01*
X232518476Y-65893619D01*
X232615238Y-65942000D01*
X232663619Y-65990381D01*
X232712000Y-66087143D01*
X232712000Y-66232286D01*
X232663619Y-66329048D01*
X232615238Y-66377429D01*
X232518476Y-66425810D01*
X232131429Y-66425810D01*
X233679619Y-66909619D02*
X233099048Y-66909619D01*
X233389334Y-66909619D02*
X233389334Y-65893619D01*
X233292572Y-66038762D01*
X233195810Y-66135524D01*
X233099048Y-66183905D01*
X234066667Y-65990381D02*
X234115048Y-65942000D01*
X234211810Y-65893619D01*
X234453714Y-65893619D01*
X234550476Y-65942000D01*
X234598857Y-65990381D01*
X234647238Y-66087143D01*
X234647238Y-66183905D01*
X234598857Y-66329048D01*
X234018286Y-66909619D01*
X234647238Y-66909619D01*
X235276191Y-65893619D02*
X235372952Y-65893619D01*
X235469714Y-65942000D01*
X235518095Y-65990381D01*
X235566476Y-66087143D01*
X235614857Y-66280667D01*
X235614857Y-66522571D01*
X235566476Y-66716095D01*
X235518095Y-66812857D01*
X235469714Y-66861238D01*
X235372952Y-66909619D01*
X235276191Y-66909619D01*
X235179429Y-66861238D01*
X235131048Y-66812857D01*
X235082667Y-66716095D01*
X235034286Y-66522571D01*
X235034286Y-66280667D01*
X235082667Y-66087143D01*
X235131048Y-65990381D01*
X235179429Y-65942000D01*
X235276191Y-65893619D01*
X248593238Y-81816381D02*
X248496476Y-81768000D01*
X248399714Y-81671238D01*
X248254571Y-81526095D01*
X248157810Y-81477714D01*
X248061048Y-81477714D01*
X248109429Y-81719619D02*
X248012667Y-81671238D01*
X247915905Y-81574476D01*
X247867524Y-81380952D01*
X247867524Y-81042286D01*
X247915905Y-80848762D01*
X248012667Y-80752000D01*
X248109429Y-80703619D01*
X248302952Y-80703619D01*
X248399714Y-80752000D01*
X248496476Y-80848762D01*
X248544857Y-81042286D01*
X248544857Y-81380952D01*
X248496476Y-81574476D01*
X248399714Y-81671238D01*
X248302952Y-81719619D01*
X248109429Y-81719619D01*
X249415714Y-80703619D02*
X249222191Y-80703619D01*
X249125429Y-80752000D01*
X249077048Y-80800381D01*
X248980286Y-80945524D01*
X248931905Y-81139048D01*
X248931905Y-81526095D01*
X248980286Y-81622857D01*
X249028667Y-81671238D01*
X249125429Y-81719619D01*
X249318952Y-81719619D01*
X249415714Y-81671238D01*
X249464095Y-81622857D01*
X249512476Y-81526095D01*
X249512476Y-81284190D01*
X249464095Y-81187429D01*
X249415714Y-81139048D01*
X249318952Y-81090667D01*
X249125429Y-81090667D01*
X249028667Y-81139048D01*
X248980286Y-81187429D01*
X248931905Y-81284190D01*
X246198381Y-79433619D02*
X246778952Y-79433619D01*
X246488667Y-80449619D02*
X246488667Y-79433619D01*
X247117619Y-80449619D02*
X247117619Y-79433619D01*
X247601429Y-80449619D02*
X247601429Y-79433619D01*
X247988476Y-79433619D01*
X248085238Y-79482000D01*
X248133619Y-79530381D01*
X248182000Y-79627143D01*
X248182000Y-79772286D01*
X248133619Y-79869048D01*
X248085238Y-79917429D01*
X247988476Y-79965810D01*
X247601429Y-79965810D01*
X249149619Y-80449619D02*
X248569048Y-80449619D01*
X248859334Y-80449619D02*
X248859334Y-79433619D01*
X248762572Y-79578762D01*
X248665810Y-79675524D01*
X248569048Y-79723905D01*
X249536667Y-79530381D02*
X249585048Y-79482000D01*
X249681810Y-79433619D01*
X249923714Y-79433619D01*
X250020476Y-79482000D01*
X250068857Y-79530381D01*
X250117238Y-79627143D01*
X250117238Y-79723905D01*
X250068857Y-79869048D01*
X249488286Y-80449619D01*
X250117238Y-80449619D01*
X250746191Y-79433619D02*
X250842952Y-79433619D01*
X250939714Y-79482000D01*
X250988095Y-79530381D01*
X251036476Y-79627143D01*
X251084857Y-79820667D01*
X251084857Y-80062571D01*
X251036476Y-80256095D01*
X250988095Y-80352857D01*
X250939714Y-80401238D01*
X250842952Y-80449619D01*
X250746191Y-80449619D01*
X250649429Y-80401238D01*
X250601048Y-80352857D01*
X250552667Y-80256095D01*
X250504286Y-80062571D01*
X250504286Y-79820667D01*
X250552667Y-79627143D01*
X250601048Y-79530381D01*
X250649429Y-79482000D01*
X250746191Y-79433619D01*
X233303238Y-82096381D02*
X233206476Y-82048000D01*
X233109714Y-81951238D01*
X232964571Y-81806095D01*
X232867810Y-81757714D01*
X232771048Y-81757714D01*
X232819429Y-81999619D02*
X232722667Y-81951238D01*
X232625905Y-81854476D01*
X232577524Y-81660952D01*
X232577524Y-81322286D01*
X232625905Y-81128762D01*
X232722667Y-81032000D01*
X232819429Y-80983619D01*
X233012952Y-80983619D01*
X233109714Y-81032000D01*
X233206476Y-81128762D01*
X233254857Y-81322286D01*
X233254857Y-81660952D01*
X233206476Y-81854476D01*
X233109714Y-81951238D01*
X233012952Y-81999619D01*
X232819429Y-81999619D01*
X234174095Y-80983619D02*
X233690286Y-80983619D01*
X233641905Y-81467429D01*
X233690286Y-81419048D01*
X233787048Y-81370667D01*
X234028952Y-81370667D01*
X234125714Y-81419048D01*
X234174095Y-81467429D01*
X234222476Y-81564190D01*
X234222476Y-81806095D01*
X234174095Y-81902857D01*
X234125714Y-81951238D01*
X234028952Y-81999619D01*
X233787048Y-81999619D01*
X233690286Y-81951238D01*
X233641905Y-81902857D01*
X230908381Y-79713619D02*
X231488952Y-79713619D01*
X231198667Y-80729619D02*
X231198667Y-79713619D01*
X231827619Y-80729619D02*
X231827619Y-79713619D01*
X232311429Y-80729619D02*
X232311429Y-79713619D01*
X232698476Y-79713619D01*
X232795238Y-79762000D01*
X232843619Y-79810381D01*
X232892000Y-79907143D01*
X232892000Y-80052286D01*
X232843619Y-80149048D01*
X232795238Y-80197429D01*
X232698476Y-80245810D01*
X232311429Y-80245810D01*
X233859619Y-80729619D02*
X233279048Y-80729619D01*
X233569334Y-80729619D02*
X233569334Y-79713619D01*
X233472572Y-79858762D01*
X233375810Y-79955524D01*
X233279048Y-80003905D01*
X234246667Y-79810381D02*
X234295048Y-79762000D01*
X234391810Y-79713619D01*
X234633714Y-79713619D01*
X234730476Y-79762000D01*
X234778857Y-79810381D01*
X234827238Y-79907143D01*
X234827238Y-80003905D01*
X234778857Y-80149048D01*
X234198286Y-80729619D01*
X234827238Y-80729619D01*
X235456191Y-79713619D02*
X235552952Y-79713619D01*
X235649714Y-79762000D01*
X235698095Y-79810381D01*
X235746476Y-79907143D01*
X235794857Y-80100667D01*
X235794857Y-80342571D01*
X235746476Y-80536095D01*
X235698095Y-80632857D01*
X235649714Y-80681238D01*
X235552952Y-80729619D01*
X235456191Y-80729619D01*
X235359429Y-80681238D01*
X235311048Y-80632857D01*
X235262667Y-80536095D01*
X235214286Y-80342571D01*
X235214286Y-80100667D01*
X235262667Y-79907143D01*
X235311048Y-79810381D01*
X235359429Y-79762000D01*
X235456191Y-79713619D01*
X248493238Y-68606381D02*
X248396476Y-68558000D01*
X248299714Y-68461238D01*
X248154571Y-68316095D01*
X248057810Y-68267714D01*
X247961048Y-68267714D01*
X248009429Y-68509619D02*
X247912667Y-68461238D01*
X247815905Y-68364476D01*
X247767524Y-68170952D01*
X247767524Y-67832286D01*
X247815905Y-67638762D01*
X247912667Y-67542000D01*
X248009429Y-67493619D01*
X248202952Y-67493619D01*
X248299714Y-67542000D01*
X248396476Y-67638762D01*
X248444857Y-67832286D01*
X248444857Y-68170952D01*
X248396476Y-68364476D01*
X248299714Y-68461238D01*
X248202952Y-68509619D01*
X248009429Y-68509619D01*
X248831905Y-67590381D02*
X248880286Y-67542000D01*
X248977048Y-67493619D01*
X249218952Y-67493619D01*
X249315714Y-67542000D01*
X249364095Y-67590381D01*
X249412476Y-67687143D01*
X249412476Y-67783905D01*
X249364095Y-67929048D01*
X248783524Y-68509619D01*
X249412476Y-68509619D01*
X246098381Y-66223619D02*
X246678952Y-66223619D01*
X246388667Y-67239619D02*
X246388667Y-66223619D01*
X247017619Y-67239619D02*
X247017619Y-66223619D01*
X247501429Y-67239619D02*
X247501429Y-66223619D01*
X247888476Y-66223619D01*
X247985238Y-66272000D01*
X248033619Y-66320381D01*
X248082000Y-66417143D01*
X248082000Y-66562286D01*
X248033619Y-66659048D01*
X247985238Y-66707429D01*
X247888476Y-66755810D01*
X247501429Y-66755810D01*
X249049619Y-67239619D02*
X248469048Y-67239619D01*
X248759334Y-67239619D02*
X248759334Y-66223619D01*
X248662572Y-66368762D01*
X248565810Y-66465524D01*
X248469048Y-66513905D01*
X249436667Y-66320381D02*
X249485048Y-66272000D01*
X249581810Y-66223619D01*
X249823714Y-66223619D01*
X249920476Y-66272000D01*
X249968857Y-66320381D01*
X250017238Y-66417143D01*
X250017238Y-66513905D01*
X249968857Y-66659048D01*
X249388286Y-67239619D01*
X250017238Y-67239619D01*
X250646191Y-66223619D02*
X250742952Y-66223619D01*
X250839714Y-66272000D01*
X250888095Y-66320381D01*
X250936476Y-66417143D01*
X250984857Y-66610667D01*
X250984857Y-66852571D01*
X250936476Y-67046095D01*
X250888095Y-67142857D01*
X250839714Y-67191238D01*
X250742952Y-67239619D01*
X250646191Y-67239619D01*
X250549429Y-67191238D01*
X250501048Y-67142857D01*
X250452667Y-67046095D01*
X250404286Y-66852571D01*
X250404286Y-66610667D01*
X250452667Y-66417143D01*
X250501048Y-66320381D01*
X250549429Y-66272000D01*
X250646191Y-66223619D01*
X248533238Y-75686381D02*
X248436476Y-75638000D01*
X248339714Y-75541238D01*
X248194571Y-75396095D01*
X248097810Y-75347714D01*
X248001048Y-75347714D01*
X248049429Y-75589619D02*
X247952667Y-75541238D01*
X247855905Y-75444476D01*
X247807524Y-75250952D01*
X247807524Y-74912286D01*
X247855905Y-74718762D01*
X247952667Y-74622000D01*
X248049429Y-74573619D01*
X248242952Y-74573619D01*
X248339714Y-74622000D01*
X248436476Y-74718762D01*
X248484857Y-74912286D01*
X248484857Y-75250952D01*
X248436476Y-75444476D01*
X248339714Y-75541238D01*
X248242952Y-75589619D01*
X248049429Y-75589619D01*
X249355714Y-74912286D02*
X249355714Y-75589619D01*
X249113810Y-74525238D02*
X248871905Y-75250952D01*
X249500857Y-75250952D01*
X246138381Y-73303619D02*
X246718952Y-73303619D01*
X246428667Y-74319619D02*
X246428667Y-73303619D01*
X247057619Y-74319619D02*
X247057619Y-73303619D01*
X247541429Y-74319619D02*
X247541429Y-73303619D01*
X247928476Y-73303619D01*
X248025238Y-73352000D01*
X248073619Y-73400381D01*
X248122000Y-73497143D01*
X248122000Y-73642286D01*
X248073619Y-73739048D01*
X248025238Y-73787429D01*
X247928476Y-73835810D01*
X247541429Y-73835810D01*
X249089619Y-74319619D02*
X248509048Y-74319619D01*
X248799334Y-74319619D02*
X248799334Y-73303619D01*
X248702572Y-73448762D01*
X248605810Y-73545524D01*
X248509048Y-73593905D01*
X249476667Y-73400381D02*
X249525048Y-73352000D01*
X249621810Y-73303619D01*
X249863714Y-73303619D01*
X249960476Y-73352000D01*
X250008857Y-73400381D01*
X250057238Y-73497143D01*
X250057238Y-73593905D01*
X250008857Y-73739048D01*
X249428286Y-74319619D01*
X250057238Y-74319619D01*
X250686191Y-73303619D02*
X250782952Y-73303619D01*
X250879714Y-73352000D01*
X250928095Y-73400381D01*
X250976476Y-73497143D01*
X251024857Y-73690667D01*
X251024857Y-73932571D01*
X250976476Y-74126095D01*
X250928095Y-74222857D01*
X250879714Y-74271238D01*
X250782952Y-74319619D01*
X250686191Y-74319619D01*
X250589429Y-74271238D01*
X250541048Y-74222857D01*
X250492667Y-74126095D01*
X250444286Y-73932571D01*
X250444286Y-73690667D01*
X250492667Y-73497143D01*
X250541048Y-73400381D01*
X250589429Y-73352000D01*
X250686191Y-73303619D01*
X233293238Y-75356381D02*
X233196476Y-75308000D01*
X233099714Y-75211238D01*
X232954571Y-75066095D01*
X232857810Y-75017714D01*
X232761048Y-75017714D01*
X232809429Y-75259619D02*
X232712667Y-75211238D01*
X232615905Y-75114476D01*
X232567524Y-74920952D01*
X232567524Y-74582286D01*
X232615905Y-74388762D01*
X232712667Y-74292000D01*
X232809429Y-74243619D01*
X233002952Y-74243619D01*
X233099714Y-74292000D01*
X233196476Y-74388762D01*
X233244857Y-74582286D01*
X233244857Y-74920952D01*
X233196476Y-75114476D01*
X233099714Y-75211238D01*
X233002952Y-75259619D01*
X232809429Y-75259619D01*
X233583524Y-74243619D02*
X234212476Y-74243619D01*
X233873810Y-74630667D01*
X234018952Y-74630667D01*
X234115714Y-74679048D01*
X234164095Y-74727429D01*
X234212476Y-74824190D01*
X234212476Y-75066095D01*
X234164095Y-75162857D01*
X234115714Y-75211238D01*
X234018952Y-75259619D01*
X233728667Y-75259619D01*
X233631905Y-75211238D01*
X233583524Y-75162857D01*
X230898381Y-72973619D02*
X231478952Y-72973619D01*
X231188667Y-73989619D02*
X231188667Y-72973619D01*
X231817619Y-73989619D02*
X231817619Y-72973619D01*
X232301429Y-73989619D02*
X232301429Y-72973619D01*
X232688476Y-72973619D01*
X232785238Y-73022000D01*
X232833619Y-73070381D01*
X232882000Y-73167143D01*
X232882000Y-73312286D01*
X232833619Y-73409048D01*
X232785238Y-73457429D01*
X232688476Y-73505810D01*
X232301429Y-73505810D01*
X233849619Y-73989619D02*
X233269048Y-73989619D01*
X233559334Y-73989619D02*
X233559334Y-72973619D01*
X233462572Y-73118762D01*
X233365810Y-73215524D01*
X233269048Y-73263905D01*
X234236667Y-73070381D02*
X234285048Y-73022000D01*
X234381810Y-72973619D01*
X234623714Y-72973619D01*
X234720476Y-73022000D01*
X234768857Y-73070381D01*
X234817238Y-73167143D01*
X234817238Y-73263905D01*
X234768857Y-73409048D01*
X234188286Y-73989619D01*
X234817238Y-73989619D01*
X235446191Y-72973619D02*
X235542952Y-72973619D01*
X235639714Y-73022000D01*
X235688095Y-73070381D01*
X235736476Y-73167143D01*
X235784857Y-73360667D01*
X235784857Y-73602571D01*
X235736476Y-73796095D01*
X235688095Y-73892857D01*
X235639714Y-73941238D01*
X235542952Y-73989619D01*
X235446191Y-73989619D01*
X235349429Y-73941238D01*
X235301048Y-73892857D01*
X235252667Y-73796095D01*
X235204286Y-73602571D01*
X235204286Y-73360667D01*
X235252667Y-73167143D01*
X235301048Y-73070381D01*
X235349429Y-73022000D01*
X235446191Y-72973619D01*
X223625024Y-94242381D02*
X223558500Y-94181905D01*
X223491976Y-94060953D01*
X223491976Y-93758572D01*
X223558500Y-93637619D01*
X223625024Y-93577143D01*
X223758071Y-93516667D01*
X223891119Y-93516667D01*
X224090690Y-93577143D01*
X224888976Y-94302857D01*
X224888976Y-93516667D01*
X223625024Y-93032857D02*
X223558500Y-92972381D01*
X223491976Y-92851429D01*
X223491976Y-92549048D01*
X223558500Y-92428095D01*
X223625024Y-92367619D01*
X223758071Y-92307143D01*
X223891119Y-92307143D01*
X224090690Y-92367619D01*
X224888976Y-93093333D01*
X224888976Y-92307143D01*
X223491976Y-91520952D02*
X223491976Y-91400000D01*
X223558500Y-91279048D01*
X223625024Y-91218571D01*
X223758071Y-91158095D01*
X224024167Y-91097619D01*
X224356786Y-91097619D01*
X224622881Y-91158095D01*
X224755929Y-91218571D01*
X224822452Y-91279048D01*
X224888976Y-91400000D01*
X224888976Y-91520952D01*
X224822452Y-91641905D01*
X224755929Y-91702381D01*
X224622881Y-91762857D01*
X224356786Y-91823333D01*
X224024167Y-91823333D01*
X223758071Y-91762857D01*
X223625024Y-91702381D01*
X223558500Y-91641905D01*
X223491976Y-91520952D01*
X256371024Y-93432381D02*
X256304500Y-93371905D01*
X256237976Y-93250953D01*
X256237976Y-92948572D01*
X256304500Y-92827619D01*
X256371024Y-92767143D01*
X256504071Y-92706667D01*
X256637119Y-92706667D01*
X256836690Y-92767143D01*
X257634976Y-93492857D01*
X257634976Y-92706667D01*
X256371024Y-92222857D02*
X256304500Y-92162381D01*
X256237976Y-92041429D01*
X256237976Y-91739048D01*
X256304500Y-91618095D01*
X256371024Y-91557619D01*
X256504071Y-91497143D01*
X256637119Y-91497143D01*
X256836690Y-91557619D01*
X257634976Y-92283333D01*
X257634976Y-91497143D01*
X256237976Y-90710952D02*
X256237976Y-90590000D01*
X256304500Y-90469048D01*
X256371024Y-90408571D01*
X256504071Y-90348095D01*
X256770167Y-90287619D01*
X257102786Y-90287619D01*
X257368881Y-90348095D01*
X257501929Y-90408571D01*
X257568452Y-90469048D01*
X257634976Y-90590000D01*
X257634976Y-90710952D01*
X257568452Y-90831905D01*
X257501929Y-90892381D01*
X257368881Y-90952857D01*
X257102786Y-91013333D01*
X256770167Y-91013333D01*
X256504071Y-90952857D01*
X256371024Y-90892381D01*
X256304500Y-90831905D01*
X256237976Y-90710952D01*
X223555024Y-104772381D02*
X223488500Y-104711905D01*
X223421976Y-104590953D01*
X223421976Y-104288572D01*
X223488500Y-104167619D01*
X223555024Y-104107143D01*
X223688071Y-104046667D01*
X223821119Y-104046667D01*
X224020690Y-104107143D01*
X224818976Y-104832857D01*
X224818976Y-104046667D01*
X223555024Y-103562857D02*
X223488500Y-103502381D01*
X223421976Y-103381429D01*
X223421976Y-103079048D01*
X223488500Y-102958095D01*
X223555024Y-102897619D01*
X223688071Y-102837143D01*
X223821119Y-102837143D01*
X224020690Y-102897619D01*
X224818976Y-103623333D01*
X224818976Y-102837143D01*
X223421976Y-102050952D02*
X223421976Y-101930000D01*
X223488500Y-101809048D01*
X223555024Y-101748571D01*
X223688071Y-101688095D01*
X223954167Y-101627619D01*
X224286786Y-101627619D01*
X224552881Y-101688095D01*
X224685929Y-101748571D01*
X224752452Y-101809048D01*
X224818976Y-101930000D01*
X224818976Y-102050952D01*
X224752452Y-102171905D01*
X224685929Y-102232381D01*
X224552881Y-102292857D01*
X224286786Y-102353333D01*
X223954167Y-102353333D01*
X223688071Y-102292857D01*
X223555024Y-102232381D01*
X223488500Y-102171905D01*
X223421976Y-102050952D01*
X256451024Y-104712381D02*
X256384500Y-104651905D01*
X256317976Y-104530953D01*
X256317976Y-104228572D01*
X256384500Y-104107619D01*
X256451024Y-104047143D01*
X256584071Y-103986667D01*
X256717119Y-103986667D01*
X256916690Y-104047143D01*
X257714976Y-104772857D01*
X257714976Y-103986667D01*
X256451024Y-103502857D02*
X256384500Y-103442381D01*
X256317976Y-103321429D01*
X256317976Y-103019048D01*
X256384500Y-102898095D01*
X256451024Y-102837619D01*
X256584071Y-102777143D01*
X256717119Y-102777143D01*
X256916690Y-102837619D01*
X257714976Y-103563333D01*
X257714976Y-102777143D01*
X256317976Y-101990952D02*
X256317976Y-101870000D01*
X256384500Y-101749048D01*
X256451024Y-101688571D01*
X256584071Y-101628095D01*
X256850167Y-101567619D01*
X257182786Y-101567619D01*
X257448881Y-101628095D01*
X257581929Y-101688571D01*
X257648452Y-101749048D01*
X257714976Y-101870000D01*
X257714976Y-101990952D01*
X257648452Y-102111905D01*
X257581929Y-102172381D01*
X257448881Y-102232857D01*
X257182786Y-102293333D01*
X256850167Y-102293333D01*
X256584071Y-102232857D01*
X256451024Y-102172381D01*
X256384500Y-102111905D01*
X256317976Y-101990952D01*
X223585024Y-114882381D02*
X223518500Y-114821905D01*
X223451976Y-114700953D01*
X223451976Y-114398572D01*
X223518500Y-114277619D01*
X223585024Y-114217143D01*
X223718071Y-114156667D01*
X223851119Y-114156667D01*
X224050690Y-114217143D01*
X224848976Y-114942857D01*
X224848976Y-114156667D01*
X223585024Y-113672857D02*
X223518500Y-113612381D01*
X223451976Y-113491429D01*
X223451976Y-113189048D01*
X223518500Y-113068095D01*
X223585024Y-113007619D01*
X223718071Y-112947143D01*
X223851119Y-112947143D01*
X224050690Y-113007619D01*
X224848976Y-113733333D01*
X224848976Y-112947143D01*
X223451976Y-112160952D02*
X223451976Y-112040000D01*
X223518500Y-111919048D01*
X223585024Y-111858571D01*
X223718071Y-111798095D01*
X223984167Y-111737619D01*
X224316786Y-111737619D01*
X224582881Y-111798095D01*
X224715929Y-111858571D01*
X224782452Y-111919048D01*
X224848976Y-112040000D01*
X224848976Y-112160952D01*
X224782452Y-112281905D01*
X224715929Y-112342381D01*
X224582881Y-112402857D01*
X224316786Y-112463333D01*
X223984167Y-112463333D01*
X223718071Y-112402857D01*
X223585024Y-112342381D01*
X223518500Y-112281905D01*
X223451976Y-112160952D01*
X256481024Y-114972381D02*
X256414500Y-114911905D01*
X256347976Y-114790953D01*
X256347976Y-114488572D01*
X256414500Y-114367619D01*
X256481024Y-114307143D01*
X256614071Y-114246667D01*
X256747119Y-114246667D01*
X256946690Y-114307143D01*
X257744976Y-115032857D01*
X257744976Y-114246667D01*
X256481024Y-113762857D02*
X256414500Y-113702381D01*
X256347976Y-113581429D01*
X256347976Y-113279048D01*
X256414500Y-113158095D01*
X256481024Y-113097619D01*
X256614071Y-113037143D01*
X256747119Y-113037143D01*
X256946690Y-113097619D01*
X257744976Y-113823333D01*
X257744976Y-113037143D01*
X256347976Y-112250952D02*
X256347976Y-112130000D01*
X256414500Y-112009048D01*
X256481024Y-111948571D01*
X256614071Y-111888095D01*
X256880167Y-111827619D01*
X257212786Y-111827619D01*
X257478881Y-111888095D01*
X257611929Y-111948571D01*
X257678452Y-112009048D01*
X257744976Y-112130000D01*
X257744976Y-112250952D01*
X257678452Y-112371905D01*
X257611929Y-112432381D01*
X257478881Y-112492857D01*
X257212786Y-112553333D01*
X256880167Y-112553333D01*
X256614071Y-112492857D01*
X256481024Y-112432381D01*
X256414500Y-112371905D01*
X256347976Y-112250952D01*
M02*
