G04 #@! TF.FileFunction,Soldermask,Bot*
%FSLAX46Y46*%
G04 Gerber Fmt 4.6, Leading zero omitted, Abs format (unit mm)*
G04 Created by KiCad (PCBNEW 4.0.4-stable) date Fri Sep  1 12:38:30 2017*
%MOMM*%
%LPD*%
G01*
G04 APERTURE LIST*
%ADD10C,0.100000*%
%ADD11R,2.178000X2.178000*%
%ADD12C,2.178000*%
%ADD13R,9.290000X9.290000*%
%ADD14C,4.210000*%
%ADD15C,1.924000*%
%ADD16R,1.924000X1.924000*%
%ADD17R,1.797000X1.797000*%
%ADD18C,1.797000*%
%ADD19C,2.432000*%
%ADD20C,5.480000*%
G04 APERTURE END LIST*
D10*
D11*
X250322080Y-89471500D03*
D12*
X245242080Y-89471500D03*
X247782080Y-89471500D03*
D13*
X247782080Y-72961500D03*
D14*
X208805780Y-57919620D03*
X161815780Y-57919620D03*
D15*
X168800780Y-60459620D03*
X171594780Y-60459620D03*
X174261780Y-60459620D03*
X177055780Y-60459620D03*
X179849780Y-60459620D03*
X182643780Y-60459620D03*
X185310780Y-60459620D03*
X188104780Y-60459620D03*
X190898780Y-60459620D03*
X193692780Y-60459620D03*
X196359780Y-60459620D03*
X199153780Y-60459620D03*
D16*
X201947780Y-60459620D03*
D15*
X170375580Y-57919620D03*
X172915580Y-57919620D03*
X175709580Y-57919620D03*
X178452780Y-57919620D03*
X181195980Y-57919620D03*
X183989980Y-57919620D03*
X186733180Y-57919620D03*
X189476380Y-57919620D03*
X192321180Y-57919620D03*
X195013580Y-57919620D03*
X197756780Y-57919620D03*
X200550780Y-57919620D03*
D14*
X272381980Y-57945020D03*
X225391980Y-57945020D03*
D15*
X232376980Y-60485020D03*
X235170980Y-60485020D03*
X237837980Y-60485020D03*
X240631980Y-60485020D03*
X243425980Y-60485020D03*
X246219980Y-60485020D03*
X248886980Y-60485020D03*
X251680980Y-60485020D03*
X254474980Y-60485020D03*
X257268980Y-60485020D03*
X259935980Y-60485020D03*
X262729980Y-60485020D03*
D16*
X265523980Y-60485020D03*
D15*
X233951780Y-57945020D03*
X236491780Y-57945020D03*
X239285780Y-57945020D03*
X242028980Y-57945020D03*
X244772180Y-57945020D03*
X247566180Y-57945020D03*
X250309380Y-57945020D03*
X253052580Y-57945020D03*
X255897380Y-57945020D03*
X258589780Y-57945020D03*
X261332980Y-57945020D03*
X264126980Y-57945020D03*
D17*
X137750000Y-57060000D03*
D18*
X140290000Y-57060000D03*
X142830000Y-57060000D03*
D17*
X296951400Y-58059320D03*
D18*
X294411400Y-58059320D03*
X291871400Y-58059320D03*
D17*
X140640000Y-147920000D03*
D18*
X140640000Y-145380000D03*
X140640000Y-142840000D03*
D17*
X299150000Y-170640000D03*
D18*
X301690000Y-170640000D03*
X304230000Y-170640000D03*
D19*
X264949580Y-93441760D03*
X270029580Y-93441760D03*
X275109580Y-93441760D03*
X280189580Y-93441760D03*
X285269580Y-93441760D03*
X264640320Y-118163780D03*
X269720320Y-118163780D03*
X274800320Y-118163780D03*
X279880320Y-118163780D03*
X284960320Y-118163780D03*
X264104800Y-143671720D03*
X269184800Y-143671720D03*
X274264800Y-143671720D03*
X279344800Y-143671720D03*
X284424800Y-143671720D03*
X263728900Y-168838660D03*
X268808900Y-168838660D03*
X273888900Y-168838660D03*
X278968900Y-168838660D03*
X284048900Y-168838660D03*
X160489000Y-169102540D03*
X155409000Y-169102540D03*
X150329000Y-169102540D03*
X145249000Y-169102540D03*
X140169000Y-169102540D03*
X142187880Y-99792860D03*
X142187880Y-104872860D03*
X142187880Y-109952860D03*
X142187880Y-115032860D03*
X142187880Y-120112860D03*
X188848100Y-169089840D03*
X183768100Y-169089840D03*
X178688100Y-169089840D03*
X173608100Y-169089840D03*
X168528100Y-169089840D03*
X142297100Y-72327840D03*
X142297100Y-77407840D03*
X142297100Y-82487840D03*
X142297100Y-87567840D03*
X142297100Y-92647840D03*
X218171440Y-169033640D03*
X213091440Y-169033640D03*
X208011440Y-169033640D03*
X202931440Y-169033640D03*
X197851440Y-169033640D03*
X165228220Y-100183680D03*
X165228220Y-105263680D03*
X165228220Y-110343680D03*
X165228220Y-115423680D03*
X165228220Y-120503680D03*
X246672780Y-169018400D03*
X241592780Y-169018400D03*
X236512780Y-169018400D03*
X231432780Y-169018400D03*
X226352780Y-169018400D03*
X165228220Y-72617060D03*
X165228220Y-77697060D03*
X165228220Y-82777060D03*
X165228220Y-87857060D03*
X165228220Y-92937060D03*
X209053280Y-131058280D03*
X203973280Y-131058280D03*
X198893280Y-131058280D03*
X193813280Y-131058280D03*
X188733280Y-131058280D03*
X188825000Y-99925600D03*
X188825000Y-105005600D03*
X188825000Y-110085600D03*
X188825000Y-115165600D03*
X188825000Y-120245600D03*
X172351520Y-131101640D03*
X167271520Y-131101640D03*
X162191520Y-131101640D03*
X157111520Y-131101640D03*
X152031520Y-131101640D03*
X188825000Y-72437720D03*
X188825000Y-77517720D03*
X188825000Y-82597720D03*
X188825000Y-87677720D03*
X188825000Y-92757720D03*
X208098480Y-148898600D03*
X203018480Y-148898600D03*
X197938480Y-148898600D03*
X192858480Y-148898600D03*
X187778480Y-148898600D03*
X172573240Y-149052720D03*
X167493240Y-149052720D03*
X162413240Y-149052720D03*
X157333240Y-149052720D03*
X152253240Y-149052720D03*
X210690320Y-99948640D03*
X210690320Y-105028640D03*
X210690320Y-110108640D03*
X210690320Y-115188640D03*
X210690320Y-120268640D03*
X210647140Y-72282960D03*
X210647140Y-77362960D03*
X210647140Y-82442960D03*
X210647140Y-87522960D03*
X210647140Y-92602960D03*
X227744420Y-146258920D03*
X232824420Y-146258920D03*
X237904420Y-146258920D03*
X242984420Y-146258920D03*
X248064420Y-146258920D03*
X265199220Y-72088400D03*
X270279220Y-72088400D03*
X275359220Y-72088400D03*
X280439220Y-72088400D03*
X285519220Y-72088400D03*
X304370740Y-116718080D03*
X304370740Y-111638080D03*
X304370740Y-106558080D03*
X304370740Y-101478080D03*
X304370740Y-96398080D03*
X304114200Y-87457280D03*
X304114200Y-82377280D03*
X304114200Y-77297280D03*
X304114200Y-72217280D03*
X304114200Y-67137280D03*
X304555740Y-150495800D03*
X304555740Y-145415800D03*
X304555740Y-140335800D03*
X304555740Y-135255800D03*
X304555740Y-130175800D03*
D18*
X224426780Y-89578180D03*
X224426780Y-81958180D03*
X240197640Y-89385140D03*
X240197640Y-81765140D03*
X224439480Y-114180620D03*
X224439480Y-106560620D03*
X239963960Y-113903760D03*
X239963960Y-106283760D03*
X224170240Y-137962640D03*
X224170240Y-130342640D03*
X239793780Y-137662920D03*
X239793780Y-130042920D03*
D11*
X235033820Y-89618820D03*
D12*
X229953820Y-89618820D03*
X232493820Y-89618820D03*
D13*
X232493820Y-73108820D03*
D11*
X234833160Y-114259360D03*
D12*
X229753160Y-114259360D03*
X232293160Y-114259360D03*
D13*
X232293160Y-97749360D03*
D11*
X250022360Y-113919000D03*
D12*
X244942360Y-113919000D03*
X247482360Y-113919000D03*
D13*
X247482360Y-97409000D03*
D11*
X234665520Y-137985500D03*
D12*
X229585520Y-137985500D03*
X232125520Y-137985500D03*
D13*
X232125520Y-121475500D03*
D11*
X249887740Y-137744200D03*
D12*
X244807740Y-137744200D03*
X247347740Y-137744200D03*
D13*
X247347740Y-121234200D03*
D20*
X150779480Y-58028840D03*
X283916120Y-58595260D03*
X142380000Y-159870000D03*
X298640500Y-161216340D03*
M02*
